G04 #@! TF.GenerationSoftware,KiCad,Pcbnew,(6.0.0)*
G04 #@! TF.CreationDate,2022-04-16T23:03:44-07:00*
G04 #@! TF.ProjectId,YellCube,59656c6c-4375-4626-952e-6b696361645f,rev?*
G04 #@! TF.SameCoordinates,Original*
G04 #@! TF.FileFunction,Legend,Top*
G04 #@! TF.FilePolarity,Positive*
%FSLAX46Y46*%
G04 Gerber Fmt 4.6, Leading zero omitted, Abs format (unit mm)*
G04 Created by KiCad (PCBNEW (6.0.0)) date 2022-04-16 23:03:44*
%MOMM*%
%LPD*%
G01*
G04 APERTURE LIST*
%ADD10C,0.254000*%
%ADD11C,0.177800*%
%ADD12C,0.127000*%
%ADD13C,0.120000*%
%ADD14C,0.200000*%
%ADD15C,0.441000*%
%ADD16C,0.100000*%
G04 APERTURE END LIST*
D10*
X157607000Y-106807000D02*
X159385000Y-106807000D01*
X157607000Y-108077000D02*
X159385000Y-108077000D01*
X157607000Y-105537000D02*
X159385000Y-105537000D01*
D11*
X116180809Y-105954285D02*
X116664619Y-105954285D01*
X115648619Y-106292952D02*
X116180809Y-105954285D01*
X115648619Y-105615619D01*
X116616238Y-104889904D02*
X116664619Y-104986666D01*
X116664619Y-105180190D01*
X116616238Y-105276952D01*
X116519476Y-105325333D01*
X116132428Y-105325333D01*
X116035666Y-105276952D01*
X115987285Y-105180190D01*
X115987285Y-104986666D01*
X116035666Y-104889904D01*
X116132428Y-104841523D01*
X116229190Y-104841523D01*
X116325952Y-105325333D01*
X116664619Y-104260952D02*
X116616238Y-104357714D01*
X116519476Y-104406095D01*
X115648619Y-104406095D01*
X116664619Y-103728761D02*
X116616238Y-103825523D01*
X116519476Y-103873904D01*
X115648619Y-103873904D01*
X116567857Y-102761142D02*
X116616238Y-102809523D01*
X116664619Y-102954666D01*
X116664619Y-103051428D01*
X116616238Y-103196571D01*
X116519476Y-103293333D01*
X116422714Y-103341714D01*
X116229190Y-103390095D01*
X116084047Y-103390095D01*
X115890523Y-103341714D01*
X115793761Y-103293333D01*
X115697000Y-103196571D01*
X115648619Y-103051428D01*
X115648619Y-102954666D01*
X115697000Y-102809523D01*
X115745380Y-102761142D01*
X115987285Y-101890285D02*
X116664619Y-101890285D01*
X115987285Y-102325714D02*
X116519476Y-102325714D01*
X116616238Y-102277333D01*
X116664619Y-102180571D01*
X116664619Y-102035428D01*
X116616238Y-101938666D01*
X116567857Y-101890285D01*
X116664619Y-101406476D02*
X115648619Y-101406476D01*
X116035666Y-101406476D02*
X115987285Y-101309714D01*
X115987285Y-101116190D01*
X116035666Y-101019428D01*
X116084047Y-100971047D01*
X116180809Y-100922666D01*
X116471095Y-100922666D01*
X116567857Y-100971047D01*
X116616238Y-101019428D01*
X116664619Y-101116190D01*
X116664619Y-101309714D01*
X116616238Y-101406476D01*
X116616238Y-100100190D02*
X116664619Y-100196952D01*
X116664619Y-100390476D01*
X116616238Y-100487238D01*
X116519476Y-100535619D01*
X116132428Y-100535619D01*
X116035666Y-100487238D01*
X115987285Y-100390476D01*
X115987285Y-100196952D01*
X116035666Y-100100190D01*
X116132428Y-100051809D01*
X116229190Y-100051809D01*
X116325952Y-100535619D01*
X118188619Y-105597476D02*
X117704809Y-105936142D01*
X118188619Y-106178047D02*
X117172619Y-106178047D01*
X117172619Y-105791000D01*
X117221000Y-105694238D01*
X117269380Y-105645857D01*
X117366142Y-105597476D01*
X117511285Y-105597476D01*
X117608047Y-105645857D01*
X117656428Y-105694238D01*
X117704809Y-105791000D01*
X117704809Y-106178047D01*
X118140238Y-104775000D02*
X118188619Y-104871761D01*
X118188619Y-105065285D01*
X118140238Y-105162047D01*
X118043476Y-105210428D01*
X117656428Y-105210428D01*
X117559666Y-105162047D01*
X117511285Y-105065285D01*
X117511285Y-104871761D01*
X117559666Y-104775000D01*
X117656428Y-104726619D01*
X117753190Y-104726619D01*
X117849952Y-105210428D01*
X117511285Y-104387952D02*
X118188619Y-104146047D01*
X117511285Y-103904142D01*
X117898333Y-102791380D02*
X117898333Y-102307571D01*
X118188619Y-102888142D02*
X117172619Y-102549476D01*
X118188619Y-102210809D01*
D12*
X158012190Y-108394500D02*
X157951714Y-108364261D01*
X157861000Y-108364261D01*
X157770285Y-108394500D01*
X157709809Y-108454976D01*
X157679571Y-108515452D01*
X157649333Y-108636404D01*
X157649333Y-108727119D01*
X157679571Y-108848071D01*
X157709809Y-108908547D01*
X157770285Y-108969023D01*
X157861000Y-108999261D01*
X157921476Y-108999261D01*
X158012190Y-108969023D01*
X158042428Y-108938785D01*
X158042428Y-108727119D01*
X157921476Y-108727119D01*
X158314571Y-108999261D02*
X158314571Y-108364261D01*
X158677428Y-108999261D01*
X158677428Y-108364261D01*
X158979809Y-108999261D02*
X158979809Y-108364261D01*
X159131000Y-108364261D01*
X159221714Y-108394500D01*
X159282190Y-108454976D01*
X159312428Y-108515452D01*
X159342666Y-108636404D01*
X159342666Y-108727119D01*
X159312428Y-108848071D01*
X159282190Y-108908547D01*
X159221714Y-108969023D01*
X159131000Y-108999261D01*
X158979809Y-108999261D01*
X157543500Y-106459261D02*
X157543500Y-105824261D01*
X157694690Y-105824261D01*
X157785404Y-105854500D01*
X157845880Y-105914976D01*
X157876119Y-105975452D01*
X157906357Y-106096404D01*
X157906357Y-106187119D01*
X157876119Y-106308071D01*
X157845880Y-106368547D01*
X157785404Y-106429023D01*
X157694690Y-106459261D01*
X157543500Y-106459261D01*
X158148261Y-106277833D02*
X158450642Y-106277833D01*
X158087785Y-106459261D02*
X158299452Y-105824261D01*
X158511119Y-106459261D01*
X158632071Y-105824261D02*
X158994928Y-105824261D01*
X158813500Y-106459261D02*
X158813500Y-105824261D01*
X159176357Y-106277833D02*
X159478738Y-106277833D01*
X159115880Y-106459261D02*
X159327547Y-105824261D01*
X159539214Y-106459261D01*
X158118023Y-107668785D02*
X158087785Y-107699023D01*
X157997071Y-107729261D01*
X157936595Y-107729261D01*
X157845880Y-107699023D01*
X157785404Y-107638547D01*
X157755166Y-107578071D01*
X157724928Y-107457119D01*
X157724928Y-107366404D01*
X157755166Y-107245452D01*
X157785404Y-107184976D01*
X157845880Y-107124500D01*
X157936595Y-107094261D01*
X157997071Y-107094261D01*
X158087785Y-107124500D01*
X158118023Y-107154738D01*
X158692547Y-107729261D02*
X158390166Y-107729261D01*
X158390166Y-107094261D01*
X158904214Y-107729261D02*
X158904214Y-107094261D01*
X159267071Y-107729261D02*
X158994928Y-107366404D01*
X159267071Y-107094261D02*
X158904214Y-107457119D01*
X157649333Y-104554261D02*
X157861000Y-105189261D01*
X158072666Y-104554261D01*
X158284333Y-105189261D02*
X158284333Y-104554261D01*
X158435523Y-104554261D01*
X158526238Y-104584500D01*
X158586714Y-104644976D01*
X158616952Y-104705452D01*
X158647190Y-104826404D01*
X158647190Y-104917119D01*
X158616952Y-105038071D01*
X158586714Y-105098547D01*
X158526238Y-105159023D01*
X158435523Y-105189261D01*
X158284333Y-105189261D01*
X158919333Y-105189261D02*
X158919333Y-104554261D01*
X159070523Y-104554261D01*
X159161238Y-104584500D01*
X159221714Y-104644976D01*
X159251952Y-104705452D01*
X159282190Y-104826404D01*
X159282190Y-104917119D01*
X159251952Y-105038071D01*
X159221714Y-105098547D01*
X159161238Y-105159023D01*
X159070523Y-105189261D01*
X158919333Y-105189261D01*
X146337261Y-98579214D02*
X146034880Y-98790880D01*
X146337261Y-98942071D02*
X145702261Y-98942071D01*
X145702261Y-98700166D01*
X145732500Y-98639690D01*
X145762738Y-98609452D01*
X145823214Y-98579214D01*
X145913928Y-98579214D01*
X145974404Y-98609452D01*
X146004642Y-98639690D01*
X146034880Y-98700166D01*
X146034880Y-98942071D01*
X146337261Y-97974452D02*
X146337261Y-98337309D01*
X146337261Y-98155880D02*
X145702261Y-98155880D01*
X145792976Y-98216357D01*
X145853452Y-98276833D01*
X145883690Y-98337309D01*
X145702261Y-97581357D02*
X145702261Y-97520880D01*
X145732500Y-97460404D01*
X145762738Y-97430166D01*
X145823214Y-97399928D01*
X145944166Y-97369690D01*
X146095357Y-97369690D01*
X146216309Y-97399928D01*
X146276785Y-97430166D01*
X146307023Y-97460404D01*
X146337261Y-97520880D01*
X146337261Y-97581357D01*
X146307023Y-97641833D01*
X146276785Y-97672071D01*
X146216309Y-97702309D01*
X146095357Y-97732547D01*
X145944166Y-97732547D01*
X145823214Y-97702309D01*
X145762738Y-97672071D01*
X145732500Y-97641833D01*
X145702261Y-97581357D01*
X153261785Y-96807261D02*
X153050119Y-96504880D01*
X152898928Y-96807261D02*
X152898928Y-96172261D01*
X153140833Y-96172261D01*
X153201309Y-96202500D01*
X153231547Y-96232738D01*
X153261785Y-96293214D01*
X153261785Y-96383928D01*
X153231547Y-96444404D01*
X153201309Y-96474642D01*
X153140833Y-96504880D01*
X152898928Y-96504880D01*
X153866547Y-96807261D02*
X153503690Y-96807261D01*
X153685119Y-96807261D02*
X153685119Y-96172261D01*
X153624642Y-96262976D01*
X153564166Y-96323452D01*
X153503690Y-96353690D01*
X154078214Y-96172261D02*
X154471309Y-96172261D01*
X154259642Y-96414166D01*
X154350357Y-96414166D01*
X154410833Y-96444404D01*
X154441071Y-96474642D01*
X154471309Y-96535119D01*
X154471309Y-96686309D01*
X154441071Y-96746785D01*
X154410833Y-96777023D01*
X154350357Y-96807261D01*
X154168928Y-96807261D01*
X154108452Y-96777023D01*
X154078214Y-96746785D01*
X145133785Y-108176785D02*
X145103547Y-108207023D01*
X145012833Y-108237261D01*
X144952357Y-108237261D01*
X144861642Y-108207023D01*
X144801166Y-108146547D01*
X144770928Y-108086071D01*
X144740690Y-107965119D01*
X144740690Y-107874404D01*
X144770928Y-107753452D01*
X144801166Y-107692976D01*
X144861642Y-107632500D01*
X144952357Y-107602261D01*
X145012833Y-107602261D01*
X145103547Y-107632500D01*
X145133785Y-107662738D01*
X145345452Y-107602261D02*
X145738547Y-107602261D01*
X145526880Y-107844166D01*
X145617595Y-107844166D01*
X145678071Y-107874404D01*
X145708309Y-107904642D01*
X145738547Y-107965119D01*
X145738547Y-108116309D01*
X145708309Y-108176785D01*
X145678071Y-108207023D01*
X145617595Y-108237261D01*
X145436166Y-108237261D01*
X145375690Y-108207023D01*
X145345452Y-108176785D01*
X146282833Y-107813928D02*
X146282833Y-108237261D01*
X146131642Y-107572023D02*
X145980452Y-108025595D01*
X146373547Y-108025595D01*
X137501690Y-108694261D02*
X137864547Y-108694261D01*
X137683119Y-109329261D02*
X137683119Y-108694261D01*
X138076214Y-109329261D02*
X138076214Y-108694261D01*
X138318119Y-108694261D01*
X138378595Y-108724500D01*
X138408833Y-108754738D01*
X138439071Y-108815214D01*
X138439071Y-108905928D01*
X138408833Y-108966404D01*
X138378595Y-108996642D01*
X138318119Y-109026880D01*
X138076214Y-109026880D01*
X138983357Y-108694261D02*
X138862404Y-108694261D01*
X138801928Y-108724500D01*
X138771690Y-108754738D01*
X138711214Y-108845452D01*
X138680976Y-108966404D01*
X138680976Y-109208309D01*
X138711214Y-109268785D01*
X138741452Y-109299023D01*
X138801928Y-109329261D01*
X138922880Y-109329261D01*
X138983357Y-109299023D01*
X139013595Y-109268785D01*
X139043833Y-109208309D01*
X139043833Y-109057119D01*
X139013595Y-108996642D01*
X138983357Y-108966404D01*
X138922880Y-108936166D01*
X138801928Y-108936166D01*
X138741452Y-108966404D01*
X138711214Y-108996642D01*
X138680976Y-109057119D01*
X137138833Y-111692261D02*
X137350500Y-112327261D01*
X137562166Y-111692261D01*
X137773833Y-111692261D02*
X137773833Y-112206309D01*
X137804071Y-112266785D01*
X137834309Y-112297023D01*
X137894785Y-112327261D01*
X138015738Y-112327261D01*
X138076214Y-112297023D01*
X138106452Y-112266785D01*
X138136690Y-112206309D01*
X138136690Y-111692261D01*
X138408833Y-112297023D02*
X138499547Y-112327261D01*
X138650738Y-112327261D01*
X138711214Y-112297023D01*
X138741452Y-112266785D01*
X138771690Y-112206309D01*
X138771690Y-112145833D01*
X138741452Y-112085357D01*
X138711214Y-112055119D01*
X138650738Y-112024880D01*
X138529785Y-111994642D01*
X138469309Y-111964404D01*
X138439071Y-111934166D01*
X138408833Y-111873690D01*
X138408833Y-111813214D01*
X138439071Y-111752738D01*
X138469309Y-111722500D01*
X138529785Y-111692261D01*
X138680976Y-111692261D01*
X138771690Y-111722500D01*
X139255500Y-111994642D02*
X139346214Y-112024880D01*
X139376452Y-112055119D01*
X139406690Y-112115595D01*
X139406690Y-112206309D01*
X139376452Y-112266785D01*
X139346214Y-112297023D01*
X139285738Y-112327261D01*
X139043833Y-112327261D01*
X139043833Y-111692261D01*
X139255500Y-111692261D01*
X139315976Y-111722500D01*
X139346214Y-111752738D01*
X139376452Y-111813214D01*
X139376452Y-111873690D01*
X139346214Y-111934166D01*
X139315976Y-111964404D01*
X139255500Y-111994642D01*
X139043833Y-111994642D01*
X130898260Y-116141690D02*
X130263260Y-116141690D01*
X130263260Y-115990500D01*
X130293499Y-115899785D01*
X130353975Y-115839309D01*
X130414451Y-115809071D01*
X130535403Y-115778833D01*
X130626118Y-115778833D01*
X130747070Y-115809071D01*
X130807546Y-115839309D01*
X130868022Y-115899785D01*
X130898260Y-115990500D01*
X130898260Y-116141690D01*
X130323737Y-115536928D02*
X130293499Y-115506690D01*
X130263260Y-115446214D01*
X130263260Y-115295023D01*
X130293499Y-115234547D01*
X130323737Y-115204309D01*
X130384213Y-115174071D01*
X130444689Y-115174071D01*
X130535403Y-115204309D01*
X130898260Y-115567166D01*
X130898260Y-115174071D01*
X123465166Y-103604785D02*
X123434928Y-103635023D01*
X123344214Y-103665261D01*
X123283738Y-103665261D01*
X123193023Y-103635023D01*
X123132547Y-103574547D01*
X123102309Y-103514071D01*
X123072071Y-103393119D01*
X123072071Y-103302404D01*
X123102309Y-103181452D01*
X123132547Y-103120976D01*
X123193023Y-103060500D01*
X123283738Y-103030261D01*
X123344214Y-103030261D01*
X123434928Y-103060500D01*
X123465166Y-103090738D01*
X123767547Y-103665261D02*
X123888500Y-103665261D01*
X123948976Y-103635023D01*
X123979214Y-103604785D01*
X124039690Y-103514071D01*
X124069928Y-103393119D01*
X124069928Y-103151214D01*
X124039690Y-103090738D01*
X124009452Y-103060500D01*
X123948976Y-103030261D01*
X123828023Y-103030261D01*
X123767547Y-103060500D01*
X123737309Y-103090738D01*
X123707071Y-103151214D01*
X123707071Y-103302404D01*
X123737309Y-103362880D01*
X123767547Y-103393119D01*
X123828023Y-103423357D01*
X123948976Y-103423357D01*
X124009452Y-103393119D01*
X124039690Y-103362880D01*
X124069928Y-103302404D01*
X123465166Y-97761785D02*
X123434928Y-97792023D01*
X123344214Y-97822261D01*
X123283738Y-97822261D01*
X123193023Y-97792023D01*
X123132547Y-97731547D01*
X123102309Y-97671071D01*
X123072071Y-97550119D01*
X123072071Y-97459404D01*
X123102309Y-97338452D01*
X123132547Y-97277976D01*
X123193023Y-97217500D01*
X123283738Y-97187261D01*
X123344214Y-97187261D01*
X123434928Y-97217500D01*
X123465166Y-97247738D01*
X123676833Y-97187261D02*
X124069928Y-97187261D01*
X123858261Y-97429166D01*
X123948976Y-97429166D01*
X124009452Y-97459404D01*
X124039690Y-97489642D01*
X124069928Y-97550119D01*
X124069928Y-97701309D01*
X124039690Y-97761785D01*
X124009452Y-97792023D01*
X123948976Y-97822261D01*
X123767547Y-97822261D01*
X123707071Y-97792023D01*
X123676833Y-97761785D01*
X130770690Y-106840261D02*
X131133547Y-106840261D01*
X130952119Y-107475261D02*
X130952119Y-106840261D01*
X131345214Y-107475261D02*
X131345214Y-106840261D01*
X131587119Y-106840261D01*
X131647595Y-106870500D01*
X131677833Y-106900738D01*
X131708071Y-106961214D01*
X131708071Y-107051928D01*
X131677833Y-107112404D01*
X131647595Y-107142642D01*
X131587119Y-107172880D01*
X131345214Y-107172880D01*
X131949976Y-106900738D02*
X131980214Y-106870500D01*
X132040690Y-106840261D01*
X132191880Y-106840261D01*
X132252357Y-106870500D01*
X132282595Y-106900738D01*
X132312833Y-106961214D01*
X132312833Y-107021690D01*
X132282595Y-107112404D01*
X131919738Y-107475261D01*
X132312833Y-107475261D01*
X131091214Y-108158642D02*
X131181928Y-108188880D01*
X131212166Y-108219119D01*
X131242404Y-108279595D01*
X131242404Y-108370309D01*
X131212166Y-108430785D01*
X131181928Y-108461023D01*
X131121452Y-108491261D01*
X130879547Y-108491261D01*
X130879547Y-107856261D01*
X131091214Y-107856261D01*
X131151690Y-107886500D01*
X131181928Y-107916738D01*
X131212166Y-107977214D01*
X131212166Y-108037690D01*
X131181928Y-108098166D01*
X131151690Y-108128404D01*
X131091214Y-108158642D01*
X130879547Y-108158642D01*
X131635500Y-107856261D02*
X131756452Y-107856261D01*
X131816928Y-107886500D01*
X131877404Y-107946976D01*
X131907642Y-108067928D01*
X131907642Y-108279595D01*
X131877404Y-108400547D01*
X131816928Y-108461023D01*
X131756452Y-108491261D01*
X131635500Y-108491261D01*
X131575023Y-108461023D01*
X131514547Y-108400547D01*
X131484309Y-108279595D01*
X131484309Y-108067928D01*
X131514547Y-107946976D01*
X131575023Y-107886500D01*
X131635500Y-107856261D01*
X132300738Y-107856261D02*
X132421690Y-107856261D01*
X132482166Y-107886500D01*
X132542642Y-107946976D01*
X132572880Y-108067928D01*
X132572880Y-108279595D01*
X132542642Y-108400547D01*
X132482166Y-108461023D01*
X132421690Y-108491261D01*
X132300738Y-108491261D01*
X132240261Y-108461023D01*
X132179785Y-108400547D01*
X132149547Y-108279595D01*
X132149547Y-108067928D01*
X132179785Y-107946976D01*
X132240261Y-107886500D01*
X132300738Y-107856261D01*
X132754309Y-107856261D02*
X133117166Y-107856261D01*
X132935738Y-108491261D02*
X132935738Y-107856261D01*
X152691785Y-100087261D02*
X152480119Y-99784880D01*
X152328928Y-100087261D02*
X152328928Y-99452261D01*
X152570833Y-99452261D01*
X152631309Y-99482500D01*
X152661547Y-99512738D01*
X152691785Y-99573214D01*
X152691785Y-99663928D01*
X152661547Y-99724404D01*
X152631309Y-99754642D01*
X152570833Y-99784880D01*
X152328928Y-99784880D01*
X153296547Y-100087261D02*
X152933690Y-100087261D01*
X153115119Y-100087261D02*
X153115119Y-99452261D01*
X153054642Y-99542976D01*
X152994166Y-99603452D01*
X152933690Y-99633690D01*
X153840833Y-99452261D02*
X153719880Y-99452261D01*
X153659404Y-99482500D01*
X153629166Y-99512738D01*
X153568690Y-99603452D01*
X153538452Y-99724404D01*
X153538452Y-99966309D01*
X153568690Y-100026785D01*
X153598928Y-100057023D01*
X153659404Y-100087261D01*
X153780357Y-100087261D01*
X153840833Y-100057023D01*
X153871071Y-100026785D01*
X153901309Y-99966309D01*
X153901309Y-99815119D01*
X153871071Y-99754642D01*
X153840833Y-99724404D01*
X153780357Y-99694166D01*
X153659404Y-99694166D01*
X153598928Y-99724404D01*
X153568690Y-99754642D01*
X153538452Y-99815119D01*
X147927785Y-88819378D02*
X147958023Y-88849616D01*
X147988261Y-88940330D01*
X147988261Y-89000806D01*
X147958023Y-89091521D01*
X147897547Y-89151997D01*
X147837071Y-89182235D01*
X147716119Y-89212473D01*
X147625404Y-89212473D01*
X147504452Y-89182235D01*
X147443976Y-89151997D01*
X147383500Y-89091521D01*
X147353261Y-89000806D01*
X147353261Y-88940330D01*
X147383500Y-88849616D01*
X147413738Y-88819378D01*
X147413738Y-88577473D02*
X147383500Y-88547235D01*
X147353261Y-88486759D01*
X147353261Y-88335568D01*
X147383500Y-88275092D01*
X147413738Y-88244854D01*
X147474214Y-88214616D01*
X147534690Y-88214616D01*
X147625404Y-88244854D01*
X147988261Y-88607711D01*
X147988261Y-88214616D01*
X147353261Y-87640092D02*
X147353261Y-87942473D01*
X147655642Y-87972711D01*
X147625404Y-87942473D01*
X147595166Y-87881997D01*
X147595166Y-87730806D01*
X147625404Y-87670330D01*
X147655642Y-87640092D01*
X147716119Y-87609854D01*
X147867309Y-87609854D01*
X147927785Y-87640092D01*
X147958023Y-87670330D01*
X147988261Y-87730806D01*
X147988261Y-87881997D01*
X147958023Y-87942473D01*
X147927785Y-87972711D01*
X146911785Y-110644214D02*
X146942023Y-110674452D01*
X146972261Y-110765166D01*
X146972261Y-110825642D01*
X146942023Y-110916357D01*
X146881547Y-110976833D01*
X146821071Y-111007071D01*
X146700119Y-111037309D01*
X146609404Y-111037309D01*
X146488452Y-111007071D01*
X146427976Y-110976833D01*
X146367500Y-110916357D01*
X146337261Y-110825642D01*
X146337261Y-110765166D01*
X146367500Y-110674452D01*
X146397738Y-110644214D01*
X146972261Y-110039452D02*
X146972261Y-110402309D01*
X146972261Y-110220880D02*
X146337261Y-110220880D01*
X146427976Y-110281357D01*
X146488452Y-110341833D01*
X146518690Y-110402309D01*
X146548928Y-109495166D02*
X146972261Y-109495166D01*
X146307023Y-109646357D02*
X146760595Y-109797547D01*
X146760595Y-109404452D01*
X134887261Y-102208214D02*
X134584880Y-102419880D01*
X134887261Y-102571071D02*
X134252261Y-102571071D01*
X134252261Y-102329166D01*
X134282500Y-102268690D01*
X134312738Y-102238452D01*
X134373214Y-102208214D01*
X134463928Y-102208214D01*
X134524404Y-102238452D01*
X134554642Y-102268690D01*
X134584880Y-102329166D01*
X134584880Y-102571071D01*
X134312738Y-101966309D02*
X134282500Y-101936071D01*
X134252261Y-101875595D01*
X134252261Y-101724404D01*
X134282500Y-101663928D01*
X134312738Y-101633690D01*
X134373214Y-101603452D01*
X134433690Y-101603452D01*
X134524404Y-101633690D01*
X134887261Y-101996547D01*
X134887261Y-101603452D01*
X134252261Y-101391785D02*
X134252261Y-100998690D01*
X134494166Y-101210357D01*
X134494166Y-101119642D01*
X134524404Y-101059166D01*
X134554642Y-101028928D01*
X134615119Y-100998690D01*
X134766309Y-100998690D01*
X134826785Y-101028928D01*
X134857023Y-101059166D01*
X134887261Y-101119642D01*
X134887261Y-101301071D01*
X134857023Y-101361547D01*
X134826785Y-101391785D01*
X127853785Y-116208214D02*
X127884023Y-116238452D01*
X127914261Y-116329166D01*
X127914261Y-116389642D01*
X127884023Y-116480357D01*
X127823547Y-116540833D01*
X127763071Y-116571071D01*
X127642119Y-116601309D01*
X127551404Y-116601309D01*
X127430452Y-116571071D01*
X127369976Y-116540833D01*
X127309500Y-116480357D01*
X127279261Y-116389642D01*
X127279261Y-116329166D01*
X127309500Y-116238452D01*
X127339738Y-116208214D01*
X127279261Y-115996547D02*
X127279261Y-115603452D01*
X127521166Y-115815119D01*
X127521166Y-115724404D01*
X127551404Y-115663928D01*
X127581642Y-115633690D01*
X127642119Y-115603452D01*
X127793309Y-115603452D01*
X127853785Y-115633690D01*
X127884023Y-115663928D01*
X127914261Y-115724404D01*
X127914261Y-115905833D01*
X127884023Y-115966309D01*
X127853785Y-115996547D01*
X127551404Y-115240595D02*
X127521166Y-115301071D01*
X127490928Y-115331309D01*
X127430452Y-115361547D01*
X127400214Y-115361547D01*
X127339738Y-115331309D01*
X127309500Y-115301071D01*
X127279261Y-115240595D01*
X127279261Y-115119642D01*
X127309500Y-115059166D01*
X127339738Y-115028928D01*
X127400214Y-114998690D01*
X127430452Y-114998690D01*
X127490928Y-115028928D01*
X127521166Y-115059166D01*
X127551404Y-115119642D01*
X127551404Y-115240595D01*
X127581642Y-115301071D01*
X127611880Y-115331309D01*
X127672357Y-115361547D01*
X127793309Y-115361547D01*
X127853785Y-115331309D01*
X127884023Y-115301071D01*
X127914261Y-115240595D01*
X127914261Y-115119642D01*
X127884023Y-115059166D01*
X127853785Y-115028928D01*
X127793309Y-114998690D01*
X127672357Y-114998690D01*
X127611880Y-115028928D01*
X127581642Y-115059166D01*
X127551404Y-115119642D01*
X150947738Y-101760476D02*
X150917500Y-101820952D01*
X150857023Y-101881428D01*
X150766309Y-101972142D01*
X150736071Y-102032619D01*
X150736071Y-102093095D01*
X150887261Y-102062857D02*
X150857023Y-102123333D01*
X150796547Y-102183809D01*
X150675595Y-102214047D01*
X150463928Y-102214047D01*
X150342976Y-102183809D01*
X150282500Y-102123333D01*
X150252261Y-102062857D01*
X150252261Y-101941904D01*
X150282500Y-101881428D01*
X150342976Y-101820952D01*
X150463928Y-101790714D01*
X150675595Y-101790714D01*
X150796547Y-101820952D01*
X150857023Y-101881428D01*
X150887261Y-101941904D01*
X150887261Y-102062857D01*
X150463928Y-101246428D02*
X150887261Y-101246428D01*
X150222023Y-101397619D02*
X150675595Y-101548809D01*
X150675595Y-101155714D01*
X122470166Y-93225261D02*
X122258500Y-92922880D01*
X122107309Y-93225261D02*
X122107309Y-92590261D01*
X122349214Y-92590261D01*
X122409690Y-92620500D01*
X122439928Y-92650738D01*
X122470166Y-92711214D01*
X122470166Y-92801928D01*
X122439928Y-92862404D01*
X122409690Y-92892642D01*
X122349214Y-92922880D01*
X122107309Y-92922880D01*
X123044690Y-92590261D02*
X122742309Y-92590261D01*
X122712071Y-92892642D01*
X122742309Y-92862404D01*
X122802785Y-92832166D01*
X122953976Y-92832166D01*
X123014452Y-92862404D01*
X123044690Y-92892642D01*
X123074928Y-92953119D01*
X123074928Y-93104309D01*
X123044690Y-93164785D01*
X123014452Y-93195023D01*
X122953976Y-93225261D01*
X122802785Y-93225261D01*
X122742309Y-93195023D01*
X122712071Y-93164785D01*
X135756785Y-96372833D02*
X135787023Y-96403071D01*
X135817261Y-96493785D01*
X135817261Y-96554261D01*
X135787023Y-96644976D01*
X135726547Y-96705452D01*
X135666071Y-96735690D01*
X135545119Y-96765928D01*
X135454404Y-96765928D01*
X135333452Y-96735690D01*
X135272976Y-96705452D01*
X135212500Y-96644976D01*
X135182261Y-96554261D01*
X135182261Y-96493785D01*
X135212500Y-96403071D01*
X135242738Y-96372833D01*
X135242738Y-96130928D02*
X135212500Y-96100690D01*
X135182261Y-96040214D01*
X135182261Y-95889023D01*
X135212500Y-95828547D01*
X135242738Y-95798309D01*
X135303214Y-95768071D01*
X135363690Y-95768071D01*
X135454404Y-95798309D01*
X135817261Y-96161166D01*
X135817261Y-95768071D01*
X135034261Y-86719833D02*
X134731880Y-86931500D01*
X135034261Y-87082690D02*
X134399261Y-87082690D01*
X134399261Y-86840785D01*
X134429500Y-86780309D01*
X134459738Y-86750071D01*
X134520214Y-86719833D01*
X134610928Y-86719833D01*
X134671404Y-86750071D01*
X134701642Y-86780309D01*
X134731880Y-86840785D01*
X134731880Y-87082690D01*
X134399261Y-86508166D02*
X134399261Y-86084833D01*
X135034261Y-86356976D01*
X149070785Y-107475261D02*
X148859119Y-107172880D01*
X148707928Y-107475261D02*
X148707928Y-106840261D01*
X148949833Y-106840261D01*
X149010309Y-106870500D01*
X149040547Y-106900738D01*
X149070785Y-106961214D01*
X149070785Y-107051928D01*
X149040547Y-107112404D01*
X149010309Y-107142642D01*
X148949833Y-107172880D01*
X148707928Y-107172880D01*
X149312690Y-106900738D02*
X149342928Y-106870500D01*
X149403404Y-106840261D01*
X149554595Y-106840261D01*
X149615071Y-106870500D01*
X149645309Y-106900738D01*
X149675547Y-106961214D01*
X149675547Y-107021690D01*
X149645309Y-107112404D01*
X149282452Y-107475261D01*
X149675547Y-107475261D01*
X149887214Y-106840261D02*
X150310547Y-106840261D01*
X150038404Y-107475261D01*
X150947738Y-96960476D02*
X150917500Y-97020952D01*
X150857023Y-97081428D01*
X150766309Y-97172142D01*
X150736071Y-97232619D01*
X150736071Y-97293095D01*
X150887261Y-97262857D02*
X150857023Y-97323333D01*
X150796547Y-97383809D01*
X150675595Y-97414047D01*
X150463928Y-97414047D01*
X150342976Y-97383809D01*
X150282500Y-97323333D01*
X150252261Y-97262857D01*
X150252261Y-97141904D01*
X150282500Y-97081428D01*
X150342976Y-97020952D01*
X150463928Y-96990714D01*
X150675595Y-96990714D01*
X150796547Y-97020952D01*
X150857023Y-97081428D01*
X150887261Y-97141904D01*
X150887261Y-97262857D01*
X150252261Y-96779047D02*
X150252261Y-96385952D01*
X150494166Y-96597619D01*
X150494166Y-96506904D01*
X150524404Y-96446428D01*
X150554642Y-96416190D01*
X150615119Y-96385952D01*
X150766309Y-96385952D01*
X150826785Y-96416190D01*
X150857023Y-96446428D01*
X150887261Y-96506904D01*
X150887261Y-96688333D01*
X150857023Y-96748809D01*
X150826785Y-96779047D01*
X146657785Y-104239785D02*
X146627547Y-104270023D01*
X146536833Y-104300261D01*
X146476357Y-104300261D01*
X146385642Y-104270023D01*
X146325166Y-104209547D01*
X146294928Y-104149071D01*
X146264690Y-104028119D01*
X146264690Y-103937404D01*
X146294928Y-103816452D01*
X146325166Y-103755976D01*
X146385642Y-103695500D01*
X146476357Y-103665261D01*
X146536833Y-103665261D01*
X146627547Y-103695500D01*
X146657785Y-103725738D01*
X146869452Y-103665261D02*
X147262547Y-103665261D01*
X147050880Y-103907166D01*
X147141595Y-103907166D01*
X147202071Y-103937404D01*
X147232309Y-103967642D01*
X147262547Y-104028119D01*
X147262547Y-104179309D01*
X147232309Y-104239785D01*
X147202071Y-104270023D01*
X147141595Y-104300261D01*
X146960166Y-104300261D01*
X146899690Y-104270023D01*
X146869452Y-104239785D01*
X147837071Y-103665261D02*
X147534690Y-103665261D01*
X147504452Y-103967642D01*
X147534690Y-103937404D01*
X147595166Y-103907166D01*
X147746357Y-103907166D01*
X147806833Y-103937404D01*
X147837071Y-103967642D01*
X147867309Y-104028119D01*
X147867309Y-104179309D01*
X147837071Y-104239785D01*
X147806833Y-104270023D01*
X147746357Y-104300261D01*
X147595166Y-104300261D01*
X147534690Y-104270023D01*
X147504452Y-104239785D01*
X142626690Y-86520261D02*
X142626690Y-87034309D01*
X142656928Y-87094785D01*
X142687166Y-87125023D01*
X142747642Y-87155261D01*
X142868595Y-87155261D01*
X142929071Y-87125023D01*
X142959309Y-87094785D01*
X142989547Y-87034309D01*
X142989547Y-86520261D01*
X143261690Y-86580738D02*
X143291928Y-86550500D01*
X143352404Y-86520261D01*
X143503595Y-86520261D01*
X143564071Y-86550500D01*
X143594309Y-86580738D01*
X143624547Y-86641214D01*
X143624547Y-86701690D01*
X143594309Y-86792404D01*
X143231452Y-87155261D01*
X143624547Y-87155261D01*
X147927785Y-113698261D02*
X147716119Y-113395880D01*
X147564928Y-113698261D02*
X147564928Y-113063261D01*
X147806833Y-113063261D01*
X147867309Y-113093500D01*
X147897547Y-113123738D01*
X147927785Y-113184214D01*
X147927785Y-113274928D01*
X147897547Y-113335404D01*
X147867309Y-113365642D01*
X147806833Y-113395880D01*
X147564928Y-113395880D01*
X148169690Y-113123738D02*
X148199928Y-113093500D01*
X148260404Y-113063261D01*
X148411595Y-113063261D01*
X148472071Y-113093500D01*
X148502309Y-113123738D01*
X148532547Y-113184214D01*
X148532547Y-113244690D01*
X148502309Y-113335404D01*
X148139452Y-113698261D01*
X148532547Y-113698261D01*
X148895404Y-113335404D02*
X148834928Y-113305166D01*
X148804690Y-113274928D01*
X148774452Y-113214452D01*
X148774452Y-113184214D01*
X148804690Y-113123738D01*
X148834928Y-113093500D01*
X148895404Y-113063261D01*
X149016357Y-113063261D01*
X149076833Y-113093500D01*
X149107071Y-113123738D01*
X149137309Y-113184214D01*
X149137309Y-113214452D01*
X149107071Y-113274928D01*
X149076833Y-113305166D01*
X149016357Y-113335404D01*
X148895404Y-113335404D01*
X148834928Y-113365642D01*
X148804690Y-113395880D01*
X148774452Y-113456357D01*
X148774452Y-113577309D01*
X148804690Y-113637785D01*
X148834928Y-113668023D01*
X148895404Y-113698261D01*
X149016357Y-113698261D01*
X149076833Y-113668023D01*
X149107071Y-113637785D01*
X149137309Y-113577309D01*
X149137309Y-113456357D01*
X149107071Y-113395880D01*
X149076833Y-113365642D01*
X149016357Y-113335404D01*
X149959785Y-112494785D02*
X149929547Y-112525023D01*
X149838833Y-112555261D01*
X149778357Y-112555261D01*
X149687642Y-112525023D01*
X149627166Y-112464547D01*
X149596928Y-112404071D01*
X149566690Y-112283119D01*
X149566690Y-112192404D01*
X149596928Y-112071452D01*
X149627166Y-112010976D01*
X149687642Y-111950500D01*
X149778357Y-111920261D01*
X149838833Y-111920261D01*
X149929547Y-111950500D01*
X149959785Y-111980738D01*
X150564547Y-112555261D02*
X150201690Y-112555261D01*
X150383119Y-112555261D02*
X150383119Y-111920261D01*
X150322642Y-112010976D01*
X150262166Y-112071452D01*
X150201690Y-112101690D01*
X151108833Y-111920261D02*
X150987880Y-111920261D01*
X150927404Y-111950500D01*
X150897166Y-111980738D01*
X150836690Y-112071452D01*
X150806452Y-112192404D01*
X150806452Y-112434309D01*
X150836690Y-112494785D01*
X150866928Y-112525023D01*
X150927404Y-112555261D01*
X151048357Y-112555261D01*
X151108833Y-112525023D01*
X151139071Y-112494785D01*
X151169309Y-112434309D01*
X151169309Y-112283119D01*
X151139071Y-112222642D01*
X151108833Y-112192404D01*
X151048357Y-112162166D01*
X150927404Y-112162166D01*
X150866928Y-112192404D01*
X150836690Y-112222642D01*
X150806452Y-112283119D01*
X147927785Y-114714261D02*
X147716119Y-114411880D01*
X147564928Y-114714261D02*
X147564928Y-114079261D01*
X147806833Y-114079261D01*
X147867309Y-114109500D01*
X147897547Y-114139738D01*
X147927785Y-114200214D01*
X147927785Y-114290928D01*
X147897547Y-114351404D01*
X147867309Y-114381642D01*
X147806833Y-114411880D01*
X147564928Y-114411880D01*
X148532547Y-114714261D02*
X148169690Y-114714261D01*
X148351119Y-114714261D02*
X148351119Y-114079261D01*
X148290642Y-114169976D01*
X148230166Y-114230452D01*
X148169690Y-114260690D01*
X148834928Y-114714261D02*
X148955880Y-114714261D01*
X149016357Y-114684023D01*
X149046595Y-114653785D01*
X149107071Y-114563071D01*
X149137309Y-114442119D01*
X149137309Y-114200214D01*
X149107071Y-114139738D01*
X149076833Y-114109500D01*
X149016357Y-114079261D01*
X148895404Y-114079261D01*
X148834928Y-114109500D01*
X148804690Y-114139738D01*
X148774452Y-114200214D01*
X148774452Y-114351404D01*
X148804690Y-114411880D01*
X148834928Y-114442119D01*
X148895404Y-114472357D01*
X149016357Y-114472357D01*
X149076833Y-114442119D01*
X149107071Y-114411880D01*
X149137309Y-114351404D01*
X121278785Y-92181833D02*
X121309023Y-92212071D01*
X121339261Y-92302785D01*
X121339261Y-92363261D01*
X121309023Y-92453976D01*
X121248547Y-92514452D01*
X121188071Y-92544690D01*
X121067119Y-92574928D01*
X120976404Y-92574928D01*
X120855452Y-92544690D01*
X120794976Y-92514452D01*
X120734500Y-92453976D01*
X120704261Y-92363261D01*
X120704261Y-92302785D01*
X120734500Y-92212071D01*
X120764738Y-92181833D01*
X120976404Y-91818976D02*
X120946166Y-91879452D01*
X120915928Y-91909690D01*
X120855452Y-91939928D01*
X120825214Y-91939928D01*
X120764738Y-91909690D01*
X120734500Y-91879452D01*
X120704261Y-91818976D01*
X120704261Y-91698023D01*
X120734500Y-91637547D01*
X120764738Y-91607309D01*
X120825214Y-91577071D01*
X120855452Y-91577071D01*
X120915928Y-91607309D01*
X120946166Y-91637547D01*
X120976404Y-91698023D01*
X120976404Y-91818976D01*
X121006642Y-91879452D01*
X121036880Y-91909690D01*
X121097357Y-91939928D01*
X121218309Y-91939928D01*
X121278785Y-91909690D01*
X121309023Y-91879452D01*
X121339261Y-91818976D01*
X121339261Y-91698023D01*
X121309023Y-91637547D01*
X121278785Y-91607309D01*
X121218309Y-91577071D01*
X121097357Y-91577071D01*
X121036880Y-91607309D01*
X121006642Y-91637547D01*
X120976404Y-91698023D01*
X136050261Y-86719833D02*
X135747880Y-86931500D01*
X136050261Y-87082690D02*
X135415261Y-87082690D01*
X135415261Y-86840785D01*
X135445500Y-86780309D01*
X135475738Y-86750071D01*
X135536214Y-86719833D01*
X135626928Y-86719833D01*
X135687404Y-86750071D01*
X135717642Y-86780309D01*
X135747880Y-86840785D01*
X135747880Y-87082690D01*
X135415261Y-86175547D02*
X135415261Y-86296500D01*
X135445500Y-86356976D01*
X135475738Y-86387214D01*
X135566452Y-86447690D01*
X135687404Y-86477928D01*
X135929309Y-86477928D01*
X135989785Y-86447690D01*
X136020023Y-86417452D01*
X136050261Y-86356976D01*
X136050261Y-86236023D01*
X136020023Y-86175547D01*
X135989785Y-86145309D01*
X135929309Y-86115071D01*
X135778119Y-86115071D01*
X135717642Y-86145309D01*
X135687404Y-86175547D01*
X135657166Y-86236023D01*
X135657166Y-86356976D01*
X135687404Y-86417452D01*
X135717642Y-86447690D01*
X135778119Y-86477928D01*
X139037785Y-95912214D02*
X139068023Y-95942452D01*
X139098261Y-96033166D01*
X139098261Y-96093642D01*
X139068023Y-96184357D01*
X139007547Y-96244833D01*
X138947071Y-96275071D01*
X138826119Y-96305309D01*
X138735404Y-96305309D01*
X138614452Y-96275071D01*
X138553976Y-96244833D01*
X138493500Y-96184357D01*
X138463261Y-96093642D01*
X138463261Y-96033166D01*
X138493500Y-95942452D01*
X138523738Y-95912214D01*
X138523738Y-95670309D02*
X138493500Y-95640071D01*
X138463261Y-95579595D01*
X138463261Y-95428404D01*
X138493500Y-95367928D01*
X138523738Y-95337690D01*
X138584214Y-95307452D01*
X138644690Y-95307452D01*
X138735404Y-95337690D01*
X139098261Y-95700547D01*
X139098261Y-95307452D01*
X139098261Y-94702690D02*
X139098261Y-95065547D01*
X139098261Y-94884119D02*
X138463261Y-94884119D01*
X138553976Y-94944595D01*
X138614452Y-95005071D01*
X138644690Y-95065547D01*
X152691785Y-99187261D02*
X152480119Y-98884880D01*
X152328928Y-99187261D02*
X152328928Y-98552261D01*
X152570833Y-98552261D01*
X152631309Y-98582500D01*
X152661547Y-98612738D01*
X152691785Y-98673214D01*
X152691785Y-98763928D01*
X152661547Y-98824404D01*
X152631309Y-98854642D01*
X152570833Y-98884880D01*
X152328928Y-98884880D01*
X153296547Y-99187261D02*
X152933690Y-99187261D01*
X153115119Y-99187261D02*
X153115119Y-98552261D01*
X153054642Y-98642976D01*
X152994166Y-98703452D01*
X152933690Y-98733690D01*
X153901309Y-99187261D02*
X153538452Y-99187261D01*
X153719880Y-99187261D02*
X153719880Y-98552261D01*
X153659404Y-98642976D01*
X153598928Y-98703452D01*
X153538452Y-98733690D01*
X131826785Y-111708214D02*
X131857023Y-111738452D01*
X131887261Y-111829166D01*
X131887261Y-111889642D01*
X131857023Y-111980357D01*
X131796547Y-112040833D01*
X131736071Y-112071071D01*
X131615119Y-112101309D01*
X131524404Y-112101309D01*
X131403452Y-112071071D01*
X131342976Y-112040833D01*
X131282500Y-111980357D01*
X131252261Y-111889642D01*
X131252261Y-111829166D01*
X131282500Y-111738452D01*
X131312738Y-111708214D01*
X131252261Y-111496547D02*
X131252261Y-111103452D01*
X131494166Y-111315119D01*
X131494166Y-111224404D01*
X131524404Y-111163928D01*
X131554642Y-111133690D01*
X131615119Y-111103452D01*
X131766309Y-111103452D01*
X131826785Y-111133690D01*
X131857023Y-111163928D01*
X131887261Y-111224404D01*
X131887261Y-111405833D01*
X131857023Y-111466309D01*
X131826785Y-111496547D01*
X131887261Y-110498690D02*
X131887261Y-110861547D01*
X131887261Y-110680119D02*
X131252261Y-110680119D01*
X131342976Y-110740595D01*
X131403452Y-110801071D01*
X131433690Y-110861547D01*
X144687261Y-115808214D02*
X144384880Y-116019880D01*
X144687261Y-116171071D02*
X144052261Y-116171071D01*
X144052261Y-115929166D01*
X144082500Y-115868690D01*
X144112738Y-115838452D01*
X144173214Y-115808214D01*
X144263928Y-115808214D01*
X144324404Y-115838452D01*
X144354642Y-115868690D01*
X144384880Y-115929166D01*
X144384880Y-116171071D01*
X144112738Y-115566309D02*
X144082500Y-115536071D01*
X144052261Y-115475595D01*
X144052261Y-115324404D01*
X144082500Y-115263928D01*
X144112738Y-115233690D01*
X144173214Y-115203452D01*
X144233690Y-115203452D01*
X144324404Y-115233690D01*
X144687261Y-115596547D01*
X144687261Y-115203452D01*
X144687261Y-114901071D02*
X144687261Y-114780119D01*
X144657023Y-114719642D01*
X144626785Y-114689404D01*
X144536071Y-114628928D01*
X144415119Y-114598690D01*
X144173214Y-114598690D01*
X144112738Y-114628928D01*
X144082500Y-114659166D01*
X144052261Y-114719642D01*
X144052261Y-114840595D01*
X144082500Y-114901071D01*
X144112738Y-114931309D01*
X144173214Y-114961547D01*
X144324404Y-114961547D01*
X144384880Y-114931309D01*
X144415119Y-114901071D01*
X144445357Y-114840595D01*
X144445357Y-114719642D01*
X144415119Y-114659166D01*
X144384880Y-114628928D01*
X144324404Y-114598690D01*
X117399352Y-95674579D02*
X117701733Y-95674579D01*
X117338876Y-95856007D02*
X117550543Y-95221007D01*
X117762209Y-95856007D01*
X117973876Y-95523388D02*
X118185543Y-95523388D01*
X118276257Y-95856007D02*
X117973876Y-95856007D01*
X117973876Y-95221007D01*
X118276257Y-95221007D01*
X118881019Y-95856007D02*
X118518162Y-95856007D01*
X118699590Y-95856007D02*
X118699590Y-95221007D01*
X118639114Y-95311722D01*
X118578638Y-95372198D01*
X118518162Y-95402436D01*
X139225261Y-90197214D02*
X138922880Y-90408880D01*
X139225261Y-90560071D02*
X138590261Y-90560071D01*
X138590261Y-90318166D01*
X138620500Y-90257690D01*
X138650738Y-90227452D01*
X138711214Y-90197214D01*
X138801928Y-90197214D01*
X138862404Y-90227452D01*
X138892642Y-90257690D01*
X138922880Y-90318166D01*
X138922880Y-90560071D01*
X138650738Y-89955309D02*
X138620500Y-89925071D01*
X138590261Y-89864595D01*
X138590261Y-89713404D01*
X138620500Y-89652928D01*
X138650738Y-89622690D01*
X138711214Y-89592452D01*
X138771690Y-89592452D01*
X138862404Y-89622690D01*
X139225261Y-89985547D01*
X139225261Y-89592452D01*
X138801928Y-89048166D02*
X139225261Y-89048166D01*
X138560023Y-89199357D02*
X139013595Y-89350547D01*
X139013595Y-88957452D01*
X130752547Y-119352785D02*
X130722309Y-119383023D01*
X130631595Y-119413261D01*
X130571119Y-119413261D01*
X130480404Y-119383023D01*
X130419928Y-119322547D01*
X130389690Y-119262071D01*
X130359452Y-119141119D01*
X130359452Y-119050404D01*
X130389690Y-118929452D01*
X130419928Y-118868976D01*
X130480404Y-118808500D01*
X130571119Y-118778261D01*
X130631595Y-118778261D01*
X130722309Y-118808500D01*
X130752547Y-118838738D01*
X131024690Y-119413261D02*
X131024690Y-118778261D01*
X131387547Y-119413261D01*
X131387547Y-118778261D01*
X131962071Y-118989928D02*
X131962071Y-119413261D01*
X131810880Y-118748023D02*
X131659690Y-119201595D01*
X132052785Y-119201595D01*
X139037785Y-93626214D02*
X139068023Y-93656452D01*
X139098261Y-93747166D01*
X139098261Y-93807642D01*
X139068023Y-93898357D01*
X139007547Y-93958833D01*
X138947071Y-93989071D01*
X138826119Y-94019309D01*
X138735404Y-94019309D01*
X138614452Y-93989071D01*
X138553976Y-93958833D01*
X138493500Y-93898357D01*
X138463261Y-93807642D01*
X138463261Y-93747166D01*
X138493500Y-93656452D01*
X138523738Y-93626214D01*
X138523738Y-93384309D02*
X138493500Y-93354071D01*
X138463261Y-93293595D01*
X138463261Y-93142404D01*
X138493500Y-93081928D01*
X138523738Y-93051690D01*
X138584214Y-93021452D01*
X138644690Y-93021452D01*
X138735404Y-93051690D01*
X139098261Y-93414547D01*
X139098261Y-93021452D01*
X138463261Y-92628357D02*
X138463261Y-92567880D01*
X138493500Y-92507404D01*
X138523738Y-92477166D01*
X138584214Y-92446928D01*
X138705166Y-92416690D01*
X138856357Y-92416690D01*
X138977309Y-92446928D01*
X139037785Y-92477166D01*
X139068023Y-92507404D01*
X139098261Y-92567880D01*
X139098261Y-92628357D01*
X139068023Y-92688833D01*
X139037785Y-92719071D01*
X138977309Y-92749309D01*
X138856357Y-92779547D01*
X138705166Y-92779547D01*
X138584214Y-92749309D01*
X138523738Y-92719071D01*
X138493500Y-92688833D01*
X138463261Y-92628357D01*
X150848785Y-109700785D02*
X150818547Y-109731023D01*
X150727833Y-109761261D01*
X150667357Y-109761261D01*
X150576642Y-109731023D01*
X150516166Y-109670547D01*
X150485928Y-109610071D01*
X150455690Y-109489119D01*
X150455690Y-109398404D01*
X150485928Y-109277452D01*
X150516166Y-109216976D01*
X150576642Y-109156500D01*
X150667357Y-109126261D01*
X150727833Y-109126261D01*
X150818547Y-109156500D01*
X150848785Y-109186738D01*
X151453547Y-109761261D02*
X151090690Y-109761261D01*
X151272119Y-109761261D02*
X151272119Y-109126261D01*
X151211642Y-109216976D01*
X151151166Y-109277452D01*
X151090690Y-109307690D01*
X152028071Y-109126261D02*
X151725690Y-109126261D01*
X151695452Y-109428642D01*
X151725690Y-109398404D01*
X151786166Y-109368166D01*
X151937357Y-109368166D01*
X151997833Y-109398404D01*
X152028071Y-109428642D01*
X152058309Y-109489119D01*
X152058309Y-109640309D01*
X152028071Y-109700785D01*
X151997833Y-109731023D01*
X151937357Y-109761261D01*
X151786166Y-109761261D01*
X151725690Y-109731023D01*
X151695452Y-109700785D01*
X119816190Y-118152261D02*
X119816190Y-118666309D01*
X119846428Y-118726785D01*
X119876666Y-118757023D01*
X119937142Y-118787261D01*
X120058095Y-118787261D01*
X120118571Y-118757023D01*
X120148809Y-118726785D01*
X120179047Y-118666309D01*
X120179047Y-118152261D01*
X120783809Y-118152261D02*
X120481428Y-118152261D01*
X120451190Y-118454642D01*
X120481428Y-118424404D01*
X120541904Y-118394166D01*
X120693095Y-118394166D01*
X120753571Y-118424404D01*
X120783809Y-118454642D01*
X120814047Y-118515119D01*
X120814047Y-118666309D01*
X120783809Y-118726785D01*
X120753571Y-118757023D01*
X120693095Y-118787261D01*
X120541904Y-118787261D01*
X120481428Y-118757023D01*
X120451190Y-118726785D01*
X127724166Y-108689761D02*
X127512500Y-108387380D01*
X127361309Y-108689761D02*
X127361309Y-108054761D01*
X127603214Y-108054761D01*
X127663690Y-108085000D01*
X127693928Y-108115238D01*
X127724166Y-108175714D01*
X127724166Y-108266428D01*
X127693928Y-108326904D01*
X127663690Y-108357142D01*
X127603214Y-108387380D01*
X127361309Y-108387380D01*
X128026547Y-108689761D02*
X128147500Y-108689761D01*
X128207976Y-108659523D01*
X128238214Y-108629285D01*
X128298690Y-108538571D01*
X128328928Y-108417619D01*
X128328928Y-108175714D01*
X128298690Y-108115238D01*
X128268452Y-108085000D01*
X128207976Y-108054761D01*
X128087023Y-108054761D01*
X128026547Y-108085000D01*
X127996309Y-108115238D01*
X127966071Y-108175714D01*
X127966071Y-108326904D01*
X127996309Y-108387380D01*
X128026547Y-108417619D01*
X128087023Y-108447857D01*
X128207976Y-108447857D01*
X128268452Y-108417619D01*
X128298690Y-108387380D01*
X128328928Y-108326904D01*
X156885785Y-107576214D02*
X156916023Y-107606452D01*
X156946261Y-107697166D01*
X156946261Y-107757642D01*
X156916023Y-107848357D01*
X156855547Y-107908833D01*
X156795071Y-107939071D01*
X156674119Y-107969309D01*
X156583404Y-107969309D01*
X156462452Y-107939071D01*
X156401976Y-107908833D01*
X156341500Y-107848357D01*
X156311261Y-107757642D01*
X156311261Y-107697166D01*
X156341500Y-107606452D01*
X156371738Y-107576214D01*
X156946261Y-106971452D02*
X156946261Y-107334309D01*
X156946261Y-107152880D02*
X156311261Y-107152880D01*
X156401976Y-107213357D01*
X156462452Y-107273833D01*
X156492690Y-107334309D01*
X156583404Y-106608595D02*
X156553166Y-106669071D01*
X156522928Y-106699309D01*
X156462452Y-106729547D01*
X156432214Y-106729547D01*
X156371738Y-106699309D01*
X156341500Y-106669071D01*
X156311261Y-106608595D01*
X156311261Y-106487642D01*
X156341500Y-106427166D01*
X156371738Y-106396928D01*
X156432214Y-106366690D01*
X156462452Y-106366690D01*
X156522928Y-106396928D01*
X156553166Y-106427166D01*
X156583404Y-106487642D01*
X156583404Y-106608595D01*
X156613642Y-106669071D01*
X156643880Y-106699309D01*
X156704357Y-106729547D01*
X156825309Y-106729547D01*
X156885785Y-106699309D01*
X156916023Y-106669071D01*
X156946261Y-106608595D01*
X156946261Y-106487642D01*
X156916023Y-106427166D01*
X156885785Y-106396928D01*
X156825309Y-106366690D01*
X156704357Y-106366690D01*
X156643880Y-106396928D01*
X156613642Y-106427166D01*
X156583404Y-106487642D01*
X147419785Y-105382785D02*
X147389547Y-105413023D01*
X147298833Y-105443261D01*
X147238357Y-105443261D01*
X147147642Y-105413023D01*
X147087166Y-105352547D01*
X147056928Y-105292071D01*
X147026690Y-105171119D01*
X147026690Y-105080404D01*
X147056928Y-104959452D01*
X147087166Y-104898976D01*
X147147642Y-104838500D01*
X147238357Y-104808261D01*
X147298833Y-104808261D01*
X147389547Y-104838500D01*
X147419785Y-104868738D01*
X147631452Y-104808261D02*
X148024547Y-104808261D01*
X147812880Y-105050166D01*
X147903595Y-105050166D01*
X147964071Y-105080404D01*
X147994309Y-105110642D01*
X148024547Y-105171119D01*
X148024547Y-105322309D01*
X147994309Y-105382785D01*
X147964071Y-105413023D01*
X147903595Y-105443261D01*
X147722166Y-105443261D01*
X147661690Y-105413023D01*
X147631452Y-105382785D01*
X148236214Y-104808261D02*
X148629309Y-104808261D01*
X148417642Y-105050166D01*
X148508357Y-105050166D01*
X148568833Y-105080404D01*
X148599071Y-105110642D01*
X148629309Y-105171119D01*
X148629309Y-105322309D01*
X148599071Y-105382785D01*
X148568833Y-105413023D01*
X148508357Y-105443261D01*
X148326928Y-105443261D01*
X148266452Y-105413023D01*
X148236214Y-105382785D01*
X149705785Y-94642214D02*
X149736023Y-94672452D01*
X149766261Y-94763166D01*
X149766261Y-94823642D01*
X149736023Y-94914357D01*
X149675547Y-94974833D01*
X149615071Y-95005071D01*
X149494119Y-95035309D01*
X149403404Y-95035309D01*
X149282452Y-95005071D01*
X149221976Y-94974833D01*
X149161500Y-94914357D01*
X149131261Y-94823642D01*
X149131261Y-94763166D01*
X149161500Y-94672452D01*
X149191738Y-94642214D01*
X149766261Y-94037452D02*
X149766261Y-94400309D01*
X149766261Y-94218880D02*
X149131261Y-94218880D01*
X149221976Y-94279357D01*
X149282452Y-94339833D01*
X149312690Y-94400309D01*
X149191738Y-93795547D02*
X149161500Y-93765309D01*
X149131261Y-93704833D01*
X149131261Y-93553642D01*
X149161500Y-93493166D01*
X149191738Y-93462928D01*
X149252214Y-93432690D01*
X149312690Y-93432690D01*
X149403404Y-93462928D01*
X149766261Y-93825785D01*
X149766261Y-93432690D01*
X129123785Y-111382214D02*
X129154023Y-111412452D01*
X129184261Y-111503166D01*
X129184261Y-111563642D01*
X129154023Y-111654357D01*
X129093547Y-111714833D01*
X129033071Y-111745071D01*
X128912119Y-111775309D01*
X128821404Y-111775309D01*
X128700452Y-111745071D01*
X128639976Y-111714833D01*
X128579500Y-111654357D01*
X128549261Y-111563642D01*
X128549261Y-111503166D01*
X128579500Y-111412452D01*
X128609738Y-111382214D01*
X128549261Y-111170547D02*
X128549261Y-110777452D01*
X128791166Y-110989119D01*
X128791166Y-110898404D01*
X128821404Y-110837928D01*
X128851642Y-110807690D01*
X128912119Y-110777452D01*
X129063309Y-110777452D01*
X129123785Y-110807690D01*
X129154023Y-110837928D01*
X129184261Y-110898404D01*
X129184261Y-111079833D01*
X129154023Y-111140309D01*
X129123785Y-111170547D01*
X128549261Y-110565785D02*
X128549261Y-110142452D01*
X129184261Y-110414595D01*
X134740785Y-96400833D02*
X134771023Y-96431071D01*
X134801261Y-96521785D01*
X134801261Y-96582261D01*
X134771023Y-96672976D01*
X134710547Y-96733452D01*
X134650071Y-96763690D01*
X134529119Y-96793928D01*
X134438404Y-96793928D01*
X134317452Y-96763690D01*
X134256976Y-96733452D01*
X134196500Y-96672976D01*
X134166261Y-96582261D01*
X134166261Y-96521785D01*
X134196500Y-96431071D01*
X134226738Y-96400833D01*
X134166261Y-95826309D02*
X134166261Y-96128690D01*
X134468642Y-96158928D01*
X134438404Y-96128690D01*
X134408166Y-96068214D01*
X134408166Y-95917023D01*
X134438404Y-95856547D01*
X134468642Y-95826309D01*
X134529119Y-95796071D01*
X134680309Y-95796071D01*
X134740785Y-95826309D01*
X134771023Y-95856547D01*
X134801261Y-95917023D01*
X134801261Y-96068214D01*
X134771023Y-96128690D01*
X134740785Y-96158928D01*
X136379761Y-91213214D02*
X136077380Y-91424880D01*
X136379761Y-91576071D02*
X135744761Y-91576071D01*
X135744761Y-91334166D01*
X135775000Y-91273690D01*
X135805238Y-91243452D01*
X135865714Y-91213214D01*
X135956428Y-91213214D01*
X136016904Y-91243452D01*
X136047142Y-91273690D01*
X136077380Y-91334166D01*
X136077380Y-91576071D01*
X135805238Y-90971309D02*
X135775000Y-90941071D01*
X135744761Y-90880595D01*
X135744761Y-90729404D01*
X135775000Y-90668928D01*
X135805238Y-90638690D01*
X135865714Y-90608452D01*
X135926190Y-90608452D01*
X136016904Y-90638690D01*
X136379761Y-91001547D01*
X136379761Y-90608452D01*
X136379761Y-90003690D02*
X136379761Y-90366547D01*
X136379761Y-90185119D02*
X135744761Y-90185119D01*
X135835476Y-90245595D01*
X135895952Y-90306071D01*
X135926190Y-90366547D01*
X156885785Y-105544214D02*
X156916023Y-105574452D01*
X156946261Y-105665166D01*
X156946261Y-105725642D01*
X156916023Y-105816357D01*
X156855547Y-105876833D01*
X156795071Y-105907071D01*
X156674119Y-105937309D01*
X156583404Y-105937309D01*
X156462452Y-105907071D01*
X156401976Y-105876833D01*
X156341500Y-105816357D01*
X156311261Y-105725642D01*
X156311261Y-105665166D01*
X156341500Y-105574452D01*
X156371738Y-105544214D01*
X156946261Y-104939452D02*
X156946261Y-105302309D01*
X156946261Y-105120880D02*
X156311261Y-105120880D01*
X156401976Y-105181357D01*
X156462452Y-105241833D01*
X156492690Y-105302309D01*
X156946261Y-104637071D02*
X156946261Y-104516119D01*
X156916023Y-104455642D01*
X156885785Y-104425404D01*
X156795071Y-104364928D01*
X156674119Y-104334690D01*
X156432214Y-104334690D01*
X156371738Y-104364928D01*
X156341500Y-104395166D01*
X156311261Y-104455642D01*
X156311261Y-104576595D01*
X156341500Y-104637071D01*
X156371738Y-104667309D01*
X156432214Y-104697547D01*
X156583404Y-104697547D01*
X156643880Y-104667309D01*
X156674119Y-104637071D01*
X156704357Y-104576595D01*
X156704357Y-104455642D01*
X156674119Y-104395166D01*
X156643880Y-104364928D01*
X156583404Y-104334690D01*
X135608785Y-110208785D02*
X135578547Y-110239023D01*
X135487833Y-110269261D01*
X135427357Y-110269261D01*
X135336642Y-110239023D01*
X135276166Y-110178547D01*
X135245928Y-110118071D01*
X135215690Y-109997119D01*
X135215690Y-109906404D01*
X135245928Y-109785452D01*
X135276166Y-109724976D01*
X135336642Y-109664500D01*
X135427357Y-109634261D01*
X135487833Y-109634261D01*
X135578547Y-109664500D01*
X135608785Y-109694738D01*
X135820452Y-109634261D02*
X136213547Y-109634261D01*
X136001880Y-109876166D01*
X136092595Y-109876166D01*
X136153071Y-109906404D01*
X136183309Y-109936642D01*
X136213547Y-109997119D01*
X136213547Y-110148309D01*
X136183309Y-110208785D01*
X136153071Y-110239023D01*
X136092595Y-110269261D01*
X135911166Y-110269261D01*
X135850690Y-110239023D01*
X135820452Y-110208785D01*
X136455452Y-109694738D02*
X136485690Y-109664500D01*
X136546166Y-109634261D01*
X136697357Y-109634261D01*
X136757833Y-109664500D01*
X136788071Y-109694738D01*
X136818309Y-109755214D01*
X136818309Y-109815690D01*
X136788071Y-109906404D01*
X136425214Y-110269261D01*
X136818309Y-110269261D01*
X146881547Y-92428785D02*
X146851309Y-92459023D01*
X146760595Y-92489261D01*
X146700119Y-92489261D01*
X146609404Y-92459023D01*
X146548928Y-92398547D01*
X146518690Y-92338071D01*
X146488452Y-92217119D01*
X146488452Y-92126404D01*
X146518690Y-92005452D01*
X146548928Y-91944976D01*
X146609404Y-91884500D01*
X146700119Y-91854261D01*
X146760595Y-91854261D01*
X146851309Y-91884500D01*
X146881547Y-91914738D01*
X147153690Y-92489261D02*
X147153690Y-91854261D01*
X147516547Y-92489261D01*
X147516547Y-91854261D01*
X147788690Y-91914738D02*
X147818928Y-91884500D01*
X147879404Y-91854261D01*
X148030595Y-91854261D01*
X148091071Y-91884500D01*
X148121309Y-91914738D01*
X148151547Y-91975214D01*
X148151547Y-92035690D01*
X148121309Y-92126404D01*
X147758452Y-92489261D01*
X148151547Y-92489261D01*
X127694166Y-91457261D02*
X127482500Y-91154880D01*
X127331309Y-91457261D02*
X127331309Y-90822261D01*
X127573214Y-90822261D01*
X127633690Y-90852500D01*
X127663928Y-90882738D01*
X127694166Y-90943214D01*
X127694166Y-91033928D01*
X127663928Y-91094404D01*
X127633690Y-91124642D01*
X127573214Y-91154880D01*
X127331309Y-91154880D01*
X128298928Y-91457261D02*
X127936071Y-91457261D01*
X128117500Y-91457261D02*
X128117500Y-90822261D01*
X128057023Y-90912976D01*
X127996547Y-90973452D01*
X127936071Y-91003690D01*
X144631833Y-87965642D02*
X144420166Y-87965642D01*
X144420166Y-88298261D02*
X144420166Y-87663261D01*
X144722547Y-87663261D01*
X145176119Y-87965642D02*
X145266833Y-87995880D01*
X145297071Y-88026119D01*
X145327309Y-88086595D01*
X145327309Y-88177309D01*
X145297071Y-88237785D01*
X145266833Y-88268023D01*
X145206357Y-88298261D01*
X144964452Y-88298261D01*
X144964452Y-87663261D01*
X145176119Y-87663261D01*
X145236595Y-87693500D01*
X145266833Y-87723738D01*
X145297071Y-87784214D01*
X145297071Y-87844690D01*
X145266833Y-87905166D01*
X145236595Y-87935404D01*
X145176119Y-87965642D01*
X144964452Y-87965642D01*
X145932071Y-88298261D02*
X145569214Y-88298261D01*
X145750642Y-88298261D02*
X145750642Y-87663261D01*
X145690166Y-87753976D01*
X145629690Y-87814452D01*
X145569214Y-87844690D01*
X152723547Y-103223785D02*
X152693309Y-103254023D01*
X152602595Y-103284261D01*
X152542119Y-103284261D01*
X152451404Y-103254023D01*
X152390928Y-103193547D01*
X152360690Y-103133071D01*
X152330452Y-103012119D01*
X152330452Y-102921404D01*
X152360690Y-102800452D01*
X152390928Y-102739976D01*
X152451404Y-102679500D01*
X152542119Y-102649261D01*
X152602595Y-102649261D01*
X152693309Y-102679500D01*
X152723547Y-102709738D01*
X152995690Y-103284261D02*
X152995690Y-102649261D01*
X153358547Y-103284261D01*
X153358547Y-102649261D01*
X153993547Y-103284261D02*
X153630690Y-103284261D01*
X153812119Y-103284261D02*
X153812119Y-102649261D01*
X153751642Y-102739976D01*
X153691166Y-102800452D01*
X153630690Y-102830690D01*
X154202190Y-114714261D02*
X154202190Y-115228309D01*
X154232428Y-115288785D01*
X154262666Y-115319023D01*
X154323142Y-115349261D01*
X154444095Y-115349261D01*
X154504571Y-115319023D01*
X154534809Y-115288785D01*
X154565047Y-115228309D01*
X154565047Y-114714261D01*
X154806952Y-114714261D02*
X155200047Y-114714261D01*
X154988380Y-114956166D01*
X155079095Y-114956166D01*
X155139571Y-114986404D01*
X155169809Y-115016642D01*
X155200047Y-115077119D01*
X155200047Y-115228309D01*
X155169809Y-115288785D01*
X155139571Y-115319023D01*
X155079095Y-115349261D01*
X154897666Y-115349261D01*
X154837190Y-115319023D01*
X154806952Y-115288785D01*
X120417166Y-103665261D02*
X120205500Y-103362880D01*
X120054309Y-103665261D02*
X120054309Y-103030261D01*
X120296214Y-103030261D01*
X120356690Y-103060500D01*
X120386928Y-103090738D01*
X120417166Y-103151214D01*
X120417166Y-103241928D01*
X120386928Y-103302404D01*
X120356690Y-103332642D01*
X120296214Y-103362880D01*
X120054309Y-103362880D01*
X120628833Y-103030261D02*
X121021928Y-103030261D01*
X120810261Y-103272166D01*
X120900976Y-103272166D01*
X120961452Y-103302404D01*
X120991690Y-103332642D01*
X121021928Y-103393119D01*
X121021928Y-103544309D01*
X120991690Y-103604785D01*
X120961452Y-103635023D01*
X120900976Y-103665261D01*
X120719547Y-103665261D01*
X120659071Y-103635023D01*
X120628833Y-103604785D01*
X143482785Y-112168214D02*
X143513023Y-112198452D01*
X143543261Y-112289166D01*
X143543261Y-112349642D01*
X143513023Y-112440357D01*
X143452547Y-112500833D01*
X143392071Y-112531071D01*
X143271119Y-112561309D01*
X143180404Y-112561309D01*
X143059452Y-112531071D01*
X142998976Y-112500833D01*
X142938500Y-112440357D01*
X142908261Y-112349642D01*
X142908261Y-112289166D01*
X142938500Y-112198452D01*
X142968738Y-112168214D01*
X142968738Y-111926309D02*
X142938500Y-111896071D01*
X142908261Y-111835595D01*
X142908261Y-111684404D01*
X142938500Y-111623928D01*
X142968738Y-111593690D01*
X143029214Y-111563452D01*
X143089690Y-111563452D01*
X143180404Y-111593690D01*
X143543261Y-111956547D01*
X143543261Y-111563452D01*
X143543261Y-111261071D02*
X143543261Y-111140119D01*
X143513023Y-111079642D01*
X143482785Y-111049404D01*
X143392071Y-110988928D01*
X143271119Y-110958690D01*
X143029214Y-110958690D01*
X142968738Y-110988928D01*
X142938500Y-111019166D01*
X142908261Y-111079642D01*
X142908261Y-111200595D01*
X142938500Y-111261071D01*
X142968738Y-111291309D01*
X143029214Y-111321547D01*
X143180404Y-111321547D01*
X143240880Y-111291309D01*
X143271119Y-111261071D01*
X143301357Y-111200595D01*
X143301357Y-111079642D01*
X143271119Y-111019166D01*
X143240880Y-110988928D01*
X143180404Y-110958690D01*
X158087785Y-112428261D02*
X157876119Y-112125880D01*
X157724928Y-112428261D02*
X157724928Y-111793261D01*
X157966833Y-111793261D01*
X158027309Y-111823500D01*
X158057547Y-111853738D01*
X158087785Y-111914214D01*
X158087785Y-112004928D01*
X158057547Y-112065404D01*
X158027309Y-112095642D01*
X157966833Y-112125880D01*
X157724928Y-112125880D01*
X158329690Y-111853738D02*
X158359928Y-111823500D01*
X158420404Y-111793261D01*
X158571595Y-111793261D01*
X158632071Y-111823500D01*
X158662309Y-111853738D01*
X158692547Y-111914214D01*
X158692547Y-111974690D01*
X158662309Y-112065404D01*
X158299452Y-112428261D01*
X158692547Y-112428261D01*
X159267071Y-111793261D02*
X158964690Y-111793261D01*
X158934452Y-112095642D01*
X158964690Y-112065404D01*
X159025166Y-112035166D01*
X159176357Y-112035166D01*
X159236833Y-112065404D01*
X159267071Y-112095642D01*
X159297309Y-112156119D01*
X159297309Y-112307309D01*
X159267071Y-112367785D01*
X159236833Y-112398023D01*
X159176357Y-112428261D01*
X159025166Y-112428261D01*
X158964690Y-112398023D01*
X158934452Y-112367785D01*
X152691785Y-102187261D02*
X152480119Y-101884880D01*
X152328928Y-102187261D02*
X152328928Y-101552261D01*
X152570833Y-101552261D01*
X152631309Y-101582500D01*
X152661547Y-101612738D01*
X152691785Y-101673214D01*
X152691785Y-101763928D01*
X152661547Y-101824404D01*
X152631309Y-101854642D01*
X152570833Y-101884880D01*
X152328928Y-101884880D01*
X153296547Y-102187261D02*
X152933690Y-102187261D01*
X153115119Y-102187261D02*
X153115119Y-101552261D01*
X153054642Y-101642976D01*
X152994166Y-101703452D01*
X152933690Y-101733690D01*
X153840833Y-101763928D02*
X153840833Y-102187261D01*
X153689642Y-101522023D02*
X153538452Y-101975595D01*
X153931547Y-101975595D01*
D10*
X117559666Y-111457619D02*
X117559666Y-110852857D01*
X117922523Y-111578571D02*
X116652523Y-111155238D01*
X117922523Y-110731904D01*
X117922523Y-110308571D02*
X116652523Y-110308571D01*
X117922523Y-109582857D01*
X116652523Y-109582857D01*
D12*
X137120690Y-104427261D02*
X137483547Y-104427261D01*
X137302119Y-105062261D02*
X137302119Y-104427261D01*
X137695214Y-105062261D02*
X137695214Y-104427261D01*
X137937119Y-104427261D01*
X137997595Y-104457500D01*
X138027833Y-104487738D01*
X138058071Y-104548214D01*
X138058071Y-104638928D01*
X138027833Y-104699404D01*
X137997595Y-104729642D01*
X137937119Y-104759880D01*
X137695214Y-104759880D01*
X138602357Y-104638928D02*
X138602357Y-105062261D01*
X138451166Y-104397023D02*
X138299976Y-104850595D01*
X138693071Y-104850595D01*
X137135809Y-105316261D02*
X137528904Y-105316261D01*
X137317238Y-105558166D01*
X137407952Y-105558166D01*
X137468428Y-105588404D01*
X137498666Y-105618642D01*
X137528904Y-105679119D01*
X137528904Y-105830309D01*
X137498666Y-105890785D01*
X137468428Y-105921023D01*
X137407952Y-105951261D01*
X137226523Y-105951261D01*
X137166047Y-105921023D01*
X137135809Y-105890785D01*
X137710333Y-105316261D02*
X137922000Y-105951261D01*
X138133666Y-105316261D01*
X138284857Y-105316261D02*
X138677952Y-105316261D01*
X138466285Y-105558166D01*
X138557000Y-105558166D01*
X138617476Y-105588404D01*
X138647714Y-105618642D01*
X138677952Y-105679119D01*
X138677952Y-105830309D01*
X138647714Y-105890785D01*
X138617476Y-105921023D01*
X138557000Y-105951261D01*
X138375571Y-105951261D01*
X138315095Y-105921023D01*
X138284857Y-105890785D01*
X147927785Y-90959214D02*
X147958023Y-90989452D01*
X147988261Y-91080166D01*
X147988261Y-91140642D01*
X147958023Y-91231357D01*
X147897547Y-91291833D01*
X147837071Y-91322071D01*
X147716119Y-91352309D01*
X147625404Y-91352309D01*
X147504452Y-91322071D01*
X147443976Y-91291833D01*
X147383500Y-91231357D01*
X147353261Y-91140642D01*
X147353261Y-91080166D01*
X147383500Y-90989452D01*
X147413738Y-90959214D01*
X147413738Y-90717309D02*
X147383500Y-90687071D01*
X147353261Y-90626595D01*
X147353261Y-90475404D01*
X147383500Y-90414928D01*
X147413738Y-90384690D01*
X147474214Y-90354452D01*
X147534690Y-90354452D01*
X147625404Y-90384690D01*
X147988261Y-90747547D01*
X147988261Y-90354452D01*
X147353261Y-89810166D02*
X147353261Y-89931119D01*
X147383500Y-89991595D01*
X147413738Y-90021833D01*
X147504452Y-90082309D01*
X147625404Y-90112547D01*
X147867309Y-90112547D01*
X147927785Y-90082309D01*
X147958023Y-90052071D01*
X147988261Y-89991595D01*
X147988261Y-89870642D01*
X147958023Y-89810166D01*
X147927785Y-89779928D01*
X147867309Y-89749690D01*
X147716119Y-89749690D01*
X147655642Y-89779928D01*
X147625404Y-89810166D01*
X147595166Y-89870642D01*
X147595166Y-89991595D01*
X147625404Y-90052071D01*
X147655642Y-90082309D01*
X147716119Y-90112547D01*
X158087785Y-114460261D02*
X157876119Y-114157880D01*
X157724928Y-114460261D02*
X157724928Y-113825261D01*
X157966833Y-113825261D01*
X158027309Y-113855500D01*
X158057547Y-113885738D01*
X158087785Y-113946214D01*
X158087785Y-114036928D01*
X158057547Y-114097404D01*
X158027309Y-114127642D01*
X157966833Y-114157880D01*
X157724928Y-114157880D01*
X158329690Y-113885738D02*
X158359928Y-113855500D01*
X158420404Y-113825261D01*
X158571595Y-113825261D01*
X158632071Y-113855500D01*
X158662309Y-113885738D01*
X158692547Y-113946214D01*
X158692547Y-114006690D01*
X158662309Y-114097404D01*
X158299452Y-114460261D01*
X158692547Y-114460261D01*
X159236833Y-113825261D02*
X159115880Y-113825261D01*
X159055404Y-113855500D01*
X159025166Y-113885738D01*
X158964690Y-113976452D01*
X158934452Y-114097404D01*
X158934452Y-114339309D01*
X158964690Y-114399785D01*
X158994928Y-114430023D01*
X159055404Y-114460261D01*
X159176357Y-114460261D01*
X159236833Y-114430023D01*
X159267071Y-114399785D01*
X159297309Y-114339309D01*
X159297309Y-114188119D01*
X159267071Y-114127642D01*
X159236833Y-114097404D01*
X159176357Y-114067166D01*
X159055404Y-114067166D01*
X158994928Y-114097404D01*
X158964690Y-114127642D01*
X158934452Y-114188119D01*
X140850261Y-103008809D02*
X141364309Y-103008809D01*
X141424785Y-102978571D01*
X141455023Y-102948333D01*
X141485261Y-102887857D01*
X141485261Y-102766904D01*
X141455023Y-102706428D01*
X141424785Y-102676190D01*
X141364309Y-102645952D01*
X140850261Y-102645952D01*
X141061928Y-102071428D02*
X141485261Y-102071428D01*
X140820023Y-102222619D02*
X141273595Y-102373809D01*
X141273595Y-101980714D01*
X137120690Y-106713261D02*
X137483547Y-106713261D01*
X137302119Y-107348261D02*
X137302119Y-106713261D01*
X137695214Y-107348261D02*
X137695214Y-106713261D01*
X137937119Y-106713261D01*
X137997595Y-106743500D01*
X138027833Y-106773738D01*
X138058071Y-106834214D01*
X138058071Y-106924928D01*
X138027833Y-106985404D01*
X137997595Y-107015642D01*
X137937119Y-107045880D01*
X137695214Y-107045880D01*
X138269738Y-106713261D02*
X138693071Y-106713261D01*
X138420928Y-107348261D01*
X137311190Y-107632500D02*
X137250714Y-107602261D01*
X137160000Y-107602261D01*
X137069285Y-107632500D01*
X137008809Y-107692976D01*
X136978571Y-107753452D01*
X136948333Y-107874404D01*
X136948333Y-107965119D01*
X136978571Y-108086071D01*
X137008809Y-108146547D01*
X137069285Y-108207023D01*
X137160000Y-108237261D01*
X137220476Y-108237261D01*
X137311190Y-108207023D01*
X137341428Y-108176785D01*
X137341428Y-107965119D01*
X137220476Y-107965119D01*
X137613571Y-108237261D02*
X137613571Y-107602261D01*
X137976428Y-108237261D01*
X137976428Y-107602261D01*
X138278809Y-108237261D02*
X138278809Y-107602261D01*
X138430000Y-107602261D01*
X138520714Y-107632500D01*
X138581190Y-107692976D01*
X138611428Y-107753452D01*
X138641666Y-107874404D01*
X138641666Y-107965119D01*
X138611428Y-108086071D01*
X138581190Y-108146547D01*
X138520714Y-108207023D01*
X138430000Y-108237261D01*
X138278809Y-108237261D01*
X137193261Y-86768214D02*
X136890880Y-86979880D01*
X137193261Y-87131071D02*
X136558261Y-87131071D01*
X136558261Y-86889166D01*
X136588500Y-86828690D01*
X136618738Y-86798452D01*
X136679214Y-86768214D01*
X136769928Y-86768214D01*
X136830404Y-86798452D01*
X136860642Y-86828690D01*
X136890880Y-86889166D01*
X136890880Y-87131071D01*
X136618738Y-86526309D02*
X136588500Y-86496071D01*
X136558261Y-86435595D01*
X136558261Y-86284404D01*
X136588500Y-86223928D01*
X136618738Y-86193690D01*
X136679214Y-86163452D01*
X136739690Y-86163452D01*
X136830404Y-86193690D01*
X137193261Y-86556547D01*
X137193261Y-86163452D01*
X136618738Y-85921547D02*
X136588500Y-85891309D01*
X136558261Y-85830833D01*
X136558261Y-85679642D01*
X136588500Y-85619166D01*
X136618738Y-85588928D01*
X136679214Y-85558690D01*
X136739690Y-85558690D01*
X136830404Y-85588928D01*
X137193261Y-85951785D01*
X137193261Y-85558690D01*
X144631833Y-91013642D02*
X144420166Y-91013642D01*
X144420166Y-91346261D02*
X144420166Y-90711261D01*
X144722547Y-90711261D01*
X145176119Y-91013642D02*
X145266833Y-91043880D01*
X145297071Y-91074119D01*
X145327309Y-91134595D01*
X145327309Y-91225309D01*
X145297071Y-91285785D01*
X145266833Y-91316023D01*
X145206357Y-91346261D01*
X144964452Y-91346261D01*
X144964452Y-90711261D01*
X145176119Y-90711261D01*
X145236595Y-90741500D01*
X145266833Y-90771738D01*
X145297071Y-90832214D01*
X145297071Y-90892690D01*
X145266833Y-90953166D01*
X145236595Y-90983404D01*
X145176119Y-91013642D01*
X144964452Y-91013642D01*
X145569214Y-90771738D02*
X145599452Y-90741500D01*
X145659928Y-90711261D01*
X145811119Y-90711261D01*
X145871595Y-90741500D01*
X145901833Y-90771738D01*
X145932071Y-90832214D01*
X145932071Y-90892690D01*
X145901833Y-90983404D01*
X145538976Y-91346261D01*
X145932071Y-91346261D01*
X123465166Y-102649261D02*
X123253500Y-102346880D01*
X123102309Y-102649261D02*
X123102309Y-102014261D01*
X123344214Y-102014261D01*
X123404690Y-102044500D01*
X123434928Y-102074738D01*
X123465166Y-102135214D01*
X123465166Y-102225928D01*
X123434928Y-102286404D01*
X123404690Y-102316642D01*
X123344214Y-102346880D01*
X123102309Y-102346880D01*
X124009452Y-102225928D02*
X124009452Y-102649261D01*
X123858261Y-101984023D02*
X123707071Y-102437595D01*
X124100166Y-102437595D01*
X147353261Y-103024214D02*
X147050880Y-103235880D01*
X147353261Y-103387071D02*
X146718261Y-103387071D01*
X146718261Y-103145166D01*
X146748500Y-103084690D01*
X146778738Y-103054452D01*
X146839214Y-103024214D01*
X146929928Y-103024214D01*
X146990404Y-103054452D01*
X147020642Y-103084690D01*
X147050880Y-103145166D01*
X147050880Y-103387071D01*
X147353261Y-102419452D02*
X147353261Y-102782309D01*
X147353261Y-102600880D02*
X146718261Y-102600880D01*
X146808976Y-102661357D01*
X146869452Y-102721833D01*
X146899690Y-102782309D01*
X146718261Y-101844928D02*
X146718261Y-102147309D01*
X147020642Y-102177547D01*
X146990404Y-102147309D01*
X146960166Y-102086833D01*
X146960166Y-101935642D01*
X146990404Y-101875166D01*
X147020642Y-101844928D01*
X147081119Y-101814690D01*
X147232309Y-101814690D01*
X147292785Y-101844928D01*
X147323023Y-101875166D01*
X147353261Y-101935642D01*
X147353261Y-102086833D01*
X147323023Y-102147309D01*
X147292785Y-102177547D01*
X141323785Y-105636785D02*
X141293547Y-105667023D01*
X141202833Y-105697261D01*
X141142357Y-105697261D01*
X141051642Y-105667023D01*
X140991166Y-105606547D01*
X140960928Y-105546071D01*
X140930690Y-105425119D01*
X140930690Y-105334404D01*
X140960928Y-105213452D01*
X140991166Y-105152976D01*
X141051642Y-105092500D01*
X141142357Y-105062261D01*
X141202833Y-105062261D01*
X141293547Y-105092500D01*
X141323785Y-105122738D01*
X141535452Y-105062261D02*
X141928547Y-105062261D01*
X141716880Y-105304166D01*
X141807595Y-105304166D01*
X141868071Y-105334404D01*
X141898309Y-105364642D01*
X141928547Y-105425119D01*
X141928547Y-105576309D01*
X141898309Y-105636785D01*
X141868071Y-105667023D01*
X141807595Y-105697261D01*
X141626166Y-105697261D01*
X141565690Y-105667023D01*
X141535452Y-105636785D01*
X142230928Y-105697261D02*
X142351880Y-105697261D01*
X142412357Y-105667023D01*
X142442595Y-105636785D01*
X142503071Y-105546071D01*
X142533309Y-105425119D01*
X142533309Y-105183214D01*
X142503071Y-105122738D01*
X142472833Y-105092500D01*
X142412357Y-105062261D01*
X142291404Y-105062261D01*
X142230928Y-105092500D01*
X142200690Y-105122738D01*
X142170452Y-105183214D01*
X142170452Y-105334404D01*
X142200690Y-105394880D01*
X142230928Y-105425119D01*
X142291404Y-105455357D01*
X142412357Y-105455357D01*
X142472833Y-105425119D01*
X142503071Y-105394880D01*
X142533309Y-105334404D01*
X131291785Y-101387261D02*
X131080119Y-101084880D01*
X130928928Y-101387261D02*
X130928928Y-100752261D01*
X131170833Y-100752261D01*
X131231309Y-100782500D01*
X131261547Y-100812738D01*
X131291785Y-100873214D01*
X131291785Y-100963928D01*
X131261547Y-101024404D01*
X131231309Y-101054642D01*
X131170833Y-101084880D01*
X130928928Y-101084880D01*
X131533690Y-100812738D02*
X131563928Y-100782500D01*
X131624404Y-100752261D01*
X131775595Y-100752261D01*
X131836071Y-100782500D01*
X131866309Y-100812738D01*
X131896547Y-100873214D01*
X131896547Y-100933690D01*
X131866309Y-101024404D01*
X131503452Y-101387261D01*
X131896547Y-101387261D01*
X132289642Y-100752261D02*
X132350119Y-100752261D01*
X132410595Y-100782500D01*
X132440833Y-100812738D01*
X132471071Y-100873214D01*
X132501309Y-100994166D01*
X132501309Y-101145357D01*
X132471071Y-101266309D01*
X132440833Y-101326785D01*
X132410595Y-101357023D01*
X132350119Y-101387261D01*
X132289642Y-101387261D01*
X132229166Y-101357023D01*
X132198928Y-101326785D01*
X132168690Y-101266309D01*
X132138452Y-101145357D01*
X132138452Y-100994166D01*
X132168690Y-100873214D01*
X132198928Y-100812738D01*
X132229166Y-100782500D01*
X132289642Y-100752261D01*
X127694166Y-90457261D02*
X127482500Y-90154880D01*
X127331309Y-90457261D02*
X127331309Y-89822261D01*
X127573214Y-89822261D01*
X127633690Y-89852500D01*
X127663928Y-89882738D01*
X127694166Y-89943214D01*
X127694166Y-90033928D01*
X127663928Y-90094404D01*
X127633690Y-90124642D01*
X127573214Y-90154880D01*
X127331309Y-90154880D01*
X127936071Y-89882738D02*
X127966309Y-89852500D01*
X128026785Y-89822261D01*
X128177976Y-89822261D01*
X128238452Y-89852500D01*
X128268690Y-89882738D01*
X128298928Y-89943214D01*
X128298928Y-90003690D01*
X128268690Y-90094404D01*
X127905833Y-90457261D01*
X128298928Y-90457261D01*
X150213785Y-116613214D02*
X150244023Y-116643452D01*
X150274261Y-116734166D01*
X150274261Y-116794642D01*
X150244023Y-116885357D01*
X150183547Y-116945833D01*
X150123071Y-116976071D01*
X150002119Y-117006309D01*
X149911404Y-117006309D01*
X149790452Y-116976071D01*
X149729976Y-116945833D01*
X149669500Y-116885357D01*
X149639261Y-116794642D01*
X149639261Y-116734166D01*
X149669500Y-116643452D01*
X149699738Y-116613214D01*
X149699738Y-116371309D02*
X149669500Y-116341071D01*
X149639261Y-116280595D01*
X149639261Y-116129404D01*
X149669500Y-116068928D01*
X149699738Y-116038690D01*
X149760214Y-116008452D01*
X149820690Y-116008452D01*
X149911404Y-116038690D01*
X150274261Y-116401547D01*
X150274261Y-116008452D01*
X149639261Y-115796785D02*
X149639261Y-115403690D01*
X149881166Y-115615357D01*
X149881166Y-115524642D01*
X149911404Y-115464166D01*
X149941642Y-115433928D01*
X150002119Y-115403690D01*
X150153309Y-115403690D01*
X150213785Y-115433928D01*
X150244023Y-115464166D01*
X150274261Y-115524642D01*
X150274261Y-115706071D01*
X150244023Y-115766547D01*
X150213785Y-115796785D01*
X134789166Y-90778785D02*
X134758928Y-90809023D01*
X134668214Y-90839261D01*
X134607738Y-90839261D01*
X134517023Y-90809023D01*
X134456547Y-90748547D01*
X134426309Y-90688071D01*
X134396071Y-90567119D01*
X134396071Y-90476404D01*
X134426309Y-90355452D01*
X134456547Y-90294976D01*
X134517023Y-90234500D01*
X134607738Y-90204261D01*
X134668214Y-90204261D01*
X134758928Y-90234500D01*
X134789166Y-90264738D01*
X135393928Y-90839261D02*
X135031071Y-90839261D01*
X135212500Y-90839261D02*
X135212500Y-90204261D01*
X135152023Y-90294976D01*
X135091547Y-90355452D01*
X135031071Y-90385690D01*
X119705785Y-102588785D02*
X119675547Y-102619023D01*
X119584833Y-102649261D01*
X119524357Y-102649261D01*
X119433642Y-102619023D01*
X119373166Y-102558547D01*
X119342928Y-102498071D01*
X119312690Y-102377119D01*
X119312690Y-102286404D01*
X119342928Y-102165452D01*
X119373166Y-102104976D01*
X119433642Y-102044500D01*
X119524357Y-102014261D01*
X119584833Y-102014261D01*
X119675547Y-102044500D01*
X119705785Y-102074738D01*
X120310547Y-102649261D02*
X119947690Y-102649261D01*
X120129119Y-102649261D02*
X120129119Y-102014261D01*
X120068642Y-102104976D01*
X120008166Y-102165452D01*
X119947690Y-102195690D01*
X120703642Y-102014261D02*
X120764119Y-102014261D01*
X120824595Y-102044500D01*
X120854833Y-102074738D01*
X120885071Y-102135214D01*
X120915309Y-102256166D01*
X120915309Y-102407357D01*
X120885071Y-102528309D01*
X120854833Y-102588785D01*
X120824595Y-102619023D01*
X120764119Y-102649261D01*
X120703642Y-102649261D01*
X120643166Y-102619023D01*
X120612928Y-102588785D01*
X120582690Y-102528309D01*
X120552452Y-102407357D01*
X120552452Y-102256166D01*
X120582690Y-102135214D01*
X120612928Y-102074738D01*
X120643166Y-102044500D01*
X120703642Y-102014261D01*
X139291785Y-91920785D02*
X139261547Y-91951023D01*
X139170833Y-91981261D01*
X139110357Y-91981261D01*
X139019642Y-91951023D01*
X138959166Y-91890547D01*
X138928928Y-91830071D01*
X138898690Y-91709119D01*
X138898690Y-91618404D01*
X138928928Y-91497452D01*
X138959166Y-91436976D01*
X139019642Y-91376500D01*
X139110357Y-91346261D01*
X139170833Y-91346261D01*
X139261547Y-91376500D01*
X139291785Y-91406738D01*
X139533690Y-91406738D02*
X139563928Y-91376500D01*
X139624404Y-91346261D01*
X139775595Y-91346261D01*
X139836071Y-91376500D01*
X139866309Y-91406738D01*
X139896547Y-91467214D01*
X139896547Y-91527690D01*
X139866309Y-91618404D01*
X139503452Y-91981261D01*
X139896547Y-91981261D01*
X140138452Y-91406738D02*
X140168690Y-91376500D01*
X140229166Y-91346261D01*
X140380357Y-91346261D01*
X140440833Y-91376500D01*
X140471071Y-91406738D01*
X140501309Y-91467214D01*
X140501309Y-91527690D01*
X140471071Y-91618404D01*
X140108214Y-91981261D01*
X140501309Y-91981261D01*
X130520785Y-111382214D02*
X130551023Y-111412452D01*
X130581261Y-111503166D01*
X130581261Y-111563642D01*
X130551023Y-111654357D01*
X130490547Y-111714833D01*
X130430071Y-111745071D01*
X130309119Y-111775309D01*
X130218404Y-111775309D01*
X130097452Y-111745071D01*
X130036976Y-111714833D01*
X129976500Y-111654357D01*
X129946261Y-111563642D01*
X129946261Y-111503166D01*
X129976500Y-111412452D01*
X130006738Y-111382214D01*
X129946261Y-111170547D02*
X129946261Y-110777452D01*
X130188166Y-110989119D01*
X130188166Y-110898404D01*
X130218404Y-110837928D01*
X130248642Y-110807690D01*
X130309119Y-110777452D01*
X130460309Y-110777452D01*
X130520785Y-110807690D01*
X130551023Y-110837928D01*
X130581261Y-110898404D01*
X130581261Y-111079833D01*
X130551023Y-111140309D01*
X130520785Y-111170547D01*
X129946261Y-110233166D02*
X129946261Y-110354119D01*
X129976500Y-110414595D01*
X130006738Y-110444833D01*
X130097452Y-110505309D01*
X130218404Y-110535547D01*
X130460309Y-110535547D01*
X130520785Y-110505309D01*
X130551023Y-110475071D01*
X130581261Y-110414595D01*
X130581261Y-110293642D01*
X130551023Y-110233166D01*
X130520785Y-110202928D01*
X130460309Y-110172690D01*
X130309119Y-110172690D01*
X130248642Y-110202928D01*
X130218404Y-110233166D01*
X130188166Y-110293642D01*
X130188166Y-110414595D01*
X130218404Y-110475071D01*
X130248642Y-110505309D01*
X130309119Y-110535547D01*
X153896785Y-93753214D02*
X153927023Y-93783452D01*
X153957261Y-93874166D01*
X153957261Y-93934642D01*
X153927023Y-94025357D01*
X153866547Y-94085833D01*
X153806071Y-94116071D01*
X153685119Y-94146309D01*
X153594404Y-94146309D01*
X153473452Y-94116071D01*
X153412976Y-94085833D01*
X153352500Y-94025357D01*
X153322261Y-93934642D01*
X153322261Y-93874166D01*
X153352500Y-93783452D01*
X153382738Y-93753214D01*
X153957261Y-93148452D02*
X153957261Y-93511309D01*
X153957261Y-93329880D02*
X153322261Y-93329880D01*
X153412976Y-93390357D01*
X153473452Y-93450833D01*
X153503690Y-93511309D01*
X153322261Y-92936785D02*
X153322261Y-92543690D01*
X153564166Y-92755357D01*
X153564166Y-92664642D01*
X153594404Y-92604166D01*
X153624642Y-92573928D01*
X153685119Y-92543690D01*
X153836309Y-92543690D01*
X153896785Y-92573928D01*
X153927023Y-92604166D01*
X153957261Y-92664642D01*
X153957261Y-92846071D01*
X153927023Y-92906547D01*
X153896785Y-92936785D01*
X130898261Y-117816690D02*
X130263261Y-117816690D01*
X130263261Y-117665500D01*
X130293500Y-117574785D01*
X130353976Y-117514309D01*
X130414452Y-117484071D01*
X130535404Y-117453833D01*
X130626119Y-117453833D01*
X130747071Y-117484071D01*
X130807547Y-117514309D01*
X130868023Y-117574785D01*
X130898261Y-117665500D01*
X130898261Y-117816690D01*
X130898261Y-116849071D02*
X130898261Y-117211928D01*
X130898261Y-117030500D02*
X130263261Y-117030500D01*
X130353976Y-117090976D01*
X130414452Y-117151452D01*
X130444690Y-117211928D01*
X122644166Y-109705761D02*
X122432500Y-109403380D01*
X122281309Y-109705761D02*
X122281309Y-109070761D01*
X122523214Y-109070761D01*
X122583690Y-109101000D01*
X122613928Y-109131238D01*
X122644166Y-109191714D01*
X122644166Y-109282428D01*
X122613928Y-109342904D01*
X122583690Y-109373142D01*
X122523214Y-109403380D01*
X122281309Y-109403380D01*
X123007023Y-109342904D02*
X122946547Y-109312666D01*
X122916309Y-109282428D01*
X122886071Y-109221952D01*
X122886071Y-109191714D01*
X122916309Y-109131238D01*
X122946547Y-109101000D01*
X123007023Y-109070761D01*
X123127976Y-109070761D01*
X123188452Y-109101000D01*
X123218690Y-109131238D01*
X123248928Y-109191714D01*
X123248928Y-109221952D01*
X123218690Y-109282428D01*
X123188452Y-109312666D01*
X123127976Y-109342904D01*
X123007023Y-109342904D01*
X122946547Y-109373142D01*
X122916309Y-109403380D01*
X122886071Y-109463857D01*
X122886071Y-109584809D01*
X122916309Y-109645285D01*
X122946547Y-109675523D01*
X123007023Y-109705761D01*
X123127976Y-109705761D01*
X123188452Y-109675523D01*
X123218690Y-109645285D01*
X123248928Y-109584809D01*
X123248928Y-109463857D01*
X123218690Y-109403380D01*
X123188452Y-109373142D01*
X123127976Y-109342904D01*
X146772690Y-115552261D02*
X147135547Y-115552261D01*
X146954119Y-116187261D02*
X146954119Y-115552261D01*
X147347214Y-116187261D02*
X147347214Y-115552261D01*
X147589119Y-115552261D01*
X147649595Y-115582500D01*
X147679833Y-115612738D01*
X147710071Y-115673214D01*
X147710071Y-115763928D01*
X147679833Y-115824404D01*
X147649595Y-115854642D01*
X147589119Y-115884880D01*
X147347214Y-115884880D01*
X147921738Y-115552261D02*
X148314833Y-115552261D01*
X148103166Y-115794166D01*
X148193880Y-115794166D01*
X148254357Y-115824404D01*
X148284595Y-115854642D01*
X148314833Y-115915119D01*
X148314833Y-116066309D01*
X148284595Y-116126785D01*
X148254357Y-116157023D01*
X148193880Y-116187261D01*
X148012452Y-116187261D01*
X147951976Y-116157023D01*
X147921738Y-116126785D01*
X146258642Y-118852642D02*
X146349357Y-118882880D01*
X146379595Y-118913119D01*
X146409833Y-118973595D01*
X146409833Y-119064309D01*
X146379595Y-119124785D01*
X146349357Y-119155023D01*
X146288880Y-119185261D01*
X146046976Y-119185261D01*
X146046976Y-118550261D01*
X146258642Y-118550261D01*
X146319119Y-118580500D01*
X146349357Y-118610738D01*
X146379595Y-118671214D01*
X146379595Y-118731690D01*
X146349357Y-118792166D01*
X146319119Y-118822404D01*
X146258642Y-118852642D01*
X146046976Y-118852642D01*
X146954119Y-119185261D02*
X146954119Y-118852642D01*
X146923880Y-118792166D01*
X146863404Y-118761928D01*
X146742452Y-118761928D01*
X146681976Y-118792166D01*
X146954119Y-119155023D02*
X146893642Y-119185261D01*
X146742452Y-119185261D01*
X146681976Y-119155023D01*
X146651738Y-119094547D01*
X146651738Y-119034071D01*
X146681976Y-118973595D01*
X146742452Y-118943357D01*
X146893642Y-118943357D01*
X146954119Y-118913119D01*
X147165785Y-118761928D02*
X147407690Y-118761928D01*
X147256500Y-118550261D02*
X147256500Y-119094547D01*
X147286738Y-119155023D01*
X147347214Y-119185261D01*
X147407690Y-119185261D01*
X147528642Y-118761928D02*
X147770547Y-118761928D01*
X147619357Y-118550261D02*
X147619357Y-119094547D01*
X147649595Y-119155023D01*
X147710071Y-119185261D01*
X147770547Y-119185261D01*
X148224119Y-119155023D02*
X148163642Y-119185261D01*
X148042690Y-119185261D01*
X147982214Y-119155023D01*
X147951976Y-119094547D01*
X147951976Y-118852642D01*
X147982214Y-118792166D01*
X148042690Y-118761928D01*
X148163642Y-118761928D01*
X148224119Y-118792166D01*
X148254357Y-118852642D01*
X148254357Y-118913119D01*
X147951976Y-118973595D01*
X148526500Y-119185261D02*
X148526500Y-118761928D01*
X148526500Y-118882880D02*
X148556738Y-118822404D01*
X148586976Y-118792166D01*
X148647452Y-118761928D01*
X148707928Y-118761928D01*
X148859119Y-118761928D02*
X149010309Y-119185261D01*
X149161500Y-118761928D02*
X149010309Y-119185261D01*
X148949833Y-119336452D01*
X148919595Y-119366690D01*
X148859119Y-119396928D01*
X125116190Y-91652261D02*
X125116190Y-92166309D01*
X125146428Y-92226785D01*
X125176666Y-92257023D01*
X125237142Y-92287261D01*
X125358095Y-92287261D01*
X125418571Y-92257023D01*
X125448809Y-92226785D01*
X125479047Y-92166309D01*
X125479047Y-91652261D01*
X126114047Y-92287261D02*
X125751190Y-92287261D01*
X125932619Y-92287261D02*
X125932619Y-91652261D01*
X125872142Y-91742976D01*
X125811666Y-91803452D01*
X125751190Y-91833690D01*
X150213785Y-118645214D02*
X150244023Y-118675452D01*
X150274261Y-118766166D01*
X150274261Y-118826642D01*
X150244023Y-118917357D01*
X150183547Y-118977833D01*
X150123071Y-119008071D01*
X150002119Y-119038309D01*
X149911404Y-119038309D01*
X149790452Y-119008071D01*
X149729976Y-118977833D01*
X149669500Y-118917357D01*
X149639261Y-118826642D01*
X149639261Y-118766166D01*
X149669500Y-118675452D01*
X149699738Y-118645214D01*
X149699738Y-118403309D02*
X149669500Y-118373071D01*
X149639261Y-118312595D01*
X149639261Y-118161404D01*
X149669500Y-118100928D01*
X149699738Y-118070690D01*
X149760214Y-118040452D01*
X149820690Y-118040452D01*
X149911404Y-118070690D01*
X150274261Y-118433547D01*
X150274261Y-118040452D01*
X149850928Y-117496166D02*
X150274261Y-117496166D01*
X149609023Y-117647357D02*
X150062595Y-117798547D01*
X150062595Y-117405452D01*
X143482785Y-110136214D02*
X143513023Y-110166452D01*
X143543261Y-110257166D01*
X143543261Y-110317642D01*
X143513023Y-110408357D01*
X143452547Y-110468833D01*
X143392071Y-110499071D01*
X143271119Y-110529309D01*
X143180404Y-110529309D01*
X143059452Y-110499071D01*
X142998976Y-110468833D01*
X142938500Y-110408357D01*
X142908261Y-110317642D01*
X142908261Y-110257166D01*
X142938500Y-110166452D01*
X142968738Y-110136214D01*
X142908261Y-109924547D02*
X142908261Y-109531452D01*
X143150166Y-109743119D01*
X143150166Y-109652404D01*
X143180404Y-109591928D01*
X143210642Y-109561690D01*
X143271119Y-109531452D01*
X143422309Y-109531452D01*
X143482785Y-109561690D01*
X143513023Y-109591928D01*
X143543261Y-109652404D01*
X143543261Y-109833833D01*
X143513023Y-109894309D01*
X143482785Y-109924547D01*
X142908261Y-109138357D02*
X142908261Y-109077880D01*
X142938500Y-109017404D01*
X142968738Y-108987166D01*
X143029214Y-108956928D01*
X143150166Y-108926690D01*
X143301357Y-108926690D01*
X143422309Y-108956928D01*
X143482785Y-108987166D01*
X143513023Y-109017404D01*
X143543261Y-109077880D01*
X143543261Y-109138357D01*
X143513023Y-109198833D01*
X143482785Y-109229071D01*
X143422309Y-109259309D01*
X143301357Y-109289547D01*
X143150166Y-109289547D01*
X143029214Y-109259309D01*
X142968738Y-109229071D01*
X142938500Y-109198833D01*
X142908261Y-109138357D01*
X144687261Y-117840214D02*
X144384880Y-118051880D01*
X144687261Y-118203071D02*
X144052261Y-118203071D01*
X144052261Y-117961166D01*
X144082500Y-117900690D01*
X144112738Y-117870452D01*
X144173214Y-117840214D01*
X144263928Y-117840214D01*
X144324404Y-117870452D01*
X144354642Y-117900690D01*
X144384880Y-117961166D01*
X144384880Y-118203071D01*
X144052261Y-117628547D02*
X144052261Y-117235452D01*
X144294166Y-117447119D01*
X144294166Y-117356404D01*
X144324404Y-117295928D01*
X144354642Y-117265690D01*
X144415119Y-117235452D01*
X144566309Y-117235452D01*
X144626785Y-117265690D01*
X144657023Y-117295928D01*
X144687261Y-117356404D01*
X144687261Y-117537833D01*
X144657023Y-117598309D01*
X144626785Y-117628547D01*
X144052261Y-116842357D02*
X144052261Y-116781880D01*
X144082500Y-116721404D01*
X144112738Y-116691166D01*
X144173214Y-116660928D01*
X144294166Y-116630690D01*
X144445357Y-116630690D01*
X144566309Y-116660928D01*
X144626785Y-116691166D01*
X144657023Y-116721404D01*
X144687261Y-116781880D01*
X144687261Y-116842357D01*
X144657023Y-116902833D01*
X144626785Y-116933071D01*
X144566309Y-116963309D01*
X144445357Y-116993547D01*
X144294166Y-116993547D01*
X144173214Y-116963309D01*
X144112738Y-116933071D01*
X144082500Y-116902833D01*
X144052261Y-116842357D01*
X150836690Y-103995261D02*
X151199547Y-103995261D01*
X151018119Y-104630261D02*
X151018119Y-103995261D01*
X151411214Y-104630261D02*
X151411214Y-103995261D01*
X151653119Y-103995261D01*
X151713595Y-104025500D01*
X151743833Y-104055738D01*
X151774071Y-104116214D01*
X151774071Y-104206928D01*
X151743833Y-104267404D01*
X151713595Y-104297642D01*
X151653119Y-104327880D01*
X151411214Y-104327880D01*
X152348595Y-103995261D02*
X152046214Y-103995261D01*
X152015976Y-104297642D01*
X152046214Y-104267404D01*
X152106690Y-104237166D01*
X152257880Y-104237166D01*
X152318357Y-104267404D01*
X152348595Y-104297642D01*
X152378833Y-104358119D01*
X152378833Y-104509309D01*
X152348595Y-104569785D01*
X152318357Y-104600023D01*
X152257880Y-104630261D01*
X152106690Y-104630261D01*
X152046214Y-104600023D01*
X152015976Y-104569785D01*
X151184428Y-107204928D02*
X151184428Y-107628261D01*
X151033238Y-106963023D02*
X150882047Y-107416595D01*
X151275142Y-107416595D01*
X151426333Y-106993261D02*
X151638000Y-107628261D01*
X151849666Y-106993261D01*
X152363714Y-106993261D02*
X152061333Y-106993261D01*
X152031095Y-107295642D01*
X152061333Y-107265404D01*
X152121809Y-107235166D01*
X152273000Y-107235166D01*
X152333476Y-107265404D01*
X152363714Y-107295642D01*
X152393952Y-107356119D01*
X152393952Y-107507309D01*
X152363714Y-107567785D01*
X152333476Y-107598023D01*
X152273000Y-107628261D01*
X152121809Y-107628261D01*
X152061333Y-107598023D01*
X152031095Y-107567785D01*
X125186785Y-111890214D02*
X125217023Y-111920452D01*
X125247261Y-112011166D01*
X125247261Y-112071642D01*
X125217023Y-112162357D01*
X125156547Y-112222833D01*
X125096071Y-112253071D01*
X124975119Y-112283309D01*
X124884404Y-112283309D01*
X124763452Y-112253071D01*
X124702976Y-112222833D01*
X124642500Y-112162357D01*
X124612261Y-112071642D01*
X124612261Y-112011166D01*
X124642500Y-111920452D01*
X124672738Y-111890214D01*
X124672738Y-111648309D02*
X124642500Y-111618071D01*
X124612261Y-111557595D01*
X124612261Y-111406404D01*
X124642500Y-111345928D01*
X124672738Y-111315690D01*
X124733214Y-111285452D01*
X124793690Y-111285452D01*
X124884404Y-111315690D01*
X125247261Y-111678547D01*
X125247261Y-111285452D01*
X124884404Y-110922595D02*
X124854166Y-110983071D01*
X124823928Y-111013309D01*
X124763452Y-111043547D01*
X124733214Y-111043547D01*
X124672738Y-111013309D01*
X124642500Y-110983071D01*
X124612261Y-110922595D01*
X124612261Y-110801642D01*
X124642500Y-110741166D01*
X124672738Y-110710928D01*
X124733214Y-110680690D01*
X124763452Y-110680690D01*
X124823928Y-110710928D01*
X124854166Y-110741166D01*
X124884404Y-110801642D01*
X124884404Y-110922595D01*
X124914642Y-110983071D01*
X124944880Y-111013309D01*
X125005357Y-111043547D01*
X125126309Y-111043547D01*
X125186785Y-111013309D01*
X125217023Y-110983071D01*
X125247261Y-110922595D01*
X125247261Y-110801642D01*
X125217023Y-110741166D01*
X125186785Y-110710928D01*
X125126309Y-110680690D01*
X125005357Y-110680690D01*
X124944880Y-110710928D01*
X124914642Y-110741166D01*
X124884404Y-110801642D01*
X124326785Y-92181833D02*
X124357023Y-92212071D01*
X124387261Y-92302785D01*
X124387261Y-92363261D01*
X124357023Y-92453976D01*
X124296547Y-92514452D01*
X124236071Y-92544690D01*
X124115119Y-92574928D01*
X124024404Y-92574928D01*
X123903452Y-92544690D01*
X123842976Y-92514452D01*
X123782500Y-92453976D01*
X123752261Y-92363261D01*
X123752261Y-92302785D01*
X123782500Y-92212071D01*
X123812738Y-92181833D01*
X123752261Y-91970166D02*
X123752261Y-91546833D01*
X124387261Y-91818976D01*
X136392785Y-93387261D02*
X136181119Y-93084880D01*
X136029928Y-93387261D02*
X136029928Y-92752261D01*
X136271833Y-92752261D01*
X136332309Y-92782500D01*
X136362547Y-92812738D01*
X136392785Y-92873214D01*
X136392785Y-92963928D01*
X136362547Y-93024404D01*
X136332309Y-93054642D01*
X136271833Y-93084880D01*
X136029928Y-93084880D01*
X136997547Y-93387261D02*
X136634690Y-93387261D01*
X136816119Y-93387261D02*
X136816119Y-92752261D01*
X136755642Y-92842976D01*
X136695166Y-92903452D01*
X136634690Y-92933690D01*
X137239452Y-92812738D02*
X137269690Y-92782500D01*
X137330166Y-92752261D01*
X137481357Y-92752261D01*
X137541833Y-92782500D01*
X137572071Y-92812738D01*
X137602309Y-92873214D01*
X137602309Y-92933690D01*
X137572071Y-93024404D01*
X137209214Y-93387261D01*
X137602309Y-93387261D01*
X134789166Y-91794785D02*
X134758928Y-91825023D01*
X134668214Y-91855261D01*
X134607738Y-91855261D01*
X134517023Y-91825023D01*
X134456547Y-91764547D01*
X134426309Y-91704071D01*
X134396071Y-91583119D01*
X134396071Y-91492404D01*
X134426309Y-91371452D01*
X134456547Y-91310976D01*
X134517023Y-91250500D01*
X134607738Y-91220261D01*
X134668214Y-91220261D01*
X134758928Y-91250500D01*
X134789166Y-91280738D01*
X135333452Y-91220261D02*
X135212500Y-91220261D01*
X135152023Y-91250500D01*
X135121785Y-91280738D01*
X135061309Y-91371452D01*
X135031071Y-91492404D01*
X135031071Y-91734309D01*
X135061309Y-91794785D01*
X135091547Y-91825023D01*
X135152023Y-91855261D01*
X135272976Y-91855261D01*
X135333452Y-91825023D01*
X135363690Y-91794785D01*
X135393928Y-91734309D01*
X135393928Y-91583119D01*
X135363690Y-91522642D01*
X135333452Y-91492404D01*
X135272976Y-91462166D01*
X135152023Y-91462166D01*
X135091547Y-91492404D01*
X135061309Y-91522642D01*
X135031071Y-91583119D01*
X151483785Y-96746785D02*
X151453547Y-96777023D01*
X151362833Y-96807261D01*
X151302357Y-96807261D01*
X151211642Y-96777023D01*
X151151166Y-96716547D01*
X151120928Y-96656071D01*
X151090690Y-96535119D01*
X151090690Y-96444404D01*
X151120928Y-96323452D01*
X151151166Y-96262976D01*
X151211642Y-96202500D01*
X151302357Y-96172261D01*
X151362833Y-96172261D01*
X151453547Y-96202500D01*
X151483785Y-96232738D01*
X152088547Y-96807261D02*
X151725690Y-96807261D01*
X151907119Y-96807261D02*
X151907119Y-96172261D01*
X151846642Y-96262976D01*
X151786166Y-96323452D01*
X151725690Y-96353690D01*
X152693309Y-96807261D02*
X152330452Y-96807261D01*
X152511880Y-96807261D02*
X152511880Y-96172261D01*
X152451404Y-96262976D01*
X152390928Y-96323452D01*
X152330452Y-96353690D01*
X130770690Y-104681261D02*
X131133547Y-104681261D01*
X130952119Y-105316261D02*
X130952119Y-104681261D01*
X131345214Y-105316261D02*
X131345214Y-104681261D01*
X131587119Y-104681261D01*
X131647595Y-104711500D01*
X131677833Y-104741738D01*
X131708071Y-104802214D01*
X131708071Y-104892928D01*
X131677833Y-104953404D01*
X131647595Y-104983642D01*
X131587119Y-105013880D01*
X131345214Y-105013880D01*
X132312833Y-105316261D02*
X131949976Y-105316261D01*
X132131404Y-105316261D02*
X132131404Y-104681261D01*
X132070928Y-104771976D01*
X132010452Y-104832452D01*
X131949976Y-104862690D01*
X131284738Y-106332261D02*
X131073071Y-106029880D01*
X130921880Y-106332261D02*
X130921880Y-105697261D01*
X131163785Y-105697261D01*
X131224261Y-105727500D01*
X131254500Y-105757738D01*
X131284738Y-105818214D01*
X131284738Y-105908928D01*
X131254500Y-105969404D01*
X131224261Y-105999642D01*
X131163785Y-106029880D01*
X130921880Y-106029880D01*
X131556880Y-105999642D02*
X131768547Y-105999642D01*
X131859261Y-106332261D02*
X131556880Y-106332261D01*
X131556880Y-105697261D01*
X131859261Y-105697261D01*
X132101166Y-106302023D02*
X132191880Y-106332261D01*
X132343071Y-106332261D01*
X132403547Y-106302023D01*
X132433785Y-106271785D01*
X132464023Y-106211309D01*
X132464023Y-106150833D01*
X132433785Y-106090357D01*
X132403547Y-106060119D01*
X132343071Y-106029880D01*
X132222119Y-105999642D01*
X132161642Y-105969404D01*
X132131404Y-105939166D01*
X132101166Y-105878690D01*
X132101166Y-105818214D01*
X132131404Y-105757738D01*
X132161642Y-105727500D01*
X132222119Y-105697261D01*
X132373309Y-105697261D01*
X132464023Y-105727500D01*
X132736166Y-105999642D02*
X132947833Y-105999642D01*
X133038547Y-106332261D02*
X132736166Y-106332261D01*
X132736166Y-105697261D01*
X133038547Y-105697261D01*
X133219976Y-105697261D02*
X133582833Y-105697261D01*
X133401404Y-106332261D02*
X133401404Y-105697261D01*
X156885785Y-109608214D02*
X156916023Y-109638452D01*
X156946261Y-109729166D01*
X156946261Y-109789642D01*
X156916023Y-109880357D01*
X156855547Y-109940833D01*
X156795071Y-109971071D01*
X156674119Y-110001309D01*
X156583404Y-110001309D01*
X156462452Y-109971071D01*
X156401976Y-109940833D01*
X156341500Y-109880357D01*
X156311261Y-109789642D01*
X156311261Y-109729166D01*
X156341500Y-109638452D01*
X156371738Y-109608214D01*
X156946261Y-109003452D02*
X156946261Y-109366309D01*
X156946261Y-109184880D02*
X156311261Y-109184880D01*
X156401976Y-109245357D01*
X156462452Y-109305833D01*
X156492690Y-109366309D01*
X156311261Y-108791785D02*
X156311261Y-108368452D01*
X156946261Y-108640595D01*
X121573738Y-108462976D02*
X121543500Y-108523452D01*
X121483023Y-108583928D01*
X121392309Y-108674642D01*
X121362071Y-108735119D01*
X121362071Y-108795595D01*
X121513261Y-108765357D02*
X121483023Y-108825833D01*
X121422547Y-108886309D01*
X121301595Y-108916547D01*
X121089928Y-108916547D01*
X120968976Y-108886309D01*
X120908500Y-108825833D01*
X120878261Y-108765357D01*
X120878261Y-108644404D01*
X120908500Y-108583928D01*
X120968976Y-108523452D01*
X121089928Y-108493214D01*
X121301595Y-108493214D01*
X121422547Y-108523452D01*
X121483023Y-108583928D01*
X121513261Y-108644404D01*
X121513261Y-108765357D01*
X121513261Y-107888452D02*
X121513261Y-108251309D01*
X121513261Y-108069880D02*
X120878261Y-108069880D01*
X120968976Y-108130357D01*
X121029452Y-108190833D01*
X121059690Y-108251309D01*
X136392785Y-94394261D02*
X136181119Y-94091880D01*
X136029928Y-94394261D02*
X136029928Y-93759261D01*
X136271833Y-93759261D01*
X136332309Y-93789500D01*
X136362547Y-93819738D01*
X136392785Y-93880214D01*
X136392785Y-93970928D01*
X136362547Y-94031404D01*
X136332309Y-94061642D01*
X136271833Y-94091880D01*
X136029928Y-94091880D01*
X136997547Y-94394261D02*
X136634690Y-94394261D01*
X136816119Y-94394261D02*
X136816119Y-93759261D01*
X136755642Y-93849976D01*
X136695166Y-93910452D01*
X136634690Y-93940690D01*
X137209214Y-93759261D02*
X137632547Y-93759261D01*
X137360404Y-94394261D01*
X124862166Y-97761785D02*
X124831928Y-97792023D01*
X124741214Y-97822261D01*
X124680738Y-97822261D01*
X124590023Y-97792023D01*
X124529547Y-97731547D01*
X124499309Y-97671071D01*
X124469071Y-97550119D01*
X124469071Y-97459404D01*
X124499309Y-97338452D01*
X124529547Y-97277976D01*
X124590023Y-97217500D01*
X124680738Y-97187261D01*
X124741214Y-97187261D01*
X124831928Y-97217500D01*
X124862166Y-97247738D01*
X125406452Y-97398928D02*
X125406452Y-97822261D01*
X125255261Y-97157023D02*
X125104071Y-97610595D01*
X125497166Y-97610595D01*
X157991785Y-113444261D02*
X157780119Y-113141880D01*
X157628928Y-113444261D02*
X157628928Y-112809261D01*
X157870833Y-112809261D01*
X157931309Y-112839500D01*
X157961547Y-112869738D01*
X157991785Y-112930214D01*
X157991785Y-113020928D01*
X157961547Y-113081404D01*
X157931309Y-113111642D01*
X157870833Y-113141880D01*
X157628928Y-113141880D01*
X158596547Y-113444261D02*
X158233690Y-113444261D01*
X158415119Y-113444261D02*
X158415119Y-112809261D01*
X158354642Y-112899976D01*
X158294166Y-112960452D01*
X158233690Y-112990690D01*
X158959404Y-113081404D02*
X158898928Y-113051166D01*
X158868690Y-113020928D01*
X158838452Y-112960452D01*
X158838452Y-112930214D01*
X158868690Y-112869738D01*
X158898928Y-112839500D01*
X158959404Y-112809261D01*
X159080357Y-112809261D01*
X159140833Y-112839500D01*
X159171071Y-112869738D01*
X159201309Y-112930214D01*
X159201309Y-112960452D01*
X159171071Y-113020928D01*
X159140833Y-113051166D01*
X159080357Y-113081404D01*
X158959404Y-113081404D01*
X158898928Y-113111642D01*
X158868690Y-113141880D01*
X158838452Y-113202357D01*
X158838452Y-113323309D01*
X158868690Y-113383785D01*
X158898928Y-113414023D01*
X158959404Y-113444261D01*
X159080357Y-113444261D01*
X159140833Y-113414023D01*
X159171071Y-113383785D01*
X159201309Y-113323309D01*
X159201309Y-113202357D01*
X159171071Y-113141880D01*
X159140833Y-113111642D01*
X159080357Y-113081404D01*
X126456785Y-109897785D02*
X126426547Y-109928023D01*
X126335833Y-109958261D01*
X126275357Y-109958261D01*
X126184642Y-109928023D01*
X126124166Y-109867547D01*
X126093928Y-109807071D01*
X126063690Y-109686119D01*
X126063690Y-109595404D01*
X126093928Y-109474452D01*
X126124166Y-109413976D01*
X126184642Y-109353500D01*
X126275357Y-109323261D01*
X126335833Y-109323261D01*
X126426547Y-109353500D01*
X126456785Y-109383738D01*
X126698690Y-109383738D02*
X126728928Y-109353500D01*
X126789404Y-109323261D01*
X126940595Y-109323261D01*
X127001071Y-109353500D01*
X127031309Y-109383738D01*
X127061547Y-109444214D01*
X127061547Y-109504690D01*
X127031309Y-109595404D01*
X126668452Y-109958261D01*
X127061547Y-109958261D01*
X127273214Y-109323261D02*
X127696547Y-109323261D01*
X127424404Y-109958261D01*
X125002738Y-108462976D02*
X124972500Y-108523452D01*
X124912023Y-108583928D01*
X124821309Y-108674642D01*
X124791071Y-108735119D01*
X124791071Y-108795595D01*
X124942261Y-108765357D02*
X124912023Y-108825833D01*
X124851547Y-108886309D01*
X124730595Y-108916547D01*
X124518928Y-108916547D01*
X124397976Y-108886309D01*
X124337500Y-108825833D01*
X124307261Y-108765357D01*
X124307261Y-108644404D01*
X124337500Y-108583928D01*
X124397976Y-108523452D01*
X124518928Y-108493214D01*
X124730595Y-108493214D01*
X124851547Y-108523452D01*
X124912023Y-108583928D01*
X124942261Y-108644404D01*
X124942261Y-108765357D01*
X124367738Y-108251309D02*
X124337500Y-108221071D01*
X124307261Y-108160595D01*
X124307261Y-108009404D01*
X124337500Y-107948928D01*
X124367738Y-107918690D01*
X124428214Y-107888452D01*
X124488690Y-107888452D01*
X124579404Y-107918690D01*
X124942261Y-108281547D01*
X124942261Y-107888452D01*
X123027785Y-111261261D02*
X122816119Y-110958880D01*
X122664928Y-111261261D02*
X122664928Y-110626261D01*
X122906833Y-110626261D01*
X122967309Y-110656500D01*
X122997547Y-110686738D01*
X123027785Y-110747214D01*
X123027785Y-110837928D01*
X122997547Y-110898404D01*
X122967309Y-110928642D01*
X122906833Y-110958880D01*
X122664928Y-110958880D01*
X123239452Y-110626261D02*
X123632547Y-110626261D01*
X123420880Y-110868166D01*
X123511595Y-110868166D01*
X123572071Y-110898404D01*
X123602309Y-110928642D01*
X123632547Y-110989119D01*
X123632547Y-111140309D01*
X123602309Y-111200785D01*
X123572071Y-111231023D01*
X123511595Y-111261261D01*
X123330166Y-111261261D01*
X123269690Y-111231023D01*
X123239452Y-111200785D01*
X124237309Y-111261261D02*
X123874452Y-111261261D01*
X124055880Y-111261261D02*
X124055880Y-110626261D01*
X123995404Y-110716976D01*
X123934928Y-110777452D01*
X123874452Y-110807690D01*
D13*
X147446000Y-97890359D02*
X147446000Y-98197641D01*
X146686000Y-97890359D02*
X146686000Y-98197641D01*
X152946359Y-97520000D02*
X153253641Y-97520000D01*
X152946359Y-98280000D02*
X153253641Y-98280000D01*
X145555580Y-106170000D02*
X145274420Y-106170000D01*
X145555580Y-107190000D02*
X145274420Y-107190000D01*
X139003000Y-109790000D02*
X139003000Y-111190000D01*
X137603000Y-109790000D02*
X139003000Y-109790000D01*
X137603000Y-111190000D02*
X137603000Y-109790000D01*
X139003000Y-111190000D02*
X137603000Y-111190000D01*
X131099999Y-116300000D02*
X131099999Y-115000000D01*
X131899999Y-116300000D02*
X131899999Y-115000000D01*
X131899999Y-115000000D02*
X131099999Y-115000000D01*
X125202836Y-103018000D02*
X124987164Y-103018000D01*
X125202836Y-103738000D02*
X124987164Y-103738000D01*
X124460000Y-96031164D02*
X124460000Y-96246836D01*
X123740000Y-96031164D02*
X123740000Y-96246836D01*
X130367000Y-108396000D02*
X128967000Y-108396000D01*
X128967000Y-106996000D02*
X130367000Y-106996000D01*
X128967000Y-108396000D02*
X128967000Y-106996000D01*
X130367000Y-106996000D02*
X130367000Y-108396000D01*
X151220000Y-100246359D02*
X151220000Y-100553641D01*
X151980000Y-100246359D02*
X151980000Y-100553641D01*
X147045000Y-88626836D02*
X147045000Y-88411164D01*
X146325000Y-88626836D02*
X146325000Y-88411164D01*
X148465000Y-110503580D02*
X148465000Y-110222420D01*
X147445000Y-110503580D02*
X147445000Y-110222420D01*
X134880000Y-99646359D02*
X134880000Y-99953641D01*
X134120000Y-99646359D02*
X134120000Y-99953641D01*
X127860000Y-114002836D02*
X127860000Y-113787164D01*
X127140000Y-114002836D02*
X127140000Y-113787164D01*
X150030000Y-99540000D02*
X148000000Y-99540000D01*
X150030000Y-99540000D02*
X150030000Y-100200000D01*
X150030000Y-101200000D02*
X150030000Y-101860000D01*
X148620000Y-101860000D02*
X150030000Y-101860000D01*
X122422359Y-94488000D02*
X122729641Y-94488000D01*
X122422359Y-93728000D02*
X122729641Y-93728000D01*
X135170000Y-97898836D02*
X135170000Y-97683164D01*
X135890000Y-97898836D02*
X135890000Y-97683164D01*
X135127000Y-88291641D02*
X135127000Y-87984359D01*
X134367000Y-88291641D02*
X134367000Y-87984359D01*
X149632641Y-108711000D02*
X149325359Y-108711000D01*
X149632641Y-107951000D02*
X149325359Y-107951000D01*
X150057000Y-98463000D02*
X150057000Y-99123000D01*
X148647000Y-99123000D02*
X150057000Y-99123000D01*
X150057000Y-96803000D02*
X150057000Y-97463000D01*
X150057000Y-96803000D02*
X148027000Y-96803000D01*
X145242836Y-104246000D02*
X145027164Y-104246000D01*
X145242836Y-103526000D02*
X145027164Y-103526000D01*
D12*
X139978000Y-90527000D02*
X140273000Y-90527000D01*
X139978000Y-87527000D02*
X140273000Y-87527000D01*
X139978000Y-90527000D02*
X139978000Y-90232000D01*
X142978000Y-87527000D02*
X142683000Y-87527000D01*
X142978000Y-90527000D02*
X142978000Y-90232000D01*
X142978000Y-87527000D02*
X142978000Y-87822000D01*
X139978000Y-87527000D02*
X139978000Y-87822000D01*
X142978000Y-90527000D02*
X142683000Y-90527000D01*
D14*
X139103000Y-88277000D02*
G75*
G03*
X139103000Y-88277000I-100000J0D01*
G01*
D13*
X150394641Y-113791000D02*
X150087359Y-113791000D01*
X150394641Y-113031000D02*
X150087359Y-113031000D01*
X150389000Y-110978836D02*
X150389000Y-110763164D01*
X151109000Y-110978836D02*
X151109000Y-110763164D01*
X150394641Y-114047000D02*
X150087359Y-114047000D01*
X150394641Y-114807000D02*
X150087359Y-114807000D01*
X120692000Y-93707836D02*
X120692000Y-93492164D01*
X121412000Y-93707836D02*
X121412000Y-93492164D01*
X136143000Y-88291641D02*
X136143000Y-87984359D01*
X135383000Y-88291641D02*
X135383000Y-87984359D01*
X141231252Y-96112000D02*
X140708748Y-96112000D01*
X141231252Y-94642000D02*
X140708748Y-94642000D01*
X151220000Y-98453641D02*
X151220000Y-98146359D01*
X151980000Y-98453641D02*
X151980000Y-98146359D01*
X133744580Y-110996000D02*
X133463420Y-110996000D01*
X133744580Y-112016000D02*
X133463420Y-112016000D01*
X143780000Y-115246359D02*
X143780000Y-115553641D01*
X143020000Y-115246359D02*
X143020000Y-115553641D01*
D12*
X117680186Y-94868746D02*
X116480186Y-94868746D01*
X117680186Y-93268746D02*
X116480186Y-93268746D01*
D14*
X119738186Y-94068746D02*
G75*
G03*
X119738186Y-94068746I-100000J0D01*
G01*
D13*
X138283500Y-87984359D02*
X138283500Y-88291641D01*
X137523500Y-87984359D02*
X137523500Y-88291641D01*
X142257949Y-117256519D02*
X142257949Y-116079581D01*
X132351949Y-119734283D02*
X132351949Y-122018600D01*
X132351949Y-122018600D02*
X142257949Y-122018600D01*
X142257949Y-122018600D02*
X142257949Y-119734283D01*
X132351949Y-116079581D02*
X132351949Y-117256519D01*
X140813603Y-112798400D02*
X133796295Y-112798400D01*
D15*
X131770449Y-112705400D02*
G75*
G03*
X131770449Y-112705400I-220500J0D01*
G01*
D13*
X141231252Y-92483000D02*
X140708748Y-92483000D01*
X141231252Y-93953000D02*
X140708748Y-93953000D01*
X149989000Y-110503580D02*
X149989000Y-110222420D01*
X148969000Y-110503580D02*
X148969000Y-110222420D01*
D12*
X121063000Y-113300000D02*
X121063000Y-114050000D01*
X125709450Y-118300000D02*
X126063000Y-117946450D01*
X126063000Y-117946450D02*
X126063000Y-117550000D01*
X121813000Y-113300000D02*
X121063000Y-113300000D01*
X121813000Y-118300000D02*
X121063000Y-118300000D01*
X126063000Y-113300000D02*
X125313000Y-113300000D01*
X125313000Y-118300000D02*
X125709450Y-118300000D01*
X121063000Y-118300000D02*
X121063000Y-117550000D01*
X126063000Y-114050000D02*
X126063000Y-113300000D01*
X126813000Y-118050000D02*
G75*
G03*
X126813000Y-118050000I-250000J0D01*
G01*
D13*
X126025359Y-108782500D02*
X126332641Y-108782500D01*
X126025359Y-108022500D02*
X126332641Y-108022500D01*
X154238748Y-107903000D02*
X154761252Y-107903000D01*
X154238748Y-106433000D02*
X154761252Y-106433000D01*
X145555580Y-104646000D02*
X145274420Y-104646000D01*
X145555580Y-105666000D02*
X145274420Y-105666000D01*
X150296000Y-94640580D02*
X150296000Y-94359420D01*
X151316000Y-94640580D02*
X151316000Y-94359420D01*
X129280000Y-113527580D02*
X129280000Y-113246420D01*
X128260000Y-113527580D02*
X128260000Y-113246420D01*
X134154000Y-97898836D02*
X134154000Y-97683164D01*
X134874000Y-97898836D02*
X134874000Y-97683164D01*
X138045000Y-91042258D02*
X138045000Y-90567742D01*
X137000000Y-91042258D02*
X137000000Y-90567742D01*
X154238748Y-105871000D02*
X154761252Y-105871000D01*
X154238748Y-104401000D02*
X154761252Y-104401000D01*
X133744580Y-109472000D02*
X133463420Y-109472000D01*
X133744580Y-110492000D02*
X133463420Y-110492000D01*
X152880000Y-89654000D02*
X153490000Y-89654000D01*
X153490000Y-92214000D02*
X153490000Y-86094000D01*
X153690000Y-87854000D02*
X153690000Y-87554000D01*
X149380000Y-89154000D02*
X149880000Y-89154000D01*
X152180000Y-86094000D02*
X152180000Y-86704000D01*
X149380000Y-89054000D02*
X149880000Y-89054000D01*
X153490000Y-86094000D02*
X148770000Y-86094000D01*
X152880000Y-86704000D02*
X149380000Y-86704000D01*
X150880000Y-92214000D02*
X150880000Y-91604000D01*
X153690000Y-87554000D02*
X153490000Y-87554000D01*
X153490000Y-88654000D02*
X152880000Y-88654000D01*
X153790000Y-87044000D02*
X153790000Y-85794000D01*
X152880000Y-88654000D02*
X152880000Y-86704000D01*
X153490000Y-87854000D02*
X153690000Y-87854000D01*
X148770000Y-92214000D02*
X153490000Y-92214000D01*
X148770000Y-86094000D02*
X148770000Y-92214000D01*
X152880000Y-91604000D02*
X152880000Y-89654000D01*
X149380000Y-91604000D02*
X152880000Y-91604000D01*
X153590000Y-87854000D02*
X153590000Y-87554000D01*
X149380000Y-86704000D02*
X149380000Y-91604000D01*
X152180000Y-92214000D02*
X152180000Y-91604000D01*
X150880000Y-86094000D02*
X150880000Y-86704000D01*
X149880000Y-89054000D02*
X149880000Y-89254000D01*
X153790000Y-85794000D02*
X152540000Y-85794000D01*
X149880000Y-89254000D02*
X149380000Y-89254000D01*
X129246359Y-91550000D02*
X129553641Y-91550000D01*
X129246359Y-90790000D02*
X129553641Y-90790000D01*
X158800000Y-93950000D02*
X155300000Y-93950000D01*
X155300000Y-98300000D02*
X155800000Y-98300000D01*
X156800000Y-103460000D02*
X156800000Y-102850000D01*
X159410000Y-95900000D02*
X158800000Y-95900000D01*
X154690000Y-103460000D02*
X159410000Y-103460000D01*
X155300000Y-100300000D02*
X155800000Y-100300000D01*
X155800000Y-98500000D02*
X155300000Y-98500000D01*
X158100000Y-103460000D02*
X158100000Y-102850000D01*
X155800000Y-96300000D02*
X155800000Y-96500000D01*
X155300000Y-96400000D02*
X155800000Y-96400000D01*
X158100000Y-93340000D02*
X158100000Y-93950000D01*
X155300000Y-96300000D02*
X155800000Y-96300000D01*
X158800000Y-102850000D02*
X158800000Y-100900000D01*
X155800000Y-100500000D02*
X155300000Y-100500000D01*
X159610000Y-95100000D02*
X159610000Y-94800000D01*
X155800000Y-96500000D02*
X155300000Y-96500000D01*
X159410000Y-103460000D02*
X159410000Y-93340000D01*
X159610000Y-94800000D02*
X159410000Y-94800000D01*
X159710000Y-94290000D02*
X159710000Y-93040000D01*
X158800000Y-95900000D02*
X158800000Y-93950000D01*
X155300000Y-93950000D02*
X155300000Y-102850000D01*
X156800000Y-93340000D02*
X156800000Y-93950000D01*
X155300000Y-98400000D02*
X155800000Y-98400000D01*
X155300000Y-100400000D02*
X155800000Y-100400000D01*
X159410000Y-95100000D02*
X159610000Y-95100000D01*
X155800000Y-98300000D02*
X155800000Y-98500000D01*
X159510000Y-95100000D02*
X159510000Y-94800000D01*
X155800000Y-100300000D02*
X155800000Y-100500000D01*
X159410000Y-93340000D02*
X154690000Y-93340000D01*
X159710000Y-93040000D02*
X158460000Y-93040000D01*
X155300000Y-102850000D02*
X158800000Y-102850000D01*
X158800000Y-100900000D02*
X159410000Y-100900000D01*
X154690000Y-93340000D02*
X154690000Y-103460000D01*
D12*
X154916000Y-110895000D02*
X154916000Y-111195000D01*
X154916000Y-113895000D02*
X154616000Y-113895000D01*
X151916000Y-110895000D02*
X152216000Y-110895000D01*
X151916000Y-113895000D02*
X151916000Y-113595000D01*
X154916000Y-113895000D02*
X154916000Y-113595000D01*
X151916000Y-113895000D02*
X152216000Y-113895000D01*
X154916000Y-110895000D02*
X154616000Y-110895000D01*
X151916000Y-110895000D02*
X151916000Y-111195000D01*
D14*
X152566000Y-114870000D02*
G75*
G03*
X152566000Y-114870000I-100000J0D01*
G01*
D13*
X121893359Y-103758000D02*
X122200641Y-103758000D01*
X121893359Y-102998000D02*
X122200641Y-102998000D01*
X141083420Y-110996000D02*
X141364580Y-110996000D01*
X141083420Y-112016000D02*
X141364580Y-112016000D01*
X156437359Y-112521000D02*
X156744641Y-112521000D01*
X156437359Y-111761000D02*
X156744641Y-111761000D01*
X152946359Y-100520000D02*
X153253641Y-100520000D01*
X152946359Y-101280000D02*
X153253641Y-101280000D01*
X117923567Y-112763549D02*
X118007250Y-112707027D01*
X118393443Y-108877476D02*
X118356746Y-108774829D01*
X118443482Y-109039432D02*
X118422646Y-108966382D01*
X116527844Y-112047885D02*
X116574329Y-112060015D01*
X117113274Y-108477689D02*
X117093770Y-108495319D01*
X117486660Y-112372611D02*
X117537433Y-112429532D01*
X115812493Y-109996101D02*
X115836893Y-110096303D01*
X116015412Y-109423897D02*
X116006413Y-109471815D01*
X115888987Y-109931587D02*
X115843403Y-109924752D01*
X116176487Y-111543636D02*
X116162775Y-111551863D01*
X116248390Y-108966396D02*
X116242832Y-108981063D01*
X118688366Y-109914665D02*
X118688859Y-109650016D01*
X115888987Y-109745195D02*
X115888987Y-109931587D01*
X115894598Y-110545747D02*
X115907885Y-110581880D01*
X116594700Y-108811346D02*
X116572373Y-108785388D01*
X116696369Y-112112324D02*
X116683987Y-112149316D01*
X117334946Y-112282270D02*
X117384386Y-112308152D01*
X115878776Y-110503911D02*
X115894598Y-110545747D01*
X116136662Y-111619452D02*
X116149028Y-111630931D01*
X116866835Y-108638477D02*
X116858034Y-108619316D01*
X116386406Y-111919237D02*
X116465672Y-111938090D01*
X116787673Y-112198715D02*
X116861487Y-112197299D01*
X118479331Y-109175023D02*
X118443482Y-109039432D01*
X116742748Y-108661388D02*
X116706592Y-108698760D01*
X116089919Y-111384535D02*
X116135433Y-111434674D01*
X116188927Y-111536109D02*
X116176487Y-111543636D01*
X115958661Y-110875794D02*
X115979657Y-110907272D01*
X115949567Y-110861210D02*
X115958661Y-110875794D01*
X116476158Y-111944766D02*
X116467708Y-111955178D01*
X117351545Y-108530686D02*
X117306709Y-108544786D01*
X116539196Y-108741874D02*
X116532227Y-108731532D01*
X116398462Y-108906460D02*
X116390495Y-108918196D01*
X117393987Y-108516349D02*
X117351545Y-108530686D01*
X116078000Y-113792000D02*
X118872000Y-113792000D01*
X116683987Y-112149316D02*
X116678241Y-112165972D01*
X117265838Y-108556762D02*
X117237293Y-108563946D01*
X115971232Y-111254754D02*
X116089919Y-111384535D01*
X117507492Y-108476935D02*
X117393987Y-108516349D01*
X116118732Y-109281303D02*
X116105320Y-109271868D01*
X115930223Y-110824999D02*
X115939569Y-110843282D01*
X116089784Y-109259947D02*
X116049657Y-109228166D01*
X115912014Y-111025928D02*
X115928158Y-111047635D01*
X115797818Y-109917916D02*
X115804303Y-109956116D01*
X116915685Y-108647536D02*
X116902827Y-108658945D01*
X116163618Y-111642810D02*
X116178122Y-111653353D01*
X116390495Y-108918196D02*
X116382038Y-108932834D01*
X116965598Y-108600647D02*
X116945578Y-108618411D01*
X116553417Y-108761899D02*
X116544892Y-108750399D01*
X116842106Y-108584004D02*
X116835407Y-108570184D01*
X118688859Y-109650016D02*
X118687376Y-109390375D01*
X116311362Y-108973630D02*
X116296221Y-108963896D01*
X118688409Y-111549544D02*
X118688932Y-111409591D01*
X116806171Y-108596363D02*
X116776959Y-108626088D01*
X116574329Y-112060015D02*
X116617949Y-112071304D01*
X115843403Y-109924752D02*
X115797818Y-109917916D01*
X117003987Y-108570012D02*
X116986170Y-108583549D01*
X118356746Y-108774829D02*
X118312766Y-108659316D01*
X118498987Y-110449993D02*
X118498987Y-109920669D01*
X116929469Y-108634010D02*
X116915685Y-108647536D01*
X116617949Y-112071304D02*
X116654682Y-112080732D01*
X115883807Y-110599440D02*
X115868162Y-110602159D01*
X115804303Y-109956116D02*
X115812493Y-109996101D01*
X116945578Y-108618411D02*
X116929469Y-108634010D01*
X116875488Y-108654629D02*
X116866835Y-108638477D01*
X115969273Y-111097921D02*
X115987488Y-111118240D01*
X115875052Y-110710361D02*
X115902933Y-110764682D01*
X117157303Y-108467997D02*
X117152185Y-108451319D01*
X117118141Y-112210636D02*
X117233987Y-112242113D01*
X116243446Y-111699281D02*
X116263494Y-111716403D01*
X116442479Y-108852956D02*
X116414315Y-108891951D01*
X116832301Y-108570030D02*
X116806171Y-108596363D01*
X116141753Y-109260436D02*
X116133312Y-109285048D01*
X117689185Y-108566282D02*
X117526759Y-108571875D01*
X116563029Y-108774164D02*
X116553417Y-108761899D01*
X117942829Y-108686031D02*
X117910366Y-108675597D01*
X115918491Y-109574060D02*
X115888987Y-109558803D01*
X115836893Y-110096303D02*
X115861761Y-110195678D01*
X116411701Y-112017467D02*
X116527844Y-112047885D01*
X118686000Y-111218892D02*
X118682933Y-111143219D01*
X118068271Y-108730748D02*
X118041200Y-108721321D01*
X116374200Y-108948844D02*
X116366396Y-108964345D01*
X116544892Y-108750399D02*
X116539196Y-108741874D01*
X116018215Y-111154717D02*
X116029707Y-111170911D01*
X117237293Y-108563946D02*
X117180599Y-108576501D01*
X116457450Y-111967248D02*
X116444875Y-111981256D01*
X116135547Y-111570172D02*
X116126662Y-111577185D01*
X115939569Y-110843282D02*
X115949567Y-110861210D01*
X116858034Y-108619316D02*
X116849607Y-108600148D01*
X116476420Y-108803655D02*
X116442479Y-108852956D01*
X117526759Y-108571875D02*
X117533951Y-108519580D01*
X115861761Y-110195678D02*
X115874517Y-110240744D01*
X116037001Y-109297311D02*
X116034489Y-109314316D01*
X117845904Y-108608873D02*
X117851611Y-108560690D01*
X116030959Y-109336846D02*
X116023910Y-109377082D01*
X116199385Y-111528908D02*
X116188927Y-111536109D01*
X118688932Y-111409591D02*
X118688193Y-111309226D01*
X118112427Y-108542777D02*
X118124748Y-108617707D01*
X116861487Y-112197299D02*
X116992402Y-112195337D01*
X117978066Y-108698101D02*
X117942829Y-108686031D01*
X118501565Y-110895730D02*
X118499407Y-110766807D01*
X117167958Y-108512909D02*
X117162689Y-108488530D01*
X117840198Y-108657056D02*
X117845904Y-108608873D01*
X117851611Y-108560690D02*
X117689185Y-108566282D01*
X118505122Y-110969775D02*
X118501565Y-110895730D01*
X116776959Y-108626088D02*
X116742748Y-108661388D01*
X116325919Y-108981849D02*
X116311362Y-108973630D01*
X118478302Y-111779316D02*
X118491612Y-111672639D01*
X116258812Y-108938476D02*
X116248390Y-108966396D01*
X116162332Y-109199316D02*
X116151344Y-109232164D01*
X116310340Y-111901703D02*
X116386406Y-111919237D01*
X116883284Y-108667182D02*
X116875488Y-108654629D01*
X115946822Y-110928292D02*
X115897825Y-110960763D01*
X116986170Y-108583549D02*
X116965598Y-108600647D01*
X116135433Y-111434674D02*
X116173798Y-111477763D01*
X116222382Y-111682638D02*
X116243446Y-111699281D01*
X115902933Y-110764682D02*
X115923149Y-110809316D01*
X118499407Y-110766807D02*
X118498987Y-110449993D01*
X116242832Y-108981063D02*
X116234074Y-109003740D01*
X116173798Y-111477763D02*
X116207331Y-111515963D01*
X116174889Y-109162386D02*
X116162332Y-109199316D01*
X115979657Y-110907272D02*
X115946822Y-110928292D01*
X117046861Y-108536236D02*
X117022831Y-108555778D01*
X116015110Y-111235760D02*
X115971232Y-111254754D01*
X117022831Y-108555778D02*
X117003987Y-108570012D01*
X117145634Y-108450650D02*
X117130656Y-108462830D01*
X116516167Y-108743170D02*
X116476420Y-108803655D01*
X116338401Y-108987937D02*
X116325919Y-108981849D01*
X117887093Y-108669016D02*
X117840198Y-108657056D01*
X116006413Y-109471815D02*
X115988885Y-109556219D01*
X117130656Y-108462830D02*
X117113274Y-108477689D01*
X117280940Y-112258258D02*
X117334946Y-112282270D01*
X115840891Y-110407155D02*
X115860003Y-110455901D01*
X116023910Y-109377082D02*
X116015412Y-109423897D01*
X117623421Y-112586398D02*
X117627658Y-112610181D01*
X116725534Y-112199092D02*
X116787673Y-112198715D01*
X118091168Y-108738264D02*
X118068271Y-108730748D01*
X116203202Y-111668607D02*
X116222382Y-111682638D01*
X116003638Y-111136418D02*
X116018215Y-111154717D01*
X116670993Y-112198900D02*
X116725534Y-112199092D01*
X116572373Y-108785388D02*
X116563029Y-108774164D01*
X116129940Y-109288544D02*
X116118732Y-109281303D01*
X116263494Y-111716403D02*
X116310863Y-111758489D01*
X116224119Y-109029297D02*
X116214288Y-109054316D01*
X116034489Y-109314316D02*
X116030959Y-109336846D01*
X116444875Y-111981256D02*
X116411701Y-112017467D01*
X118498987Y-109920669D02*
X118549992Y-109954993D01*
X117306709Y-108544786D02*
X117265838Y-108556762D01*
X115847070Y-110659691D02*
X115875052Y-110710361D01*
X116849607Y-108600148D02*
X116842106Y-108584004D01*
X118010982Y-108710146D02*
X117978066Y-108698101D01*
X118124748Y-108617707D02*
X118137847Y-108693999D01*
X116624344Y-108782403D02*
X116594700Y-108811346D01*
X116042684Y-109262833D02*
X116039878Y-109279288D01*
X116120394Y-111602372D02*
X116136662Y-111619452D01*
X115888987Y-109558803D02*
X115888987Y-109745195D01*
X115860003Y-110455901D02*
X115878776Y-110503911D01*
X118041200Y-108721321D02*
X118010982Y-108710146D01*
X116234074Y-109003740D02*
X116224119Y-109029297D01*
X117537433Y-112429532D02*
X117584786Y-112491794D01*
X115923149Y-110809316D02*
X115930223Y-110824999D01*
X117180599Y-108576501D02*
X117167958Y-108512909D01*
X118872000Y-107442000D02*
X115697000Y-107442000D01*
X117423223Y-112336545D02*
X117434465Y-112343727D01*
X116214288Y-109054316D02*
X116203219Y-109083295D01*
X115987488Y-111118240D02*
X116003638Y-111136418D01*
X117093770Y-108495319D02*
X117071786Y-108515030D01*
X116049657Y-109228166D02*
X116044899Y-109251241D01*
X117071786Y-108515030D02*
X117046861Y-108536236D01*
X116523975Y-108731869D02*
X116516167Y-108743170D01*
X117617294Y-112561620D02*
X117623421Y-112586398D01*
X118104970Y-108406201D02*
X118106149Y-108469381D01*
X115824000Y-110363000D02*
X115840891Y-110407155D01*
X118688193Y-111309226D02*
X118686000Y-111218892D01*
X118347716Y-112269316D02*
X118401138Y-112135227D01*
X116641080Y-108765745D02*
X116624344Y-108782403D01*
X117434465Y-112343727D02*
X117445891Y-112349787D01*
X116039878Y-109279288D02*
X116037001Y-109297311D01*
X118084622Y-112640799D02*
X118190892Y-112513343D01*
X115697000Y-107442000D02*
X115697000Y-113411000D01*
X116148445Y-111561177D02*
X116135547Y-111570172D01*
X115868162Y-110602159D02*
X115835588Y-110607464D01*
X118457896Y-111922257D02*
X118478302Y-111779316D01*
X118872000Y-113792000D02*
X118872000Y-107442000D01*
X116706592Y-108698760D02*
X116671353Y-108734916D01*
X115928158Y-111047635D02*
X115948382Y-111073005D01*
X116382038Y-108932834D02*
X116374200Y-108948844D01*
X116671353Y-108734916D02*
X116641080Y-108765745D01*
X116673394Y-112180827D02*
X116669503Y-112193411D01*
X116105320Y-109271868D02*
X116089784Y-109259947D01*
X115888613Y-110990385D02*
X115912014Y-111025928D01*
X118422646Y-108966382D02*
X118393443Y-108877476D01*
X116151344Y-109232164D02*
X116141753Y-109260436D01*
X116678241Y-112165972D02*
X116673394Y-112180827D01*
X118190892Y-112513343D02*
X118290104Y-112375939D01*
X116310863Y-111758489D02*
X116283810Y-111813784D01*
X116902827Y-108658945D02*
X116891796Y-108667775D01*
X116044899Y-109251241D02*
X116042684Y-109262833D01*
X116189258Y-109121660D02*
X116174889Y-109162386D01*
X115810119Y-110325832D02*
X115824000Y-110363000D01*
X116207490Y-111522565D02*
X116199385Y-111528908D01*
X116203219Y-109083295D02*
X116189258Y-109121660D01*
X116467708Y-111955178D02*
X116457450Y-111967248D01*
X117910366Y-108675597D02*
X117887093Y-108669016D01*
X116149028Y-111630931D02*
X116163618Y-111642810D01*
X116162775Y-111551863D02*
X116148445Y-111561177D01*
X115948382Y-111073005D02*
X115969273Y-111097921D01*
X118681856Y-111665635D02*
X118686109Y-111621920D01*
X117162689Y-108488530D02*
X117157303Y-108467997D01*
X116296221Y-108963896D02*
X116258812Y-108938476D01*
X116654682Y-112080732D02*
X116671487Y-112084894D01*
X118686109Y-111621920D02*
X118688409Y-111549544D01*
X118106149Y-108469381D02*
X118112427Y-108542777D01*
X118673420Y-111687091D02*
G75*
G03*
X118681855Y-111665635I-40297J28228D01*
G01*
X118129323Y-108819096D02*
G75*
G03*
X118140871Y-108800813I-13005J21003D01*
G01*
X117118141Y-112210636D02*
G75*
G03*
X117056569Y-112198994I-117337J-451929D01*
G01*
X118651105Y-111705010D02*
G75*
G03*
X118673420Y-111687092I-19618J47287D01*
G01*
X117561193Y-112728993D02*
G75*
G03*
X117536635Y-112783638I173632J-110873D01*
G01*
X118115248Y-108822966D02*
G75*
G03*
X118122400Y-108822144I1041J22469D01*
G01*
X117648767Y-112972308D02*
G75*
G03*
X117681226Y-112979316I32460J71672D01*
G01*
X117681226Y-112979316D02*
G75*
G03*
X117711913Y-112972562I5J73069D01*
G01*
X117533951Y-108519580D02*
G75*
G03*
X117536813Y-108482494I-309167J42512D01*
G01*
X116034439Y-111180740D02*
G75*
G03*
X116029707Y-111170912I-36908J-11717D01*
G01*
X117149435Y-108449316D02*
G75*
G03*
X117145634Y-108450650I-1J-6080D01*
G01*
X115887021Y-110974799D02*
G75*
G03*
X115888614Y-110990385I17169J-6119D01*
G01*
X116056130Y-111211072D02*
G75*
G03*
X116056996Y-111203518I-4593J4353D01*
G01*
X116034439Y-111180740D02*
G75*
G03*
X116037384Y-111187848I43061J13677D01*
G01*
X118091168Y-108738264D02*
G75*
G03*
X118097892Y-108739316I6729J20995D01*
G01*
X118108827Y-108743141D02*
G75*
G03*
X118097891Y-108739316I-10937J-13723D01*
G01*
X118621389Y-111709373D02*
G75*
G03*
X118651105Y-111705010I6222J60988D01*
G01*
X116283810Y-111813784D02*
G75*
G03*
X116266985Y-111853163I375568J-183748D01*
G01*
X118545682Y-111674054D02*
G75*
G03*
X118585498Y-111698929I152252J199397D01*
G01*
X116117542Y-111586729D02*
G75*
G03*
X116115955Y-111593944I6696J-5255D01*
G01*
X117413987Y-112329270D02*
G75*
G03*
X117384386Y-112308151I-113913J-128360D01*
G01*
X117628987Y-112628743D02*
G75*
G03*
X117627657Y-112610181I-130217J-2D01*
G01*
X117152185Y-108451319D02*
G75*
G03*
X117149435Y-108449316I-2751J-887D01*
G01*
X115806882Y-110281374D02*
G75*
G03*
X115803185Y-110293323I14272J-10962D01*
G01*
X118609143Y-111029704D02*
G75*
G03*
X118555546Y-110990713I-279659J-328087D01*
G01*
X116528153Y-108729609D02*
G75*
G03*
X116523975Y-108731869I318J-5580D01*
G01*
X117598761Y-112689478D02*
G75*
G03*
X117561193Y-112728994I82950J-116477D01*
G01*
X116207490Y-111522565D02*
G75*
G03*
X116208796Y-111519660I-2289J2775D01*
G01*
X118401138Y-112135227D02*
G75*
G03*
X118434667Y-112030122I-1069431J399054D01*
G01*
X118114671Y-108392616D02*
G75*
G03*
X118104970Y-108406200I4812J-13692D01*
G01*
X118114496Y-108752805D02*
G75*
G03*
X118108827Y-108743140I-15395J-2535D01*
G01*
X118290104Y-112375939D02*
G75*
G03*
X118347716Y-112269316I-535011J357961D01*
G01*
X118585498Y-111698929D02*
G75*
G03*
X118621389Y-111709374I46411J92589D01*
G01*
X117413987Y-112329270D02*
G75*
G03*
X117423222Y-112336545I66596J75040D01*
G01*
X118108358Y-108821482D02*
G75*
G03*
X118115248Y-108822966I7882J19857D01*
G01*
X118505122Y-110969775D02*
G75*
G03*
X118515307Y-110979317I10185J665D01*
G01*
X118151008Y-108401096D02*
G75*
G03*
X118114670Y-108392616I-24824J-24278D01*
G01*
X117598761Y-112689478D02*
G75*
G03*
X117614329Y-112676598I-81028J113787D01*
G01*
X115818140Y-110273174D02*
G75*
G03*
X115806882Y-110281374I8302J-23226D01*
G01*
X118679235Y-109963665D02*
G75*
G03*
X118688366Y-109914665I-130785J49722D01*
G01*
X115842590Y-110265938D02*
G75*
G03*
X115860450Y-110260878I-48718J206007D01*
G01*
X115975580Y-109582702D02*
G75*
G03*
X115988885Y-109556219I-46403J39896D01*
G01*
X118097895Y-108796318D02*
G75*
G03*
X118095415Y-108804778I20009J-10459D01*
G01*
X117627624Y-112649966D02*
G75*
G03*
X117628988Y-112628743I-164269J21213D01*
G01*
X117056569Y-112198994D02*
G75*
G03*
X116992402Y-112195337I-61169J-508510D01*
G01*
X115823399Y-110613638D02*
G75*
G03*
X115821674Y-110622544I5226J-5632D01*
G01*
X117536814Y-108482493D02*
G75*
G03*
X117528361Y-108473692I-8652J150D01*
G01*
X116129940Y-109288544D02*
G75*
G03*
X116131982Y-109288022I773J1232D01*
G01*
X118105220Y-108783839D02*
G75*
G03*
X118097895Y-108796318I122930J-80547D01*
G01*
X116338401Y-108987937D02*
G75*
G03*
X116344790Y-108989317I6390J14104D01*
G01*
X116532227Y-108731532D02*
G75*
G03*
X116528153Y-108729609I-3808J-2790D01*
G01*
X115821674Y-110622545D02*
G75*
G03*
X115830890Y-110636755I56840J26771D01*
G01*
X115870439Y-110255499D02*
G75*
G03*
X115874711Y-110248970I-7597J9633D01*
G01*
X118140871Y-108800813D02*
G75*
G03*
X118142858Y-108755439I-339717J37607D01*
G01*
X116015110Y-111235760D02*
G75*
G03*
X116040683Y-111223098I-110519J255367D01*
G01*
X116834016Y-108569316D02*
G75*
G03*
X116832301Y-108570030I1J-2420D01*
G01*
X117528362Y-108473692D02*
G75*
G03*
X117507493Y-108476935I-1375J-59921D01*
G01*
X116037384Y-111187848D02*
G75*
G03*
X116041343Y-111193860I30775J15956D01*
G01*
X116126662Y-111577185D02*
G75*
G03*
X116117542Y-111586729I44259J-51422D01*
G01*
X115918491Y-109574060D02*
G75*
G03*
X115955895Y-109588701I88768J171679D01*
G01*
X116696369Y-112112324D02*
G75*
G03*
X116697135Y-112099044I-25697J8144D01*
G01*
X116883284Y-108667182D02*
G75*
G03*
X116887247Y-108669316I3963J2612D01*
G01*
X118498711Y-111653127D02*
G75*
G03*
X118491612Y-111672638I39945J-25581D01*
G01*
X116271109Y-111893446D02*
G75*
G03*
X116288939Y-111899316I17828J24138D01*
G01*
X116115955Y-111593944D02*
G75*
G03*
X116120393Y-111602372I18544J4382D01*
G01*
X116697136Y-112099044D02*
G75*
G03*
X116690769Y-112091208I-10517J-2040D01*
G01*
X115896995Y-110595776D02*
G75*
G03*
X115906706Y-110591764I-28262J82167D01*
G01*
X117744662Y-112952310D02*
G75*
G03*
X117774826Y-112922197I-121060J151429D01*
G01*
X118656915Y-111077369D02*
G75*
G03*
X118609142Y-111029704I-327338J-280306D01*
G01*
X117614329Y-112676598D02*
G75*
G03*
X117623188Y-112664561I-30092J31426D01*
G01*
X118007250Y-112707027D02*
G75*
G03*
X118084622Y-112640799I-207100J320258D01*
G01*
X115874710Y-110248970D02*
G75*
G03*
X115874516Y-110240744I-14416J3775D01*
G01*
X117536634Y-112783639D02*
G75*
G03*
X117529000Y-112842452I194259J-55117D01*
G01*
X118495391Y-109212972D02*
G75*
G03*
X118518068Y-109231644I37230J22109D01*
G01*
X118549992Y-109954993D02*
G75*
G03*
X118595223Y-109980322I176948J262932D01*
G01*
X118122400Y-108822145D02*
G75*
G03*
X118129323Y-108819096I-7409J26206D01*
G01*
X116056996Y-111203518D02*
G75*
G03*
X116049661Y-111199317I-7337J-4307D01*
G01*
X116887247Y-108669316D02*
G75*
G03*
X116891795Y-108667774I0J7479D01*
G01*
X118207835Y-108467674D02*
G75*
G03*
X118151008Y-108401096I-519351J-385746D01*
G01*
X117863862Y-112809960D02*
G75*
G03*
X117822545Y-112850002I300307J-351206D01*
G01*
X116669503Y-112193411D02*
G75*
G03*
X116668988Y-112196885I11419J-3468D01*
G01*
X117623188Y-112664561D02*
G75*
G03*
X117627624Y-112649966I-41125J20471D01*
G01*
X116668987Y-112196885D02*
G75*
G03*
X116670993Y-112198901I2016J0D01*
G01*
X118265796Y-108558346D02*
G75*
G03*
X118207835Y-108467674I-674739J-367458D01*
G01*
X118595224Y-109980321D02*
G75*
G03*
X118633424Y-109989986I45535J99648D01*
G01*
X116404043Y-108901344D02*
G75*
G03*
X116414315Y-108891951I-18547J30596D01*
G01*
X116344790Y-108989316D02*
G75*
G03*
X116350193Y-108986959I-1J7374D01*
G01*
X116350194Y-108986959D02*
G75*
G03*
X116358033Y-108977427I-75762J70295D01*
G01*
X116266985Y-111853163D02*
G75*
G03*
X116263197Y-111878870I59554J-21908D01*
G01*
X118511127Y-111650293D02*
G75*
G03*
X118498710Y-111653128I-4767J-7730D01*
G01*
X118105220Y-108783839D02*
G75*
G03*
X118113294Y-108767306I-61382J40214D01*
G01*
X118679029Y-111118873D02*
G75*
G03*
X118656915Y-111077370I-104474J-29024D01*
G01*
X118555546Y-110990713D02*
G75*
G03*
X118515307Y-110979316I-40237J-65331D01*
G01*
X118664125Y-109296409D02*
G75*
G03*
X118640429Y-109272404I-84778J-59988D01*
G01*
X116263197Y-111878869D02*
G75*
G03*
X116271109Y-111893446I19541J1171D01*
G01*
X117711913Y-112972562D02*
G75*
G03*
X117744662Y-112952310I-67211J145290D01*
G01*
X116040683Y-111223098D02*
G75*
G03*
X116056130Y-111211072I-31935J56953D01*
G01*
X115860450Y-110260878D02*
G75*
G03*
X115870439Y-110255499I-10311J31112D01*
G01*
X118434667Y-112030122D02*
G75*
G03*
X118457895Y-111922257I-1103093J293977D01*
G01*
X115908987Y-110588118D02*
G75*
G03*
X115907884Y-110581879I-18203J-1D01*
G01*
X117280940Y-112258258D02*
G75*
G03*
X117233988Y-112242113I-171322J-421886D01*
G01*
X116178122Y-111653353D02*
G75*
G03*
X116190056Y-111660560I68268J99559D01*
G01*
X117486660Y-112372611D02*
G75*
G03*
X117455614Y-112353564I-51861J-49707D01*
G01*
X117617294Y-112561620D02*
G75*
G03*
X117610036Y-112539655I-252856J-71371D01*
G01*
X117560009Y-112918572D02*
G75*
G03*
X117602643Y-112947989I270928J347052D01*
G01*
X115842590Y-110265938D02*
G75*
G03*
X115818140Y-110273174I52978J-223935D01*
G01*
X118633424Y-109989986D02*
G75*
G03*
X118661706Y-109983767I3466J51657D01*
G01*
X118687376Y-109390375D02*
G75*
G03*
X118678318Y-109326296I-248718J-2478D01*
G01*
X116476158Y-111944766D02*
G75*
G03*
X116476018Y-111943329I-808J647D01*
G01*
X115803185Y-110293323D02*
G75*
G03*
X115806226Y-110313283I104718J5743D01*
G01*
X117610036Y-112539655D02*
G75*
G03*
X117584786Y-112491794I-207309J-78779D01*
G01*
X117445891Y-112349787D02*
G75*
G03*
X117455615Y-112353564I29462J61444D01*
G01*
X116310340Y-111901703D02*
G75*
G03*
X116288939Y-111899317I-21394J-94726D01*
G01*
X116690768Y-112091208D02*
G75*
G03*
X116671487Y-112084893I-48355J-115045D01*
G01*
X117822545Y-112850002D02*
G75*
G03*
X117797926Y-112886019I116202J-105851D01*
G01*
X116131982Y-109288022D02*
G75*
G03*
X116133312Y-109285048I-15799J8850D01*
G01*
X118095414Y-108804778D02*
G75*
G03*
X118096877Y-108811490I11462J-1017D01*
G01*
X118096877Y-108811489D02*
G75*
G03*
X118102194Y-108817827I20052J11423D01*
G01*
X116041343Y-111193860D02*
G75*
G03*
X116045663Y-111197989I19032J15588D01*
G01*
X118545682Y-111674054D02*
G75*
G03*
X118511127Y-111650293I-256046J-335354D01*
G01*
X117540706Y-112894095D02*
G75*
G03*
X117560009Y-112918572I59612J27161D01*
G01*
X118678318Y-109326296D02*
G75*
G03*
X118664125Y-109296409I-92844J-25777D01*
G01*
X117602643Y-112947989D02*
G75*
G03*
X117648766Y-112972308I225651J372069D01*
G01*
X115806225Y-110313283D02*
G75*
G03*
X115810119Y-110325832I119800J30296D01*
G01*
X115847070Y-110659691D02*
G75*
G03*
X115830890Y-110636755I-126879J-72331D01*
G01*
X115835588Y-110607464D02*
G75*
G03*
X115823399Y-110613638I4668J-24335D01*
G01*
X118113294Y-108767306D02*
G75*
G03*
X118114496Y-108752805I-28286J9645D01*
G01*
X118479331Y-109175023D02*
G75*
G03*
X118495391Y-109212972I147133J39894D01*
G01*
X115955894Y-109588701D02*
G75*
G03*
X115975580Y-109582702I5108J18537D01*
G01*
X116476018Y-111943329D02*
G75*
G03*
X116465672Y-111938090I-16229J-19214D01*
G01*
X115906706Y-110591764D02*
G75*
G03*
X115908988Y-110588118I-1776J3649D01*
G01*
X116358033Y-108977428D02*
G75*
G03*
X116366396Y-108964346I-105538J76682D01*
G01*
X116835407Y-108570184D02*
G75*
G03*
X116834016Y-108569316I-1391J-681D01*
G01*
X118518069Y-109231645D02*
G75*
G03*
X118564826Y-109243754I90940J254823D01*
G01*
X115883807Y-110599440D02*
G75*
G03*
X115896995Y-110595776I-23742J111022D01*
G01*
X118607178Y-109254787D02*
G75*
G03*
X118564825Y-109243754I-81741J-226974D01*
G01*
X115897825Y-110960763D02*
G75*
G03*
X115887019Y-110974798I16226J-23670D01*
G01*
X118661706Y-109983767D02*
G75*
G03*
X118679235Y-109963665I-18450J33782D01*
G01*
X116404043Y-108901344D02*
G75*
G03*
X116398462Y-108906460I10026J-16540D01*
G01*
X118312766Y-108659316D02*
G75*
G03*
X118265796Y-108558346I-820233J-320152D01*
G01*
X116045662Y-111197988D02*
G75*
G03*
X116049661Y-111199316I4001J5362D01*
G01*
X117529000Y-112842451D02*
G75*
G03*
X117540706Y-112894095I130286J2383D01*
G01*
X117923567Y-112763549D02*
G75*
G03*
X117863862Y-112809959I466913J-662278D01*
G01*
X118682932Y-111143219D02*
G75*
G03*
X118679030Y-111118873I-110178J-5177D01*
G01*
X118142858Y-108755439D02*
G75*
G03*
X118137847Y-108693999I-525448J-11931D01*
G01*
X117774826Y-112922197D02*
G75*
G03*
X117797926Y-112886019I-155405J124692D01*
G01*
X116203202Y-111668607D02*
G75*
G03*
X116190056Y-111660560I-69659J-99037D01*
G01*
X116208797Y-111519660D02*
G75*
G03*
X116207331Y-111515963I-5929J-212D01*
G01*
X118102193Y-108817827D02*
G75*
G03*
X118108357Y-108821482I14583J17569D01*
G01*
X118640429Y-109272404D02*
G75*
G03*
X118607178Y-109254787I-78443J-107869D01*
G01*
D16*
X116411701Y-112017467D02*
X116725534Y-112199092D01*
X116725534Y-112199092D02*
X117233987Y-112242113D01*
X117233987Y-112242113D02*
X117584786Y-112491794D01*
X117584786Y-112491794D02*
X117628987Y-112628743D01*
X117628987Y-112628743D02*
X117529000Y-112842451D01*
X117529000Y-112842451D02*
X117602643Y-112947989D01*
X117602643Y-112947989D02*
X117744662Y-112952310D01*
X117744662Y-112952310D02*
X118084622Y-112640799D01*
X118084622Y-112640799D02*
X118872000Y-112649000D01*
X118872000Y-112649000D02*
X118872000Y-113792000D01*
X118872000Y-113792000D02*
X116062760Y-113792000D01*
X116062760Y-113792000D02*
X115691920Y-113421160D01*
X115691920Y-113421160D02*
X115697000Y-112014000D01*
X115697000Y-112014000D02*
X116411701Y-112017467D01*
G36*
X116411701Y-112017467D02*
G01*
X116725534Y-112199092D01*
X117233987Y-112242113D01*
X117584786Y-112491794D01*
X117628987Y-112628743D01*
X117529000Y-112842451D01*
X117602643Y-112947989D01*
X117744662Y-112952310D01*
X118084622Y-112640799D01*
X118872000Y-112649000D01*
X118872000Y-113792000D01*
X116062760Y-113792000D01*
X115691920Y-113421160D01*
X115697000Y-112014000D01*
X116411701Y-112017467D01*
G37*
X116411701Y-112017467D02*
X116725534Y-112199092D01*
X117233987Y-112242113D01*
X117584786Y-112491794D01*
X117628987Y-112628743D01*
X117529000Y-112842451D01*
X117602643Y-112947989D01*
X117744662Y-112952310D01*
X118084622Y-112640799D01*
X118872000Y-112649000D01*
X118872000Y-113792000D01*
X116062760Y-113792000D01*
X115691920Y-113421160D01*
X115697000Y-112014000D01*
X116411701Y-112017467D01*
X118872000Y-107442000D02*
X118872000Y-109220000D01*
X118872000Y-109220000D02*
X118495391Y-109212972D01*
X118495391Y-109212972D02*
X118356746Y-108774829D01*
X118356746Y-108774829D02*
X118207835Y-108467674D01*
X118207835Y-108467674D02*
X118110000Y-108458000D01*
X118110000Y-108458000D02*
X118114496Y-108752805D01*
X118114496Y-108752805D02*
X117887093Y-108669016D01*
X117887093Y-108669016D02*
X117851611Y-108560690D01*
X117851611Y-108560690D02*
X117526759Y-108571875D01*
X117526759Y-108571875D02*
X117507492Y-108476935D01*
X117507492Y-108476935D02*
X117221000Y-108585000D01*
X117221000Y-108585000D02*
X117162689Y-108488530D01*
X117162689Y-108488530D02*
X116929469Y-108634010D01*
X116929469Y-108634010D02*
X116835407Y-108570184D01*
X116835407Y-108570184D02*
X116776959Y-108626088D01*
X116776959Y-108626088D02*
X116776959Y-107442000D01*
X116776959Y-107442000D02*
X118872000Y-107442000D01*
G36*
X118872000Y-109220000D02*
G01*
X118495391Y-109212972D01*
X118356746Y-108774829D01*
X118207835Y-108467674D01*
X118110000Y-108458000D01*
X118114496Y-108752805D01*
X117887093Y-108669016D01*
X117851611Y-108560690D01*
X117526759Y-108571875D01*
X117507492Y-108476935D01*
X117221000Y-108585000D01*
X117162689Y-108488530D01*
X116929469Y-108634010D01*
X116835407Y-108570184D01*
X116776959Y-108626088D01*
X116776959Y-107442000D01*
X118872000Y-107442000D01*
X118872000Y-109220000D01*
G37*
X118872000Y-109220000D02*
X118495391Y-109212972D01*
X118356746Y-108774829D01*
X118207835Y-108467674D01*
X118110000Y-108458000D01*
X118114496Y-108752805D01*
X117887093Y-108669016D01*
X117851611Y-108560690D01*
X117526759Y-108571875D01*
X117507492Y-108476935D01*
X117221000Y-108585000D01*
X117162689Y-108488530D01*
X116929469Y-108634010D01*
X116835407Y-108570184D01*
X116776959Y-108626088D01*
X116776959Y-107442000D01*
X118872000Y-107442000D01*
X118872000Y-109220000D01*
X118290104Y-112375939D02*
X118491612Y-111672638D01*
X118491612Y-111672638D02*
X118681856Y-111665635D01*
X118681856Y-111665635D02*
X118679030Y-111118873D01*
X118679030Y-111118873D02*
X118515307Y-110969110D01*
X118515307Y-110969110D02*
X118498987Y-109920669D01*
X118498987Y-109920669D02*
X118679235Y-109963665D01*
X118679235Y-109963665D02*
X118678318Y-109326296D01*
X118678318Y-109326296D02*
X118518069Y-109231645D01*
X118518069Y-109231645D02*
X118872000Y-109220000D01*
X118872000Y-109220000D02*
X118872000Y-112649000D01*
X118872000Y-112649000D02*
X118110000Y-112649000D01*
X118110000Y-112649000D02*
X118290104Y-112375939D01*
G36*
X118872000Y-112649000D02*
G01*
X118110000Y-112649000D01*
X118290104Y-112375939D01*
X118491612Y-111672638D01*
X118681856Y-111665635D01*
X118679030Y-111118873D01*
X118515307Y-110969110D01*
X118498987Y-109920669D01*
X118679235Y-109963665D01*
X118678318Y-109326296D01*
X118518069Y-109231645D01*
X118872000Y-109220000D01*
X118872000Y-112649000D01*
G37*
X118872000Y-112649000D02*
X118110000Y-112649000D01*
X118290104Y-112375939D01*
X118491612Y-111672638D01*
X118681856Y-111665635D01*
X118679030Y-111118873D01*
X118515307Y-110969110D01*
X118498987Y-109920669D01*
X118679235Y-109963665D01*
X118678318Y-109326296D01*
X118518069Y-109231645D01*
X118872000Y-109220000D01*
X118872000Y-112649000D01*
X116840000Y-107442000D02*
X116776959Y-108626088D01*
X116776959Y-108626088D02*
X116624344Y-108782403D01*
X116624344Y-108782403D02*
X116516167Y-108743170D01*
X116516167Y-108743170D02*
X116459000Y-108839000D01*
X116459000Y-108839000D02*
X116366396Y-108964346D01*
X116366396Y-108964346D02*
X116248390Y-108966396D01*
X116248390Y-108966396D02*
X116141753Y-109260436D01*
X116141753Y-109260436D02*
X116039878Y-109279288D01*
X116039878Y-109279288D02*
X115988885Y-109556219D01*
X115988885Y-109556219D02*
X115918491Y-109574060D01*
X115918491Y-109574060D02*
X115888987Y-109931587D01*
X115888987Y-109931587D02*
X115804303Y-109956116D01*
X115804303Y-109956116D02*
X115874516Y-110240744D01*
X115874516Y-110240744D02*
X115826439Y-110296395D01*
X115826439Y-110296395D02*
X115907885Y-110581880D01*
X115907885Y-110581880D02*
X115840257Y-110631801D01*
X115840257Y-110631801D02*
X115979657Y-110907272D01*
X115979657Y-110907272D02*
X115914059Y-110984439D01*
X115914059Y-110984439D02*
X116056130Y-111211072D01*
X116056130Y-111211072D02*
X115971232Y-111254754D01*
X115971232Y-111254754D02*
X116208797Y-111519660D01*
X116208797Y-111519660D02*
X116136662Y-111619452D01*
X116136662Y-111619452D02*
X116310863Y-111758489D01*
X116310863Y-111758489D02*
X116282740Y-111877697D01*
X116282740Y-111877697D02*
X116386406Y-111919237D01*
X116386406Y-111919237D02*
X116411701Y-112017467D01*
X116411701Y-112017467D02*
X115697000Y-112017467D01*
X115697000Y-112017467D02*
X115697000Y-107442000D01*
X115697000Y-107442000D02*
X116840000Y-107442000D01*
G36*
X116776959Y-108626088D02*
G01*
X116624344Y-108782403D01*
X116516167Y-108743170D01*
X116459000Y-108839000D01*
X116366396Y-108964346D01*
X116248390Y-108966396D01*
X116141753Y-109260436D01*
X116039878Y-109279288D01*
X115988885Y-109556219D01*
X115918491Y-109574060D01*
X115888987Y-109931587D01*
X115804303Y-109956116D01*
X115874516Y-110240744D01*
X115826439Y-110296395D01*
X115907885Y-110581880D01*
X115840257Y-110631801D01*
X115979657Y-110907272D01*
X115914059Y-110984439D01*
X116056130Y-111211072D01*
X115971232Y-111254754D01*
X116208797Y-111519660D01*
X116136662Y-111619452D01*
X116310863Y-111758489D01*
X116282740Y-111877697D01*
X116386406Y-111919237D01*
X116411701Y-112017467D01*
X115697000Y-112017467D01*
X115697000Y-107442000D01*
X116840000Y-107442000D01*
X116776959Y-108626088D01*
G37*
X116776959Y-108626088D02*
X116624344Y-108782403D01*
X116516167Y-108743170D01*
X116459000Y-108839000D01*
X116366396Y-108964346D01*
X116248390Y-108966396D01*
X116141753Y-109260436D01*
X116039878Y-109279288D01*
X115988885Y-109556219D01*
X115918491Y-109574060D01*
X115888987Y-109931587D01*
X115804303Y-109956116D01*
X115874516Y-110240744D01*
X115826439Y-110296395D01*
X115907885Y-110581880D01*
X115840257Y-110631801D01*
X115979657Y-110907272D01*
X115914059Y-110984439D01*
X116056130Y-111211072D01*
X115971232Y-111254754D01*
X116208797Y-111519660D01*
X116136662Y-111619452D01*
X116310863Y-111758489D01*
X116282740Y-111877697D01*
X116386406Y-111919237D01*
X116411701Y-112017467D01*
X115697000Y-112017467D01*
X115697000Y-107442000D01*
X116840000Y-107442000D01*
X116776959Y-108626088D01*
D13*
X139127000Y-105983000D02*
X139127000Y-104583000D01*
X140527000Y-105983000D02*
X139127000Y-105983000D01*
X139127000Y-104583000D02*
X140527000Y-104583000D01*
X140527000Y-104583000D02*
X140527000Y-105983000D01*
X147045000Y-90443164D02*
X147045000Y-90658836D01*
X146325000Y-90443164D02*
X146325000Y-90658836D01*
X156437359Y-114553000D02*
X156744641Y-114553000D01*
X156437359Y-113793000D02*
X156744641Y-113793000D01*
X143738000Y-103127000D02*
X142238000Y-103127000D01*
X145238000Y-100907000D02*
X142238000Y-100907000D01*
X139127000Y-106742000D02*
X140527000Y-106742000D01*
X139127000Y-108142000D02*
X139127000Y-106742000D01*
X140527000Y-108142000D02*
X139127000Y-108142000D01*
X140527000Y-106742000D02*
X140527000Y-108142000D01*
X137267500Y-88291641D02*
X137267500Y-87984359D01*
X136507500Y-88291641D02*
X136507500Y-87984359D01*
X124941359Y-101982000D02*
X125248641Y-101982000D01*
X124941359Y-102742000D02*
X125248641Y-102742000D01*
X147446000Y-100557359D02*
X147446000Y-100864641D01*
X146686000Y-100557359D02*
X146686000Y-100864641D01*
X142226420Y-103630000D02*
X142507580Y-103630000D01*
X142226420Y-104650000D02*
X142507580Y-104650000D01*
X129646359Y-101380000D02*
X129953641Y-101380000D01*
X129646359Y-100620000D02*
X129953641Y-100620000D01*
X129246359Y-90550000D02*
X129553641Y-90550000D01*
X129246359Y-89790000D02*
X129553641Y-89790000D01*
X152407252Y-115470000D02*
X151884748Y-115470000D01*
X152407252Y-116940000D02*
X151884748Y-116940000D01*
X133263164Y-90192000D02*
X133478836Y-90192000D01*
X133263164Y-90912000D02*
X133478836Y-90912000D01*
X122154836Y-102002000D02*
X121939164Y-102002000D01*
X122154836Y-102722000D02*
X121939164Y-102722000D01*
X141585836Y-92054000D02*
X141370164Y-92054000D01*
X141585836Y-91334000D02*
X141370164Y-91334000D01*
X130804000Y-113527580D02*
X130804000Y-113246420D01*
X129784000Y-113527580D02*
X129784000Y-113246420D01*
X153240000Y-95115836D02*
X153240000Y-94900164D01*
X153960000Y-95115836D02*
X153960000Y-94900164D01*
X131100000Y-116848000D02*
X131100000Y-118148000D01*
X131900000Y-116848000D02*
X131900000Y-118148000D01*
X131100000Y-118148000D02*
X131900000Y-118148000D01*
X122596359Y-108022500D02*
X122903641Y-108022500D01*
X122596359Y-108782500D02*
X122903641Y-108782500D01*
X148274000Y-118048000D02*
X146874000Y-118048000D01*
X148274000Y-116648000D02*
X148274000Y-118048000D01*
X146874000Y-116648000D02*
X148274000Y-116648000D01*
X146874000Y-118048000D02*
X146874000Y-116648000D01*
X126680000Y-92657000D02*
X126205000Y-92657000D01*
X133425000Y-92657000D02*
X133425000Y-93132000D01*
X126680000Y-99877000D02*
X126205000Y-99877000D01*
X132950000Y-99877000D02*
X133425000Y-99877000D01*
X126205000Y-99877000D02*
X126205000Y-99402000D01*
X132950000Y-92657000D02*
X133425000Y-92657000D01*
X133425000Y-99877000D02*
X133425000Y-99402000D01*
X152407252Y-117502000D02*
X151884748Y-117502000D01*
X152407252Y-118972000D02*
X151884748Y-118972000D01*
X141083420Y-110492000D02*
X141364580Y-110492000D01*
X141083420Y-109472000D02*
X141364580Y-109472000D01*
X143020000Y-117585641D02*
X143020000Y-117278359D01*
X143780000Y-117585641D02*
X143780000Y-117278359D01*
X150938000Y-105091000D02*
X152338000Y-105091000D01*
X152338000Y-105091000D02*
X152338000Y-106491000D01*
X152338000Y-106491000D02*
X150938000Y-106491000D01*
X150938000Y-106491000D02*
X150938000Y-105091000D01*
X126249164Y-112011000D02*
X126464836Y-112011000D01*
X126249164Y-112731000D02*
X126464836Y-112731000D01*
X124460000Y-93707836D02*
X124460000Y-93492164D01*
X123740000Y-93707836D02*
X123740000Y-93492164D01*
X134847359Y-93480000D02*
X135154641Y-93480000D01*
X134847359Y-92720000D02*
X135154641Y-92720000D01*
X133263164Y-91208000D02*
X133478836Y-91208000D01*
X133263164Y-91928000D02*
X133478836Y-91928000D01*
X151820000Y-94640580D02*
X151820000Y-94359420D01*
X152840000Y-94640580D02*
X152840000Y-94359420D01*
X128967000Y-104837000D02*
X130367000Y-104837000D01*
X130367000Y-104837000D02*
X130367000Y-106237000D01*
X128967000Y-106237000D02*
X128967000Y-104837000D01*
X130367000Y-106237000D02*
X128967000Y-106237000D01*
X154238748Y-108465000D02*
X154761252Y-108465000D01*
X154238748Y-109935000D02*
X154761252Y-109935000D01*
X121190000Y-105862500D02*
X121190000Y-105212500D01*
X124310000Y-105862500D02*
X124310000Y-106512500D01*
X121190000Y-105862500D02*
X121190000Y-107537500D01*
X124310000Y-105862500D02*
X124310000Y-105212500D01*
X134847359Y-93727000D02*
X135154641Y-93727000D01*
X134847359Y-94487000D02*
X135154641Y-94487000D01*
X124756000Y-96031164D02*
X124756000Y-96246836D01*
X125476000Y-96031164D02*
X125476000Y-96246836D01*
X156753641Y-112777000D02*
X156446359Y-112777000D01*
X156753641Y-113537000D02*
X156446359Y-113537000D01*
X126724420Y-111611000D02*
X127005580Y-111611000D01*
X126724420Y-110591000D02*
X127005580Y-110591000D01*
X127866000Y-105862500D02*
X127866000Y-106512500D01*
X124746000Y-105862500D02*
X124746000Y-105212500D01*
X124746000Y-105862500D02*
X124746000Y-107537500D01*
X127866000Y-105862500D02*
X127866000Y-105212500D01*
X123282359Y-112370000D02*
X123589641Y-112370000D01*
X123282359Y-111610000D02*
X123589641Y-111610000D01*
M02*
