G04 #@! TF.GenerationSoftware,KiCad,Pcbnew,(6.0.0)*
G04 #@! TF.CreationDate,2022-04-16T23:03:44-07:00*
G04 #@! TF.ProjectId,YellCube,59656c6c-4375-4626-952e-6b696361645f,rev?*
G04 #@! TF.SameCoordinates,Original*
G04 #@! TF.FileFunction,Legend,Bot*
G04 #@! TF.FilePolarity,Positive*
%FSLAX46Y46*%
G04 Gerber Fmt 4.6, Leading zero omitted, Abs format (unit mm)*
G04 Created by KiCad (PCBNEW (6.0.0)) date 2022-04-16 23:03:44*
%MOMM*%
%LPD*%
G01*
G04 APERTURE LIST*
%ADD10C,0.127000*%
%ADD11C,0.120000*%
%ADD12C,0.300000*%
G04 APERTURE END LIST*
D10*
X154658785Y-115442827D02*
X154689023Y-115412589D01*
X154719261Y-115321875D01*
X154719261Y-115261399D01*
X154689023Y-115170684D01*
X154628547Y-115110208D01*
X154568071Y-115079970D01*
X154447119Y-115049732D01*
X154356404Y-115049732D01*
X154235452Y-115079970D01*
X154174976Y-115110208D01*
X154114500Y-115170684D01*
X154084261Y-115261399D01*
X154084261Y-115321875D01*
X154114500Y-115412589D01*
X154144738Y-115442827D01*
X154719261Y-115714970D02*
X154084261Y-115714970D01*
X154719261Y-116077827D01*
X154084261Y-116077827D01*
X154084261Y-116319732D02*
X154084261Y-116712827D01*
X154326166Y-116501160D01*
X154326166Y-116591875D01*
X154356404Y-116652351D01*
X154386642Y-116682589D01*
X154447119Y-116712827D01*
X154598309Y-116712827D01*
X154658785Y-116682589D01*
X154689023Y-116652351D01*
X154719261Y-116591875D01*
X154719261Y-116410446D01*
X154689023Y-116349970D01*
X154658785Y-116319732D01*
D11*
X131930949Y-112705400D02*
G75*
G03*
X131930949Y-112705400I-381000J0D01*
G01*
D10*
X144317000Y-117389000D02*
X144317000Y-112989000D01*
X151917000Y-119139000D02*
X147917000Y-119139000D01*
X151917000Y-111239000D02*
X151917000Y-113289000D01*
X147917000Y-111239000D02*
X151917000Y-111239000D01*
X151917000Y-117089000D02*
X151917000Y-119139000D01*
D12*
X153017000Y-117339000D02*
G75*
G03*
X153017000Y-117339000I-100000J0D01*
G01*
M02*
