G04 #@! TF.GenerationSoftware,KiCad,Pcbnew,(6.0.0)*
G04 #@! TF.CreationDate,2022-04-16T23:03:44-07:00*
G04 #@! TF.ProjectId,YellCube,59656c6c-4375-4626-952e-6b696361645f,rev?*
G04 #@! TF.SameCoordinates,Original*
G04 #@! TF.FileFunction,Copper,L4,Bot*
G04 #@! TF.FilePolarity,Positive*
%FSLAX46Y46*%
G04 Gerber Fmt 4.6, Leading zero omitted, Abs format (unit mm)*
G04 Created by KiCad (PCBNEW (6.0.0)) date 2022-04-16 23:03:44*
%MOMM*%
%LPD*%
G01*
G04 APERTURE LIST*
G04 Aperture macros list*
%AMRoundRect*
0 Rectangle with rounded corners*
0 $1 Rounding radius*
0 $2 $3 $4 $5 $6 $7 $8 $9 X,Y pos of 4 corners*
0 Add a 4 corners polygon primitive as box body*
4,1,4,$2,$3,$4,$5,$6,$7,$8,$9,$2,$3,0*
0 Add four circle primitives for the rounded corners*
1,1,$1+$1,$2,$3*
1,1,$1+$1,$4,$5*
1,1,$1+$1,$6,$7*
1,1,$1+$1,$8,$9*
0 Add four rect primitives between the rounded corners*
20,1,$1+$1,$2,$3,$4,$5,0*
20,1,$1+$1,$4,$5,$6,$7,0*
20,1,$1+$1,$6,$7,$8,$9,0*
20,1,$1+$1,$8,$9,$2,$3,0*%
G04 Aperture macros list end*
G04 #@! TA.AperFunction,ComponentPad*
%ADD10C,0.685800*%
G04 #@! TD*
G04 #@! TA.AperFunction,ComponentPad*
%ADD11O,1.300000X3.200000*%
G04 #@! TD*
G04 #@! TA.AperFunction,ComponentPad*
%ADD12O,1.300000X2.500000*%
G04 #@! TD*
G04 #@! TA.AperFunction,ComponentPad*
%ADD13RoundRect,0.250000X-0.625000X0.350000X-0.625000X-0.350000X0.625000X-0.350000X0.625000X0.350000X0*%
G04 #@! TD*
G04 #@! TA.AperFunction,ComponentPad*
%ADD14O,1.750000X1.200000*%
G04 #@! TD*
G04 #@! TA.AperFunction,ComponentPad*
%ADD15C,0.500000*%
G04 #@! TD*
G04 #@! TA.AperFunction,SMDPad,CuDef*
%ADD16R,5.300000X5.300000*%
G04 #@! TD*
G04 #@! TA.AperFunction,SMDPad,CuDef*
%ADD17R,3.500000X1.000000*%
G04 #@! TD*
G04 #@! TA.AperFunction,SMDPad,CuDef*
%ADD18R,3.400001X1.500000*%
G04 #@! TD*
G04 #@! TA.AperFunction,ViaPad*
%ADD19C,0.450000*%
G04 #@! TD*
G04 #@! TA.AperFunction,Conductor*
%ADD20C,0.152400*%
G04 #@! TD*
G04 #@! TA.AperFunction,Conductor*
%ADD21C,0.762000*%
G04 #@! TD*
G04 #@! TA.AperFunction,Conductor*
%ADD22C,0.508000*%
G04 #@! TD*
G04 #@! TA.AperFunction,Conductor*
%ADD23C,0.254000*%
G04 #@! TD*
G04 #@! TA.AperFunction,Conductor*
%ADD24C,0.381000*%
G04 #@! TD*
G04 #@! TA.AperFunction,Conductor*
%ADD25C,0.228854*%
G04 #@! TD*
G04 APERTURE END LIST*
D10*
X134329949Y-113845400D03*
X135179949Y-113845400D03*
X136029949Y-113845400D03*
X136879949Y-113845400D03*
X137729950Y-113845400D03*
X138579948Y-113845400D03*
X139429949Y-113845400D03*
X140279950Y-113845400D03*
X140279950Y-115195400D03*
X139429949Y-115195400D03*
X138579948Y-115195400D03*
X137729950Y-115195400D03*
X136879949Y-115195400D03*
X136029949Y-115195400D03*
X135179949Y-115195400D03*
X134329949Y-115195400D03*
D11*
X132984948Y-114345399D03*
X141624948Y-114345399D03*
D12*
X141624948Y-118495401D03*
X132984948Y-118495401D03*
D13*
X151680000Y-88154000D03*
D14*
X151680000Y-90154000D03*
D13*
X157600000Y-95400000D03*
D14*
X157600000Y-97400000D03*
X157600000Y-99400000D03*
X157600000Y-101400000D03*
D15*
X128615000Y-96267000D03*
X127415000Y-97467000D03*
X127415000Y-95067000D03*
X132215000Y-95067000D03*
X127415000Y-96267000D03*
X131015000Y-95067000D03*
X131015000Y-98667000D03*
X132215000Y-97467000D03*
X128615000Y-93867000D03*
X131015000Y-96267000D03*
X129815000Y-98667000D03*
X127415000Y-93867000D03*
X128615000Y-98667000D03*
D16*
X129815000Y-96267000D03*
D15*
X132215000Y-93867000D03*
X128615000Y-95067000D03*
X131015000Y-93867000D03*
X127415000Y-98667000D03*
X129815000Y-96267000D03*
X132215000Y-96267000D03*
X132215000Y-98667000D03*
X129815000Y-95067000D03*
X131015000Y-97467000D03*
X129815000Y-93867000D03*
X128615000Y-97467000D03*
X129815000Y-97467000D03*
D17*
X151567000Y-116189000D03*
X151567000Y-114189000D03*
D18*
X145816999Y-111838999D03*
X145816999Y-118539001D03*
D19*
X128016000Y-92075000D03*
X123444000Y-95631000D03*
X147066000Y-99695000D03*
X133985000Y-100711000D03*
X130937000Y-100965000D03*
X136144000Y-98298000D03*
X138303000Y-91694000D03*
X126111000Y-93091000D03*
X141592000Y-105931000D03*
X124587000Y-101727000D03*
X136935341Y-87096441D03*
X141605000Y-104775000D03*
X140208000Y-103759000D03*
X147066000Y-97028000D03*
X129540000Y-92075000D03*
X121031000Y-103378000D03*
X157734000Y-113157000D03*
X132842000Y-89916000D03*
X125222000Y-94869000D03*
X141478000Y-89027000D03*
X141097000Y-97790000D03*
X142748000Y-109855000D03*
X144907000Y-96393000D03*
X153416000Y-112395000D03*
X139827000Y-94234000D03*
X138303000Y-100330000D03*
X134239000Y-96774000D03*
X159512000Y-105410000D03*
X120396000Y-96266000D03*
X127381000Y-112395000D03*
X132080000Y-109093000D03*
X159512000Y-97790000D03*
X143256000Y-86106000D03*
X148336000Y-86106000D03*
X159512000Y-95250000D03*
X138303000Y-92710000D03*
X151003000Y-119507000D03*
X137922000Y-87122000D03*
X138684000Y-89281000D03*
X134366000Y-91567000D03*
X127635000Y-110363000D03*
X145796000Y-86106000D03*
X150876000Y-86106000D03*
X136525000Y-95123000D03*
X126873000Y-113411000D03*
X124587000Y-116840000D03*
X149225000Y-114427000D03*
X148844000Y-108966000D03*
X126238000Y-106553000D03*
X156210000Y-106553000D03*
X147193000Y-109601000D03*
X159512000Y-102870000D03*
X135001000Y-117729000D03*
X135340363Y-100381979D03*
X128143000Y-119507000D03*
X156210000Y-105537000D03*
X159512000Y-90170000D03*
X131064000Y-112649000D03*
X138557000Y-117094000D03*
X153543000Y-119507000D03*
X120396000Y-86106000D03*
X143891000Y-106299000D03*
X120396000Y-101346000D03*
X153543000Y-93980000D03*
X138303000Y-119507000D03*
X125349000Y-98679000D03*
X150114000Y-110109000D03*
X121158000Y-97155000D03*
X133096000Y-86106000D03*
X136641612Y-100393863D03*
X138176000Y-102235000D03*
X146812000Y-94488000D03*
X146685000Y-91567000D03*
X133223000Y-106299000D03*
X121793000Y-93345000D03*
X150368000Y-118237000D03*
X150749000Y-92964000D03*
X140462000Y-91694000D03*
X148971000Y-107696000D03*
X120396000Y-91186000D03*
X149479000Y-117221000D03*
X131445000Y-114808000D03*
X130683000Y-119507000D03*
X143609865Y-116411707D03*
X124079000Y-97155000D03*
X130556000Y-86106000D03*
X123571000Y-93345000D03*
X159512000Y-115570000D03*
X136271000Y-97282000D03*
X136144000Y-107442000D03*
X139827000Y-92202000D03*
X138938000Y-87376000D03*
X157607000Y-112141000D03*
X121158000Y-108204000D03*
X148463000Y-119507000D03*
X143764000Y-101981000D03*
X159512000Y-110490000D03*
X135890000Y-104648000D03*
X157607000Y-114173000D03*
X129286000Y-115443000D03*
X143383000Y-119507000D03*
X153162000Y-92964000D03*
X128778000Y-109601000D03*
X124587000Y-114681000D03*
X143891000Y-103251000D03*
X124841000Y-93345000D03*
X144399000Y-109728000D03*
X141986000Y-109220000D03*
X136525000Y-92583000D03*
X159512000Y-100330000D03*
X143764000Y-90551000D03*
X144526000Y-100711000D03*
X140843000Y-86741000D03*
X159512000Y-92710000D03*
X120396000Y-88646000D03*
X139954000Y-116205000D03*
X123571000Y-101346000D03*
X120396000Y-98806000D03*
X132080000Y-111125000D03*
X122936000Y-86106000D03*
X159512000Y-107950000D03*
X149225000Y-101092000D03*
X146685000Y-87503000D03*
X156210000Y-107823000D03*
X128016000Y-86106000D03*
X128016000Y-116840000D03*
X121285000Y-94869000D03*
X128778000Y-111887000D03*
X124206000Y-94869000D03*
X138176000Y-96901000D03*
X123698000Y-91948000D03*
X150495000Y-102743000D03*
X141351000Y-100076000D03*
X146812000Y-108458000D03*
X149225000Y-113411000D03*
X123444000Y-94869000D03*
X121031000Y-102362000D03*
X120396000Y-103886000D03*
X148082000Y-96139000D03*
X142748000Y-110998000D03*
X143891000Y-105283000D03*
X124587000Y-104013000D03*
X131445000Y-118237000D03*
X136398000Y-109474000D03*
X137922000Y-98679000D03*
X153416000Y-86106000D03*
X130429000Y-117602000D03*
X143891000Y-104267000D03*
X123444000Y-98806000D03*
X130302000Y-111887000D03*
X122099749Y-90634867D03*
X135763000Y-119507000D03*
X139827000Y-96393000D03*
X132969000Y-100965000D03*
X135382000Y-85979000D03*
X156210000Y-108712000D03*
X134366000Y-90551000D03*
X131445000Y-105410000D03*
X132080000Y-112141000D03*
X156210000Y-104394000D03*
X156210000Y-109855000D03*
X125476000Y-86106000D03*
X155067000Y-110998000D03*
X141732000Y-85979000D03*
X143764000Y-88646000D03*
X149098000Y-88265000D03*
X143891000Y-107315000D03*
X128270000Y-107569000D03*
X148844000Y-104521000D03*
X125095000Y-97155000D03*
X125603000Y-119507000D03*
X149225000Y-115824000D03*
X151892000Y-92964000D03*
X149098000Y-89535000D03*
X120396000Y-94869000D03*
X149987000Y-93726000D03*
X134874000Y-115951000D03*
X149098000Y-90932000D03*
X159512000Y-113030000D03*
X132080000Y-110109000D03*
X142748000Y-112141000D03*
X120396000Y-93345000D03*
X143002000Y-100711000D03*
X132207000Y-107442000D03*
X132080000Y-100584000D03*
X123571000Y-105029000D03*
X128651000Y-105156000D03*
X146177000Y-103886000D03*
X142748000Y-95758000D03*
X152146000Y-106934000D03*
X146939000Y-106680000D03*
X152146000Y-108585000D03*
X151257000Y-107696000D03*
X151638000Y-99314000D03*
X152400000Y-104648000D03*
X142748000Y-94869000D03*
X151003000Y-104648000D03*
X151638000Y-104648000D03*
X146939000Y-105156000D03*
X149987000Y-95250000D03*
X140449000Y-109106000D03*
X146812000Y-110363000D03*
X134379000Y-109233000D03*
X126090000Y-110342000D03*
X154305000Y-118237000D03*
X148463000Y-114046000D03*
X154305000Y-116967000D03*
X154305000Y-115697000D03*
X153162000Y-115062000D03*
X130302000Y-114808000D03*
X123571000Y-110998000D03*
X143256000Y-112649000D03*
X136514627Y-114466281D03*
X138176000Y-114554000D03*
X120523000Y-118999000D03*
X120523000Y-105791000D03*
X121285000Y-109093000D03*
X121285000Y-117983000D03*
X121285000Y-119452100D03*
X121539000Y-91186000D03*
X123884247Y-119311931D03*
X122682000Y-90170000D03*
X135890000Y-89281000D03*
X136017000Y-102362000D03*
X134747000Y-89281000D03*
X134874000Y-104648000D03*
X149860000Y-107315000D03*
X154940000Y-110363000D03*
X140716000Y-101600000D03*
X141224000Y-107696000D03*
X137287000Y-104140000D03*
X136906000Y-89916000D03*
X156972000Y-111125000D03*
X156972000Y-103505000D03*
X139192000Y-102870000D03*
X139192000Y-88265000D03*
D20*
X132080000Y-100584000D02*
X132080000Y-107315000D01*
X132080000Y-107315000D02*
X132207000Y-107442000D01*
X123571000Y-105029000D02*
X128524000Y-105029000D01*
X128524000Y-105029000D02*
X128651000Y-105156000D01*
D21*
X150372089Y-105922089D02*
X146939000Y-105922089D01*
X150749000Y-106299000D02*
X150372089Y-105922089D01*
X146939000Y-100838000D02*
X146939000Y-104267000D01*
X143891000Y-95250000D02*
X143510000Y-94869000D01*
X143891000Y-96012000D02*
X143002000Y-96012000D01*
X151638000Y-104648000D02*
X150947151Y-104648000D01*
X143510000Y-94869000D02*
X142748000Y-94869000D01*
X143891000Y-96012000D02*
X143891000Y-95250000D01*
X149070075Y-102770925D02*
X147038075Y-100738925D01*
X150947151Y-104648000D02*
X149070075Y-102770925D01*
X147038075Y-100738925D02*
X144561575Y-98262425D01*
X149070075Y-102770925D02*
X151638000Y-100203000D01*
X143002000Y-96012000D02*
X142748000Y-95758000D01*
X151638000Y-100203000D02*
X151638000Y-99314000D01*
X144561575Y-98262425D02*
X147574000Y-95250000D01*
X147574000Y-95250000D02*
X149987000Y-95250000D01*
X147038075Y-100738925D02*
X146939000Y-100838000D01*
X144561575Y-98262425D02*
X143891000Y-97591849D01*
X143891000Y-97591849D02*
X143891000Y-96012000D01*
D22*
X127969911Y-108462089D02*
X126090000Y-110342000D01*
X139805089Y-108462089D02*
X140449000Y-109106000D01*
X139805089Y-108462089D02*
X144911089Y-108462089D01*
X144911089Y-108462089D02*
X146812000Y-110363000D01*
X133608089Y-108462089D02*
X139805089Y-108462089D01*
X134379000Y-109233000D02*
X133608089Y-108462089D01*
X133608089Y-108462089D02*
X127969911Y-108462089D01*
D23*
X151301089Y-113923089D02*
X151567000Y-114189000D01*
X148585911Y-113923089D02*
X151301089Y-113923089D01*
X148463000Y-114046000D02*
X148585911Y-113923089D01*
D24*
X125857000Y-114808000D02*
X130302000Y-114808000D01*
X123571000Y-110998000D02*
X123571000Y-112522000D01*
X123571000Y-112522000D02*
X125857000Y-114808000D01*
D23*
X143256000Y-112649000D02*
X142192240Y-112649000D01*
X137000281Y-112466479D02*
X136029949Y-113436811D01*
X142192240Y-112649000D02*
X142009719Y-112466479D01*
X136029949Y-113436811D02*
X136029949Y-113845400D01*
X142009719Y-112466479D02*
X137000281Y-112466479D01*
D25*
X136602346Y-114554000D02*
X136514627Y-114466281D01*
X138176000Y-114554000D02*
X136602346Y-114554000D01*
D20*
X120523000Y-118999000D02*
X120523000Y-105791000D01*
X121285000Y-109093000D02*
X121285000Y-117983000D01*
X121920000Y-118817100D02*
X121920000Y-93858797D01*
X121920000Y-93858797D02*
X122246111Y-93532686D01*
X122246111Y-93532686D02*
X122246111Y-91893111D01*
X121285000Y-119452100D02*
X121920000Y-118817100D01*
X122246111Y-91893111D02*
X121539000Y-91186000D01*
X123884247Y-119311931D02*
X122809000Y-118236684D01*
X122809000Y-118236684D02*
X122809000Y-94449187D01*
X123063000Y-90551000D02*
X122682000Y-90170000D01*
X123063000Y-94195187D02*
X123063000Y-90551000D01*
X122809000Y-94449187D02*
X123063000Y-94195187D01*
X135690889Y-98485686D02*
X135690889Y-89480111D01*
X136017000Y-98751111D02*
X135956314Y-98751111D01*
X136017000Y-102362000D02*
X136017000Y-98751111D01*
X135956314Y-98751111D02*
X135690889Y-98485686D01*
X135690889Y-89480111D02*
X135890000Y-89281000D01*
X134819111Y-104593111D02*
X134819111Y-89353111D01*
X134874000Y-104648000D02*
X134819111Y-104593111D01*
X134819111Y-89353111D02*
X134747000Y-89281000D01*
X140716000Y-107188000D02*
X141224000Y-107696000D01*
X149860000Y-107315000D02*
X152908000Y-110363000D01*
X152908000Y-110363000D02*
X154940000Y-110363000D01*
X140716000Y-101600000D02*
X140716000Y-107188000D01*
X137287000Y-90297000D02*
X136906000Y-89916000D01*
X137287000Y-104140000D02*
X137287000Y-90297000D01*
X156972000Y-103505000D02*
X156972000Y-111125000D01*
X139192000Y-102870000D02*
X139192000Y-88265000D01*
G04 #@! TA.AperFunction,Conductor*
G36*
X157375862Y-85681926D02*
G01*
X157400000Y-85685749D01*
X157405846Y-85684823D01*
X157405849Y-85684823D01*
X157413590Y-85683597D01*
X157429894Y-85682808D01*
X157699095Y-85699092D01*
X157708109Y-85700187D01*
X157998360Y-85753377D01*
X158007177Y-85755550D01*
X158133575Y-85794937D01*
X158288911Y-85843342D01*
X158297391Y-85846558D01*
X158566491Y-85967670D01*
X158574527Y-85971887D01*
X158827074Y-86124557D01*
X158834533Y-86129706D01*
X159066827Y-86311697D01*
X159073624Y-86317719D01*
X159282281Y-86526376D01*
X159288303Y-86533173D01*
X159470294Y-86765467D01*
X159475443Y-86772926D01*
X159603075Y-86984055D01*
X159628112Y-87025471D01*
X159632330Y-87033509D01*
X159733755Y-87258864D01*
X159753440Y-87302603D01*
X159756658Y-87311089D01*
X159787065Y-87408669D01*
X159844450Y-87592823D01*
X159846623Y-87601640D01*
X159899813Y-87891891D01*
X159900908Y-87900905D01*
X159917192Y-88170106D01*
X159916403Y-88186410D01*
X159915177Y-88194151D01*
X159914251Y-88200000D01*
X159915177Y-88205846D01*
X159918074Y-88224137D01*
X159919000Y-88235901D01*
X159919000Y-117264099D01*
X159918074Y-117275862D01*
X159914251Y-117300000D01*
X159915177Y-117305846D01*
X159915177Y-117305849D01*
X159916403Y-117313590D01*
X159917192Y-117329894D01*
X159900908Y-117599095D01*
X159899813Y-117608109D01*
X159846623Y-117898360D01*
X159844450Y-117907177D01*
X159806532Y-118028859D01*
X159779007Y-118117193D01*
X159756660Y-118188906D01*
X159753442Y-118197391D01*
X159655478Y-118415060D01*
X159632332Y-118466488D01*
X159628113Y-118474527D01*
X159475443Y-118727074D01*
X159470294Y-118734533D01*
X159303405Y-118947551D01*
X159288303Y-118966827D01*
X159282281Y-118973624D01*
X159073624Y-119182281D01*
X159066827Y-119188303D01*
X158834533Y-119370294D01*
X158827074Y-119375443D01*
X158574529Y-119528112D01*
X158566491Y-119532330D01*
X158297391Y-119653442D01*
X158288911Y-119656658D01*
X158179905Y-119690626D01*
X158007177Y-119744450D01*
X157998360Y-119746623D01*
X157708109Y-119799813D01*
X157699095Y-119800908D01*
X157429894Y-119817192D01*
X157413590Y-119816403D01*
X157405849Y-119815177D01*
X157405846Y-119815177D01*
X157400000Y-119814251D01*
X157378300Y-119817688D01*
X157375863Y-119818074D01*
X157364099Y-119819000D01*
X142217206Y-119819000D01*
X142168868Y-119801407D01*
X142143148Y-119756858D01*
X142152081Y-119706200D01*
X142164591Y-119690072D01*
X142247695Y-119608691D01*
X142252974Y-119602219D01*
X142345941Y-119457962D01*
X142349651Y-119450488D01*
X142404308Y-119300317D01*
X143964599Y-119300317D01*
X143965320Y-119307638D01*
X143971996Y-119341199D01*
X143977557Y-119354624D01*
X144003013Y-119392721D01*
X144013279Y-119402987D01*
X144051376Y-119428443D01*
X144064801Y-119434004D01*
X144098362Y-119440680D01*
X144105683Y-119441401D01*
X145676740Y-119441401D01*
X145686897Y-119437704D01*
X145689999Y-119432332D01*
X145689999Y-119428142D01*
X145943999Y-119428142D01*
X145947696Y-119438299D01*
X145953068Y-119441401D01*
X147528315Y-119441401D01*
X147535636Y-119440680D01*
X147569197Y-119434004D01*
X147582622Y-119428443D01*
X147620719Y-119402987D01*
X147630985Y-119392721D01*
X147656441Y-119354624D01*
X147662002Y-119341199D01*
X147668678Y-119307638D01*
X147669399Y-119300317D01*
X147669399Y-118679260D01*
X147665702Y-118669103D01*
X147660330Y-118666001D01*
X145957258Y-118666001D01*
X145947101Y-118669698D01*
X145943999Y-118675070D01*
X145943999Y-119428142D01*
X145689999Y-119428142D01*
X145689999Y-118679260D01*
X145686302Y-118669103D01*
X145680930Y-118666001D01*
X143977858Y-118666001D01*
X143967701Y-118669698D01*
X143964599Y-118675070D01*
X143964599Y-119300317D01*
X142404308Y-119300317D01*
X142408345Y-119289226D01*
X142410311Y-119281099D01*
X142427051Y-119148590D01*
X142427348Y-119143869D01*
X142427348Y-118635660D01*
X142423651Y-118625503D01*
X142418279Y-118622401D01*
X140835807Y-118622401D01*
X140825650Y-118626098D01*
X140822548Y-118631470D01*
X140822548Y-119138554D01*
X140822784Y-119142764D01*
X140837068Y-119270111D01*
X140838921Y-119278271D01*
X140895357Y-119440331D01*
X140898966Y-119447865D01*
X140989905Y-119593396D01*
X140995100Y-119599952D01*
X141085328Y-119690811D01*
X141106905Y-119737507D01*
X141093419Y-119787147D01*
X141051179Y-119816505D01*
X141031969Y-119819000D01*
X133577206Y-119819000D01*
X133528868Y-119801407D01*
X133503148Y-119756858D01*
X133512081Y-119706200D01*
X133524591Y-119690072D01*
X133607695Y-119608691D01*
X133612974Y-119602219D01*
X133705941Y-119457962D01*
X133709651Y-119450488D01*
X133768345Y-119289226D01*
X133770311Y-119281099D01*
X133787051Y-119148590D01*
X133787348Y-119143869D01*
X133787348Y-118635660D01*
X133783651Y-118625503D01*
X133778279Y-118622401D01*
X132195807Y-118622401D01*
X132185650Y-118626098D01*
X132182548Y-118631470D01*
X132182548Y-119138554D01*
X132182784Y-119142764D01*
X132197068Y-119270111D01*
X132198921Y-119278271D01*
X132255357Y-119440331D01*
X132258966Y-119447865D01*
X132349905Y-119593396D01*
X132355100Y-119599952D01*
X132445328Y-119690811D01*
X132466905Y-119737507D01*
X132453419Y-119787147D01*
X132411179Y-119816505D01*
X132391969Y-119819000D01*
X124033604Y-119819000D01*
X123985266Y-119801407D01*
X123959546Y-119756858D01*
X123968479Y-119706200D01*
X124003508Y-119677834D01*
X124002480Y-119675816D01*
X124103863Y-119624159D01*
X124103864Y-119624158D01*
X124109140Y-119621470D01*
X124193786Y-119536824D01*
X124248132Y-119430164D01*
X124260096Y-119354624D01*
X124265932Y-119317778D01*
X124266858Y-119311931D01*
X124265932Y-119306081D01*
X124249058Y-119199545D01*
X124248132Y-119193698D01*
X124211730Y-119122255D01*
X124196475Y-119092315D01*
X124196474Y-119092314D01*
X124193786Y-119087038D01*
X124109140Y-119002392D01*
X124091008Y-118993153D01*
X124026055Y-118960058D01*
X124002480Y-118948046D01*
X123934846Y-118937334D01*
X123890094Y-118930246D01*
X123884247Y-118929320D01*
X123871487Y-118931341D01*
X123820994Y-118921523D01*
X123806553Y-118910240D01*
X123295055Y-118398742D01*
X143964599Y-118398742D01*
X143968296Y-118408899D01*
X143973668Y-118412001D01*
X145676740Y-118412001D01*
X145686897Y-118408304D01*
X145689999Y-118402932D01*
X145689999Y-118398742D01*
X145943999Y-118398742D01*
X145947696Y-118408899D01*
X145953068Y-118412001D01*
X147656140Y-118412001D01*
X147666297Y-118408304D01*
X147669399Y-118402932D01*
X147669399Y-117777685D01*
X147668678Y-117770364D01*
X147662002Y-117736803D01*
X147656441Y-117723378D01*
X147630985Y-117685281D01*
X147620719Y-117675015D01*
X147582622Y-117649559D01*
X147569197Y-117643998D01*
X147535636Y-117637322D01*
X147528315Y-117636601D01*
X145957258Y-117636601D01*
X145947101Y-117640298D01*
X145943999Y-117645670D01*
X145943999Y-118398742D01*
X145689999Y-118398742D01*
X145689999Y-117649860D01*
X145686302Y-117639703D01*
X145680930Y-117636601D01*
X144105683Y-117636601D01*
X144098362Y-117637322D01*
X144064801Y-117643998D01*
X144051376Y-117649559D01*
X144013279Y-117675015D01*
X144003013Y-117685281D01*
X143977557Y-117723378D01*
X143971996Y-117736803D01*
X143965320Y-117770364D01*
X143964599Y-117777685D01*
X143964599Y-118398742D01*
X123295055Y-118398742D01*
X123251455Y-118355142D01*
X132182548Y-118355142D01*
X132186245Y-118365299D01*
X132191617Y-118368401D01*
X132844689Y-118368401D01*
X132854846Y-118364704D01*
X132857948Y-118359332D01*
X132857948Y-118355142D01*
X133111948Y-118355142D01*
X133115645Y-118365299D01*
X133121017Y-118368401D01*
X133774089Y-118368401D01*
X133784246Y-118364704D01*
X133787348Y-118359332D01*
X133787348Y-118355142D01*
X140822548Y-118355142D01*
X140826245Y-118365299D01*
X140831617Y-118368401D01*
X141484689Y-118368401D01*
X141494846Y-118364704D01*
X141497948Y-118359332D01*
X141497948Y-118355142D01*
X141751948Y-118355142D01*
X141755645Y-118365299D01*
X141761017Y-118368401D01*
X142414089Y-118368401D01*
X142424246Y-118364704D01*
X142427348Y-118359332D01*
X142427348Y-117852248D01*
X142427112Y-117848038D01*
X142412828Y-117720691D01*
X142410975Y-117712531D01*
X142354539Y-117550471D01*
X142350930Y-117542937D01*
X142259991Y-117397406D01*
X142254800Y-117390855D01*
X142133873Y-117269082D01*
X142127371Y-117263854D01*
X141982475Y-117171899D01*
X141974961Y-117168234D01*
X141813292Y-117110667D01*
X141805165Y-117108761D01*
X141765113Y-117103985D01*
X141754592Y-117106453D01*
X141751948Y-117109987D01*
X141751948Y-118355142D01*
X141497948Y-118355142D01*
X141497948Y-117115144D01*
X141494251Y-117104987D01*
X141490275Y-117102691D01*
X141455738Y-117106321D01*
X141447571Y-117108117D01*
X141285124Y-117163418D01*
X141277559Y-117166977D01*
X141131393Y-117256899D01*
X141124814Y-117262039D01*
X141002201Y-117382111D01*
X140996922Y-117388583D01*
X140903955Y-117532840D01*
X140900245Y-117540314D01*
X140841551Y-117701576D01*
X140839585Y-117709703D01*
X140822845Y-117842212D01*
X140822548Y-117846933D01*
X140822548Y-118355142D01*
X133787348Y-118355142D01*
X133787348Y-117852248D01*
X133787112Y-117848038D01*
X133772828Y-117720691D01*
X133770975Y-117712531D01*
X133714539Y-117550471D01*
X133710930Y-117542937D01*
X133619991Y-117397406D01*
X133614800Y-117390855D01*
X133493873Y-117269082D01*
X133487371Y-117263854D01*
X133342475Y-117171899D01*
X133334961Y-117168234D01*
X133173292Y-117110667D01*
X133165165Y-117108761D01*
X133125113Y-117103985D01*
X133114592Y-117106453D01*
X133111948Y-117109987D01*
X133111948Y-118355142D01*
X132857948Y-118355142D01*
X132857948Y-117115144D01*
X132854251Y-117104987D01*
X132850275Y-117102691D01*
X132815738Y-117106321D01*
X132807571Y-117108117D01*
X132645124Y-117163418D01*
X132637559Y-117166977D01*
X132491393Y-117256899D01*
X132484814Y-117262039D01*
X132362201Y-117382111D01*
X132356922Y-117388583D01*
X132263955Y-117532840D01*
X132260245Y-117540314D01*
X132201551Y-117701576D01*
X132199585Y-117709703D01*
X132182845Y-117842212D01*
X132182548Y-117846933D01*
X132182548Y-118355142D01*
X123251455Y-118355142D01*
X123060126Y-118163813D01*
X123038386Y-118117193D01*
X123038100Y-118110639D01*
X123038100Y-116700316D01*
X149664600Y-116700316D01*
X149665321Y-116707637D01*
X149671997Y-116741198D01*
X149677558Y-116754623D01*
X149703014Y-116792720D01*
X149713280Y-116802986D01*
X149751377Y-116828442D01*
X149764802Y-116834003D01*
X149798363Y-116840679D01*
X149805684Y-116841400D01*
X151426741Y-116841400D01*
X151436898Y-116837703D01*
X151440000Y-116832331D01*
X151440000Y-116329259D01*
X151436303Y-116319102D01*
X151430931Y-116316000D01*
X149677859Y-116316000D01*
X149667702Y-116319697D01*
X149664600Y-116325069D01*
X149664600Y-116700316D01*
X123038100Y-116700316D01*
X123038100Y-115338552D01*
X132182548Y-115338552D01*
X132182784Y-115342762D01*
X132197068Y-115470109D01*
X132198921Y-115478269D01*
X132255357Y-115640329D01*
X132258966Y-115647863D01*
X132349905Y-115793394D01*
X132355096Y-115799945D01*
X132476023Y-115921718D01*
X132482525Y-115926946D01*
X132627421Y-116018901D01*
X132634935Y-116022566D01*
X132796604Y-116080133D01*
X132804731Y-116082039D01*
X132844783Y-116086815D01*
X132855304Y-116084347D01*
X132857948Y-116080813D01*
X132857948Y-116075656D01*
X133111948Y-116075656D01*
X133115645Y-116085813D01*
X133119621Y-116088109D01*
X133154158Y-116084479D01*
X133162325Y-116082683D01*
X133324772Y-116027382D01*
X133332337Y-116023823D01*
X133478503Y-115933901D01*
X133485082Y-115928761D01*
X133607695Y-115808689D01*
X133612974Y-115802217D01*
X133705941Y-115657960D01*
X133709651Y-115650486D01*
X133718984Y-115624843D01*
X134085341Y-115624843D01*
X134086231Y-115628167D01*
X134086383Y-115628315D01*
X134110062Y-115644077D01*
X134119642Y-115648646D01*
X134244826Y-115687756D01*
X134255309Y-115689454D01*
X134386436Y-115691858D01*
X134396971Y-115690546D01*
X134523513Y-115656047D01*
X134533244Y-115651835D01*
X134567503Y-115630800D01*
X134574227Y-115622333D01*
X134574154Y-115619634D01*
X134573344Y-115618400D01*
X134339326Y-115384382D01*
X134329527Y-115379813D01*
X134323536Y-115381418D01*
X134089910Y-115615044D01*
X134085341Y-115624843D01*
X133718984Y-115624843D01*
X133768345Y-115489224D01*
X133771299Y-115477014D01*
X133772706Y-115477354D01*
X133793678Y-115436563D01*
X133841102Y-115416636D01*
X133890239Y-115431855D01*
X133899087Y-115439746D01*
X133901355Y-115442116D01*
X133906556Y-115439188D01*
X134140967Y-115204777D01*
X134145142Y-115195822D01*
X134514362Y-115195822D01*
X134515967Y-115201813D01*
X134729366Y-115415212D01*
X134745023Y-115438100D01*
X134752542Y-115455189D01*
X134752545Y-115455193D01*
X134754701Y-115460094D01*
X134846084Y-115568807D01*
X134850543Y-115571775D01*
X134850544Y-115571776D01*
X134858119Y-115576818D01*
X134964307Y-115647503D01*
X134969419Y-115649100D01*
X134969421Y-115649101D01*
X135069730Y-115680440D01*
X135099865Y-115689855D01*
X135164915Y-115691047D01*
X135236499Y-115692359D01*
X135236501Y-115692359D01*
X135241861Y-115692457D01*
X135247032Y-115691047D01*
X135247034Y-115691047D01*
X135368393Y-115657960D01*
X135378880Y-115655101D01*
X135386397Y-115650486D01*
X135495342Y-115583594D01*
X135495343Y-115583594D01*
X135499907Y-115580791D01*
X135503501Y-115576821D01*
X135503504Y-115576818D01*
X135548997Y-115526557D01*
X135594478Y-115502526D01*
X135644766Y-115513352D01*
X135662314Y-115528633D01*
X135663750Y-115530341D01*
X135696084Y-115568807D01*
X135700543Y-115571775D01*
X135700544Y-115571776D01*
X135708119Y-115576818D01*
X135814307Y-115647503D01*
X135819419Y-115649100D01*
X135819421Y-115649101D01*
X135919730Y-115680440D01*
X135949865Y-115689855D01*
X136014915Y-115691047D01*
X136086499Y-115692359D01*
X136086501Y-115692359D01*
X136091861Y-115692457D01*
X136097032Y-115691047D01*
X136097034Y-115691047D01*
X136218393Y-115657960D01*
X136228880Y-115655101D01*
X136236397Y-115650486D01*
X136345342Y-115583594D01*
X136345343Y-115583594D01*
X136349907Y-115580791D01*
X136353501Y-115576821D01*
X136353504Y-115576818D01*
X136398997Y-115526557D01*
X136444478Y-115502526D01*
X136494766Y-115513352D01*
X136512314Y-115528633D01*
X136513750Y-115530341D01*
X136546084Y-115568807D01*
X136550543Y-115571775D01*
X136550544Y-115571776D01*
X136558119Y-115576818D01*
X136664307Y-115647503D01*
X136669419Y-115649100D01*
X136669421Y-115649101D01*
X136769730Y-115680440D01*
X136799865Y-115689855D01*
X136864915Y-115691047D01*
X136936499Y-115692359D01*
X136936501Y-115692359D01*
X136941861Y-115692457D01*
X136947032Y-115691047D01*
X136947034Y-115691047D01*
X137068393Y-115657960D01*
X137078880Y-115655101D01*
X137086397Y-115650486D01*
X137195342Y-115583594D01*
X137195343Y-115583594D01*
X137199907Y-115580791D01*
X137203499Y-115576823D01*
X137203501Y-115576821D01*
X137248998Y-115526556D01*
X137294480Y-115502526D01*
X137344768Y-115513352D01*
X137362315Y-115528633D01*
X137363751Y-115530341D01*
X137396085Y-115568807D01*
X137400544Y-115571775D01*
X137400545Y-115571776D01*
X137408120Y-115576818D01*
X137514308Y-115647503D01*
X137519420Y-115649100D01*
X137519422Y-115649101D01*
X137619731Y-115680440D01*
X137649866Y-115689855D01*
X137714916Y-115691047D01*
X137786500Y-115692359D01*
X137786502Y-115692359D01*
X137791862Y-115692457D01*
X137797033Y-115691047D01*
X137797035Y-115691047D01*
X137918394Y-115657960D01*
X137928881Y-115655101D01*
X137936398Y-115650486D01*
X138045343Y-115583594D01*
X138045344Y-115583594D01*
X138049908Y-115580791D01*
X138053500Y-115576823D01*
X138053502Y-115576821D01*
X138098997Y-115526558D01*
X138144479Y-115502528D01*
X138194767Y-115513354D01*
X138212313Y-115528633D01*
X138246083Y-115568807D01*
X138250542Y-115571775D01*
X138250543Y-115571776D01*
X138258118Y-115576818D01*
X138364306Y-115647503D01*
X138369418Y-115649100D01*
X138369420Y-115649101D01*
X138469729Y-115680440D01*
X138499864Y-115689855D01*
X138564914Y-115691047D01*
X138636498Y-115692359D01*
X138636500Y-115692359D01*
X138641860Y-115692457D01*
X138647031Y-115691047D01*
X138647033Y-115691047D01*
X138768392Y-115657960D01*
X138778879Y-115655101D01*
X138786396Y-115650486D01*
X138895341Y-115583594D01*
X138895342Y-115583594D01*
X138899906Y-115580791D01*
X138903498Y-115576823D01*
X138903500Y-115576821D01*
X138948997Y-115526556D01*
X138994479Y-115502526D01*
X139044767Y-115513352D01*
X139062314Y-115528633D01*
X139063750Y-115530341D01*
X139096084Y-115568807D01*
X139100543Y-115571775D01*
X139100544Y-115571776D01*
X139108119Y-115576818D01*
X139214307Y-115647503D01*
X139219419Y-115649100D01*
X139219421Y-115649101D01*
X139319730Y-115680440D01*
X139349865Y-115689855D01*
X139414915Y-115691047D01*
X139486499Y-115692359D01*
X139486501Y-115692359D01*
X139491861Y-115692457D01*
X139497032Y-115691047D01*
X139497034Y-115691047D01*
X139618393Y-115657960D01*
X139628880Y-115655101D01*
X139636397Y-115650486D01*
X139678161Y-115624843D01*
X140035342Y-115624843D01*
X140036232Y-115628167D01*
X140036384Y-115628315D01*
X140060063Y-115644077D01*
X140069643Y-115648646D01*
X140194827Y-115687756D01*
X140205310Y-115689454D01*
X140336437Y-115691858D01*
X140346972Y-115690546D01*
X140473514Y-115656047D01*
X140483245Y-115651835D01*
X140517504Y-115630800D01*
X140524228Y-115622333D01*
X140524155Y-115619634D01*
X140523345Y-115618400D01*
X140289327Y-115384382D01*
X140279528Y-115379813D01*
X140273537Y-115381418D01*
X140039911Y-115615044D01*
X140035342Y-115624843D01*
X139678161Y-115624843D01*
X139745342Y-115583594D01*
X139745343Y-115583594D01*
X139749907Y-115580791D01*
X139753499Y-115576823D01*
X139753501Y-115576821D01*
X139798998Y-115526556D01*
X139845212Y-115475499D01*
X139863145Y-115438484D01*
X139877646Y-115418099D01*
X140090968Y-115204777D01*
X140095143Y-115195822D01*
X140464363Y-115195822D01*
X140465968Y-115201813D01*
X140699966Y-115435811D01*
X140709765Y-115440380D01*
X140715865Y-115438746D01*
X140752443Y-115417985D01*
X140803034Y-115427291D01*
X140835808Y-115466939D01*
X140838286Y-115475476D01*
X140838919Y-115478264D01*
X140895357Y-115640329D01*
X140898966Y-115647863D01*
X140989905Y-115793394D01*
X140995096Y-115799945D01*
X141116023Y-115921718D01*
X141122525Y-115926946D01*
X141267421Y-116018901D01*
X141274935Y-116022566D01*
X141436604Y-116080133D01*
X141444731Y-116082039D01*
X141484783Y-116086815D01*
X141495304Y-116084347D01*
X141497948Y-116080813D01*
X141497948Y-116075656D01*
X141751948Y-116075656D01*
X141755645Y-116085813D01*
X141759621Y-116088109D01*
X141794158Y-116084479D01*
X141802325Y-116082683D01*
X141964772Y-116027382D01*
X141972337Y-116023823D01*
X142118503Y-115933901D01*
X142125082Y-115928761D01*
X142247695Y-115808689D01*
X142252974Y-115802217D01*
X142345941Y-115657960D01*
X142349651Y-115650486D01*
X142408345Y-115489224D01*
X142410311Y-115481097D01*
X142427051Y-115348588D01*
X142427348Y-115343867D01*
X142427348Y-114485658D01*
X142423651Y-114475501D01*
X142418279Y-114472399D01*
X141765207Y-114472399D01*
X141755050Y-114476096D01*
X141751948Y-114481468D01*
X141751948Y-116075656D01*
X141497948Y-116075656D01*
X141497948Y-114485658D01*
X141494251Y-114475501D01*
X141488879Y-114472399D01*
X140835807Y-114472399D01*
X140825650Y-114476096D01*
X140822548Y-114481468D01*
X140822548Y-114881819D01*
X140804955Y-114930157D01*
X140760406Y-114955877D01*
X140735343Y-114951457D01*
X140735309Y-114951808D01*
X140707908Y-114949145D01*
X140703017Y-114951938D01*
X140468932Y-115186023D01*
X140464363Y-115195822D01*
X140095143Y-115195822D01*
X140095537Y-115194978D01*
X140093932Y-115188987D01*
X139879461Y-114974516D01*
X139864179Y-114952467D01*
X139864121Y-114952339D01*
X139851932Y-114925531D01*
X139798046Y-114862993D01*
X139762721Y-114821996D01*
X139762718Y-114821993D01*
X139759227Y-114817942D01*
X139748656Y-114811090D01*
X139682603Y-114768276D01*
X140035556Y-114768276D01*
X140035672Y-114771222D01*
X140036258Y-114772103D01*
X140270573Y-115006418D01*
X140280372Y-115010987D01*
X140286363Y-115009382D01*
X140519750Y-114775995D01*
X140524319Y-114766196D01*
X140523492Y-114763111D01*
X140523035Y-114762670D01*
X140494339Y-114744070D01*
X140484707Y-114739620D01*
X140359047Y-114702038D01*
X140348556Y-114700470D01*
X140217393Y-114699670D01*
X140206889Y-114701109D01*
X140080772Y-114737153D01*
X140071097Y-114741481D01*
X140042173Y-114759730D01*
X140035556Y-114768276D01*
X139682603Y-114768276D01*
X139644548Y-114743610D01*
X139644547Y-114743610D01*
X139640052Y-114740696D01*
X139503986Y-114700004D01*
X139498630Y-114699971D01*
X139498628Y-114699971D01*
X139435279Y-114699584D01*
X139361969Y-114699136D01*
X139225417Y-114738163D01*
X139105307Y-114813947D01*
X139098198Y-114821997D01*
X139061379Y-114863686D01*
X139016194Y-114888270D01*
X138965778Y-114878059D01*
X138948045Y-114862993D01*
X138912723Y-114821999D01*
X138912718Y-114821995D01*
X138909226Y-114817942D01*
X138898655Y-114811090D01*
X138794547Y-114743610D01*
X138794546Y-114743610D01*
X138790051Y-114740696D01*
X138653985Y-114700004D01*
X138648629Y-114699971D01*
X138648627Y-114699971D01*
X138623104Y-114699815D01*
X138574875Y-114681926D01*
X138549428Y-114637221D01*
X138549290Y-114612852D01*
X138557685Y-114559847D01*
X138558611Y-114554000D01*
X138539885Y-114435767D01*
X138540567Y-114435659D01*
X138542199Y-114388950D01*
X138576620Y-114350723D01*
X138613300Y-114341934D01*
X138636497Y-114342359D01*
X138636499Y-114342359D01*
X138641860Y-114342457D01*
X138647031Y-114341047D01*
X138647033Y-114341047D01*
X138720293Y-114321073D01*
X138778879Y-114305101D01*
X138818458Y-114280800D01*
X138895341Y-114233594D01*
X138895342Y-114233594D01*
X138899906Y-114230791D01*
X138903498Y-114226823D01*
X138903500Y-114226821D01*
X138948997Y-114176556D01*
X138994479Y-114152526D01*
X139044767Y-114163352D01*
X139062314Y-114178633D01*
X139096084Y-114218807D01*
X139214307Y-114297503D01*
X139219419Y-114299100D01*
X139219421Y-114299101D01*
X139339341Y-114336567D01*
X139349865Y-114339855D01*
X139414915Y-114341047D01*
X139486499Y-114342359D01*
X139486501Y-114342359D01*
X139491861Y-114342457D01*
X139497032Y-114341047D01*
X139497034Y-114341047D01*
X139570294Y-114321073D01*
X139628880Y-114305101D01*
X139668459Y-114280800D01*
X139678161Y-114274843D01*
X140035342Y-114274843D01*
X140036232Y-114278167D01*
X140036384Y-114278315D01*
X140060063Y-114294077D01*
X140069643Y-114298646D01*
X140194827Y-114337756D01*
X140205310Y-114339454D01*
X140336437Y-114341858D01*
X140346972Y-114340546D01*
X140473514Y-114306047D01*
X140483245Y-114301835D01*
X140517504Y-114280800D01*
X140524228Y-114272333D01*
X140524155Y-114269634D01*
X140523345Y-114268400D01*
X140289327Y-114034382D01*
X140279528Y-114029813D01*
X140273537Y-114031418D01*
X140039911Y-114265044D01*
X140035342Y-114274843D01*
X139678161Y-114274843D01*
X139745342Y-114233594D01*
X139745343Y-114233594D01*
X139749907Y-114230791D01*
X139753499Y-114226823D01*
X139753501Y-114226821D01*
X139815647Y-114158162D01*
X139845212Y-114125499D01*
X139863145Y-114088484D01*
X139877646Y-114068099D01*
X140090968Y-113854777D01*
X140095537Y-113844978D01*
X140093932Y-113838987D01*
X139879461Y-113624516D01*
X139864179Y-113602467D01*
X139864121Y-113602339D01*
X139851932Y-113575531D01*
X139798045Y-113512992D01*
X139762721Y-113471996D01*
X139762718Y-113471993D01*
X139759227Y-113467942D01*
X139735565Y-113452605D01*
X139682603Y-113418276D01*
X140035556Y-113418276D01*
X140035672Y-113421222D01*
X140036258Y-113422103D01*
X140270573Y-113656418D01*
X140280372Y-113660987D01*
X140286363Y-113659382D01*
X140519750Y-113425995D01*
X140524319Y-113416196D01*
X140523492Y-113413111D01*
X140523035Y-113412670D01*
X140494339Y-113394070D01*
X140484707Y-113389620D01*
X140359047Y-113352038D01*
X140348556Y-113350470D01*
X140217393Y-113349670D01*
X140206889Y-113351109D01*
X140080772Y-113387153D01*
X140071097Y-113391481D01*
X140042173Y-113409730D01*
X140035556Y-113418276D01*
X139682603Y-113418276D01*
X139644548Y-113393610D01*
X139644547Y-113393610D01*
X139640052Y-113390696D01*
X139628921Y-113387367D01*
X139509122Y-113351540D01*
X139503986Y-113350004D01*
X139498630Y-113349971D01*
X139498628Y-113349971D01*
X139435279Y-113349584D01*
X139361969Y-113349136D01*
X139225417Y-113388163D01*
X139105307Y-113463947D01*
X139098198Y-113471997D01*
X139061379Y-113513686D01*
X139016194Y-113538270D01*
X138965778Y-113528059D01*
X138948045Y-113512993D01*
X138912723Y-113471999D01*
X138912718Y-113471995D01*
X138909226Y-113467942D01*
X138885564Y-113452605D01*
X138794547Y-113393610D01*
X138794546Y-113393610D01*
X138790051Y-113390696D01*
X138778920Y-113387367D01*
X138659121Y-113351540D01*
X138653985Y-113350004D01*
X138648629Y-113349971D01*
X138648627Y-113349971D01*
X138585278Y-113349584D01*
X138511968Y-113349136D01*
X138375416Y-113388163D01*
X138255306Y-113463947D01*
X138248197Y-113471997D01*
X138211380Y-113513684D01*
X138166195Y-113538268D01*
X138115779Y-113528057D01*
X138098046Y-113512992D01*
X138062722Y-113471997D01*
X138062721Y-113471996D01*
X138059228Y-113467942D01*
X138035566Y-113452605D01*
X137944549Y-113393610D01*
X137944548Y-113393610D01*
X137940053Y-113390696D01*
X137928922Y-113387367D01*
X137809123Y-113351540D01*
X137803987Y-113350004D01*
X137798631Y-113349971D01*
X137798629Y-113349971D01*
X137735280Y-113349584D01*
X137661970Y-113349136D01*
X137525418Y-113388163D01*
X137405308Y-113463947D01*
X137398199Y-113471997D01*
X137361380Y-113513686D01*
X137316195Y-113538270D01*
X137265779Y-113528059D01*
X137248046Y-113512993D01*
X137212724Y-113471999D01*
X137212719Y-113471995D01*
X137209227Y-113467942D01*
X137185565Y-113452605D01*
X137094548Y-113393610D01*
X137094547Y-113393610D01*
X137090052Y-113390696D01*
X137078921Y-113387367D01*
X136959122Y-113351540D01*
X136953986Y-113350004D01*
X136948630Y-113349971D01*
X136948628Y-113349971D01*
X136885279Y-113349584D01*
X136811969Y-113349136D01*
X136675417Y-113388163D01*
X136674910Y-113386390D01*
X136631142Y-113389529D01*
X136589472Y-113359367D01*
X136576939Y-113309477D01*
X136598567Y-113264031D01*
X137094193Y-112768405D01*
X137140813Y-112746665D01*
X137147367Y-112746379D01*
X140956532Y-112746379D01*
X141004870Y-112763972D01*
X141030590Y-112808521D01*
X141021657Y-112859179D01*
X141009147Y-112875307D01*
X141002202Y-112882109D01*
X140996922Y-112888581D01*
X140903955Y-113032838D01*
X140900245Y-113040312D01*
X140841551Y-113201574D01*
X140839585Y-113209701D01*
X140822845Y-113342210D01*
X140822548Y-113346931D01*
X140822548Y-113531819D01*
X140804955Y-113580157D01*
X140760406Y-113605877D01*
X140735343Y-113601457D01*
X140735309Y-113601808D01*
X140707908Y-113599145D01*
X140703017Y-113601938D01*
X140468932Y-113836023D01*
X140464363Y-113845822D01*
X140465968Y-113851813D01*
X140699966Y-114085811D01*
X140709765Y-114090380D01*
X140727884Y-114085525D01*
X140779128Y-114090007D01*
X140815502Y-114126380D01*
X140822548Y-114158162D01*
X140822548Y-114205140D01*
X140826245Y-114215297D01*
X140831617Y-114218399D01*
X142414089Y-114218399D01*
X142424246Y-114214702D01*
X142427348Y-114209330D01*
X142427348Y-114046000D01*
X148080389Y-114046000D01*
X148099115Y-114164233D01*
X148153461Y-114270893D01*
X148238107Y-114355539D01*
X148243383Y-114358227D01*
X148243384Y-114358228D01*
X148287813Y-114380865D01*
X148344767Y-114409885D01*
X148463000Y-114428611D01*
X148581233Y-114409885D01*
X148638187Y-114380865D01*
X148682616Y-114358228D01*
X148682617Y-114358227D01*
X148687893Y-114355539D01*
X148772539Y-114270893D01*
X148775226Y-114265620D01*
X148775230Y-114265614D01*
X148786218Y-114244048D01*
X148823839Y-114208967D01*
X148853221Y-114202989D01*
X149378400Y-114202989D01*
X149426738Y-114220582D01*
X149452458Y-114265131D01*
X149453600Y-114278189D01*
X149453600Y-114410912D01*
X149454070Y-114422872D01*
X149454068Y-114422872D01*
X149454068Y-114431128D01*
X149454070Y-114431128D01*
X149453600Y-114443088D01*
X149453600Y-115030852D01*
X149453608Y-115031212D01*
X149453608Y-115031225D01*
X149453645Y-115032893D01*
X149453745Y-115037496D01*
X149454031Y-115044050D01*
X149454909Y-115047637D01*
X149466805Y-115096252D01*
X149468166Y-115101815D01*
X149489906Y-115148435D01*
X149520263Y-115191789D01*
X149762508Y-115434034D01*
X149784248Y-115480654D01*
X149770934Y-115530341D01*
X149751113Y-115549734D01*
X149713282Y-115575012D01*
X149703014Y-115585280D01*
X149677558Y-115623377D01*
X149671997Y-115636802D01*
X149665321Y-115670363D01*
X149664600Y-115677684D01*
X149664600Y-116048741D01*
X149668297Y-116058898D01*
X149673669Y-116062000D01*
X151618800Y-116062000D01*
X151667138Y-116079593D01*
X151692858Y-116124142D01*
X151694000Y-116137200D01*
X151694000Y-116828141D01*
X151697697Y-116838298D01*
X151703069Y-116841400D01*
X153315400Y-116841400D01*
X153363738Y-116858993D01*
X153389458Y-116903542D01*
X153390600Y-116916600D01*
X153390600Y-118586852D01*
X153390745Y-118593496D01*
X153391031Y-118600050D01*
X153405166Y-118657815D01*
X153426906Y-118704435D01*
X153457263Y-118747789D01*
X153540211Y-118830737D01*
X153544994Y-118835316D01*
X153549830Y-118839749D01*
X153600688Y-118870617D01*
X153649026Y-118888210D01*
X153652256Y-118888780D01*
X153652258Y-118888780D01*
X153697918Y-118896831D01*
X153697924Y-118896831D01*
X153701148Y-118897400D01*
X154781852Y-118897400D01*
X154782212Y-118897392D01*
X154782225Y-118897392D01*
X154788056Y-118897265D01*
X154788092Y-118897264D01*
X154788496Y-118897255D01*
X154789311Y-118897219D01*
X154791363Y-118897130D01*
X154791364Y-118897130D01*
X154795050Y-118896969D01*
X154835439Y-118887086D01*
X154849228Y-118883712D01*
X154849230Y-118883711D01*
X154852815Y-118882834D01*
X154899435Y-118861094D01*
X154942789Y-118830737D01*
X155025737Y-118747789D01*
X155030316Y-118743006D01*
X155034749Y-118738170D01*
X155038739Y-118731597D01*
X155063697Y-118690475D01*
X155065617Y-118687312D01*
X155083210Y-118638974D01*
X155089441Y-118603637D01*
X155091831Y-118590082D01*
X155091831Y-118590076D01*
X155092400Y-118586852D01*
X155092400Y-117300000D01*
X155794551Y-117300000D01*
X155794783Y-117302948D01*
X155801702Y-117390855D01*
X155814317Y-117551148D01*
X155815007Y-117554022D01*
X155866946Y-117770364D01*
X155873127Y-117796111D01*
X155874257Y-117798840D01*
X155874259Y-117798845D01*
X155899381Y-117859494D01*
X155969534Y-118028859D01*
X155971079Y-118031381D01*
X155971081Y-118031384D01*
X156052234Y-118163813D01*
X156101164Y-118243659D01*
X156264776Y-118435224D01*
X156456341Y-118598836D01*
X156499857Y-118625503D01*
X156668616Y-118728919D01*
X156668619Y-118728921D01*
X156671141Y-118730466D01*
X156712135Y-118747446D01*
X156901155Y-118825741D01*
X156901160Y-118825743D01*
X156903889Y-118826873D01*
X156906766Y-118827564D01*
X156906770Y-118827565D01*
X157107457Y-118875745D01*
X157148852Y-118885683D01*
X157151796Y-118885915D01*
X157151798Y-118885915D01*
X157335640Y-118900384D01*
X157335648Y-118900384D01*
X157337118Y-118900500D01*
X157462882Y-118900500D01*
X157464352Y-118900384D01*
X157464360Y-118900384D01*
X157648202Y-118885915D01*
X157648204Y-118885915D01*
X157651148Y-118885683D01*
X157692543Y-118875745D01*
X157893230Y-118827565D01*
X157893234Y-118827564D01*
X157896111Y-118826873D01*
X157898840Y-118825743D01*
X157898845Y-118825741D01*
X158087865Y-118747446D01*
X158128859Y-118730466D01*
X158131381Y-118728921D01*
X158131384Y-118728919D01*
X158300143Y-118625503D01*
X158343659Y-118598836D01*
X158535224Y-118435224D01*
X158698836Y-118243659D01*
X158747766Y-118163813D01*
X158828919Y-118031384D01*
X158828921Y-118031381D01*
X158830466Y-118028859D01*
X158900619Y-117859494D01*
X158925741Y-117798845D01*
X158925743Y-117798840D01*
X158926873Y-117796111D01*
X158933055Y-117770364D01*
X158984993Y-117554022D01*
X158985683Y-117551148D01*
X158998299Y-117390855D01*
X159005217Y-117302948D01*
X159005449Y-117300000D01*
X159003016Y-117269082D01*
X158985915Y-117051798D01*
X158985915Y-117051796D01*
X158985683Y-117048852D01*
X158982014Y-117033568D01*
X158927565Y-116806770D01*
X158927564Y-116806766D01*
X158926873Y-116803889D01*
X158906467Y-116754623D01*
X158831597Y-116573872D01*
X158830466Y-116571141D01*
X158698836Y-116356341D01*
X158535224Y-116164776D01*
X158343659Y-116001164D01*
X158233896Y-115933901D01*
X158131384Y-115871081D01*
X158131381Y-115871079D01*
X158128859Y-115869534D01*
X157960856Y-115799945D01*
X157898845Y-115774259D01*
X157898840Y-115774257D01*
X157896111Y-115773127D01*
X157893234Y-115772436D01*
X157893230Y-115772435D01*
X157654022Y-115715007D01*
X157651148Y-115714317D01*
X157648204Y-115714085D01*
X157648202Y-115714085D01*
X157464360Y-115699616D01*
X157464352Y-115699616D01*
X157462882Y-115699500D01*
X157337118Y-115699500D01*
X157335648Y-115699616D01*
X157335640Y-115699616D01*
X157151798Y-115714085D01*
X157151796Y-115714085D01*
X157148852Y-115714317D01*
X157145978Y-115715007D01*
X156906770Y-115772435D01*
X156906766Y-115772436D01*
X156903889Y-115773127D01*
X156901160Y-115774257D01*
X156901155Y-115774259D01*
X156839144Y-115799945D01*
X156671141Y-115869534D01*
X156668619Y-115871079D01*
X156668616Y-115871081D01*
X156566104Y-115933901D01*
X156456341Y-116001164D01*
X156264776Y-116164776D01*
X156101164Y-116356341D01*
X155969534Y-116571141D01*
X155968403Y-116573872D01*
X155893534Y-116754623D01*
X155873127Y-116803889D01*
X155872436Y-116806766D01*
X155872435Y-116806770D01*
X155817986Y-117033568D01*
X155814317Y-117048852D01*
X155814085Y-117051796D01*
X155814085Y-117051798D01*
X155796984Y-117269082D01*
X155794551Y-117300000D01*
X155092400Y-117300000D01*
X155092400Y-115093148D01*
X155092255Y-115086504D01*
X155091969Y-115079950D01*
X155077834Y-115022185D01*
X155056094Y-114975565D01*
X155025737Y-114932211D01*
X153545789Y-113452263D01*
X153541006Y-113447684D01*
X153536170Y-113443251D01*
X153485312Y-113412383D01*
X153436974Y-113394790D01*
X153433744Y-113394220D01*
X153433742Y-113394220D01*
X153388082Y-113386169D01*
X153388076Y-113386169D01*
X153384852Y-113385600D01*
X149764148Y-113385600D01*
X149763788Y-113385608D01*
X149763775Y-113385608D01*
X149757944Y-113385735D01*
X149757908Y-113385736D01*
X149757504Y-113385745D01*
X149757090Y-113385763D01*
X149757092Y-113385763D01*
X149754637Y-113385870D01*
X149754636Y-113385870D01*
X149750950Y-113386031D01*
X149731886Y-113390696D01*
X149696772Y-113399288D01*
X149696770Y-113399289D01*
X149693185Y-113400166D01*
X149646565Y-113421906D01*
X149603211Y-113452263D01*
X149520263Y-113535211D01*
X149519935Y-113535554D01*
X149516051Y-113539611D01*
X149515684Y-113539994D01*
X149511251Y-113544830D01*
X149480383Y-113595688D01*
X149479119Y-113599162D01*
X149478472Y-113600510D01*
X149441705Y-113636485D01*
X149410668Y-113643189D01*
X148636470Y-113643189D01*
X148631712Y-113642839D01*
X148627508Y-113641396D01*
X148620572Y-113641656D01*
X148620570Y-113641656D01*
X148581150Y-113643136D01*
X148578329Y-113643189D01*
X148559880Y-113643189D01*
X148556473Y-113643824D01*
X148554167Y-113644037D01*
X148550069Y-113644303D01*
X148547524Y-113644399D01*
X148523310Y-113645307D01*
X148516930Y-113648048D01*
X148511717Y-113650287D01*
X148495805Y-113655121D01*
X148490232Y-113656159D01*
X148490227Y-113656161D01*
X148483403Y-113657432D01*
X148479661Y-113659739D01*
X148462916Y-113662858D01*
X148463000Y-113663389D01*
X148344767Y-113682115D01*
X148238107Y-113736461D01*
X148153461Y-113821107D01*
X148150773Y-113826383D01*
X148150772Y-113826384D01*
X148128135Y-113870813D01*
X148099115Y-113927767D01*
X148098189Y-113933614D01*
X148082699Y-114031418D01*
X148080389Y-114046000D01*
X142427348Y-114046000D01*
X142427348Y-113352246D01*
X142427112Y-113348036D01*
X142412828Y-113220689D01*
X142410975Y-113212529D01*
X142391638Y-113157000D01*
X157351389Y-113157000D01*
X157370115Y-113275233D01*
X157387563Y-113309477D01*
X157408043Y-113349670D01*
X157424461Y-113381893D01*
X157509107Y-113466539D01*
X157514383Y-113469227D01*
X157514384Y-113469228D01*
X157549211Y-113486973D01*
X157615767Y-113520885D01*
X157621614Y-113521811D01*
X157725527Y-113538269D01*
X157734000Y-113539611D01*
X157742474Y-113538269D01*
X157846386Y-113521811D01*
X157852233Y-113520885D01*
X157918789Y-113486973D01*
X157953616Y-113469228D01*
X157953617Y-113469227D01*
X157958893Y-113466539D01*
X158043539Y-113381893D01*
X158059958Y-113349670D01*
X158080437Y-113309477D01*
X158097885Y-113275233D01*
X158116611Y-113157000D01*
X158097885Y-113038767D01*
X158043539Y-112932107D01*
X157958893Y-112847461D01*
X157852233Y-112793115D01*
X157755164Y-112777741D01*
X157739847Y-112775315D01*
X157734000Y-112774389D01*
X157728153Y-112775315D01*
X157712836Y-112777741D01*
X157615767Y-112793115D01*
X157509107Y-112847461D01*
X157424461Y-112932107D01*
X157370115Y-113038767D01*
X157351389Y-113157000D01*
X142391638Y-113157000D01*
X142354539Y-113050469D01*
X142349113Y-113039144D01*
X142350408Y-113038524D01*
X142340870Y-112993625D01*
X142365025Y-112948210D01*
X142415337Y-112928900D01*
X142970320Y-112928900D01*
X143018658Y-112946493D01*
X143023494Y-112950926D01*
X143031107Y-112958539D01*
X143137767Y-113012885D01*
X143256000Y-113031611D01*
X143374233Y-113012885D01*
X143480893Y-112958539D01*
X143565539Y-112873893D01*
X143619885Y-112767233D01*
X143638611Y-112649000D01*
X143633249Y-112615142D01*
X143630900Y-112600315D01*
X143964599Y-112600315D01*
X143965320Y-112607636D01*
X143971996Y-112641197D01*
X143977557Y-112654622D01*
X144003013Y-112692719D01*
X144013279Y-112702985D01*
X144051376Y-112728441D01*
X144064801Y-112734002D01*
X144098362Y-112740678D01*
X144105683Y-112741399D01*
X145676740Y-112741399D01*
X145686897Y-112737702D01*
X145689999Y-112732330D01*
X145689999Y-112728140D01*
X145943999Y-112728140D01*
X145947696Y-112738297D01*
X145953068Y-112741399D01*
X147528315Y-112741399D01*
X147535636Y-112740678D01*
X147569197Y-112734002D01*
X147582622Y-112728441D01*
X147620719Y-112702985D01*
X147630985Y-112692719D01*
X147656441Y-112654622D01*
X147662002Y-112641197D01*
X147668678Y-112607636D01*
X147669399Y-112600315D01*
X147669399Y-111979258D01*
X147665702Y-111969101D01*
X147660330Y-111965999D01*
X145957258Y-111965999D01*
X145947101Y-111969696D01*
X145943999Y-111975068D01*
X145943999Y-112728140D01*
X145689999Y-112728140D01*
X145689999Y-111979258D01*
X145686302Y-111969101D01*
X145680930Y-111965999D01*
X143977858Y-111965999D01*
X143967701Y-111969696D01*
X143964599Y-111975068D01*
X143964599Y-112600315D01*
X143630900Y-112600315D01*
X143629248Y-112589883D01*
X143619885Y-112530767D01*
X143565539Y-112424107D01*
X143480893Y-112339461D01*
X143374233Y-112285115D01*
X143256000Y-112266389D01*
X143137767Y-112285115D01*
X143031107Y-112339461D01*
X143023494Y-112347074D01*
X142976874Y-112368814D01*
X142970320Y-112369100D01*
X142339328Y-112369100D01*
X142290990Y-112351507D01*
X142286154Y-112347075D01*
X142243393Y-112304315D01*
X142240273Y-112300701D01*
X142238320Y-112296705D01*
X142204285Y-112265133D01*
X142202254Y-112263176D01*
X142189231Y-112250153D01*
X142186375Y-112248193D01*
X142184591Y-112246711D01*
X142181511Y-112244007D01*
X142170289Y-112233597D01*
X142161875Y-112225792D01*
X142155430Y-112223221D01*
X142155429Y-112223220D01*
X142150157Y-112221117D01*
X142135487Y-112213284D01*
X142130809Y-112210075D01*
X142125083Y-112206147D01*
X142118325Y-112204543D01*
X142118324Y-112204543D01*
X142099734Y-112200132D01*
X142089236Y-112196813D01*
X142065027Y-112187154D01*
X142059163Y-112186579D01*
X142051426Y-112186579D01*
X142034062Y-112184547D01*
X142023629Y-112182071D01*
X142016751Y-112183007D01*
X142016750Y-112183007D01*
X141995553Y-112185892D01*
X141985412Y-112186579D01*
X137050846Y-112186579D01*
X137046084Y-112186229D01*
X137041878Y-112184785D01*
X137034943Y-112185045D01*
X137034940Y-112185045D01*
X136995506Y-112186526D01*
X136992685Y-112186579D01*
X136974250Y-112186579D01*
X136970845Y-112187213D01*
X136968527Y-112187427D01*
X136964438Y-112187692D01*
X136944620Y-112188436D01*
X136944618Y-112188437D01*
X136937680Y-112188697D01*
X136931302Y-112191437D01*
X136931298Y-112191438D01*
X136926087Y-112193677D01*
X136910175Y-112198511D01*
X136904600Y-112199549D01*
X136904593Y-112199552D01*
X136897773Y-112200822D01*
X136891865Y-112204464D01*
X136891862Y-112204465D01*
X136875590Y-112214495D01*
X136865818Y-112219572D01*
X136841877Y-112229858D01*
X136837324Y-112233597D01*
X136831854Y-112239067D01*
X136818140Y-112249908D01*
X136809010Y-112255536D01*
X136800053Y-112267315D01*
X136791858Y-112278092D01*
X136785173Y-112285748D01*
X135867788Y-113203134D01*
X135864170Y-113206257D01*
X135860175Y-113208210D01*
X135855454Y-113213299D01*
X135855453Y-113213300D01*
X135828603Y-113242245D01*
X135826645Y-113244277D01*
X135813623Y-113257299D01*
X135811663Y-113260155D01*
X135810181Y-113261939D01*
X135807483Y-113265012D01*
X135789262Y-113284655D01*
X135786691Y-113291100D01*
X135786690Y-113291101D01*
X135784587Y-113296373D01*
X135776754Y-113311043D01*
X135769617Y-113321447D01*
X135768013Y-113328205D01*
X135768013Y-113328206D01*
X135763602Y-113346796D01*
X135760283Y-113357294D01*
X135750624Y-113381503D01*
X135750049Y-113387367D01*
X135750049Y-113394247D01*
X135732456Y-113442585D01*
X135714977Y-113457845D01*
X135705307Y-113463947D01*
X135701763Y-113467960D01*
X135701761Y-113467962D01*
X135661380Y-113513685D01*
X135616195Y-113538269D01*
X135565779Y-113528058D01*
X135548046Y-113512993D01*
X135512721Y-113471997D01*
X135512720Y-113471996D01*
X135509227Y-113467942D01*
X135485565Y-113452605D01*
X135394548Y-113393610D01*
X135394547Y-113393610D01*
X135390052Y-113390696D01*
X135378921Y-113387367D01*
X135259122Y-113351540D01*
X135253986Y-113350004D01*
X135248630Y-113349971D01*
X135248628Y-113349971D01*
X135185279Y-113349584D01*
X135111969Y-113349136D01*
X134975417Y-113388163D01*
X134855307Y-113463947D01*
X134761295Y-113570396D01*
X134746712Y-113601457D01*
X134746298Y-113602339D01*
X134731401Y-113623553D01*
X134518931Y-113836023D01*
X134514362Y-113845822D01*
X134515967Y-113851813D01*
X134729366Y-114065212D01*
X134745023Y-114088100D01*
X134752542Y-114105189D01*
X134752545Y-114105193D01*
X134754701Y-114110094D01*
X134846084Y-114218807D01*
X134964307Y-114297503D01*
X134969419Y-114299100D01*
X134969421Y-114299101D01*
X135089341Y-114336567D01*
X135099865Y-114339855D01*
X135164915Y-114341047D01*
X135236499Y-114342359D01*
X135236501Y-114342359D01*
X135241861Y-114342457D01*
X135247032Y-114341047D01*
X135247034Y-114341047D01*
X135320294Y-114321073D01*
X135378880Y-114305101D01*
X135418459Y-114280800D01*
X135495342Y-114233594D01*
X135495343Y-114233594D01*
X135499907Y-114230791D01*
X135503501Y-114226821D01*
X135503504Y-114226818D01*
X135548997Y-114176557D01*
X135594478Y-114152526D01*
X135644766Y-114163352D01*
X135662314Y-114178633D01*
X135696084Y-114218807D01*
X135814307Y-114297503D01*
X135819419Y-114299100D01*
X135819421Y-114299101D01*
X135939341Y-114336567D01*
X135949865Y-114339855D01*
X136065038Y-114341965D01*
X136113045Y-114360441D01*
X136137944Y-114405452D01*
X136137934Y-114428916D01*
X136132016Y-114466281D01*
X136132942Y-114472128D01*
X136134421Y-114481468D01*
X136150742Y-114584514D01*
X136153429Y-114589787D01*
X136153429Y-114589788D01*
X136153821Y-114590557D01*
X136153907Y-114591260D01*
X136155258Y-114595417D01*
X136154450Y-114595680D01*
X136160089Y-114641614D01*
X136132073Y-114684755D01*
X136086358Y-114699896D01*
X136028179Y-114699541D01*
X135961969Y-114699136D01*
X135825417Y-114738163D01*
X135705307Y-114813947D01*
X135698198Y-114821997D01*
X135661380Y-114863685D01*
X135616195Y-114888269D01*
X135565779Y-114878058D01*
X135548046Y-114862993D01*
X135512721Y-114821997D01*
X135512720Y-114821996D01*
X135509227Y-114817942D01*
X135498656Y-114811090D01*
X135394548Y-114743610D01*
X135394547Y-114743610D01*
X135390052Y-114740696D01*
X135253986Y-114700004D01*
X135248630Y-114699971D01*
X135248628Y-114699971D01*
X135185279Y-114699584D01*
X135111969Y-114699136D01*
X134975417Y-114738163D01*
X134855307Y-114813947D01*
X134761295Y-114920396D01*
X134747374Y-114950047D01*
X134746298Y-114952339D01*
X134731401Y-114973553D01*
X134518931Y-115186023D01*
X134514362Y-115195822D01*
X134145142Y-115195822D01*
X134145536Y-115194978D01*
X134143931Y-115188987D01*
X133909560Y-114954616D01*
X133899761Y-114950047D01*
X133882012Y-114954803D01*
X133830768Y-114950321D01*
X133794394Y-114913948D01*
X133787348Y-114882166D01*
X133787348Y-114768276D01*
X134085555Y-114768276D01*
X134085671Y-114771222D01*
X134086257Y-114772103D01*
X134320572Y-115006418D01*
X134330371Y-115010987D01*
X134336362Y-115009382D01*
X134569749Y-114775995D01*
X134574318Y-114766196D01*
X134573491Y-114763111D01*
X134573034Y-114762670D01*
X134544338Y-114744070D01*
X134534706Y-114739620D01*
X134409046Y-114702038D01*
X134398555Y-114700470D01*
X134267392Y-114699670D01*
X134256888Y-114701109D01*
X134130771Y-114737153D01*
X134121096Y-114741481D01*
X134092172Y-114759730D01*
X134085555Y-114768276D01*
X133787348Y-114768276D01*
X133787348Y-114485658D01*
X133783651Y-114475501D01*
X133778279Y-114472399D01*
X133125207Y-114472399D01*
X133115050Y-114476096D01*
X133111948Y-114481468D01*
X133111948Y-116075656D01*
X132857948Y-116075656D01*
X132857948Y-114485658D01*
X132854251Y-114475501D01*
X132848879Y-114472399D01*
X132195807Y-114472399D01*
X132185650Y-114476096D01*
X132182548Y-114481468D01*
X132182548Y-115338552D01*
X123038100Y-115338552D01*
X123038100Y-110998000D01*
X123188389Y-110998000D01*
X123189315Y-111003847D01*
X123190704Y-111012614D01*
X123207115Y-111116233D01*
X123209803Y-111121508D01*
X123209803Y-111121509D01*
X123219403Y-111140350D01*
X123227600Y-111174491D01*
X123227600Y-112503730D01*
X123227314Y-112510284D01*
X123223630Y-112552391D01*
X123225333Y-112558747D01*
X123234573Y-112593235D01*
X123235992Y-112599637D01*
X123237194Y-112606451D01*
X123243332Y-112641261D01*
X123246622Y-112646960D01*
X123247787Y-112650160D01*
X123251835Y-112659935D01*
X123253271Y-112663015D01*
X123254973Y-112669366D01*
X123258746Y-112674754D01*
X123258747Y-112674757D01*
X123279222Y-112704000D01*
X123282745Y-112709529D01*
X123300593Y-112740441D01*
X123300595Y-112740444D01*
X123303883Y-112746138D01*
X123308919Y-112750364D01*
X123308921Y-112750366D01*
X123336264Y-112773309D01*
X123341100Y-112777741D01*
X125601260Y-115037901D01*
X125605693Y-115042738D01*
X125632862Y-115075117D01*
X125669476Y-115096256D01*
X125675000Y-115099776D01*
X125678738Y-115102393D01*
X125704243Y-115120252D01*
X125704246Y-115120253D01*
X125709634Y-115124026D01*
X125715988Y-115125728D01*
X125719086Y-115127173D01*
X125728857Y-115131220D01*
X125732044Y-115132380D01*
X125737739Y-115135668D01*
X125779394Y-115143013D01*
X125785754Y-115144423D01*
X125826609Y-115155370D01*
X125833161Y-115154797D01*
X125833163Y-115154797D01*
X125868716Y-115151686D01*
X125875270Y-115151400D01*
X130125509Y-115151400D01*
X130159650Y-115159597D01*
X130178491Y-115169197D01*
X130178492Y-115169197D01*
X130183767Y-115171885D01*
X130189614Y-115172811D01*
X130293603Y-115189281D01*
X130302000Y-115190611D01*
X130310398Y-115189281D01*
X130414386Y-115172811D01*
X130420233Y-115171885D01*
X130477187Y-115142865D01*
X130521616Y-115120228D01*
X130521617Y-115120227D01*
X130526893Y-115117539D01*
X130611539Y-115032893D01*
X130615168Y-115025772D01*
X130642120Y-114972875D01*
X130665885Y-114926233D01*
X130684611Y-114808000D01*
X130665885Y-114689767D01*
X130611539Y-114583107D01*
X130526893Y-114498461D01*
X130493543Y-114481468D01*
X130452261Y-114460434D01*
X130420233Y-114444115D01*
X130302000Y-114425389D01*
X130183767Y-114444115D01*
X130178492Y-114446803D01*
X130178491Y-114446803D01*
X130159650Y-114456403D01*
X130125509Y-114464600D01*
X126030389Y-114464600D01*
X125982051Y-114447007D01*
X125977215Y-114442574D01*
X125809484Y-114274843D01*
X134085341Y-114274843D01*
X134086231Y-114278167D01*
X134086383Y-114278315D01*
X134110062Y-114294077D01*
X134119642Y-114298646D01*
X134244826Y-114337756D01*
X134255309Y-114339454D01*
X134386436Y-114341858D01*
X134396971Y-114340546D01*
X134523513Y-114306047D01*
X134533244Y-114301835D01*
X134567503Y-114280800D01*
X134574227Y-114272333D01*
X134574154Y-114269634D01*
X134573344Y-114268400D01*
X134339326Y-114034382D01*
X134329527Y-114029813D01*
X134323536Y-114031418D01*
X134089910Y-114265044D01*
X134085341Y-114274843D01*
X125809484Y-114274843D01*
X125739781Y-114205140D01*
X132182548Y-114205140D01*
X132186245Y-114215297D01*
X132191617Y-114218399D01*
X132844689Y-114218399D01*
X132854846Y-114214702D01*
X132857948Y-114209330D01*
X132857948Y-114205140D01*
X133111948Y-114205140D01*
X133115645Y-114215297D01*
X133121017Y-114218399D01*
X133774089Y-114218399D01*
X133784246Y-114214702D01*
X133787348Y-114209330D01*
X133787348Y-114160325D01*
X133804941Y-114111987D01*
X133849490Y-114086267D01*
X133874031Y-114090595D01*
X133874186Y-114089177D01*
X133901301Y-114092146D01*
X133906556Y-114089188D01*
X134140967Y-113854777D01*
X134145536Y-113844978D01*
X134143931Y-113838987D01*
X133909560Y-113604616D01*
X133899761Y-113600047D01*
X133882012Y-113604803D01*
X133830768Y-113600321D01*
X133794394Y-113563948D01*
X133787348Y-113532166D01*
X133787348Y-113418276D01*
X134085555Y-113418276D01*
X134085671Y-113421222D01*
X134086257Y-113422103D01*
X134320572Y-113656418D01*
X134330371Y-113660987D01*
X134336362Y-113659382D01*
X134569749Y-113425995D01*
X134574318Y-113416196D01*
X134573491Y-113413111D01*
X134573034Y-113412670D01*
X134544338Y-113394070D01*
X134534706Y-113389620D01*
X134409046Y-113352038D01*
X134398555Y-113350470D01*
X134267392Y-113349670D01*
X134256888Y-113351109D01*
X134130771Y-113387153D01*
X134121096Y-113391481D01*
X134092172Y-113409730D01*
X134085555Y-113418276D01*
X133787348Y-113418276D01*
X133787348Y-113352246D01*
X133787112Y-113348036D01*
X133772828Y-113220689D01*
X133770975Y-113212529D01*
X133714539Y-113050469D01*
X133710930Y-113042935D01*
X133619991Y-112897404D01*
X133614800Y-112890853D01*
X133493873Y-112769080D01*
X133487371Y-112763852D01*
X133342475Y-112671897D01*
X133334961Y-112668232D01*
X133173292Y-112610665D01*
X133165165Y-112608759D01*
X133125113Y-112603983D01*
X133114592Y-112606451D01*
X133111948Y-112609985D01*
X133111948Y-114205140D01*
X132857948Y-114205140D01*
X132857948Y-112615142D01*
X132854251Y-112604985D01*
X132850275Y-112602689D01*
X132815738Y-112606319D01*
X132807571Y-112608115D01*
X132645124Y-112663416D01*
X132637559Y-112666975D01*
X132491393Y-112756897D01*
X132484814Y-112762037D01*
X132362201Y-112882109D01*
X132356922Y-112888581D01*
X132263955Y-113032838D01*
X132260245Y-113040312D01*
X132201551Y-113201574D01*
X132199585Y-113209701D01*
X132182845Y-113342210D01*
X132182548Y-113346931D01*
X132182548Y-114205140D01*
X125739781Y-114205140D01*
X123936426Y-112401785D01*
X123914686Y-112355165D01*
X123914400Y-112348611D01*
X123914400Y-111698740D01*
X143964599Y-111698740D01*
X143968296Y-111708897D01*
X143973668Y-111711999D01*
X145676740Y-111711999D01*
X145686897Y-111708302D01*
X145689999Y-111702930D01*
X145689999Y-111698740D01*
X145943999Y-111698740D01*
X145947696Y-111708897D01*
X145953068Y-111711999D01*
X147656140Y-111711999D01*
X147666297Y-111708302D01*
X147669399Y-111702930D01*
X147669399Y-111125000D01*
X156589389Y-111125000D01*
X156608115Y-111243233D01*
X156662461Y-111349893D01*
X156747107Y-111434539D01*
X156853767Y-111488885D01*
X156972000Y-111507611D01*
X157090233Y-111488885D01*
X157196893Y-111434539D01*
X157281539Y-111349893D01*
X157335885Y-111243233D01*
X157354611Y-111125000D01*
X157353223Y-111116233D01*
X157336811Y-111012614D01*
X157335885Y-111006767D01*
X157306735Y-110949557D01*
X157284228Y-110905384D01*
X157284227Y-110905383D01*
X157281539Y-110900107D01*
X157223126Y-110841694D01*
X157201386Y-110795074D01*
X157201100Y-110788520D01*
X157201100Y-103841480D01*
X157218693Y-103793142D01*
X157223126Y-103788306D01*
X157281539Y-103729893D01*
X157335885Y-103623233D01*
X157354611Y-103505000D01*
X157353223Y-103496233D01*
X157342466Y-103428321D01*
X157335885Y-103386767D01*
X157281539Y-103280107D01*
X157196893Y-103195461D01*
X157178822Y-103186253D01*
X157124125Y-103158384D01*
X157090233Y-103141115D01*
X156972000Y-103122389D01*
X156853767Y-103141115D01*
X156819875Y-103158384D01*
X156765179Y-103186253D01*
X156747107Y-103195461D01*
X156662461Y-103280107D01*
X156608115Y-103386767D01*
X156601534Y-103428321D01*
X156590778Y-103496233D01*
X156589389Y-103505000D01*
X156608115Y-103623233D01*
X156662461Y-103729893D01*
X156720874Y-103788306D01*
X156742614Y-103834926D01*
X156742900Y-103841480D01*
X156742900Y-110788520D01*
X156725307Y-110836858D01*
X156720874Y-110841694D01*
X156662461Y-110900107D01*
X156659773Y-110905383D01*
X156659772Y-110905384D01*
X156637265Y-110949557D01*
X156608115Y-111006767D01*
X156607189Y-111012614D01*
X156590778Y-111116233D01*
X156589389Y-111125000D01*
X147669399Y-111125000D01*
X147669399Y-111077683D01*
X147668678Y-111070362D01*
X147662002Y-111036801D01*
X147656441Y-111023376D01*
X147630985Y-110985279D01*
X147620719Y-110975013D01*
X147582622Y-110949557D01*
X147569197Y-110943996D01*
X147535636Y-110937320D01*
X147528315Y-110936599D01*
X145957258Y-110936599D01*
X145947101Y-110940296D01*
X145943999Y-110945668D01*
X145943999Y-111698740D01*
X145689999Y-111698740D01*
X145689999Y-110949858D01*
X145686302Y-110939701D01*
X145680930Y-110936599D01*
X144105683Y-110936599D01*
X144098362Y-110937320D01*
X144064801Y-110943996D01*
X144051376Y-110949557D01*
X144013279Y-110975013D01*
X144003013Y-110985279D01*
X143977557Y-111023376D01*
X143971996Y-111036801D01*
X143965320Y-111070362D01*
X143964599Y-111077683D01*
X143964599Y-111698740D01*
X123914400Y-111698740D01*
X123914400Y-111174491D01*
X123922597Y-111140350D01*
X123932197Y-111121509D01*
X123932197Y-111121508D01*
X123934885Y-111116233D01*
X123951296Y-111012614D01*
X123952685Y-111003847D01*
X123953611Y-110998000D01*
X123945939Y-110949557D01*
X123935811Y-110885614D01*
X123934885Y-110879767D01*
X123880539Y-110773107D01*
X123795893Y-110688461D01*
X123769679Y-110675104D01*
X123728864Y-110654308D01*
X123689233Y-110634115D01*
X123571000Y-110615389D01*
X123452767Y-110634115D01*
X123413136Y-110654308D01*
X123372322Y-110675104D01*
X123346107Y-110688461D01*
X123261461Y-110773107D01*
X123207115Y-110879767D01*
X123206189Y-110885614D01*
X123196062Y-110949557D01*
X123188389Y-110998000D01*
X123038100Y-110998000D01*
X123038100Y-110406446D01*
X125683100Y-110406446D01*
X125684927Y-110412068D01*
X125684927Y-110412070D01*
X125719790Y-110519367D01*
X125722930Y-110529032D01*
X125726406Y-110533817D01*
X125726407Y-110533818D01*
X125749032Y-110564958D01*
X125798692Y-110633308D01*
X125822039Y-110650271D01*
X125874603Y-110688461D01*
X125902968Y-110709070D01*
X125908591Y-110710897D01*
X125908593Y-110710898D01*
X126019930Y-110747073D01*
X126019932Y-110747073D01*
X126025554Y-110748900D01*
X126154446Y-110748900D01*
X126160068Y-110747073D01*
X126160070Y-110747073D01*
X126271407Y-110710898D01*
X126271409Y-110710897D01*
X126277032Y-110709070D01*
X126355077Y-110652366D01*
X128116428Y-108891015D01*
X128163048Y-108869275D01*
X128169602Y-108868989D01*
X133408398Y-108868989D01*
X133456736Y-108886582D01*
X133461572Y-108891015D01*
X134113923Y-109543366D01*
X134191968Y-109600070D01*
X134197591Y-109601897D01*
X134197593Y-109601898D01*
X134308930Y-109638073D01*
X134308932Y-109638073D01*
X134314554Y-109639900D01*
X134443447Y-109639900D01*
X134566032Y-109600070D01*
X134570819Y-109596592D01*
X134570821Y-109596591D01*
X134665525Y-109527783D01*
X134670308Y-109524308D01*
X134707535Y-109473070D01*
X134742591Y-109424821D01*
X134742592Y-109424819D01*
X134746070Y-109420032D01*
X134785900Y-109297447D01*
X134785900Y-109168554D01*
X134784073Y-109162930D01*
X134747898Y-109051593D01*
X134747897Y-109051591D01*
X134746070Y-109045968D01*
X134704237Y-108988391D01*
X134690058Y-108938944D01*
X134710980Y-108891951D01*
X134757214Y-108869401D01*
X134765075Y-108868989D01*
X139605398Y-108868989D01*
X139653736Y-108886582D01*
X139658572Y-108891015D01*
X140183923Y-109416366D01*
X140261968Y-109473070D01*
X140267591Y-109474897D01*
X140267593Y-109474898D01*
X140378930Y-109511073D01*
X140378932Y-109511073D01*
X140384554Y-109512900D01*
X140513447Y-109512900D01*
X140636032Y-109473070D01*
X140640819Y-109469592D01*
X140640821Y-109469591D01*
X140735525Y-109400783D01*
X140740308Y-109397308D01*
X140780870Y-109341480D01*
X140812591Y-109297821D01*
X140812592Y-109297819D01*
X140816070Y-109293032D01*
X140855900Y-109170447D01*
X140855900Y-109041554D01*
X140831815Y-108967427D01*
X140833611Y-108916018D01*
X140868031Y-108877791D01*
X140903335Y-108868989D01*
X144711398Y-108868989D01*
X144759736Y-108886582D01*
X144764572Y-108891015D01*
X146546923Y-110673366D01*
X146549314Y-110675103D01*
X146549315Y-110675104D01*
X146620179Y-110726591D01*
X146620181Y-110726592D01*
X146624968Y-110730070D01*
X146747553Y-110769900D01*
X146876446Y-110769900D01*
X146882068Y-110768073D01*
X146882070Y-110768073D01*
X146993407Y-110731898D01*
X146993409Y-110731897D01*
X146999032Y-110730070D01*
X147003821Y-110726591D01*
X147098525Y-110657783D01*
X147103308Y-110654308D01*
X147147833Y-110593026D01*
X147175593Y-110554818D01*
X147175594Y-110554817D01*
X147179070Y-110550032D01*
X147184339Y-110533818D01*
X147217073Y-110433070D01*
X147217073Y-110433068D01*
X147218900Y-110427446D01*
X147218900Y-110298553D01*
X147179070Y-110175968D01*
X147167900Y-110160593D01*
X147124104Y-110100315D01*
X147124103Y-110100314D01*
X147122366Y-110097923D01*
X145153240Y-108128797D01*
X145129624Y-108116764D01*
X145119570Y-108110603D01*
X145098121Y-108095019D01*
X145072915Y-108086829D01*
X145062015Y-108082314D01*
X145043670Y-108072967D01*
X145043666Y-108072966D01*
X145038395Y-108070280D01*
X145012214Y-108066134D01*
X145000747Y-108063381D01*
X144975535Y-108055189D01*
X141580791Y-108055189D01*
X141532453Y-108037596D01*
X141506733Y-107993047D01*
X141515666Y-107942389D01*
X141527617Y-107926815D01*
X141533539Y-107920893D01*
X141587885Y-107814233D01*
X141606611Y-107696000D01*
X141587885Y-107577767D01*
X141533539Y-107471107D01*
X141448893Y-107386461D01*
X141342233Y-107332115D01*
X141224000Y-107313389D01*
X141218153Y-107314315D01*
X141218150Y-107314315D01*
X141211242Y-107315409D01*
X141160747Y-107305593D01*
X141146306Y-107294309D01*
X140967126Y-107115129D01*
X140945386Y-107068509D01*
X140945100Y-107061955D01*
X140945100Y-105931000D01*
X141209389Y-105931000D01*
X141228115Y-106049233D01*
X141282461Y-106155893D01*
X141367107Y-106240539D01*
X141473767Y-106294885D01*
X141592000Y-106313611D01*
X141710233Y-106294885D01*
X141816893Y-106240539D01*
X141901539Y-106155893D01*
X141955885Y-106049233D01*
X141974611Y-105931000D01*
X141971999Y-105914505D01*
X141956811Y-105818614D01*
X141955885Y-105812767D01*
X141901539Y-105706107D01*
X141816893Y-105621461D01*
X141710233Y-105567115D01*
X141592000Y-105548389D01*
X141473767Y-105567115D01*
X141367107Y-105621461D01*
X141282461Y-105706107D01*
X141228115Y-105812767D01*
X141227189Y-105818614D01*
X141212002Y-105914505D01*
X141209389Y-105931000D01*
X140945100Y-105931000D01*
X140945100Y-104775000D01*
X141222389Y-104775000D01*
X141241115Y-104893233D01*
X141295461Y-104999893D01*
X141380107Y-105084539D01*
X141486767Y-105138885D01*
X141605000Y-105157611D01*
X141723233Y-105138885D01*
X141829893Y-105084539D01*
X141914539Y-104999893D01*
X141968885Y-104893233D01*
X141987611Y-104775000D01*
X141986223Y-104766233D01*
X141970207Y-104665115D01*
X141968885Y-104656767D01*
X141914539Y-104550107D01*
X141829893Y-104465461D01*
X141798645Y-104449539D01*
X141757125Y-104428384D01*
X141723233Y-104411115D01*
X141605000Y-104392389D01*
X141486767Y-104411115D01*
X141452875Y-104428384D01*
X141411356Y-104449539D01*
X141380107Y-104465461D01*
X141295461Y-104550107D01*
X141241115Y-104656767D01*
X141239793Y-104665115D01*
X141223778Y-104766233D01*
X141222389Y-104775000D01*
X140945100Y-104775000D01*
X140945100Y-101936480D01*
X140962693Y-101888142D01*
X140967126Y-101883306D01*
X141025539Y-101824893D01*
X141079885Y-101718233D01*
X141089248Y-101659117D01*
X141097685Y-101605847D01*
X141098611Y-101600000D01*
X141079885Y-101481767D01*
X141025539Y-101375107D01*
X140940893Y-101290461D01*
X140909645Y-101274539D01*
X140880602Y-101259741D01*
X140834233Y-101236115D01*
X140716000Y-101217389D01*
X140597767Y-101236115D01*
X140551398Y-101259741D01*
X140522356Y-101274539D01*
X140491107Y-101290461D01*
X140406461Y-101375107D01*
X140352115Y-101481767D01*
X140333389Y-101600000D01*
X140334315Y-101605847D01*
X140342752Y-101659117D01*
X140352115Y-101718233D01*
X140406461Y-101824893D01*
X140464874Y-101883306D01*
X140486614Y-101929926D01*
X140486900Y-101936480D01*
X140486900Y-103354263D01*
X140469307Y-103402601D01*
X140424758Y-103428321D01*
X140377560Y-103421267D01*
X140331507Y-103397802D01*
X140331506Y-103397802D01*
X140326233Y-103395115D01*
X140208000Y-103376389D01*
X140089767Y-103395115D01*
X140075075Y-103402601D01*
X140024597Y-103428321D01*
X139983107Y-103449461D01*
X139898461Y-103534107D01*
X139844115Y-103640767D01*
X139825389Y-103759000D01*
X139844115Y-103877233D01*
X139898461Y-103983893D01*
X139983107Y-104068539D01*
X139988383Y-104071227D01*
X139988384Y-104071228D01*
X140005714Y-104080058D01*
X140089767Y-104122885D01*
X140208000Y-104141611D01*
X140326233Y-104122885D01*
X140333807Y-104119026D01*
X140377560Y-104096733D01*
X140428617Y-104090464D01*
X140471758Y-104118481D01*
X140486900Y-104163737D01*
X140486900Y-107180040D01*
X140486797Y-107183976D01*
X140484666Y-107224639D01*
X140493537Y-107247750D01*
X140496882Y-107259042D01*
X140502031Y-107283265D01*
X140506676Y-107289658D01*
X140506677Y-107289660D01*
X140507107Y-107290252D01*
X140516473Y-107307502D01*
X140519568Y-107315564D01*
X140537064Y-107333060D01*
X140544728Y-107342032D01*
X140559278Y-107362058D01*
X140566123Y-107366010D01*
X140566757Y-107366376D01*
X140582331Y-107378327D01*
X140822309Y-107618305D01*
X140844049Y-107664925D01*
X140843410Y-107683239D01*
X140841389Y-107696000D01*
X140860115Y-107814233D01*
X140914461Y-107920893D01*
X140920383Y-107926815D01*
X140921232Y-107928635D01*
X140922124Y-107929863D01*
X140921885Y-107930036D01*
X140942123Y-107973435D01*
X140928809Y-108023122D01*
X140886672Y-108052627D01*
X140867209Y-108055189D01*
X127905465Y-108055189D01*
X127880253Y-108063381D01*
X127868786Y-108066134D01*
X127842605Y-108070280D01*
X127837334Y-108072966D01*
X127837330Y-108072967D01*
X127818985Y-108082314D01*
X127808085Y-108086829D01*
X127782879Y-108095019D01*
X127761430Y-108110603D01*
X127751376Y-108116764D01*
X127727760Y-108128797D01*
X125779634Y-110076923D01*
X125722930Y-110154968D01*
X125721103Y-110160591D01*
X125721102Y-110160593D01*
X125714277Y-110181600D01*
X125683100Y-110277554D01*
X125683100Y-110406446D01*
X123038100Y-110406446D01*
X123038100Y-105029000D01*
X123188389Y-105029000D01*
X123189315Y-105034847D01*
X123190704Y-105043614D01*
X123207115Y-105147233D01*
X123261461Y-105253893D01*
X123346107Y-105338539D01*
X123452767Y-105392885D01*
X123571000Y-105411611D01*
X123689233Y-105392885D01*
X123795893Y-105338539D01*
X123854306Y-105280126D01*
X123900926Y-105258386D01*
X123907480Y-105258100D01*
X128232812Y-105258100D01*
X128281150Y-105275693D01*
X128299816Y-105299160D01*
X128331492Y-105361327D01*
X128341461Y-105380893D01*
X128426107Y-105465539D01*
X128431383Y-105468227D01*
X128431384Y-105468228D01*
X128465579Y-105485651D01*
X128532767Y-105519885D01*
X128651000Y-105538611D01*
X128769233Y-105519885D01*
X128836421Y-105485651D01*
X128870616Y-105468228D01*
X128870617Y-105468227D01*
X128875893Y-105465539D01*
X128960539Y-105380893D01*
X128970509Y-105361327D01*
X129012198Y-105279506D01*
X129014885Y-105274233D01*
X129033611Y-105156000D01*
X129032223Y-105147233D01*
X129015811Y-105043614D01*
X129014885Y-105037767D01*
X128960539Y-104931107D01*
X128875893Y-104846461D01*
X128769233Y-104792115D01*
X128651000Y-104773389D01*
X128532767Y-104792115D01*
X128529776Y-104793639D01*
X128517206Y-104795968D01*
X128511742Y-104795103D01*
X128504110Y-104797148D01*
X128504109Y-104797148D01*
X128503401Y-104797338D01*
X128483938Y-104799900D01*
X123907480Y-104799900D01*
X123859142Y-104782307D01*
X123854306Y-104777874D01*
X123795893Y-104719461D01*
X123689233Y-104665115D01*
X123571000Y-104646389D01*
X123452767Y-104665115D01*
X123346107Y-104719461D01*
X123261461Y-104804107D01*
X123258773Y-104809383D01*
X123258772Y-104809384D01*
X123248448Y-104829646D01*
X123207115Y-104910767D01*
X123188389Y-105029000D01*
X123038100Y-105029000D01*
X123038100Y-101727000D01*
X124204389Y-101727000D01*
X124223115Y-101845233D01*
X124277461Y-101951893D01*
X124362107Y-102036539D01*
X124468767Y-102090885D01*
X124587000Y-102109611D01*
X124705233Y-102090885D01*
X124811893Y-102036539D01*
X124896539Y-101951893D01*
X124950885Y-101845233D01*
X124969611Y-101727000D01*
X124968223Y-101718233D01*
X124951811Y-101614614D01*
X124950885Y-101608767D01*
X124896539Y-101502107D01*
X124811893Y-101417461D01*
X124705233Y-101363115D01*
X124587000Y-101344389D01*
X124468767Y-101363115D01*
X124362107Y-101417461D01*
X124277461Y-101502107D01*
X124223115Y-101608767D01*
X124222189Y-101614614D01*
X124205778Y-101718233D01*
X124204389Y-101727000D01*
X123038100Y-101727000D01*
X123038100Y-100965000D01*
X130554389Y-100965000D01*
X130573115Y-101083233D01*
X130627461Y-101189893D01*
X130712107Y-101274539D01*
X130717383Y-101277227D01*
X130717384Y-101277228D01*
X130751579Y-101294651D01*
X130818767Y-101328885D01*
X130937000Y-101347611D01*
X131055233Y-101328885D01*
X131122421Y-101294651D01*
X131156616Y-101277228D01*
X131156617Y-101277227D01*
X131161893Y-101274539D01*
X131246539Y-101189893D01*
X131300885Y-101083233D01*
X131319611Y-100965000D01*
X131300885Y-100846767D01*
X131246539Y-100740107D01*
X131161893Y-100655461D01*
X131146605Y-100647671D01*
X131112187Y-100630135D01*
X131055233Y-100601115D01*
X130947172Y-100584000D01*
X131697389Y-100584000D01*
X131698315Y-100589847D01*
X131699704Y-100598614D01*
X131716115Y-100702233D01*
X131770461Y-100808893D01*
X131828874Y-100867306D01*
X131850614Y-100913926D01*
X131850900Y-100920480D01*
X131850900Y-107290892D01*
X131847220Y-107314129D01*
X131845802Y-107318493D01*
X131843115Y-107323767D01*
X131835583Y-107371325D01*
X131825778Y-107433233D01*
X131824389Y-107442000D01*
X131825315Y-107447847D01*
X131828411Y-107467392D01*
X131843115Y-107560233D01*
X131897461Y-107666893D01*
X131982107Y-107751539D01*
X132088767Y-107805885D01*
X132207000Y-107824611D01*
X132325233Y-107805885D01*
X132431893Y-107751539D01*
X132516539Y-107666893D01*
X132570885Y-107560233D01*
X132585589Y-107467392D01*
X132588685Y-107447847D01*
X132589611Y-107442000D01*
X132588223Y-107433233D01*
X132578417Y-107371325D01*
X132570885Y-107323767D01*
X132537913Y-107259056D01*
X132519228Y-107222384D01*
X132519227Y-107222383D01*
X132516539Y-107217107D01*
X132431893Y-107132461D01*
X132350160Y-107090816D01*
X132315078Y-107053195D01*
X132309100Y-107023812D01*
X132309100Y-100920480D01*
X132326693Y-100872142D01*
X132331126Y-100867306D01*
X132389539Y-100808893D01*
X132439418Y-100711000D01*
X133602389Y-100711000D01*
X133621115Y-100829233D01*
X133675461Y-100935893D01*
X133760107Y-101020539D01*
X133765383Y-101023227D01*
X133765384Y-101023228D01*
X133809813Y-101045865D01*
X133866767Y-101074885D01*
X133985000Y-101093611D01*
X134103233Y-101074885D01*
X134160187Y-101045865D01*
X134204616Y-101023228D01*
X134204617Y-101023227D01*
X134209893Y-101020539D01*
X134294539Y-100935893D01*
X134348885Y-100829233D01*
X134367611Y-100711000D01*
X134366223Y-100702233D01*
X134350207Y-100601115D01*
X134348885Y-100592767D01*
X134319865Y-100535813D01*
X134297228Y-100491384D01*
X134297227Y-100491383D01*
X134294539Y-100486107D01*
X134209893Y-100401461D01*
X134103233Y-100347115D01*
X134006783Y-100331839D01*
X133990847Y-100329315D01*
X133985000Y-100328389D01*
X133979153Y-100329315D01*
X133963217Y-100331839D01*
X133866767Y-100347115D01*
X133760107Y-100401461D01*
X133675461Y-100486107D01*
X133672773Y-100491383D01*
X133672772Y-100491384D01*
X133650135Y-100535813D01*
X133621115Y-100592767D01*
X133619793Y-100601115D01*
X133603778Y-100702233D01*
X133602389Y-100711000D01*
X132439418Y-100711000D01*
X132443885Y-100702233D01*
X132460296Y-100598614D01*
X132461685Y-100589847D01*
X132462611Y-100584000D01*
X132443885Y-100465767D01*
X132399951Y-100379542D01*
X132392228Y-100364384D01*
X132392227Y-100364383D01*
X132389539Y-100359107D01*
X132304893Y-100274461D01*
X132198233Y-100220115D01*
X132080000Y-100201389D01*
X131961767Y-100220115D01*
X131855107Y-100274461D01*
X131770461Y-100359107D01*
X131767773Y-100364383D01*
X131767772Y-100364384D01*
X131760049Y-100379542D01*
X131716115Y-100465767D01*
X131697389Y-100584000D01*
X130947172Y-100584000D01*
X130937000Y-100582389D01*
X130818767Y-100601115D01*
X130761813Y-100630135D01*
X130727396Y-100647671D01*
X130712107Y-100655461D01*
X130627461Y-100740107D01*
X130573115Y-100846767D01*
X130554389Y-100965000D01*
X123038100Y-100965000D01*
X123038100Y-98672846D01*
X127008510Y-98672846D01*
X127011674Y-98692823D01*
X127012600Y-98704587D01*
X127012600Y-98928316D01*
X127013321Y-98935637D01*
X127019997Y-98969198D01*
X127025558Y-98982623D01*
X127051014Y-99020720D01*
X127061280Y-99030986D01*
X127099377Y-99056442D01*
X127112802Y-99062003D01*
X127146363Y-99068679D01*
X127153684Y-99069400D01*
X127377413Y-99069400D01*
X127389177Y-99070326D01*
X127409154Y-99073490D01*
X127420846Y-99073490D01*
X127440823Y-99070326D01*
X127452587Y-99069400D01*
X128577413Y-99069400D01*
X128589177Y-99070326D01*
X128609154Y-99073490D01*
X128620846Y-99073490D01*
X128640823Y-99070326D01*
X128652587Y-99069400D01*
X129674741Y-99069400D01*
X129684898Y-99065703D01*
X129688000Y-99060331D01*
X129688000Y-99056141D01*
X129942000Y-99056141D01*
X129945697Y-99066298D01*
X129951069Y-99069400D01*
X130977413Y-99069400D01*
X130989177Y-99070326D01*
X131009154Y-99073490D01*
X131020846Y-99073490D01*
X131040823Y-99070326D01*
X131052587Y-99069400D01*
X132177413Y-99069400D01*
X132189177Y-99070326D01*
X132209154Y-99073490D01*
X132220846Y-99073490D01*
X132240823Y-99070326D01*
X132252587Y-99069400D01*
X132476316Y-99069400D01*
X132483637Y-99068679D01*
X132517198Y-99062003D01*
X132530623Y-99056442D01*
X132568720Y-99030986D01*
X132578986Y-99020720D01*
X132604442Y-98982623D01*
X132610003Y-98969198D01*
X132616679Y-98935637D01*
X132617400Y-98928316D01*
X132617400Y-98704587D01*
X132618326Y-98692823D01*
X132621490Y-98672846D01*
X132621490Y-98661154D01*
X132618326Y-98641177D01*
X132617400Y-98629413D01*
X132617400Y-97504587D01*
X132618326Y-97492823D01*
X132621490Y-97472846D01*
X132621490Y-97461154D01*
X132618326Y-97441177D01*
X132617400Y-97429413D01*
X132617400Y-96407259D01*
X132613703Y-96397102D01*
X132608331Y-96394000D01*
X129955259Y-96394000D01*
X129945102Y-96397697D01*
X129942000Y-96403069D01*
X129942000Y-99056141D01*
X129688000Y-99056141D01*
X129688000Y-96407259D01*
X129684303Y-96397102D01*
X129678931Y-96394000D01*
X127025859Y-96394000D01*
X127015702Y-96397697D01*
X127012600Y-96403069D01*
X127012600Y-97429413D01*
X127011674Y-97441177D01*
X127008510Y-97461154D01*
X127008510Y-97472846D01*
X127011674Y-97492823D01*
X127012600Y-97504587D01*
X127012600Y-98629413D01*
X127011674Y-98641177D01*
X127008510Y-98661154D01*
X127008510Y-98672846D01*
X123038100Y-98672846D01*
X123038100Y-95941080D01*
X123055693Y-95892742D01*
X123100242Y-95867022D01*
X123150900Y-95875955D01*
X123166474Y-95887906D01*
X123219107Y-95940539D01*
X123224383Y-95943227D01*
X123224384Y-95943228D01*
X123239895Y-95951131D01*
X123325767Y-95994885D01*
X123444000Y-96013611D01*
X123562233Y-95994885D01*
X123648105Y-95951131D01*
X123663616Y-95943228D01*
X123663617Y-95943227D01*
X123668893Y-95940539D01*
X123753539Y-95855893D01*
X123807885Y-95749233D01*
X123826611Y-95631000D01*
X123807885Y-95512767D01*
X123753539Y-95406107D01*
X123668893Y-95321461D01*
X123649134Y-95311393D01*
X123619187Y-95296135D01*
X123562233Y-95267115D01*
X123444000Y-95248389D01*
X123325767Y-95267115D01*
X123268813Y-95296135D01*
X123238867Y-95311393D01*
X123219107Y-95321461D01*
X123166474Y-95374094D01*
X123119854Y-95395834D01*
X123070167Y-95382520D01*
X123040662Y-95340383D01*
X123038100Y-95320920D01*
X123038100Y-95072846D01*
X127008510Y-95072846D01*
X127011674Y-95092823D01*
X127012600Y-95104587D01*
X127012600Y-96126741D01*
X127016297Y-96136898D01*
X127021669Y-96140000D01*
X129674741Y-96140000D01*
X129684898Y-96136303D01*
X129688000Y-96130931D01*
X129688000Y-96126741D01*
X129942000Y-96126741D01*
X129945697Y-96136898D01*
X129951069Y-96140000D01*
X132604141Y-96140000D01*
X132614298Y-96136303D01*
X132617400Y-96130931D01*
X132617400Y-95104587D01*
X132618326Y-95092823D01*
X132621490Y-95072846D01*
X132621490Y-95061154D01*
X132618326Y-95041177D01*
X132617400Y-95029413D01*
X132617400Y-93904587D01*
X132618326Y-93892823D01*
X132621490Y-93872846D01*
X132621490Y-93861154D01*
X132618326Y-93841177D01*
X132617400Y-93829413D01*
X132617400Y-93605684D01*
X132616679Y-93598363D01*
X132610003Y-93564802D01*
X132604442Y-93551377D01*
X132578986Y-93513280D01*
X132568720Y-93503014D01*
X132530623Y-93477558D01*
X132517198Y-93471997D01*
X132483637Y-93465321D01*
X132476316Y-93464600D01*
X132252587Y-93464600D01*
X132240823Y-93463674D01*
X132220846Y-93460510D01*
X132209154Y-93460510D01*
X132189177Y-93463674D01*
X132177413Y-93464600D01*
X131052587Y-93464600D01*
X131040823Y-93463674D01*
X131020846Y-93460510D01*
X131009154Y-93460510D01*
X130989177Y-93463674D01*
X130977413Y-93464600D01*
X129955259Y-93464600D01*
X129945102Y-93468297D01*
X129942000Y-93473669D01*
X129942000Y-96126741D01*
X129688000Y-96126741D01*
X129688000Y-93477859D01*
X129684303Y-93467702D01*
X129678931Y-93464600D01*
X128652587Y-93464600D01*
X128640823Y-93463674D01*
X128620846Y-93460510D01*
X128609154Y-93460510D01*
X128589177Y-93463674D01*
X128577413Y-93464600D01*
X127452587Y-93464600D01*
X127440823Y-93463674D01*
X127420846Y-93460510D01*
X127409154Y-93460510D01*
X127389177Y-93463674D01*
X127377413Y-93464600D01*
X127153684Y-93464600D01*
X127146363Y-93465321D01*
X127112802Y-93471997D01*
X127099377Y-93477558D01*
X127061280Y-93503014D01*
X127051014Y-93513280D01*
X127025558Y-93551377D01*
X127019997Y-93564802D01*
X127013321Y-93598363D01*
X127012600Y-93605684D01*
X127012600Y-93829413D01*
X127011674Y-93841177D01*
X127008510Y-93861154D01*
X127008510Y-93872846D01*
X127011674Y-93892823D01*
X127012600Y-93904587D01*
X127012600Y-95029413D01*
X127011674Y-95041177D01*
X127008510Y-95061154D01*
X127008510Y-95072846D01*
X123038100Y-95072846D01*
X123038100Y-94575231D01*
X123055693Y-94526893D01*
X123060126Y-94522057D01*
X123219357Y-94362826D01*
X123222212Y-94360116D01*
X123236198Y-94347523D01*
X123252486Y-94332857D01*
X123262553Y-94310247D01*
X123268184Y-94299876D01*
X123277356Y-94285753D01*
X123281661Y-94279124D01*
X123283011Y-94270599D01*
X123288587Y-94251774D01*
X123288884Y-94251107D01*
X123292100Y-94243884D01*
X123292100Y-94219133D01*
X123293026Y-94207369D01*
X123295661Y-94190735D01*
X123295661Y-94190733D01*
X123296897Y-94182929D01*
X123294662Y-94174587D01*
X123292100Y-94155125D01*
X123292100Y-93091000D01*
X125728389Y-93091000D01*
X125747115Y-93209233D01*
X125801461Y-93315893D01*
X125886107Y-93400539D01*
X125891383Y-93403227D01*
X125891384Y-93403228D01*
X125935813Y-93425865D01*
X125992767Y-93454885D01*
X126048259Y-93463674D01*
X126073692Y-93467702D01*
X126111000Y-93473611D01*
X126148309Y-93467702D01*
X126173741Y-93463674D01*
X126229233Y-93454885D01*
X126286187Y-93425865D01*
X126330616Y-93403228D01*
X126330617Y-93403227D01*
X126335893Y-93400539D01*
X126420539Y-93315893D01*
X126474885Y-93209233D01*
X126493611Y-93091000D01*
X126474885Y-92972767D01*
X126420539Y-92866107D01*
X126335893Y-92781461D01*
X126229233Y-92727115D01*
X126111000Y-92708389D01*
X125992767Y-92727115D01*
X125886107Y-92781461D01*
X125801461Y-92866107D01*
X125747115Y-92972767D01*
X125728389Y-93091000D01*
X123292100Y-93091000D01*
X123292100Y-92075000D01*
X127633389Y-92075000D01*
X127652115Y-92193233D01*
X127706461Y-92299893D01*
X127791107Y-92384539D01*
X127897767Y-92438885D01*
X128016000Y-92457611D01*
X128134233Y-92438885D01*
X128240893Y-92384539D01*
X128325539Y-92299893D01*
X128379885Y-92193233D01*
X128398611Y-92075000D01*
X129157389Y-92075000D01*
X129176115Y-92193233D01*
X129230461Y-92299893D01*
X129315107Y-92384539D01*
X129421767Y-92438885D01*
X129540000Y-92457611D01*
X129658233Y-92438885D01*
X129764893Y-92384539D01*
X129849539Y-92299893D01*
X129903885Y-92193233D01*
X129922611Y-92075000D01*
X129903885Y-91956767D01*
X129849539Y-91850107D01*
X129764893Y-91765461D01*
X129658233Y-91711115D01*
X129540000Y-91692389D01*
X129421767Y-91711115D01*
X129315107Y-91765461D01*
X129230461Y-91850107D01*
X129176115Y-91956767D01*
X129157389Y-92075000D01*
X128398611Y-92075000D01*
X128379885Y-91956767D01*
X128325539Y-91850107D01*
X128240893Y-91765461D01*
X128134233Y-91711115D01*
X128016000Y-91692389D01*
X127897767Y-91711115D01*
X127791107Y-91765461D01*
X127706461Y-91850107D01*
X127652115Y-91956767D01*
X127633389Y-92075000D01*
X123292100Y-92075000D01*
X123292100Y-90558960D01*
X123292203Y-90555025D01*
X123293352Y-90533090D01*
X123294334Y-90514360D01*
X123285467Y-90491261D01*
X123282114Y-90479943D01*
X123278612Y-90463465D01*
X123276969Y-90455735D01*
X123272323Y-90449340D01*
X123271893Y-90448748D01*
X123262527Y-90431498D01*
X123262265Y-90430816D01*
X123262264Y-90430815D01*
X123259432Y-90423436D01*
X123241936Y-90405940D01*
X123234272Y-90396968D01*
X123224367Y-90383335D01*
X123219722Y-90376942D01*
X123212878Y-90372991D01*
X123212875Y-90372988D01*
X123212241Y-90372622D01*
X123196672Y-90360674D01*
X123083691Y-90247693D01*
X123061951Y-90201073D01*
X123062591Y-90182756D01*
X123063685Y-90175848D01*
X123063685Y-90175847D01*
X123064611Y-90170000D01*
X123045885Y-90051767D01*
X122991539Y-89945107D01*
X122962432Y-89916000D01*
X132459389Y-89916000D01*
X132478115Y-90034233D01*
X132487049Y-90051767D01*
X132523315Y-90122942D01*
X132532461Y-90140893D01*
X132617107Y-90225539D01*
X132622383Y-90228227D01*
X132622384Y-90228228D01*
X132660587Y-90247693D01*
X132723767Y-90279885D01*
X132729614Y-90280811D01*
X132829240Y-90296590D01*
X132842000Y-90298611D01*
X132854761Y-90296590D01*
X132954386Y-90280811D01*
X132960233Y-90279885D01*
X133023413Y-90247693D01*
X133061616Y-90228228D01*
X133061617Y-90228227D01*
X133066893Y-90225539D01*
X133151539Y-90140893D01*
X133160686Y-90122942D01*
X133196951Y-90051767D01*
X133205885Y-90034233D01*
X133224611Y-89916000D01*
X133205885Y-89797767D01*
X133151539Y-89691107D01*
X133066893Y-89606461D01*
X133035645Y-89590539D01*
X132995483Y-89570076D01*
X132960233Y-89552115D01*
X132842000Y-89533389D01*
X132723767Y-89552115D01*
X132688517Y-89570076D01*
X132648356Y-89590539D01*
X132617107Y-89606461D01*
X132532461Y-89691107D01*
X132478115Y-89797767D01*
X132459389Y-89916000D01*
X122962432Y-89916000D01*
X122906893Y-89860461D01*
X122800233Y-89806115D01*
X122682000Y-89787389D01*
X122563767Y-89806115D01*
X122457107Y-89860461D01*
X122372461Y-89945107D01*
X122318115Y-90051767D01*
X122299389Y-90170000D01*
X122300315Y-90175847D01*
X122301409Y-90182756D01*
X122318115Y-90288233D01*
X122320802Y-90293506D01*
X122363315Y-90376942D01*
X122372461Y-90394893D01*
X122457107Y-90479539D01*
X122462383Y-90482227D01*
X122462384Y-90482228D01*
X122506813Y-90504865D01*
X122563767Y-90533885D01*
X122569614Y-90534811D01*
X122669240Y-90550590D01*
X122682000Y-90552611D01*
X122694761Y-90550590D01*
X122745255Y-90560408D01*
X122759695Y-90571691D01*
X122811874Y-90623870D01*
X122833614Y-90670490D01*
X122833900Y-90677044D01*
X122833900Y-94069142D01*
X122816307Y-94117480D01*
X122811874Y-94122317D01*
X122652624Y-94281566D01*
X122649769Y-94284275D01*
X122619514Y-94311517D01*
X122609444Y-94334134D01*
X122603822Y-94344488D01*
X122590339Y-94365251D01*
X122589103Y-94373058D01*
X122588989Y-94373775D01*
X122583413Y-94392600D01*
X122579900Y-94400490D01*
X122579900Y-94425241D01*
X122578974Y-94437005D01*
X122575103Y-94461445D01*
X122577148Y-94469077D01*
X122577148Y-94469078D01*
X122577338Y-94469786D01*
X122579900Y-94489249D01*
X122579900Y-118228724D01*
X122579797Y-118232660D01*
X122577666Y-118273323D01*
X122586537Y-118296434D01*
X122589882Y-118307726D01*
X122595031Y-118331949D01*
X122599676Y-118338342D01*
X122599677Y-118338344D01*
X122600107Y-118338936D01*
X122609473Y-118356186D01*
X122612568Y-118364248D01*
X122630064Y-118381744D01*
X122637728Y-118390716D01*
X122646604Y-118402932D01*
X122652278Y-118410742D01*
X122659123Y-118414694D01*
X122659757Y-118415060D01*
X122675331Y-118427011D01*
X123482556Y-119234237D01*
X123504296Y-119280857D01*
X123503656Y-119299173D01*
X123502562Y-119306081D01*
X123502562Y-119306084D01*
X123501636Y-119311931D01*
X123502562Y-119317778D01*
X123508398Y-119354624D01*
X123520362Y-119430164D01*
X123574708Y-119536824D01*
X123659354Y-119621470D01*
X123664630Y-119624158D01*
X123664631Y-119624159D01*
X123766014Y-119675816D01*
X123765057Y-119677694D01*
X123798664Y-119703951D01*
X123809358Y-119754267D01*
X123785208Y-119799685D01*
X123734890Y-119819000D01*
X121634080Y-119819000D01*
X121585742Y-119801407D01*
X121560022Y-119756858D01*
X121568955Y-119706200D01*
X121580906Y-119690626D01*
X121594539Y-119676993D01*
X121648885Y-119570333D01*
X121667611Y-119452100D01*
X121665590Y-119439339D01*
X121675408Y-119388845D01*
X121686691Y-119374405D01*
X122076357Y-118984739D01*
X122079212Y-118982029D01*
X122103613Y-118960058D01*
X122109486Y-118954770D01*
X122119552Y-118932162D01*
X122125183Y-118921791D01*
X122128761Y-118916281D01*
X122138662Y-118901036D01*
X122139898Y-118893228D01*
X122139900Y-118893224D01*
X122140014Y-118892504D01*
X122145589Y-118873684D01*
X122145883Y-118873023D01*
X122145883Y-118873021D01*
X122149100Y-118865797D01*
X122149100Y-118841046D01*
X122150026Y-118829283D01*
X122152661Y-118812648D01*
X122152661Y-118812646D01*
X122153897Y-118804841D01*
X122151662Y-118796499D01*
X122149100Y-118777037D01*
X122149100Y-93984841D01*
X122166693Y-93936503D01*
X122171126Y-93931667D01*
X122402468Y-93700325D01*
X122405323Y-93697615D01*
X122429724Y-93675644D01*
X122435597Y-93670356D01*
X122445663Y-93647748D01*
X122451294Y-93637377D01*
X122464773Y-93616622D01*
X122466009Y-93608814D01*
X122466011Y-93608810D01*
X122466125Y-93608090D01*
X122471700Y-93589270D01*
X122471994Y-93588609D01*
X122471994Y-93588607D01*
X122475211Y-93581383D01*
X122475211Y-93556632D01*
X122476137Y-93544869D01*
X122478772Y-93528234D01*
X122478772Y-93528232D01*
X122480008Y-93520427D01*
X122477773Y-93512085D01*
X122475211Y-93492623D01*
X122475211Y-91901071D01*
X122475314Y-91897135D01*
X122477031Y-91864363D01*
X122477445Y-91856472D01*
X122468574Y-91833361D01*
X122465229Y-91822069D01*
X122460080Y-91797846D01*
X122455434Y-91791451D01*
X122455004Y-91790859D01*
X122445638Y-91773609D01*
X122445376Y-91772927D01*
X122445375Y-91772926D01*
X122442543Y-91765547D01*
X122425047Y-91748051D01*
X122417383Y-91739079D01*
X122407478Y-91725446D01*
X122402833Y-91719053D01*
X122395354Y-91714735D01*
X122379780Y-91702784D01*
X121940691Y-91263694D01*
X121918951Y-91217074D01*
X121919591Y-91198758D01*
X121920685Y-91191850D01*
X121920685Y-91191847D01*
X121921611Y-91186000D01*
X121902885Y-91067767D01*
X121848539Y-90961107D01*
X121763893Y-90876461D01*
X121657233Y-90822115D01*
X121539000Y-90803389D01*
X121420767Y-90822115D01*
X121314107Y-90876461D01*
X121229461Y-90961107D01*
X121175115Y-91067767D01*
X121156389Y-91186000D01*
X121157315Y-91191847D01*
X121158410Y-91198758D01*
X121175115Y-91304233D01*
X121229461Y-91410893D01*
X121314107Y-91495539D01*
X121420767Y-91549885D01*
X121539000Y-91568611D01*
X121544847Y-91567685D01*
X121544850Y-91567685D01*
X121551758Y-91566591D01*
X121602253Y-91576407D01*
X121616694Y-91587691D01*
X121994985Y-91965982D01*
X122016725Y-92012602D01*
X122017011Y-92019156D01*
X122017011Y-93406641D01*
X121999418Y-93454979D01*
X121994986Y-93459815D01*
X121873417Y-93581383D01*
X121763624Y-93691176D01*
X121760769Y-93693885D01*
X121730514Y-93721127D01*
X121720444Y-93743744D01*
X121714822Y-93754098D01*
X121701339Y-93774861D01*
X121700103Y-93782668D01*
X121699989Y-93783385D01*
X121694413Y-93802210D01*
X121690900Y-93810100D01*
X121690900Y-93834851D01*
X121689974Y-93846615D01*
X121686103Y-93871055D01*
X121688148Y-93878687D01*
X121688148Y-93878688D01*
X121688338Y-93879396D01*
X121690900Y-93898859D01*
X121690900Y-108782920D01*
X121673307Y-108831258D01*
X121628758Y-108856978D01*
X121578100Y-108848045D01*
X121562526Y-108836094D01*
X121509893Y-108783461D01*
X121403233Y-108729115D01*
X121285000Y-108710389D01*
X121166767Y-108729115D01*
X121060107Y-108783461D01*
X120975461Y-108868107D01*
X120972773Y-108873383D01*
X120972772Y-108873384D01*
X120953364Y-108911475D01*
X120921115Y-108974767D01*
X120902389Y-109093000D01*
X120903315Y-109098847D01*
X120906411Y-109118392D01*
X120921115Y-109211233D01*
X120975461Y-109317893D01*
X121033874Y-109376306D01*
X121055614Y-109422926D01*
X121055900Y-109429480D01*
X121055900Y-117646520D01*
X121038307Y-117694858D01*
X121033874Y-117699694D01*
X120975461Y-117758107D01*
X120972773Y-117763383D01*
X120972772Y-117763384D01*
X120957565Y-117793230D01*
X120921115Y-117864767D01*
X120902389Y-117983000D01*
X120921115Y-118101233D01*
X120923802Y-118106506D01*
X120965787Y-118188906D01*
X120975461Y-118207893D01*
X121060107Y-118292539D01*
X121065383Y-118295227D01*
X121065384Y-118295228D01*
X121104731Y-118315276D01*
X121166767Y-118346885D01*
X121285000Y-118365611D01*
X121403233Y-118346885D01*
X121465269Y-118315276D01*
X121504616Y-118295228D01*
X121504617Y-118295227D01*
X121509893Y-118292539D01*
X121562526Y-118239906D01*
X121609146Y-118218166D01*
X121658833Y-118231480D01*
X121688338Y-118273617D01*
X121690900Y-118293080D01*
X121690900Y-118691055D01*
X121673307Y-118739393D01*
X121668874Y-118744230D01*
X121362693Y-119050410D01*
X121316073Y-119072149D01*
X121297756Y-119071509D01*
X121290848Y-119070415D01*
X121290847Y-119070415D01*
X121285000Y-119069489D01*
X121166767Y-119088215D01*
X121060107Y-119142561D01*
X121011366Y-119191302D01*
X120964746Y-119213042D01*
X120915059Y-119199728D01*
X120885554Y-119157591D01*
X120886597Y-119117799D01*
X120886885Y-119117233D01*
X120905611Y-118999000D01*
X120886885Y-118880767D01*
X120832539Y-118774107D01*
X120774126Y-118715694D01*
X120752386Y-118669074D01*
X120752100Y-118662520D01*
X120752100Y-106127480D01*
X120769693Y-106079142D01*
X120774126Y-106074306D01*
X120832539Y-106015893D01*
X120886885Y-105909233D01*
X120901237Y-105818614D01*
X120904685Y-105796847D01*
X120905611Y-105791000D01*
X120886885Y-105672767D01*
X120832539Y-105566107D01*
X120747893Y-105481461D01*
X120716645Y-105465539D01*
X120698187Y-105456135D01*
X120641233Y-105427115D01*
X120523000Y-105408389D01*
X120404767Y-105427115D01*
X120347813Y-105456135D01*
X120329356Y-105465539D01*
X120298107Y-105481461D01*
X120213461Y-105566107D01*
X120210773Y-105571383D01*
X120210772Y-105571384D01*
X120183122Y-105625651D01*
X120159115Y-105672767D01*
X120158172Y-105672287D01*
X120130052Y-105708281D01*
X120079736Y-105718977D01*
X120034317Y-105694829D01*
X120015000Y-105644509D01*
X120015000Y-103378000D01*
X120648389Y-103378000D01*
X120649315Y-103383847D01*
X120649897Y-103387519D01*
X120667115Y-103496233D01*
X120721461Y-103602893D01*
X120806107Y-103687539D01*
X120912767Y-103741885D01*
X121031000Y-103760611D01*
X121149233Y-103741885D01*
X121255893Y-103687539D01*
X121340539Y-103602893D01*
X121394885Y-103496233D01*
X121412103Y-103387519D01*
X121412685Y-103383847D01*
X121413611Y-103378000D01*
X121409852Y-103354263D01*
X121395811Y-103265614D01*
X121394885Y-103259767D01*
X121340539Y-103153107D01*
X121255893Y-103068461D01*
X121149233Y-103014115D01*
X121031000Y-102995389D01*
X120912767Y-103014115D01*
X120806107Y-103068461D01*
X120721461Y-103153107D01*
X120667115Y-103259767D01*
X120666189Y-103265614D01*
X120652149Y-103354263D01*
X120648389Y-103378000D01*
X120015000Y-103378000D01*
X120015000Y-89281000D01*
X134364389Y-89281000D01*
X134383115Y-89399233D01*
X134405679Y-89443517D01*
X134421577Y-89474718D01*
X134437461Y-89505893D01*
X134522107Y-89590539D01*
X134527380Y-89593226D01*
X134527386Y-89593230D01*
X134548952Y-89604218D01*
X134584033Y-89641839D01*
X134590011Y-89671221D01*
X134590011Y-104366409D01*
X134572418Y-104414747D01*
X134568863Y-104418626D01*
X134568653Y-104418915D01*
X134564461Y-104423107D01*
X134510115Y-104529767D01*
X134491389Y-104648000D01*
X134492315Y-104653847D01*
X134493704Y-104662614D01*
X134510115Y-104766233D01*
X134564461Y-104872893D01*
X134649107Y-104957539D01*
X134755767Y-105011885D01*
X134874000Y-105030611D01*
X134992233Y-105011885D01*
X135098893Y-104957539D01*
X135183539Y-104872893D01*
X135237885Y-104766233D01*
X135254296Y-104662614D01*
X135255685Y-104653847D01*
X135256611Y-104648000D01*
X135237885Y-104529767D01*
X135183539Y-104423107D01*
X135098893Y-104338461D01*
X135090132Y-104333997D01*
X135089269Y-104333557D01*
X135054188Y-104295935D01*
X135048211Y-104266554D01*
X135048211Y-89540215D01*
X135058949Y-89507121D01*
X135056539Y-89505893D01*
X135063430Y-89492369D01*
X135456992Y-89492369D01*
X135459037Y-89500001D01*
X135459037Y-89500002D01*
X135459227Y-89500710D01*
X135461789Y-89520173D01*
X135461789Y-98477726D01*
X135461686Y-98481662D01*
X135459555Y-98522325D01*
X135468426Y-98545436D01*
X135471771Y-98556728D01*
X135476920Y-98580951D01*
X135481565Y-98587344D01*
X135481566Y-98587346D01*
X135481996Y-98587938D01*
X135491362Y-98605188D01*
X135494457Y-98613250D01*
X135511953Y-98630746D01*
X135519617Y-98639718D01*
X135525164Y-98647352D01*
X135534167Y-98659744D01*
X135541012Y-98663696D01*
X135541646Y-98664062D01*
X135557220Y-98676013D01*
X135765874Y-98884667D01*
X135787614Y-98931287D01*
X135787900Y-98937841D01*
X135787900Y-102025520D01*
X135770307Y-102073858D01*
X135765874Y-102078694D01*
X135707461Y-102137107D01*
X135704773Y-102142383D01*
X135704772Y-102142384D01*
X135701249Y-102149298D01*
X135653115Y-102243767D01*
X135634389Y-102362000D01*
X135653115Y-102480233D01*
X135707461Y-102586893D01*
X135792107Y-102671539D01*
X135898767Y-102725885D01*
X136017000Y-102744611D01*
X136135233Y-102725885D01*
X136241893Y-102671539D01*
X136326539Y-102586893D01*
X136380885Y-102480233D01*
X136399611Y-102362000D01*
X136380885Y-102243767D01*
X136332751Y-102149298D01*
X136329228Y-102142384D01*
X136329227Y-102142383D01*
X136326539Y-102137107D01*
X136268126Y-102078694D01*
X136246386Y-102032074D01*
X136246100Y-102025520D01*
X136246100Y-98767058D01*
X136246512Y-98759198D01*
X136249109Y-98734489D01*
X136249935Y-98726629D01*
X136248337Y-98721712D01*
X136260379Y-98673413D01*
X136288583Y-98648459D01*
X136363616Y-98610228D01*
X136363617Y-98610227D01*
X136368893Y-98607539D01*
X136453539Y-98522893D01*
X136475549Y-98479697D01*
X136505198Y-98421506D01*
X136507885Y-98416233D01*
X136526611Y-98298000D01*
X136507885Y-98179767D01*
X136471572Y-98108498D01*
X136456228Y-98078384D01*
X136456227Y-98078383D01*
X136453539Y-98073107D01*
X136368893Y-97988461D01*
X136361522Y-97984705D01*
X136268823Y-97937473D01*
X136262233Y-97934115D01*
X136203117Y-97924752D01*
X136149847Y-97916315D01*
X136144000Y-97915389D01*
X136025767Y-97934115D01*
X136020496Y-97936801D01*
X136018427Y-97937473D01*
X135967018Y-97935678D01*
X135928791Y-97901258D01*
X135919989Y-97865954D01*
X135919989Y-89916000D01*
X136523389Y-89916000D01*
X136542115Y-90034233D01*
X136551049Y-90051767D01*
X136587315Y-90122942D01*
X136596461Y-90140893D01*
X136681107Y-90225539D01*
X136686383Y-90228227D01*
X136686384Y-90228228D01*
X136724587Y-90247693D01*
X136787767Y-90279885D01*
X136793614Y-90280811D01*
X136893240Y-90296590D01*
X136906000Y-90298611D01*
X136918761Y-90296590D01*
X136969255Y-90306408D01*
X136983695Y-90317691D01*
X137035874Y-90369870D01*
X137057614Y-90416490D01*
X137057900Y-90423044D01*
X137057900Y-103803520D01*
X137040307Y-103851858D01*
X137035874Y-103856694D01*
X136977461Y-103915107D01*
X136923115Y-104021767D01*
X136904389Y-104140000D01*
X136905315Y-104145847D01*
X136908811Y-104167918D01*
X136923115Y-104258233D01*
X136925802Y-104263506D01*
X136965885Y-104342173D01*
X136977461Y-104364893D01*
X137062107Y-104449539D01*
X137067383Y-104452227D01*
X137067384Y-104452228D01*
X137101579Y-104469651D01*
X137168767Y-104503885D01*
X137287000Y-104522611D01*
X137405233Y-104503885D01*
X137472421Y-104469651D01*
X137506616Y-104452228D01*
X137506617Y-104452227D01*
X137511893Y-104449539D01*
X137596539Y-104364893D01*
X137608116Y-104342173D01*
X137648198Y-104263506D01*
X137650885Y-104258233D01*
X137665189Y-104167918D01*
X137668685Y-104145847D01*
X137669611Y-104140000D01*
X137650885Y-104021767D01*
X137596539Y-103915107D01*
X137538126Y-103856694D01*
X137516386Y-103810074D01*
X137516100Y-103803520D01*
X137516100Y-102870000D01*
X138809389Y-102870000D01*
X138828115Y-102988233D01*
X138882461Y-103094893D01*
X138967107Y-103179539D01*
X138972383Y-103182227D01*
X138972384Y-103182228D01*
X139006579Y-103199651D01*
X139073767Y-103233885D01*
X139192000Y-103252611D01*
X139310233Y-103233885D01*
X139377421Y-103199651D01*
X139411616Y-103182228D01*
X139411617Y-103182227D01*
X139416893Y-103179539D01*
X139501539Y-103094893D01*
X139555885Y-102988233D01*
X139574611Y-102870000D01*
X139555885Y-102751767D01*
X139501539Y-102645107D01*
X139443126Y-102586694D01*
X139421386Y-102540074D01*
X139421100Y-102533520D01*
X139421100Y-94902839D01*
X142210143Y-94902839D01*
X142211157Y-94907867D01*
X142211157Y-94907870D01*
X142232072Y-95011590D01*
X142239057Y-95046233D01*
X142305466Y-95176569D01*
X142308935Y-95180341D01*
X142308938Y-95180346D01*
X142385244Y-95263328D01*
X142405013Y-95310818D01*
X142389630Y-95359904D01*
X142379026Y-95371156D01*
X142350436Y-95395834D01*
X142343750Y-95401605D01*
X142340914Y-95405874D01*
X142278591Y-95499679D01*
X142262800Y-95523446D01*
X142261216Y-95528321D01*
X142261215Y-95528323D01*
X142229753Y-95625153D01*
X142217597Y-95662565D01*
X142217382Y-95667683D01*
X142217382Y-95667686D01*
X142214534Y-95735641D01*
X142211471Y-95808717D01*
X142212641Y-95813704D01*
X142212641Y-95813707D01*
X142243020Y-95943228D01*
X142244874Y-95951131D01*
X142315345Y-96079318D01*
X142322135Y-96087184D01*
X142323107Y-96088156D01*
X142614868Y-96379916D01*
X142617049Y-96382190D01*
X142655009Y-96423472D01*
X142655011Y-96423474D01*
X142658479Y-96427245D01*
X142662836Y-96429946D01*
X142662839Y-96429949D01*
X142696229Y-96450652D01*
X142702067Y-96454664D01*
X142733356Y-96478414D01*
X142733360Y-96478416D01*
X142737441Y-96481514D01*
X142754266Y-96488176D01*
X142754896Y-96488425D01*
X142766839Y-96494432D01*
X142778439Y-96501624D01*
X142778442Y-96501625D01*
X142782801Y-96504328D01*
X142787722Y-96505758D01*
X142787725Y-96505759D01*
X142825458Y-96516721D01*
X142832161Y-96519016D01*
X142842057Y-96522934D01*
X142873449Y-96535363D01*
X142878548Y-96535899D01*
X142892121Y-96537326D01*
X142905236Y-96539899D01*
X142908712Y-96540909D01*
X142923273Y-96545139D01*
X142929250Y-96545578D01*
X142932272Y-96545800D01*
X142932276Y-96545800D01*
X142933636Y-96545900D01*
X142969757Y-96545900D01*
X142977618Y-96546312D01*
X143018928Y-96550654D01*
X143040810Y-96546953D01*
X143053350Y-96545900D01*
X143281900Y-96545900D01*
X143330238Y-96563493D01*
X143355958Y-96608042D01*
X143357100Y-96621100D01*
X143357100Y-97578270D01*
X143357034Y-97581418D01*
X143354471Y-97642565D01*
X143364618Y-97685824D01*
X143365905Y-97692773D01*
X143371932Y-97736775D01*
X143373966Y-97741475D01*
X143373967Y-97741479D01*
X143379389Y-97754007D01*
X143383587Y-97766700D01*
X143387874Y-97784980D01*
X143390346Y-97789476D01*
X143409273Y-97823905D01*
X143412390Y-97830267D01*
X143430027Y-97871024D01*
X143433255Y-97875010D01*
X143441842Y-97885614D01*
X143449299Y-97896712D01*
X143456443Y-97909708D01*
X143456448Y-97909715D01*
X143458345Y-97913166D01*
X143462881Y-97918420D01*
X143464072Y-97919800D01*
X143465135Y-97921032D01*
X143490670Y-97946567D01*
X143495936Y-97952415D01*
X143522084Y-97984705D01*
X143526259Y-97987672D01*
X143526260Y-97987673D01*
X143540179Y-97997565D01*
X143549790Y-98005688D01*
X143847948Y-98303847D01*
X144167920Y-98623819D01*
X144171673Y-98627856D01*
X144205180Y-98666675D01*
X144209449Y-98669511D01*
X144215606Y-98673602D01*
X144227165Y-98683064D01*
X146383074Y-100838972D01*
X146404814Y-100885592D01*
X146405100Y-100892146D01*
X146405100Y-103277400D01*
X146387507Y-103325738D01*
X146342958Y-103351458D01*
X146329900Y-103352600D01*
X146208148Y-103352600D01*
X146207788Y-103352608D01*
X146207775Y-103352608D01*
X146201944Y-103352735D01*
X146201908Y-103352736D01*
X146201504Y-103352745D01*
X146201090Y-103352763D01*
X146201092Y-103352763D01*
X146198637Y-103352870D01*
X146198636Y-103352870D01*
X146194950Y-103353031D01*
X146166067Y-103360099D01*
X146140772Y-103366288D01*
X146140770Y-103366289D01*
X146137185Y-103367166D01*
X146090565Y-103388906D01*
X146047211Y-103419263D01*
X145456263Y-104010211D01*
X145451684Y-104014994D01*
X145447251Y-104019830D01*
X145445335Y-104022986D01*
X145445334Y-104022988D01*
X145430883Y-104046798D01*
X145416383Y-104070688D01*
X145398790Y-104119026D01*
X145398220Y-104122256D01*
X145398220Y-104122258D01*
X145390169Y-104167918D01*
X145390169Y-104167924D01*
X145389600Y-104171148D01*
X145389600Y-107029852D01*
X145389745Y-107036496D01*
X145390031Y-107043050D01*
X145404166Y-107100815D01*
X145425906Y-107147435D01*
X145456263Y-107190789D01*
X145666211Y-107400737D01*
X145670994Y-107405316D01*
X145675830Y-107409749D01*
X145726688Y-107440617D01*
X145775026Y-107458210D01*
X145778256Y-107458780D01*
X145778258Y-107458780D01*
X145823918Y-107466831D01*
X145823924Y-107466831D01*
X145827148Y-107467400D01*
X147161852Y-107467400D01*
X147162212Y-107467392D01*
X147162225Y-107467392D01*
X147168056Y-107467265D01*
X147168092Y-107467264D01*
X147168496Y-107467255D01*
X147169311Y-107467219D01*
X147171363Y-107467130D01*
X147171364Y-107467130D01*
X147175050Y-107466969D01*
X147215439Y-107457086D01*
X147229228Y-107453712D01*
X147229230Y-107453711D01*
X147232815Y-107452834D01*
X147279435Y-107431094D01*
X147322789Y-107400737D01*
X147405737Y-107317789D01*
X147409241Y-107314129D01*
X147410031Y-107313304D01*
X147410044Y-107313290D01*
X147410316Y-107313006D01*
X147414749Y-107308170D01*
X147445617Y-107257312D01*
X147463210Y-107208974D01*
X147463780Y-107205742D01*
X147471831Y-107160082D01*
X147471831Y-107160076D01*
X147472400Y-107156852D01*
X147472400Y-106531189D01*
X147489993Y-106482851D01*
X147534542Y-106457131D01*
X147547600Y-106455989D01*
X150119792Y-106455989D01*
X150168130Y-106473582D01*
X150172966Y-106478015D01*
X150320574Y-106625623D01*
X150342314Y-106672243D01*
X150342600Y-106678797D01*
X150342600Y-107116527D01*
X150325007Y-107164865D01*
X150280458Y-107190585D01*
X150229800Y-107181652D01*
X150200396Y-107150667D01*
X150172228Y-107095384D01*
X150172227Y-107095383D01*
X150169539Y-107090107D01*
X150084893Y-107005461D01*
X149978233Y-106951115D01*
X149860000Y-106932389D01*
X149741767Y-106951115D01*
X149635107Y-107005461D01*
X149550461Y-107090107D01*
X149547773Y-107095383D01*
X149547772Y-107095384D01*
X149537712Y-107115129D01*
X149496115Y-107196767D01*
X149495189Y-107202614D01*
X149478469Y-107308184D01*
X149477389Y-107315000D01*
X149478315Y-107320847D01*
X149479704Y-107329614D01*
X149496115Y-107433233D01*
X149550461Y-107539893D01*
X149635107Y-107624539D01*
X149741767Y-107678885D01*
X149800884Y-107688248D01*
X149847240Y-107695590D01*
X149860000Y-107697611D01*
X149872761Y-107695590D01*
X149923255Y-107705408D01*
X149937695Y-107716691D01*
X151339133Y-109118130D01*
X152740370Y-110519367D01*
X152743080Y-110522222D01*
X152770330Y-110552486D01*
X152777550Y-110555700D01*
X152777549Y-110555700D01*
X152792934Y-110562550D01*
X152803302Y-110568179D01*
X152824064Y-110581662D01*
X152831868Y-110582898D01*
X152831870Y-110582899D01*
X152832593Y-110583013D01*
X152851412Y-110588587D01*
X152859303Y-110592100D01*
X152884053Y-110592100D01*
X152895817Y-110593026D01*
X152912451Y-110595661D01*
X152912453Y-110595661D01*
X152920258Y-110596897D01*
X152927890Y-110594852D01*
X152927891Y-110594852D01*
X152928599Y-110594662D01*
X152948062Y-110592100D01*
X154603520Y-110592100D01*
X154651858Y-110609693D01*
X154656694Y-110614126D01*
X154715107Y-110672539D01*
X154720383Y-110675227D01*
X154720384Y-110675228D01*
X154754579Y-110692651D01*
X154821767Y-110726885D01*
X154940000Y-110745611D01*
X155058233Y-110726885D01*
X155125421Y-110692651D01*
X155159616Y-110675228D01*
X155159617Y-110675227D01*
X155164893Y-110672539D01*
X155249539Y-110587893D01*
X155303885Y-110481233D01*
X155322611Y-110363000D01*
X155303885Y-110244767D01*
X155249539Y-110138107D01*
X155164893Y-110053461D01*
X155058233Y-109999115D01*
X154940000Y-109980389D01*
X154821767Y-109999115D01*
X154715107Y-110053461D01*
X154656694Y-110111874D01*
X154610074Y-110133614D01*
X154603520Y-110133900D01*
X153034044Y-110133900D01*
X152985706Y-110116307D01*
X152980870Y-110111874D01*
X152115770Y-109246774D01*
X152094030Y-109200154D01*
X152107344Y-109150467D01*
X152149481Y-109120962D01*
X152168944Y-109118400D01*
X152622852Y-109118400D01*
X152623212Y-109118392D01*
X152623225Y-109118392D01*
X152629056Y-109118265D01*
X152629092Y-109118264D01*
X152629496Y-109118255D01*
X152630311Y-109118219D01*
X152632363Y-109118130D01*
X152632364Y-109118130D01*
X152636050Y-109117969D01*
X152664932Y-109110902D01*
X152690228Y-109104712D01*
X152690230Y-109104711D01*
X152693815Y-109103834D01*
X152740435Y-109082094D01*
X152783789Y-109051737D01*
X152866737Y-108968789D01*
X152871316Y-108964006D01*
X152875749Y-108959170D01*
X152906617Y-108908312D01*
X152924210Y-108859974D01*
X152926313Y-108848045D01*
X152932831Y-108811082D01*
X152932831Y-108811076D01*
X152933400Y-108807852D01*
X152933400Y-104215200D01*
X152932821Y-104201922D01*
X152931679Y-104188864D01*
X152927128Y-104174430D01*
X152913075Y-104129856D01*
X152913074Y-104129854D01*
X152911841Y-104125943D01*
X152909714Y-104122258D01*
X152886939Y-104082811D01*
X152886121Y-104081394D01*
X152870882Y-104059631D01*
X152865495Y-104055859D01*
X152865493Y-104055857D01*
X152818549Y-104022988D01*
X152806260Y-104014383D01*
X152757922Y-103996790D01*
X152754692Y-103996220D01*
X152754690Y-103996220D01*
X152709030Y-103988169D01*
X152709024Y-103988169D01*
X152705800Y-103987600D01*
X151072948Y-103987600D01*
X151024610Y-103970007D01*
X151019774Y-103965574D01*
X150449315Y-103395115D01*
X149878298Y-102824099D01*
X149856558Y-102777479D01*
X149869872Y-102727792D01*
X149878298Y-102717751D01*
X151062060Y-101533989D01*
X156584571Y-101533989D01*
X156597559Y-101609573D01*
X156600011Y-101617903D01*
X156665281Y-101771298D01*
X156669584Y-101778841D01*
X156768393Y-101913110D01*
X156774312Y-101919457D01*
X156901362Y-102027394D01*
X156908586Y-102032212D01*
X157057061Y-102108027D01*
X157065189Y-102111049D01*
X157228121Y-102150918D01*
X157234705Y-102151920D01*
X157241290Y-102152329D01*
X157243602Y-102152400D01*
X157459741Y-102152400D01*
X157469898Y-102148703D01*
X157473000Y-102143331D01*
X157473000Y-102139141D01*
X157727000Y-102139141D01*
X157730697Y-102149298D01*
X157736069Y-102152400D01*
X157916756Y-102152400D01*
X157921094Y-102152148D01*
X158044926Y-102137710D01*
X158053379Y-102135712D01*
X158210080Y-102078833D01*
X158217838Y-102074948D01*
X158357261Y-101983538D01*
X158363916Y-101977973D01*
X158478571Y-101856942D01*
X158483763Y-101850002D01*
X158567500Y-101705836D01*
X158570960Y-101697879D01*
X158619284Y-101538327D01*
X158619407Y-101537642D01*
X158617111Y-101529868D01*
X158612787Y-101527000D01*
X157740259Y-101527000D01*
X157730102Y-101530697D01*
X157727000Y-101536069D01*
X157727000Y-102139141D01*
X157473000Y-102139141D01*
X157473000Y-101540259D01*
X157469303Y-101530102D01*
X157463931Y-101527000D01*
X156596629Y-101527000D01*
X156586472Y-101530697D01*
X156584571Y-101533989D01*
X151062060Y-101533989D01*
X151333691Y-101262358D01*
X156580593Y-101262358D01*
X156582889Y-101270132D01*
X156587213Y-101273000D01*
X157459741Y-101273000D01*
X157469898Y-101269303D01*
X157473000Y-101263931D01*
X157473000Y-101259741D01*
X157727000Y-101259741D01*
X157730697Y-101269898D01*
X157736069Y-101273000D01*
X158603371Y-101273000D01*
X158613528Y-101269303D01*
X158615429Y-101266011D01*
X158602441Y-101190427D01*
X158599989Y-101182097D01*
X158534719Y-101028702D01*
X158530416Y-101021159D01*
X158431607Y-100886890D01*
X158425688Y-100880543D01*
X158298638Y-100772606D01*
X158291414Y-100767788D01*
X158142939Y-100691973D01*
X158134811Y-100688951D01*
X157971879Y-100649082D01*
X157965295Y-100648080D01*
X157958710Y-100647671D01*
X157956398Y-100647600D01*
X157740259Y-100647600D01*
X157730102Y-100651297D01*
X157727000Y-100656669D01*
X157727000Y-101259741D01*
X157473000Y-101259741D01*
X157473000Y-100660859D01*
X157469303Y-100650702D01*
X157463931Y-100647600D01*
X157283244Y-100647600D01*
X157278906Y-100647852D01*
X157155074Y-100662290D01*
X157146621Y-100664288D01*
X156989920Y-100721167D01*
X156982162Y-100725052D01*
X156842739Y-100816462D01*
X156836084Y-100822027D01*
X156721429Y-100943058D01*
X156716237Y-100949998D01*
X156632500Y-101094164D01*
X156629040Y-101102121D01*
X156580716Y-101261673D01*
X156580593Y-101262358D01*
X151333691Y-101262358D01*
X152005916Y-100590133D01*
X152008189Y-100587952D01*
X152049472Y-100549991D01*
X152049474Y-100549989D01*
X152053245Y-100546521D01*
X152055945Y-100542167D01*
X152055947Y-100542164D01*
X152076649Y-100508774D01*
X152080662Y-100502935D01*
X152104414Y-100471643D01*
X152107514Y-100467559D01*
X152114425Y-100450104D01*
X152120432Y-100438161D01*
X152127624Y-100426561D01*
X152127625Y-100426558D01*
X152130328Y-100422199D01*
X152133946Y-100409748D01*
X152142721Y-100379542D01*
X152145016Y-100372839D01*
X152159475Y-100336319D01*
X152161363Y-100331551D01*
X152163326Y-100312879D01*
X152165899Y-100299764D01*
X152170038Y-100285515D01*
X152171139Y-100281727D01*
X152171900Y-100271364D01*
X152171900Y-100235243D01*
X152172312Y-100227382D01*
X152176118Y-100191171D01*
X152176654Y-100186072D01*
X152172953Y-100164190D01*
X152171900Y-100151650D01*
X152171900Y-99440993D01*
X156568084Y-99440993D01*
X156597816Y-99614022D01*
X156666556Y-99775570D01*
X156770616Y-99916972D01*
X156904414Y-100030642D01*
X156908306Y-100032629D01*
X156908307Y-100032630D01*
X157056886Y-100108498D01*
X157056888Y-100108499D01*
X157060774Y-100110483D01*
X157231307Y-100152212D01*
X157234643Y-100152419D01*
X157241244Y-100152829D01*
X157241259Y-100152829D01*
X157242396Y-100152900D01*
X157918958Y-100152900D01*
X157921118Y-100152648D01*
X157921121Y-100152648D01*
X157963852Y-100147666D01*
X158049383Y-100137694D01*
X158053492Y-100136202D01*
X158053494Y-100136202D01*
X158210306Y-100079282D01*
X158210308Y-100079281D01*
X158214413Y-100077791D01*
X158326141Y-100004539D01*
X158357584Y-99983924D01*
X158357586Y-99983923D01*
X158361235Y-99981530D01*
X158481974Y-99854075D01*
X158527574Y-99775570D01*
X158567955Y-99706048D01*
X158567955Y-99706047D01*
X158570154Y-99702262D01*
X158572354Y-99695000D01*
X158619778Y-99538419D01*
X158619778Y-99538417D01*
X158621045Y-99534235D01*
X158624697Y-99475384D01*
X158631646Y-99363366D01*
X158631646Y-99363362D01*
X158631916Y-99359007D01*
X158611331Y-99239210D01*
X158602924Y-99190282D01*
X158602923Y-99190278D01*
X158602184Y-99185978D01*
X158563388Y-99094801D01*
X158535155Y-99028451D01*
X158533444Y-99024430D01*
X158455251Y-98918177D01*
X158431974Y-98886547D01*
X158431973Y-98886545D01*
X158429384Y-98883028D01*
X158295586Y-98769358D01*
X158211906Y-98726629D01*
X158143114Y-98691502D01*
X158143112Y-98691501D01*
X158139226Y-98689517D01*
X157968693Y-98647788D01*
X157965357Y-98647581D01*
X157958756Y-98647171D01*
X157958741Y-98647171D01*
X157957604Y-98647100D01*
X157281042Y-98647100D01*
X157278882Y-98647352D01*
X157278879Y-98647352D01*
X157236148Y-98652334D01*
X157150617Y-98662306D01*
X157146508Y-98663798D01*
X157146506Y-98663798D01*
X156989694Y-98720718D01*
X156989692Y-98720719D01*
X156985587Y-98722209D01*
X156966857Y-98734489D01*
X156860770Y-98804043D01*
X156838765Y-98818470D01*
X156718026Y-98945925D01*
X156715832Y-98949703D01*
X156715830Y-98949705D01*
X156648453Y-99065703D01*
X156629846Y-99097738D01*
X156628578Y-99101925D01*
X156628577Y-99101927D01*
X156580222Y-99261581D01*
X156578955Y-99265765D01*
X156578685Y-99270122D01*
X156578684Y-99270126D01*
X156571696Y-99382772D01*
X156568084Y-99440993D01*
X152171900Y-99440993D01*
X152171900Y-99277352D01*
X152157068Y-99169074D01*
X152110734Y-99062003D01*
X152101010Y-99039532D01*
X152101010Y-99039531D01*
X152098973Y-99034825D01*
X152006916Y-98921144D01*
X151887679Y-98836407D01*
X151882853Y-98834670D01*
X151882852Y-98834669D01*
X151754870Y-98788593D01*
X151750048Y-98786857D01*
X151604161Y-98776143D01*
X151599133Y-98777157D01*
X151599130Y-98777157D01*
X151478775Y-98801426D01*
X151460767Y-98805057D01*
X151330431Y-98871466D01*
X151316075Y-98884667D01*
X151226528Y-98967009D01*
X151226526Y-98967011D01*
X151222755Y-98970479D01*
X151220055Y-98974833D01*
X151220053Y-98974836D01*
X151161868Y-99068679D01*
X151145672Y-99094801D01*
X151144242Y-99099722D01*
X151144241Y-99099725D01*
X151117932Y-99190282D01*
X151104861Y-99235273D01*
X151104100Y-99245636D01*
X151104100Y-99950703D01*
X151086507Y-99999041D01*
X151082074Y-100003877D01*
X149123249Y-101962703D01*
X149076629Y-101984443D01*
X149026942Y-101971129D01*
X149016901Y-101962703D01*
X147463946Y-100409748D01*
X147463940Y-100409741D01*
X147431718Y-100377519D01*
X147427966Y-100373482D01*
X147397820Y-100338557D01*
X147397819Y-100338556D01*
X147394469Y-100334675D01*
X147384049Y-100327752D01*
X147372490Y-100318291D01*
X147210288Y-100156089D01*
X147188548Y-100109469D01*
X147201862Y-100059782D01*
X147229322Y-100035911D01*
X147285616Y-100007228D01*
X147285617Y-100007227D01*
X147290893Y-100004539D01*
X147375539Y-99919893D01*
X147378821Y-99913453D01*
X147427198Y-99818506D01*
X147429885Y-99813233D01*
X147448611Y-99695000D01*
X147429885Y-99576767D01*
X147375539Y-99470107D01*
X147290893Y-99385461D01*
X147184233Y-99331115D01*
X147066000Y-99312389D01*
X146947767Y-99331115D01*
X146841107Y-99385461D01*
X146756461Y-99470107D01*
X146753773Y-99475383D01*
X146753772Y-99475384D01*
X146725089Y-99531678D01*
X146687468Y-99566760D01*
X146636099Y-99569452D01*
X146604911Y-99550712D01*
X145369798Y-98315599D01*
X145348058Y-98268979D01*
X145361372Y-98219292D01*
X145369798Y-98209251D01*
X145965027Y-97614022D01*
X146138056Y-97440993D01*
X156568084Y-97440993D01*
X156576990Y-97492823D01*
X156592214Y-97581419D01*
X156597816Y-97614022D01*
X156666556Y-97775570D01*
X156770616Y-97916972D01*
X156904414Y-98030642D01*
X156908306Y-98032629D01*
X156908307Y-98032630D01*
X157056886Y-98108498D01*
X157056888Y-98108499D01*
X157060774Y-98110483D01*
X157231307Y-98152212D01*
X157234643Y-98152419D01*
X157241244Y-98152829D01*
X157241259Y-98152829D01*
X157242396Y-98152900D01*
X157918958Y-98152900D01*
X157921118Y-98152648D01*
X157921121Y-98152648D01*
X157963852Y-98147666D01*
X158049383Y-98137694D01*
X158053492Y-98136202D01*
X158053494Y-98136202D01*
X158210306Y-98079282D01*
X158210308Y-98079281D01*
X158214413Y-98077791D01*
X158344273Y-97992651D01*
X158357584Y-97983924D01*
X158357586Y-97983923D01*
X158361235Y-97981530D01*
X158402971Y-97937473D01*
X158478969Y-97857247D01*
X158481974Y-97854075D01*
X158525009Y-97779986D01*
X158567955Y-97706048D01*
X158567955Y-97706047D01*
X158570154Y-97702262D01*
X158574092Y-97689262D01*
X158619778Y-97538419D01*
X158619778Y-97538417D01*
X158621045Y-97534235D01*
X158622712Y-97507376D01*
X158631646Y-97363366D01*
X158631646Y-97363362D01*
X158631916Y-97359007D01*
X158613682Y-97252893D01*
X158602924Y-97190282D01*
X158602923Y-97190278D01*
X158602184Y-97185978D01*
X158533444Y-97024430D01*
X158429384Y-96883028D01*
X158295586Y-96769358D01*
X158291693Y-96767370D01*
X158143114Y-96691502D01*
X158143112Y-96691501D01*
X158139226Y-96689517D01*
X157968693Y-96647788D01*
X157965357Y-96647581D01*
X157958756Y-96647171D01*
X157958741Y-96647171D01*
X157957604Y-96647100D01*
X157281042Y-96647100D01*
X157278882Y-96647352D01*
X157278879Y-96647352D01*
X157236148Y-96652334D01*
X157150617Y-96662306D01*
X157146508Y-96663798D01*
X157146506Y-96663798D01*
X156989694Y-96720718D01*
X156989692Y-96720719D01*
X156985587Y-96722209D01*
X156981936Y-96724603D01*
X156854149Y-96808384D01*
X156838765Y-96818470D01*
X156718026Y-96945925D01*
X156715832Y-96949703D01*
X156715830Y-96949705D01*
X156670353Y-97028000D01*
X156629846Y-97097738D01*
X156628578Y-97101925D01*
X156628577Y-97101927D01*
X156580222Y-97261581D01*
X156578955Y-97265765D01*
X156578685Y-97270122D01*
X156578684Y-97270126D01*
X156568802Y-97429413D01*
X156568084Y-97440993D01*
X146138056Y-97440993D01*
X146560934Y-97018114D01*
X146607554Y-96996374D01*
X146657241Y-97009688D01*
X146686746Y-97051825D01*
X146688381Y-97059521D01*
X146702115Y-97146233D01*
X146756461Y-97252893D01*
X146841107Y-97337539D01*
X146846383Y-97340227D01*
X146846384Y-97340228D01*
X146874793Y-97354703D01*
X146947767Y-97391885D01*
X147066000Y-97410611D01*
X147184233Y-97391885D01*
X147257207Y-97354703D01*
X147285616Y-97340228D01*
X147285617Y-97340227D01*
X147290893Y-97337539D01*
X147375539Y-97252893D01*
X147429885Y-97146233D01*
X147448611Y-97028000D01*
X147429885Y-96909767D01*
X147375539Y-96803107D01*
X147290893Y-96718461D01*
X147184233Y-96664115D01*
X147097524Y-96650382D01*
X147052534Y-96625444D01*
X147034099Y-96577421D01*
X147050846Y-96528783D01*
X147056114Y-96522934D01*
X147773122Y-95805926D01*
X147819742Y-95784186D01*
X147826296Y-95783900D01*
X150023648Y-95783900D01*
X150026187Y-95783552D01*
X150026190Y-95783552D01*
X150039652Y-95781708D01*
X156572100Y-95781708D01*
X156587043Y-95876055D01*
X156617764Y-95936349D01*
X156641676Y-95983278D01*
X156644984Y-95989771D01*
X156735229Y-96080016D01*
X156740505Y-96082704D01*
X156740506Y-96082705D01*
X156788344Y-96107079D01*
X156848945Y-96137957D01*
X156854792Y-96138883D01*
X156940374Y-96152438D01*
X156940376Y-96152438D01*
X156943292Y-96152900D01*
X158256708Y-96152900D01*
X158259624Y-96152438D01*
X158259626Y-96152438D01*
X158345208Y-96138883D01*
X158351055Y-96137957D01*
X158411656Y-96107079D01*
X158459494Y-96082705D01*
X158459495Y-96082704D01*
X158464771Y-96080016D01*
X158555016Y-95989771D01*
X158558325Y-95983278D01*
X158582236Y-95936349D01*
X158612957Y-95876055D01*
X158627900Y-95781708D01*
X158627900Y-95018292D01*
X158612957Y-94923945D01*
X158562604Y-94825121D01*
X158557705Y-94815506D01*
X158557704Y-94815505D01*
X158555016Y-94810229D01*
X158464771Y-94719984D01*
X158457345Y-94716200D01*
X158411656Y-94692921D01*
X158351055Y-94662043D01*
X158320040Y-94657131D01*
X158259626Y-94647562D01*
X158259624Y-94647562D01*
X158256708Y-94647100D01*
X156943292Y-94647100D01*
X156940376Y-94647562D01*
X156940374Y-94647562D01*
X156879960Y-94657131D01*
X156848945Y-94662043D01*
X156788344Y-94692921D01*
X156742656Y-94716200D01*
X156735229Y-94719984D01*
X156644984Y-94810229D01*
X156642296Y-94815505D01*
X156642295Y-94815506D01*
X156637396Y-94825121D01*
X156587043Y-94923945D01*
X156572100Y-95018292D01*
X156572100Y-95781708D01*
X150039652Y-95781708D01*
X150126846Y-95769764D01*
X150126847Y-95769764D01*
X150131926Y-95769068D01*
X150266175Y-95710973D01*
X150379856Y-95618916D01*
X150464593Y-95499679D01*
X150474865Y-95471149D01*
X150512407Y-95366870D01*
X150514143Y-95362048D01*
X150524857Y-95216161D01*
X150522487Y-95204404D01*
X150496957Y-95077796D01*
X150495943Y-95072767D01*
X150429534Y-94942431D01*
X150370157Y-94877859D01*
X150333991Y-94838528D01*
X150333989Y-94838526D01*
X150330521Y-94834755D01*
X150326167Y-94832055D01*
X150326164Y-94832053D01*
X150210557Y-94760374D01*
X150206199Y-94757672D01*
X150201278Y-94756242D01*
X150201275Y-94756241D01*
X150069517Y-94717962D01*
X150069516Y-94717962D01*
X150065727Y-94716861D01*
X150059750Y-94716422D01*
X150056728Y-94716200D01*
X150056724Y-94716200D01*
X150055364Y-94716100D01*
X147587565Y-94716100D01*
X147584416Y-94716034D01*
X147523283Y-94713472D01*
X147518295Y-94714642D01*
X147518294Y-94714642D01*
X147480044Y-94723614D01*
X147473076Y-94724905D01*
X147429074Y-94730932D01*
X147411838Y-94738391D01*
X147399151Y-94742587D01*
X147380868Y-94746875D01*
X147356313Y-94760374D01*
X147341952Y-94768269D01*
X147335590Y-94771386D01*
X147299526Y-94786992D01*
X147299522Y-94786994D01*
X147294825Y-94789027D01*
X147290844Y-94792251D01*
X147290842Y-94792252D01*
X147280227Y-94800847D01*
X147269134Y-94808301D01*
X147262269Y-94812075D01*
X147252682Y-94817346D01*
X147244816Y-94824135D01*
X147219277Y-94849674D01*
X147213429Y-94854940D01*
X147181144Y-94881084D01*
X147178177Y-94885259D01*
X147178176Y-94885260D01*
X147168286Y-94899177D01*
X147160162Y-94908789D01*
X144614750Y-97454202D01*
X144568130Y-97475942D01*
X144518443Y-97462628D01*
X144508402Y-97454202D01*
X144446926Y-97392726D01*
X144425186Y-97346106D01*
X144424900Y-97339552D01*
X144424900Y-96034798D01*
X144425102Y-96029290D01*
X144428857Y-95978161D01*
X144426384Y-95965895D01*
X144424900Y-95951033D01*
X144424900Y-95263565D01*
X144424966Y-95260416D01*
X144426606Y-95221278D01*
X144427528Y-95199283D01*
X144417386Y-95156044D01*
X144416095Y-95149076D01*
X144410764Y-95110155D01*
X144410068Y-95105074D01*
X144402609Y-95087838D01*
X144398413Y-95075150D01*
X144397854Y-95072767D01*
X144394125Y-95056868D01*
X144380208Y-95031553D01*
X144372731Y-95017952D01*
X144369614Y-95011590D01*
X144354008Y-94975526D01*
X144354006Y-94975522D01*
X144351973Y-94970825D01*
X144348748Y-94966842D01*
X144340153Y-94956227D01*
X144332699Y-94945134D01*
X144325551Y-94932133D01*
X144323654Y-94928682D01*
X144316865Y-94920816D01*
X144291326Y-94895277D01*
X144286059Y-94889428D01*
X144279302Y-94881084D01*
X144259916Y-94857144D01*
X144255742Y-94854178D01*
X144255736Y-94854172D01*
X144241826Y-94844287D01*
X144232214Y-94836165D01*
X143897133Y-94501085D01*
X143894952Y-94498811D01*
X143856991Y-94457528D01*
X143856989Y-94457526D01*
X143853521Y-94453755D01*
X143826506Y-94437005D01*
X143815773Y-94430350D01*
X143809934Y-94426337D01*
X143778642Y-94402585D01*
X143774558Y-94399485D01*
X143757097Y-94392571D01*
X143745161Y-94386568D01*
X143729199Y-94376672D01*
X143686548Y-94364281D01*
X143679847Y-94361986D01*
X143643317Y-94347523D01*
X143638551Y-94345636D01*
X143633453Y-94345100D01*
X143633452Y-94345100D01*
X143629488Y-94344684D01*
X143619877Y-94343673D01*
X143606767Y-94341102D01*
X143588727Y-94335861D01*
X143582750Y-94335422D01*
X143579728Y-94335200D01*
X143579724Y-94335200D01*
X143578364Y-94335100D01*
X143542245Y-94335100D01*
X143534385Y-94334688D01*
X143516963Y-94332857D01*
X143493072Y-94330346D01*
X143488017Y-94331201D01*
X143471191Y-94334047D01*
X143458650Y-94335100D01*
X142711352Y-94335100D01*
X142708813Y-94335448D01*
X142708810Y-94335448D01*
X142608154Y-94349236D01*
X142608153Y-94349236D01*
X142603074Y-94349932D01*
X142598369Y-94351968D01*
X142481401Y-94402585D01*
X142468825Y-94408027D01*
X142355144Y-94500084D01*
X142270407Y-94619321D01*
X142268670Y-94624147D01*
X142268669Y-94624148D01*
X142235395Y-94716572D01*
X142220857Y-94756952D01*
X142210143Y-94902839D01*
X139421100Y-94902839D01*
X139421100Y-90194993D01*
X150648084Y-90194993D01*
X150662671Y-90279885D01*
X150669168Y-90317691D01*
X150677816Y-90368022D01*
X150679526Y-90372040D01*
X150679526Y-90372041D01*
X150725267Y-90479539D01*
X150746556Y-90529570D01*
X150850616Y-90670972D01*
X150984414Y-90784642D01*
X150988306Y-90786629D01*
X150988307Y-90786630D01*
X151136886Y-90862498D01*
X151136888Y-90862499D01*
X151140774Y-90864483D01*
X151311307Y-90906212D01*
X151314643Y-90906419D01*
X151321244Y-90906829D01*
X151321259Y-90906829D01*
X151322396Y-90906900D01*
X151998958Y-90906900D01*
X152001118Y-90906648D01*
X152001121Y-90906648D01*
X152043852Y-90901666D01*
X152129383Y-90891694D01*
X152133492Y-90890202D01*
X152133494Y-90890202D01*
X152290306Y-90833282D01*
X152290308Y-90833281D01*
X152294413Y-90831791D01*
X152441235Y-90735530D01*
X152561974Y-90608075D01*
X152590503Y-90558960D01*
X152647955Y-90460048D01*
X152647955Y-90460047D01*
X152650154Y-90456262D01*
X152652251Y-90449340D01*
X152699778Y-90292419D01*
X152699778Y-90292417D01*
X152701045Y-90288235D01*
X152702775Y-90260360D01*
X152711646Y-90117366D01*
X152711646Y-90117362D01*
X152711916Y-90113007D01*
X152683972Y-89950384D01*
X152682924Y-89944282D01*
X152682923Y-89944278D01*
X152682184Y-89939978D01*
X152613444Y-89778430D01*
X152515166Y-89644885D01*
X152511974Y-89640547D01*
X152511973Y-89640545D01*
X152509384Y-89637028D01*
X152375586Y-89523358D01*
X152357692Y-89514221D01*
X152223114Y-89445502D01*
X152223112Y-89445501D01*
X152219226Y-89443517D01*
X152048693Y-89401788D01*
X152045357Y-89401581D01*
X152038756Y-89401171D01*
X152038741Y-89401171D01*
X152037604Y-89401100D01*
X151361042Y-89401100D01*
X151358882Y-89401352D01*
X151358879Y-89401352D01*
X151316148Y-89406334D01*
X151230617Y-89416306D01*
X151226508Y-89417798D01*
X151226506Y-89417798D01*
X151069694Y-89474718D01*
X151069692Y-89474719D01*
X151065587Y-89476209D01*
X150918765Y-89572470D01*
X150798026Y-89699925D01*
X150795832Y-89703703D01*
X150795830Y-89703705D01*
X150736884Y-89805189D01*
X150709846Y-89851738D01*
X150708578Y-89855925D01*
X150708577Y-89855927D01*
X150660222Y-90015581D01*
X150658955Y-90019765D01*
X150658685Y-90024122D01*
X150658684Y-90024126D01*
X150649169Y-90177498D01*
X150648084Y-90194993D01*
X139421100Y-90194993D01*
X139421100Y-88601480D01*
X139438693Y-88553142D01*
X139443126Y-88548306D01*
X139455724Y-88535708D01*
X150652100Y-88535708D01*
X150667043Y-88630055D01*
X150724984Y-88743771D01*
X150815229Y-88834016D01*
X150928945Y-88891957D01*
X150934792Y-88892883D01*
X151020374Y-88906438D01*
X151020376Y-88906438D01*
X151023292Y-88906900D01*
X152336708Y-88906900D01*
X152339624Y-88906438D01*
X152339626Y-88906438D01*
X152425208Y-88892883D01*
X152431055Y-88891957D01*
X152544771Y-88834016D01*
X152635016Y-88743771D01*
X152692957Y-88630055D01*
X152707900Y-88535708D01*
X152707900Y-88200000D01*
X155794551Y-88200000D01*
X155794783Y-88202948D01*
X155797377Y-88235901D01*
X155814317Y-88451148D01*
X155873127Y-88696111D01*
X155874257Y-88698840D01*
X155874259Y-88698845D01*
X155892868Y-88743771D01*
X155969534Y-88928859D01*
X155971079Y-88931381D01*
X155971081Y-88931384D01*
X155998208Y-88975651D01*
X156101164Y-89143659D01*
X156264776Y-89335224D01*
X156267017Y-89337138D01*
X156273226Y-89342441D01*
X156456341Y-89498836D01*
X156458864Y-89500382D01*
X156668616Y-89628919D01*
X156668619Y-89628921D01*
X156671141Y-89630466D01*
X156715437Y-89648814D01*
X156901155Y-89725741D01*
X156901160Y-89725743D01*
X156903889Y-89726873D01*
X156906766Y-89727564D01*
X156906770Y-89727565D01*
X157103979Y-89774910D01*
X157148852Y-89785683D01*
X157151796Y-89785915D01*
X157151798Y-89785915D01*
X157335640Y-89800384D01*
X157335648Y-89800384D01*
X157337118Y-89800500D01*
X157462882Y-89800500D01*
X157464352Y-89800384D01*
X157464360Y-89800384D01*
X157648202Y-89785915D01*
X157648204Y-89785915D01*
X157651148Y-89785683D01*
X157696021Y-89774910D01*
X157893230Y-89727565D01*
X157893234Y-89727564D01*
X157896111Y-89726873D01*
X157898840Y-89725743D01*
X157898845Y-89725741D01*
X158084563Y-89648814D01*
X158128859Y-89630466D01*
X158131381Y-89628921D01*
X158131384Y-89628919D01*
X158341136Y-89500382D01*
X158343659Y-89498836D01*
X158526774Y-89342441D01*
X158532983Y-89337138D01*
X158535224Y-89335224D01*
X158698836Y-89143659D01*
X158801792Y-88975651D01*
X158828919Y-88931384D01*
X158828921Y-88931381D01*
X158830466Y-88928859D01*
X158907132Y-88743771D01*
X158925741Y-88698845D01*
X158925743Y-88698840D01*
X158926873Y-88696111D01*
X158985683Y-88451148D01*
X159002624Y-88235901D01*
X159005217Y-88202948D01*
X159005449Y-88200000D01*
X158985683Y-87948852D01*
X158943295Y-87772292D01*
X158927565Y-87706770D01*
X158927564Y-87706766D01*
X158926873Y-87703889D01*
X158830466Y-87471141D01*
X158798349Y-87418730D01*
X158700382Y-87258864D01*
X158698836Y-87256341D01*
X158535224Y-87064776D01*
X158343659Y-86901164D01*
X158282466Y-86863665D01*
X158131384Y-86771081D01*
X158131381Y-86771079D01*
X158128859Y-86769534D01*
X157996613Y-86714756D01*
X157898845Y-86674259D01*
X157898840Y-86674257D01*
X157896111Y-86673127D01*
X157893234Y-86672436D01*
X157893230Y-86672435D01*
X157654022Y-86615007D01*
X157651148Y-86614317D01*
X157648204Y-86614085D01*
X157648202Y-86614085D01*
X157464360Y-86599616D01*
X157464352Y-86599616D01*
X157462882Y-86599500D01*
X157337118Y-86599500D01*
X157335648Y-86599616D01*
X157335640Y-86599616D01*
X157151798Y-86614085D01*
X157151796Y-86614085D01*
X157148852Y-86614317D01*
X157145978Y-86615007D01*
X156906770Y-86672435D01*
X156906766Y-86672436D01*
X156903889Y-86673127D01*
X156901160Y-86674257D01*
X156901155Y-86674259D01*
X156803387Y-86714756D01*
X156671141Y-86769534D01*
X156668619Y-86771079D01*
X156668616Y-86771081D01*
X156517534Y-86863665D01*
X156456341Y-86901164D01*
X156264776Y-87064776D01*
X156101164Y-87256341D01*
X156099618Y-87258864D01*
X156001652Y-87418730D01*
X155969534Y-87471141D01*
X155873127Y-87703889D01*
X155872436Y-87706766D01*
X155872435Y-87706770D01*
X155856705Y-87772292D01*
X155814317Y-87948852D01*
X155794551Y-88200000D01*
X152707900Y-88200000D01*
X152707900Y-87772292D01*
X152692957Y-87677945D01*
X152635016Y-87564229D01*
X152544771Y-87473984D01*
X152539192Y-87471141D01*
X152491656Y-87446921D01*
X152431055Y-87416043D01*
X152384497Y-87408669D01*
X152339626Y-87401562D01*
X152339624Y-87401562D01*
X152336708Y-87401100D01*
X151023292Y-87401100D01*
X151020376Y-87401562D01*
X151020374Y-87401562D01*
X150975503Y-87408669D01*
X150928945Y-87416043D01*
X150868344Y-87446921D01*
X150820809Y-87471141D01*
X150815229Y-87473984D01*
X150724984Y-87564229D01*
X150667043Y-87677945D01*
X150652100Y-87772292D01*
X150652100Y-88535708D01*
X139455724Y-88535708D01*
X139501539Y-88489893D01*
X139555885Y-88383233D01*
X139574611Y-88265000D01*
X139555885Y-88146767D01*
X139501539Y-88040107D01*
X139416893Y-87955461D01*
X139310233Y-87901115D01*
X139192000Y-87882389D01*
X139073767Y-87901115D01*
X138967107Y-87955461D01*
X138882461Y-88040107D01*
X138828115Y-88146767D01*
X138809389Y-88265000D01*
X138828115Y-88383233D01*
X138882461Y-88489893D01*
X138940874Y-88548306D01*
X138962614Y-88594926D01*
X138962900Y-88601480D01*
X138962900Y-102533520D01*
X138945307Y-102581858D01*
X138940874Y-102586694D01*
X138882461Y-102645107D01*
X138828115Y-102751767D01*
X138809389Y-102870000D01*
X137516100Y-102870000D01*
X137516100Y-91694000D01*
X137920389Y-91694000D01*
X137939115Y-91812233D01*
X137993461Y-91918893D01*
X138078107Y-92003539D01*
X138184767Y-92057885D01*
X138303000Y-92076611D01*
X138421233Y-92057885D01*
X138527893Y-92003539D01*
X138612539Y-91918893D01*
X138666885Y-91812233D01*
X138685611Y-91694000D01*
X138666885Y-91575767D01*
X138612539Y-91469107D01*
X138527893Y-91384461D01*
X138421233Y-91330115D01*
X138303000Y-91311389D01*
X138184767Y-91330115D01*
X138078107Y-91384461D01*
X137993461Y-91469107D01*
X137939115Y-91575767D01*
X137920389Y-91694000D01*
X137516100Y-91694000D01*
X137516100Y-90304960D01*
X137516203Y-90301025D01*
X137517311Y-90279885D01*
X137518334Y-90260360D01*
X137509467Y-90237261D01*
X137506114Y-90225943D01*
X137504979Y-90220600D01*
X137500969Y-90201735D01*
X137496323Y-90195340D01*
X137495893Y-90194748D01*
X137486527Y-90177498D01*
X137486265Y-90176816D01*
X137486264Y-90176815D01*
X137483432Y-90169436D01*
X137465936Y-90151940D01*
X137458272Y-90142968D01*
X137448367Y-90129335D01*
X137443722Y-90122942D01*
X137436878Y-90118991D01*
X137436875Y-90118988D01*
X137436241Y-90118622D01*
X137420672Y-90106674D01*
X137307691Y-89993693D01*
X137285951Y-89947073D01*
X137286591Y-89928756D01*
X137287685Y-89921848D01*
X137287685Y-89921847D01*
X137288611Y-89916000D01*
X137269885Y-89797767D01*
X137215539Y-89691107D01*
X137130893Y-89606461D01*
X137099645Y-89590539D01*
X137059483Y-89570076D01*
X137024233Y-89552115D01*
X136906000Y-89533389D01*
X136787767Y-89552115D01*
X136752517Y-89570076D01*
X136712356Y-89590539D01*
X136681107Y-89606461D01*
X136596461Y-89691107D01*
X136542115Y-89797767D01*
X136523389Y-89916000D01*
X135919989Y-89916000D01*
X135919989Y-89723088D01*
X135937582Y-89674750D01*
X135983425Y-89648814D01*
X136002388Y-89645811D01*
X136002390Y-89645810D01*
X136008233Y-89644885D01*
X136013505Y-89642199D01*
X136109616Y-89593228D01*
X136109617Y-89593227D01*
X136114893Y-89590539D01*
X136199539Y-89505893D01*
X136215424Y-89474718D01*
X136231321Y-89443517D01*
X136253885Y-89399233D01*
X136272611Y-89281000D01*
X136253885Y-89162767D01*
X136199539Y-89056107D01*
X136114893Y-88971461D01*
X136008233Y-88917115D01*
X135890000Y-88898389D01*
X135771767Y-88917115D01*
X135665107Y-88971461D01*
X135580461Y-89056107D01*
X135526115Y-89162767D01*
X135507389Y-89281000D01*
X135508315Y-89286846D01*
X135508315Y-89286847D01*
X135509798Y-89296210D01*
X135500859Y-89342198D01*
X135501403Y-89342441D01*
X135491333Y-89365058D01*
X135485711Y-89375412D01*
X135472228Y-89396175D01*
X135470992Y-89403982D01*
X135470878Y-89404699D01*
X135465302Y-89423524D01*
X135461789Y-89431414D01*
X135461789Y-89456165D01*
X135460863Y-89467929D01*
X135459552Y-89476209D01*
X135456992Y-89492369D01*
X135063430Y-89492369D01*
X135088321Y-89443517D01*
X135110885Y-89399233D01*
X135129611Y-89281000D01*
X135110885Y-89162767D01*
X135056539Y-89056107D01*
X134971893Y-88971461D01*
X134865233Y-88917115D01*
X134747000Y-88898389D01*
X134628767Y-88917115D01*
X134522107Y-88971461D01*
X134437461Y-89056107D01*
X134383115Y-89162767D01*
X134364389Y-89281000D01*
X120015000Y-89281000D01*
X120015000Y-87096441D01*
X136552730Y-87096441D01*
X136571456Y-87214674D01*
X136625802Y-87321334D01*
X136710448Y-87405980D01*
X136715724Y-87408668D01*
X136715725Y-87408669D01*
X136735471Y-87418730D01*
X136817108Y-87460326D01*
X136822955Y-87461252D01*
X136886365Y-87471295D01*
X136935341Y-87479052D01*
X136984318Y-87471295D01*
X137047727Y-87461252D01*
X137053574Y-87460326D01*
X137135211Y-87418730D01*
X137154957Y-87408669D01*
X137154958Y-87408668D01*
X137160234Y-87405980D01*
X137244880Y-87321334D01*
X137299226Y-87214674D01*
X137317952Y-87096441D01*
X137299226Y-86978208D01*
X137244880Y-86871548D01*
X137160234Y-86786902D01*
X137132819Y-86772933D01*
X137110528Y-86761576D01*
X137053574Y-86732556D01*
X136935341Y-86713830D01*
X136817108Y-86732556D01*
X136760154Y-86761576D01*
X136737864Y-86772933D01*
X136710448Y-86786902D01*
X136625802Y-86871548D01*
X136571456Y-86978208D01*
X136552730Y-87096441D01*
X120015000Y-87096441D01*
X120015000Y-85756200D01*
X120032593Y-85707862D01*
X120077142Y-85682142D01*
X120090200Y-85681000D01*
X157364099Y-85681000D01*
X157375862Y-85681926D01*
G37*
G04 #@! TD.AperFunction*
G04 #@! TA.AperFunction,Conductor*
G36*
X147585700Y-102045222D02*
G01*
X147601274Y-102057173D01*
X148644204Y-103100102D01*
X148644210Y-103100109D01*
X148676420Y-103132319D01*
X148680173Y-103136356D01*
X148713680Y-103175175D01*
X148722518Y-103181047D01*
X148724106Y-103182102D01*
X148735665Y-103191564D01*
X149532271Y-103988169D01*
X150320574Y-104776472D01*
X150342314Y-104823092D01*
X150342600Y-104829646D01*
X150342600Y-105312989D01*
X150325007Y-105361327D01*
X150280458Y-105387047D01*
X150267400Y-105388189D01*
X147547600Y-105388189D01*
X147499262Y-105370596D01*
X147473542Y-105326047D01*
X147472400Y-105312989D01*
X147472400Y-104344929D01*
X147472602Y-104339422D01*
X147472800Y-104336728D01*
X147472800Y-104336724D01*
X147472900Y-104335364D01*
X147472900Y-102110347D01*
X147490493Y-102062009D01*
X147535042Y-102036289D01*
X147585700Y-102045222D01*
G37*
G04 #@! TD.AperFunction*
G04 #@! TA.AperFunction,Conductor*
G36*
X152754138Y-104157593D02*
G01*
X152779858Y-104202142D01*
X152781000Y-104215200D01*
X152781000Y-108807852D01*
X152763407Y-108856190D01*
X152758974Y-108861026D01*
X152676026Y-108943974D01*
X152629406Y-108965714D01*
X152622852Y-108966000D01*
X151923148Y-108966000D01*
X151874810Y-108948407D01*
X151869974Y-108943974D01*
X150517026Y-107591026D01*
X150495286Y-107544406D01*
X150495000Y-107537852D01*
X150495000Y-104425148D01*
X150512593Y-104376810D01*
X150517026Y-104371974D01*
X150726974Y-104162026D01*
X150773594Y-104140286D01*
X150780148Y-104140000D01*
X152705800Y-104140000D01*
X152754138Y-104157593D01*
G37*
G04 #@! TD.AperFunction*
G04 #@! TA.AperFunction,Conductor*
G36*
X147083190Y-103522593D02*
G01*
X147088026Y-103527026D01*
X147297974Y-103736974D01*
X147319714Y-103783594D01*
X147320000Y-103790148D01*
X147320000Y-107156852D01*
X147302407Y-107205190D01*
X147297974Y-107210026D01*
X147215026Y-107292974D01*
X147168406Y-107314714D01*
X147161852Y-107315000D01*
X145827148Y-107315000D01*
X145778810Y-107297407D01*
X145773974Y-107292974D01*
X145564026Y-107083026D01*
X145542286Y-107036406D01*
X145542000Y-107029852D01*
X145542000Y-104171148D01*
X145559593Y-104122810D01*
X145564026Y-104117974D01*
X146154974Y-103527026D01*
X146201594Y-103505286D01*
X146208148Y-103505000D01*
X147034852Y-103505000D01*
X147083190Y-103522593D01*
G37*
G04 #@! TD.AperFunction*
G04 #@! TA.AperFunction,Conductor*
G36*
X153433190Y-113555593D02*
G01*
X153438026Y-113560026D01*
X154917974Y-115039974D01*
X154939714Y-115086594D01*
X154940000Y-115093148D01*
X154940000Y-118586852D01*
X154922407Y-118635190D01*
X154917974Y-118640026D01*
X154835026Y-118722974D01*
X154788406Y-118744714D01*
X154781852Y-118745000D01*
X153701148Y-118745000D01*
X153652810Y-118727407D01*
X153647974Y-118722974D01*
X153565026Y-118640026D01*
X153543286Y-118593406D01*
X153543000Y-118586852D01*
X153543000Y-115697000D01*
X153437442Y-115591442D01*
X153435496Y-115589071D01*
X153431348Y-115584923D01*
X153427234Y-115578766D01*
X153421077Y-115574652D01*
X153416929Y-115570504D01*
X153414558Y-115568558D01*
X153289000Y-115443000D01*
X150018148Y-115443000D01*
X149969810Y-115425407D01*
X149964974Y-115420974D01*
X149628026Y-115084026D01*
X149606286Y-115037406D01*
X149606000Y-115030852D01*
X149606000Y-114443088D01*
X149606685Y-114434386D01*
X149606685Y-114432847D01*
X149607611Y-114427000D01*
X149606685Y-114421153D01*
X149606685Y-114419614D01*
X149606000Y-114410912D01*
X149606000Y-113696148D01*
X149623593Y-113647810D01*
X149628026Y-113642974D01*
X149710974Y-113560026D01*
X149757594Y-113538286D01*
X149764148Y-113538000D01*
X153384852Y-113538000D01*
X153433190Y-113555593D01*
G37*
G04 #@! TD.AperFunction*
M02*
