G04 #@! TF.GenerationSoftware,KiCad,Pcbnew,(6.0.0)*
G04 #@! TF.CreationDate,2022-04-16T23:03:44-07:00*
G04 #@! TF.ProjectId,YellCube,59656c6c-4375-4626-952e-6b696361645f,rev?*
G04 #@! TF.SameCoordinates,Original*
G04 #@! TF.FileFunction,Paste,Top*
G04 #@! TF.FilePolarity,Positive*
%FSLAX46Y46*%
G04 Gerber Fmt 4.6, Leading zero omitted, Abs format (unit mm)*
G04 Created by KiCad (PCBNEW (6.0.0)) date 2022-04-16 23:03:44*
%MOMM*%
%LPD*%
G01*
G04 APERTURE LIST*
G04 Aperture macros list*
%AMRoundRect*
0 Rectangle with rounded corners*
0 $1 Rounding radius*
0 $2 $3 $4 $5 $6 $7 $8 $9 X,Y pos of 4 corners*
0 Add a 4 corners polygon primitive as box body*
4,1,4,$2,$3,$4,$5,$6,$7,$8,$9,$2,$3,0*
0 Add four circle primitives for the rounded corners*
1,1,$1+$1,$2,$3*
1,1,$1+$1,$4,$5*
1,1,$1+$1,$6,$7*
1,1,$1+$1,$8,$9*
0 Add four rect primitives between the rounded corners*
20,1,$1+$1,$2,$3,$4,$5,0*
20,1,$1+$1,$4,$5,$6,$7,0*
20,1,$1+$1,$6,$7,$8,$9,0*
20,1,$1+$1,$8,$9,$2,$3,0*%
G04 Aperture macros list end*
%ADD10C,0.010000*%
%ADD11RoundRect,0.135000X-0.185000X0.135000X-0.185000X-0.135000X0.185000X-0.135000X0.185000X0.135000X0*%
%ADD12RoundRect,0.135000X-0.135000X-0.185000X0.135000X-0.185000X0.135000X0.185000X-0.135000X0.185000X0*%
%ADD13RoundRect,0.225000X0.225000X0.250000X-0.225000X0.250000X-0.225000X-0.250000X0.225000X-0.250000X0*%
%ADD14R,0.250000X0.360000*%
%ADD15RoundRect,0.140000X0.140000X0.170000X-0.140000X0.170000X-0.140000X-0.170000X0.140000X-0.170000X0*%
%ADD16RoundRect,0.140000X-0.170000X0.140000X-0.170000X-0.140000X0.170000X-0.140000X0.170000X0.140000X0*%
%ADD17RoundRect,0.140000X0.170000X-0.140000X0.170000X0.140000X-0.170000X0.140000X-0.170000X-0.140000X0*%
%ADD18RoundRect,0.225000X0.250000X-0.225000X0.250000X0.225000X-0.250000X0.225000X-0.250000X-0.225000X0*%
%ADD19R,0.700000X0.450000*%
%ADD20RoundRect,0.135000X0.185000X-0.135000X0.185000X0.135000X-0.185000X0.135000X-0.185000X-0.135000X0*%
%ADD21RoundRect,0.135000X0.135000X0.185000X-0.135000X0.185000X-0.135000X-0.185000X0.135000X-0.185000X0*%
%ADD22RoundRect,0.008100X-0.411900X-0.126900X0.411900X-0.126900X0.411900X0.126900X-0.411900X0.126900X0*%
%ADD23RoundRect,0.008100X-0.126900X-0.411900X0.126900X-0.411900X0.126900X0.411900X-0.126900X0.411900X0*%
%ADD24RoundRect,0.250000X0.250000X0.475000X-0.250000X0.475000X-0.250000X-0.475000X0.250000X-0.475000X0*%
%ADD25R,0.800000X1.600000*%
%ADD26R,0.900000X0.254000*%
%ADD27R,0.254000X0.900000*%
%ADD28RoundRect,0.250000X-0.250000X-0.475000X0.250000X-0.475000X0.250000X0.475000X-0.250000X0.475000X0*%
%ADD29RoundRect,0.200000X0.275000X-0.200000X0.275000X0.200000X-0.275000X0.200000X-0.275000X-0.200000X0*%
%ADD30RoundRect,0.147500X-0.147500X-0.172500X0.147500X-0.172500X0.147500X0.172500X-0.147500X0.172500X0*%
%ADD31RoundRect,0.007800X0.122200X-0.422200X0.122200X0.422200X-0.122200X0.422200X-0.122200X-0.422200X0*%
%ADD32RoundRect,0.007800X0.422200X-0.122200X0.422200X0.122200X-0.422200X0.122200X-0.422200X-0.122200X0*%
%ADD33RoundRect,0.225000X-0.225000X-0.250000X0.225000X-0.250000X0.225000X0.250000X-0.225000X0.250000X0*%
%ADD34RoundRect,0.140000X0.205000X0.140000X-0.205000X0.140000X-0.205000X-0.140000X0.205000X-0.140000X0*%
%ADD35RoundRect,0.062500X0.337500X0.062500X-0.337500X0.062500X-0.337500X-0.062500X0.337500X-0.062500X0*%
%ADD36RoundRect,0.140000X-0.140000X-0.170000X0.140000X-0.170000X0.140000X0.170000X-0.140000X0.170000X0*%
%ADD37RoundRect,0.250000X-0.263170X-0.263170X0.263170X-0.263170X0.263170X0.263170X-0.263170X0.263170X0*%
%ADD38RoundRect,0.062500X-0.337500X-0.062500X0.337500X-0.062500X0.337500X0.062500X-0.337500X0.062500X0*%
%ADD39RoundRect,0.062500X-0.062500X-0.337500X0.062500X-0.337500X0.062500X0.337500X-0.062500X0.337500X0*%
%ADD40RoundRect,0.150000X0.150000X-0.587500X0.150000X0.587500X-0.150000X0.587500X-0.150000X-0.587500X0*%
G04 APERTURE END LIST*
D10*
X141128000Y-88677000D02*
X141828000Y-88677000D01*
X141828000Y-88677000D02*
X141828000Y-89377000D01*
X141828000Y-89377000D02*
X141128000Y-89377000D01*
X141128000Y-89377000D02*
X141128000Y-88677000D01*
G36*
X141828000Y-89377000D02*
G01*
X141128000Y-89377000D01*
X141128000Y-88677000D01*
X141828000Y-88677000D01*
X141828000Y-89377000D01*
G37*
X141828000Y-89377000D02*
X141128000Y-89377000D01*
X141128000Y-88677000D01*
X141828000Y-88677000D01*
X141828000Y-89377000D01*
X123312544Y-115550000D02*
X122063000Y-115550000D01*
X122063000Y-115550000D02*
X122063000Y-114297270D01*
X122063000Y-114297270D02*
X123312544Y-114297270D01*
X123312544Y-114297270D02*
X123312544Y-115550000D01*
G36*
X123312544Y-115550000D02*
G01*
X122063000Y-115550000D01*
X122063000Y-114297270D01*
X123312544Y-114297270D01*
X123312544Y-115550000D01*
G37*
X123312544Y-115550000D02*
X122063000Y-115550000D01*
X122063000Y-114297270D01*
X123312544Y-114297270D01*
X123312544Y-115550000D01*
X125065520Y-115550000D02*
X123813000Y-115550000D01*
X123813000Y-115550000D02*
X123813000Y-114297480D01*
X123813000Y-114297480D02*
X125065520Y-114297480D01*
X125065520Y-114297480D02*
X125065520Y-115550000D01*
G36*
X125065520Y-115550000D02*
G01*
X123813000Y-115550000D01*
X123813000Y-114297480D01*
X125065520Y-114297480D01*
X125065520Y-115550000D01*
G37*
X125065520Y-115550000D02*
X123813000Y-115550000D01*
X123813000Y-114297480D01*
X125065520Y-114297480D01*
X125065520Y-115550000D01*
X125065480Y-117300000D02*
X123813000Y-117300000D01*
X123813000Y-117300000D02*
X123813000Y-116050413D01*
X123813000Y-116050413D02*
X125065480Y-116050413D01*
X125065480Y-116050413D02*
X125065480Y-117300000D01*
G36*
X125065480Y-117300000D02*
G01*
X123813000Y-117300000D01*
X123813000Y-116050413D01*
X125065480Y-116050413D01*
X125065480Y-117300000D01*
G37*
X125065480Y-117300000D02*
X123813000Y-117300000D01*
X123813000Y-116050413D01*
X125065480Y-116050413D01*
X125065480Y-117300000D01*
X123312938Y-117300000D02*
X122063000Y-117300000D01*
X122063000Y-117300000D02*
X122063000Y-116050062D01*
X122063000Y-116050062D02*
X123312938Y-116050062D01*
X123312938Y-116050062D02*
X123312938Y-117300000D01*
G36*
X123312938Y-117300000D02*
G01*
X122063000Y-117300000D01*
X122063000Y-116050062D01*
X123312938Y-116050062D01*
X123312938Y-117300000D01*
G37*
X123312938Y-117300000D02*
X122063000Y-117300000D01*
X122063000Y-116050062D01*
X123312938Y-116050062D01*
X123312938Y-117300000D01*
X152886000Y-112925000D02*
X152886000Y-111865000D01*
X152886000Y-111865000D02*
X153946000Y-111865000D01*
X153946000Y-111865000D02*
X153946000Y-112925000D01*
X153946000Y-112925000D02*
X152886000Y-112925000D01*
G36*
X153946000Y-112925000D02*
G01*
X152886000Y-112925000D01*
X152886000Y-111865000D01*
X153946000Y-111865000D01*
X153946000Y-112925000D01*
G37*
X153946000Y-112925000D02*
X152886000Y-112925000D01*
X152886000Y-111865000D01*
X153946000Y-111865000D01*
X153946000Y-112925000D01*
D11*
X147066000Y-97534000D03*
X147066000Y-98554000D03*
D12*
X152590000Y-97900000D03*
X153610000Y-97900000D03*
D13*
X146190000Y-106680000D03*
X144640000Y-106680000D03*
D14*
X131499999Y-115380000D03*
X131499999Y-116220000D03*
D15*
X125575000Y-103378000D03*
X124615000Y-103378000D03*
D16*
X124100000Y-95659000D03*
X124100000Y-96619000D03*
D11*
X151600000Y-99890000D03*
X151600000Y-100910000D03*
D17*
X146685000Y-88999000D03*
X146685000Y-88039000D03*
D18*
X147955000Y-111138000D03*
X147955000Y-109588000D03*
D11*
X134500000Y-99290000D03*
X134500000Y-100310000D03*
D17*
X127500000Y-114375000D03*
X127500000Y-113415000D03*
D19*
X148300000Y-100050000D03*
X148300000Y-101350000D03*
X150300000Y-100700000D03*
D12*
X122066000Y-94108000D03*
X123086000Y-94108000D03*
D17*
X135530000Y-98271000D03*
X135530000Y-97311000D03*
D20*
X134747000Y-88648000D03*
X134747000Y-87628000D03*
D21*
X149989000Y-108331000D03*
X148969000Y-108331000D03*
D19*
X148327000Y-97313000D03*
X148327000Y-98613000D03*
X150327000Y-97963000D03*
D15*
X145615000Y-103886000D03*
X144655000Y-103886000D03*
D22*
X140043000Y-88277000D03*
X140043000Y-88777000D03*
X140043000Y-89277000D03*
X140043000Y-89777000D03*
D23*
X140728000Y-90462000D03*
X141228000Y-90462000D03*
X141728000Y-90462000D03*
X142228000Y-90462000D03*
D22*
X142913000Y-89777000D03*
X142913000Y-89277000D03*
X142913000Y-88777000D03*
X142913000Y-88277000D03*
D23*
X142228000Y-87592000D03*
X141728000Y-87592000D03*
X141228000Y-87592000D03*
X140728000Y-87592000D03*
D21*
X150751000Y-113411000D03*
X149731000Y-113411000D03*
D17*
X150749000Y-111351000D03*
X150749000Y-110391000D03*
D21*
X150751000Y-114427000D03*
X149731000Y-114427000D03*
D17*
X121052000Y-94080000D03*
X121052000Y-93120000D03*
D20*
X135763000Y-88648000D03*
X135763000Y-87628000D03*
D24*
X141920000Y-95377000D03*
X140020000Y-95377000D03*
D20*
X151600000Y-98810000D03*
X151600000Y-97790000D03*
D13*
X134379000Y-111506000D03*
X132829000Y-111506000D03*
D11*
X143400000Y-114890000D03*
X143400000Y-115910000D03*
D25*
X118780186Y-94068746D03*
X115380186Y-94068746D03*
D11*
X137903500Y-87628000D03*
X137903500Y-88648000D03*
D24*
X141920000Y-93218000D03*
X140020000Y-93218000D03*
D18*
X149479000Y-111138000D03*
X149479000Y-109588000D03*
D26*
X126153000Y-117300000D03*
X126153000Y-116800000D03*
X126153000Y-116300000D03*
X126153000Y-115800000D03*
X126153000Y-115300000D03*
X126153000Y-114800000D03*
X126153000Y-114300000D03*
D27*
X125063000Y-113210000D03*
X124563000Y-113210000D03*
X124063000Y-113210000D03*
X123563000Y-113210000D03*
X123063000Y-113210000D03*
X122563000Y-113210000D03*
X122063000Y-113210000D03*
D26*
X120973000Y-114300000D03*
X120973000Y-114800000D03*
X120973000Y-115300000D03*
X120973000Y-115800000D03*
X120973000Y-116300000D03*
X120973000Y-116800000D03*
X120973000Y-117300000D03*
D27*
X122063000Y-118390000D03*
X122563000Y-118390000D03*
X123063000Y-118390000D03*
X123563000Y-118390000D03*
X124063000Y-118390000D03*
X124563000Y-118390000D03*
X125063000Y-118390000D03*
D12*
X125669000Y-108402500D03*
X126689000Y-108402500D03*
D28*
X153550000Y-107168000D03*
X155450000Y-107168000D03*
D13*
X146190000Y-105156000D03*
X144640000Y-105156000D03*
D18*
X150806000Y-95275000D03*
X150806000Y-93725000D03*
X128770000Y-114162000D03*
X128770000Y-112612000D03*
D17*
X134514000Y-98271000D03*
X134514000Y-97311000D03*
D29*
X137522500Y-91630000D03*
X137522500Y-89980000D03*
D28*
X153550000Y-105136000D03*
X155450000Y-105136000D03*
D13*
X134379000Y-109982000D03*
X132829000Y-109982000D03*
D12*
X128890000Y-91170000D03*
X129910000Y-91170000D03*
D30*
X144676000Y-89027000D03*
X145646000Y-89027000D03*
D31*
X152666000Y-113830000D03*
X153166000Y-113830000D03*
X153666000Y-113830000D03*
X154166000Y-113830000D03*
D32*
X154851000Y-113145000D03*
X154851000Y-112645000D03*
X154851000Y-112145000D03*
X154851000Y-111645000D03*
D31*
X154166000Y-110960000D03*
X153666000Y-110960000D03*
X153166000Y-110960000D03*
X152666000Y-110960000D03*
D32*
X151981000Y-111645000D03*
X151981000Y-112145000D03*
X151981000Y-112645000D03*
X151981000Y-113145000D03*
D12*
X121537000Y-103378000D03*
X122557000Y-103378000D03*
D33*
X140449000Y-111506000D03*
X141999000Y-111506000D03*
D12*
X156081000Y-112141000D03*
X157101000Y-112141000D03*
X152590000Y-100900000D03*
X153610000Y-100900000D03*
D16*
X146685000Y-90071000D03*
X146685000Y-91031000D03*
D12*
X156081000Y-114173000D03*
X157101000Y-114173000D03*
D34*
X144163000Y-102367000D03*
X144163000Y-101667000D03*
X143313000Y-101667000D03*
X143313000Y-102367000D03*
D35*
X145188000Y-102767000D03*
X145188000Y-102267000D03*
X145188000Y-101767000D03*
X145188000Y-101267000D03*
X142288000Y-101267000D03*
X142288000Y-101767000D03*
X142288000Y-102267000D03*
X142288000Y-102767000D03*
D20*
X136887500Y-88648000D03*
X136887500Y-87628000D03*
D30*
X144676000Y-90043000D03*
X145646000Y-90043000D03*
D12*
X124585000Y-102362000D03*
X125605000Y-102362000D03*
D11*
X147066000Y-100201000D03*
X147066000Y-101221000D03*
D33*
X141592000Y-104140000D03*
X143142000Y-104140000D03*
D12*
X129290000Y-101000000D03*
X130310000Y-101000000D03*
X128890000Y-90170000D03*
X129910000Y-90170000D03*
D24*
X153096000Y-116205000D03*
X151196000Y-116205000D03*
D36*
X132891000Y-90552000D03*
X133851000Y-90552000D03*
D15*
X122527000Y-102362000D03*
X121567000Y-102362000D03*
X141958000Y-91694000D03*
X140998000Y-91694000D03*
D18*
X130294000Y-114162000D03*
X130294000Y-112612000D03*
D17*
X153600000Y-95488000D03*
X153600000Y-94528000D03*
D14*
X131500000Y-117768000D03*
X131500000Y-116928000D03*
D12*
X122240000Y-108402500D03*
X123260000Y-108402500D03*
D37*
X128015000Y-96867000D03*
X129215000Y-96867000D03*
X130415000Y-96867000D03*
X129215000Y-98067000D03*
X131615000Y-95667000D03*
X128015000Y-98067000D03*
X131615000Y-98067000D03*
X128015000Y-94467000D03*
X130415000Y-98067000D03*
X129215000Y-94467000D03*
X131615000Y-94467000D03*
X129215000Y-95667000D03*
X128015000Y-95667000D03*
X130415000Y-95667000D03*
X130415000Y-94467000D03*
X131615000Y-96867000D03*
D38*
X126365000Y-93517000D03*
X126365000Y-94017000D03*
X126365000Y-94517000D03*
X126365000Y-95017000D03*
X126365000Y-95517000D03*
X126365000Y-96017000D03*
X126365000Y-96517000D03*
X126365000Y-97017000D03*
X126365000Y-97517000D03*
X126365000Y-98017000D03*
X126365000Y-98517000D03*
X126365000Y-99017000D03*
D39*
X127065000Y-99717000D03*
X127565000Y-99717000D03*
X128065000Y-99717000D03*
X128565000Y-99717000D03*
X129065000Y-99717000D03*
X129565000Y-99717000D03*
X130065000Y-99717000D03*
X130565000Y-99717000D03*
X131065000Y-99717000D03*
X131565000Y-99717000D03*
X132065000Y-99717000D03*
X132565000Y-99717000D03*
D38*
X133265000Y-99017000D03*
X133265000Y-98517000D03*
X133265000Y-98017000D03*
X133265000Y-97517000D03*
X133265000Y-97017000D03*
X133265000Y-96517000D03*
X133265000Y-96017000D03*
X133265000Y-95517000D03*
X133265000Y-95017000D03*
X133265000Y-94517000D03*
X133265000Y-94017000D03*
X133265000Y-93517000D03*
D39*
X132565000Y-92817000D03*
X132065000Y-92817000D03*
X131565000Y-92817000D03*
X131065000Y-92817000D03*
X130565000Y-92817000D03*
X130065000Y-92817000D03*
X129565000Y-92817000D03*
X129065000Y-92817000D03*
X128565000Y-92817000D03*
X128065000Y-92817000D03*
X127565000Y-92817000D03*
X127065000Y-92817000D03*
D24*
X153096000Y-118237000D03*
X151196000Y-118237000D03*
D33*
X140449000Y-109982000D03*
X141999000Y-109982000D03*
D20*
X143400000Y-117942000D03*
X143400000Y-116922000D03*
D36*
X125877000Y-112371000D03*
X126837000Y-112371000D03*
D17*
X124100000Y-94080000D03*
X124100000Y-93120000D03*
D12*
X134491000Y-93100000D03*
X135511000Y-93100000D03*
D36*
X132891000Y-91568000D03*
X133851000Y-91568000D03*
D18*
X152330000Y-95275000D03*
X152330000Y-93725000D03*
D28*
X153550000Y-109200000D03*
X155450000Y-109200000D03*
D40*
X121800000Y-106800000D03*
X123700000Y-106800000D03*
X122750000Y-104925000D03*
D12*
X134491000Y-94107000D03*
X135511000Y-94107000D03*
D16*
X125116000Y-95659000D03*
X125116000Y-96619000D03*
D21*
X157110000Y-113157000D03*
X156090000Y-113157000D03*
D33*
X126090000Y-111101000D03*
X127640000Y-111101000D03*
D40*
X125356000Y-106800000D03*
X127256000Y-106800000D03*
X126306000Y-104925000D03*
D12*
X122926000Y-111990000D03*
X123946000Y-111990000D03*
M02*
