M48
; DRILL file {KiCad (6.0.0)} date Sat Apr 16 23:03:51 2022
; FORMAT={-:-/ absolute / metric / decimal}
; #@! TF.CreationDate,2022-04-16T23:03:51-07:00
; #@! TF.GenerationSoftware,Kicad,Pcbnew,(6.0.0)
; #@! TF.FileFunction,Plated,1,4,PTH
FMAT,2
METRIC
; #@! TA.AperFunction,Plated,PTH,ViaDrill
T1C0.200
; #@! TA.AperFunction,Plated,PTH,ComponentDrill
T2C0.200
; #@! TA.AperFunction,Plated,PTH,ComponentDrill
T3C0.400
; #@! TA.AperFunction,Plated,PTH,ComponentDrill
T4C0.700
; #@! TA.AperFunction,Plated,PTH,ComponentDrill
T5C0.750
%
G90
G05
T1
X120.396Y-86.106
X120.396Y-88.646
X120.396Y-91.186
X120.396Y-93.345
X120.396Y-94.869
X120.396Y-96.266
X120.396Y-98.806
X120.396Y-101.346
X120.396Y-103.886
X120.523Y-105.791
X120.523Y-118.999
X121.031Y-102.362
X121.031Y-103.378
X121.158Y-97.155
X121.158Y-108.204
X121.285Y-94.869
X121.285Y-109.093
X121.285Y-117.983
X121.285Y-119.452
X121.539Y-91.186
X121.793Y-93.345
X122.1Y-90.635
X122.682Y-90.17
X122.936Y-86.106
X123.444Y-94.869
X123.444Y-95.631
X123.444Y-98.806
X123.571Y-93.345
X123.571Y-101.346
X123.571Y-105.029
X123.571Y-110.998
X123.698Y-91.948
X123.884Y-119.312
X124.079Y-97.155
X124.206Y-94.869
X124.587Y-101.727
X124.587Y-104.013
X124.587Y-114.681
X124.587Y-116.84
X124.841Y-93.345
X125.095Y-97.155
X125.222Y-94.869
X125.349Y-98.679
X125.476Y-86.106
X125.603Y-119.507
X126.09Y-110.342
X126.111Y-93.091
X126.238Y-106.553
X126.873Y-113.411
X127.381Y-112.395
X127.635Y-110.363
X128.016Y-86.106
X128.016Y-92.075
X128.016Y-116.84
X128.143Y-119.507
X128.27Y-107.569
X128.651Y-105.156
X128.778Y-109.601
X128.778Y-111.887
X129.286Y-115.443
X129.54Y-92.075
X130.302Y-111.887
X130.302Y-114.808
X130.429Y-117.602
X130.556Y-86.106
X130.683Y-119.507
X130.937Y-100.965
X131.064Y-112.649
X131.445Y-105.41
X131.445Y-114.808
X131.445Y-118.237
X132.08Y-100.584
X132.08Y-109.093
X132.08Y-110.109
X132.08Y-111.125
X132.08Y-112.141
X132.207Y-107.442
X132.842Y-89.916
X132.969Y-100.965
X133.096Y-86.106
X133.223Y-106.299
X133.985Y-100.711
X134.239Y-96.774
X134.366Y-90.551
X134.366Y-91.567
X134.379Y-109.233
X134.747Y-89.281
X134.874Y-104.648
X134.874Y-115.951
X135.001Y-117.729
X135.34Y-100.382
X135.382Y-85.979
X135.763Y-119.507
X135.89Y-89.281
X135.89Y-104.648
X136.017Y-102.362
X136.144Y-98.298
X136.144Y-107.442
X136.271Y-97.282
X136.398Y-109.474
X136.515Y-114.466
X136.525Y-92.583
X136.525Y-95.123
X136.642Y-100.394
X136.906Y-89.916
X136.935Y-87.096
X137.287Y-104.14
X137.922Y-87.122
X137.922Y-98.679
X138.176Y-96.901
X138.176Y-102.235
X138.176Y-114.554
X138.303Y-91.694
X138.303Y-92.71
X138.303Y-100.33
X138.303Y-119.507
X138.557Y-117.094
X138.684Y-89.281
X138.938Y-87.376
X139.192Y-88.265
X139.192Y-102.87
X139.827Y-92.202
X139.827Y-94.234
X139.827Y-96.393
X139.954Y-116.205
X140.208Y-103.759
X140.449Y-109.106
X140.462Y-91.694
X140.716Y-101.6
X140.843Y-86.741
X141.097Y-97.79
X141.224Y-107.696
X141.351Y-100.076
X141.478Y-89.027
X141.592Y-105.931
X141.605Y-104.775
X141.732Y-85.979
X141.986Y-109.22
X142.748Y-94.869
X142.748Y-95.758
X142.748Y-109.855
X142.748Y-110.998
X142.748Y-112.141
X143.002Y-100.711
X143.256Y-86.106
X143.256Y-112.649
X143.383Y-119.507
X143.61Y-116.412
X143.764Y-88.646
X143.764Y-90.551
X143.764Y-101.981
X143.891Y-103.251
X143.891Y-104.267
X143.891Y-105.283
X143.891Y-106.299
X143.891Y-107.315
X144.399Y-109.728
X144.526Y-100.711
X144.907Y-96.393
X145.796Y-86.106
X146.177Y-103.886
X146.685Y-87.503
X146.685Y-91.567
X146.812Y-94.488
X146.812Y-108.458
X146.812Y-110.363
X146.939Y-105.156
X146.939Y-106.68
X147.066Y-97.028
X147.066Y-99.695
X147.193Y-109.601
X148.082Y-96.139
X148.336Y-86.106
X148.463Y-114.046
X148.463Y-119.507
X148.844Y-104.521
X148.844Y-108.966
X148.971Y-107.696
X149.098Y-88.265
X149.098Y-89.535
X149.098Y-90.932
X149.225Y-101.092
X149.225Y-113.411
X149.225Y-114.427
X149.225Y-115.824
X149.479Y-117.221
X149.86Y-107.315
X149.987Y-93.726
X149.987Y-95.25
X150.114Y-110.109
X150.368Y-118.237
X150.495Y-102.743
X150.749Y-92.964
X150.876Y-86.106
X151.003Y-104.648
X151.003Y-119.507
X151.257Y-107.696
X151.638Y-99.314
X151.638Y-104.648
X151.892Y-92.964
X152.146Y-106.934
X152.146Y-108.585
X152.4Y-104.648
X153.162Y-92.964
X153.162Y-115.062
X153.416Y-86.106
X153.416Y-112.395
X153.543Y-93.98
X153.543Y-119.507
X154.305Y-115.697
X154.305Y-116.967
X154.305Y-118.237
X154.94Y-110.363
X155.067Y-110.998
X156.21Y-104.394
X156.21Y-105.537
X156.21Y-106.553
X156.21Y-107.823
X156.21Y-108.712
X156.21Y-109.855
X156.972Y-103.505
X156.972Y-111.125
X157.607Y-112.141
X157.607Y-114.173
X157.734Y-113.157
X159.512Y-90.17
X159.512Y-92.71
X159.512Y-95.25
X159.512Y-97.79
X159.512Y-100.33
X159.512Y-102.87
X159.512Y-105.41
X159.512Y-107.95
X159.512Y-110.49
X159.512Y-113.03
X159.512Y-115.57
T2
X127.415Y-93.867
X127.415Y-95.067
X127.415Y-96.267
X127.415Y-97.467
X127.415Y-98.667
X128.615Y-93.867
X128.615Y-95.067
X128.615Y-96.267
X128.615Y-97.467
X128.615Y-98.667
X129.815Y-93.867
X129.815Y-95.067
X129.815Y-96.267
X129.815Y-97.467
X129.815Y-98.667
X131.015Y-93.867
X131.015Y-95.067
X131.015Y-96.267
X131.015Y-97.467
X131.015Y-98.667
X132.215Y-93.867
X132.215Y-95.067
X132.215Y-96.267
X132.215Y-97.467
X132.215Y-98.667
T3
X134.33Y-113.845
X134.33Y-115.195
X135.18Y-113.845
X135.18Y-115.195
X136.03Y-113.845
X136.03Y-115.195
X136.88Y-113.845
X136.88Y-115.195
X137.73Y-113.845
X137.73Y-115.195
X138.58Y-113.845
X138.58Y-115.195
X139.43Y-113.845
X139.43Y-115.195
X140.28Y-113.845
X140.28Y-115.195
T5
X151.68Y-88.154
X151.68Y-90.154
X157.6Y-95.4
X157.6Y-97.4
X157.6Y-99.4
X157.6Y-101.4
T4
X132.985Y-113.695G85X132.985Y-114.995
G05
X132.985Y-118.045G85X132.985Y-118.945
G05
X141.625Y-113.695G85X141.625Y-114.995
G05
X141.625Y-118.045G85X141.625Y-118.945
G05
T0
M30
