G04 #@! TF.GenerationSoftware,KiCad,Pcbnew,(6.0.0)*
G04 #@! TF.CreationDate,2022-04-16T23:03:44-07:00*
G04 #@! TF.ProjectId,YellCube,59656c6c-4375-4626-952e-6b696361645f,rev?*
G04 #@! TF.SameCoordinates,Original*
G04 #@! TF.FileFunction,Copper,L2,Inr*
G04 #@! TF.FilePolarity,Positive*
%FSLAX46Y46*%
G04 Gerber Fmt 4.6, Leading zero omitted, Abs format (unit mm)*
G04 Created by KiCad (PCBNEW (6.0.0)) date 2022-04-16 23:03:44*
%MOMM*%
%LPD*%
G01*
G04 APERTURE LIST*
G04 Aperture macros list*
%AMRoundRect*
0 Rectangle with rounded corners*
0 $1 Rounding radius*
0 $2 $3 $4 $5 $6 $7 $8 $9 X,Y pos of 4 corners*
0 Add a 4 corners polygon primitive as box body*
4,1,4,$2,$3,$4,$5,$6,$7,$8,$9,$2,$3,0*
0 Add four circle primitives for the rounded corners*
1,1,$1+$1,$2,$3*
1,1,$1+$1,$4,$5*
1,1,$1+$1,$6,$7*
1,1,$1+$1,$8,$9*
0 Add four rect primitives between the rounded corners*
20,1,$1+$1,$2,$3,$4,$5,0*
20,1,$1+$1,$4,$5,$6,$7,0*
20,1,$1+$1,$6,$7,$8,$9,0*
20,1,$1+$1,$8,$9,$2,$3,0*%
G04 Aperture macros list end*
G04 #@! TA.AperFunction,ComponentPad*
%ADD10C,0.685800*%
G04 #@! TD*
G04 #@! TA.AperFunction,ComponentPad*
%ADD11O,1.300000X3.200000*%
G04 #@! TD*
G04 #@! TA.AperFunction,ComponentPad*
%ADD12O,1.300000X2.500000*%
G04 #@! TD*
G04 #@! TA.AperFunction,ComponentPad*
%ADD13RoundRect,0.250000X-0.625000X0.350000X-0.625000X-0.350000X0.625000X-0.350000X0.625000X0.350000X0*%
G04 #@! TD*
G04 #@! TA.AperFunction,ComponentPad*
%ADD14O,1.750000X1.200000*%
G04 #@! TD*
G04 #@! TA.AperFunction,ComponentPad*
%ADD15C,0.500000*%
G04 #@! TD*
G04 #@! TA.AperFunction,ViaPad*
%ADD16C,0.450000*%
G04 #@! TD*
G04 APERTURE END LIST*
D10*
X134329949Y-113845400D03*
X135179949Y-113845400D03*
X136029949Y-113845400D03*
X136879949Y-113845400D03*
X137729950Y-113845400D03*
X138579948Y-113845400D03*
X139429949Y-113845400D03*
X140279950Y-113845400D03*
X140279950Y-115195400D03*
X139429949Y-115195400D03*
X138579948Y-115195400D03*
X137729950Y-115195400D03*
X136879949Y-115195400D03*
X136029949Y-115195400D03*
X135179949Y-115195400D03*
X134329949Y-115195400D03*
D11*
X132984948Y-114345399D03*
X141624948Y-114345399D03*
D12*
X141624948Y-118495401D03*
X132984948Y-118495401D03*
D13*
X151680000Y-88154000D03*
D14*
X151680000Y-90154000D03*
D13*
X157600000Y-95400000D03*
D14*
X157600000Y-97400000D03*
X157600000Y-99400000D03*
X157600000Y-101400000D03*
D15*
X128615000Y-96267000D03*
X127415000Y-97467000D03*
X127415000Y-95067000D03*
X132215000Y-95067000D03*
X127415000Y-96267000D03*
X131015000Y-95067000D03*
X131015000Y-98667000D03*
X132215000Y-97467000D03*
X128615000Y-93867000D03*
X131015000Y-96267000D03*
X129815000Y-98667000D03*
X127415000Y-93867000D03*
X128615000Y-98667000D03*
X132215000Y-93867000D03*
X128615000Y-95067000D03*
X131015000Y-93867000D03*
X127415000Y-98667000D03*
X129815000Y-96267000D03*
X132215000Y-96267000D03*
X132215000Y-98667000D03*
X129815000Y-95067000D03*
X131015000Y-97467000D03*
X129815000Y-93867000D03*
X128615000Y-97467000D03*
X129815000Y-97467000D03*
D16*
X128016000Y-92075000D03*
X123444000Y-95631000D03*
X147066000Y-99695000D03*
X133985000Y-100711000D03*
X130937000Y-100965000D03*
X136144000Y-98298000D03*
X138303000Y-91694000D03*
X126111000Y-93091000D03*
X141592000Y-105931000D03*
X124587000Y-101727000D03*
X136935341Y-87096441D03*
X141605000Y-104775000D03*
X140208000Y-103759000D03*
X147066000Y-97028000D03*
X129540000Y-92075000D03*
X121031000Y-103378000D03*
X157734000Y-113157000D03*
X132842000Y-89916000D03*
X125222000Y-94869000D03*
X141478000Y-89027000D03*
X141097000Y-97790000D03*
X142748000Y-109855000D03*
X144907000Y-96393000D03*
X153416000Y-112395000D03*
X139827000Y-94234000D03*
X138303000Y-100330000D03*
X134239000Y-96774000D03*
X159512000Y-105410000D03*
X120396000Y-96266000D03*
X127381000Y-112395000D03*
X132080000Y-109093000D03*
X159512000Y-97790000D03*
X143256000Y-86106000D03*
X148336000Y-86106000D03*
X159512000Y-95250000D03*
X138303000Y-92710000D03*
X151003000Y-119507000D03*
X137922000Y-87122000D03*
X138684000Y-89281000D03*
X134366000Y-91567000D03*
X127635000Y-110363000D03*
X145796000Y-86106000D03*
X150876000Y-86106000D03*
X136525000Y-95123000D03*
X126873000Y-113411000D03*
X124587000Y-116840000D03*
X149225000Y-114427000D03*
X148844000Y-108966000D03*
X126238000Y-106553000D03*
X156210000Y-106553000D03*
X147193000Y-109601000D03*
X159512000Y-102870000D03*
X135001000Y-117729000D03*
X135340363Y-100381979D03*
X128143000Y-119507000D03*
X156210000Y-105537000D03*
X159512000Y-90170000D03*
X131064000Y-112649000D03*
X138557000Y-117094000D03*
X153543000Y-119507000D03*
X120396000Y-86106000D03*
X143891000Y-106299000D03*
X120396000Y-101346000D03*
X153543000Y-93980000D03*
X138303000Y-119507000D03*
X125349000Y-98679000D03*
X150114000Y-110109000D03*
X121158000Y-97155000D03*
X133096000Y-86106000D03*
X136641612Y-100393863D03*
X138176000Y-102235000D03*
X146812000Y-94488000D03*
X146685000Y-91567000D03*
X133223000Y-106299000D03*
X121793000Y-93345000D03*
X150368000Y-118237000D03*
X150749000Y-92964000D03*
X140462000Y-91694000D03*
X148971000Y-107696000D03*
X120396000Y-91186000D03*
X149479000Y-117221000D03*
X131445000Y-114808000D03*
X130683000Y-119507000D03*
X143609865Y-116411707D03*
X124079000Y-97155000D03*
X130556000Y-86106000D03*
X123571000Y-93345000D03*
X159512000Y-115570000D03*
X136271000Y-97282000D03*
X136144000Y-107442000D03*
X139827000Y-92202000D03*
X138938000Y-87376000D03*
X157607000Y-112141000D03*
X121158000Y-108204000D03*
X148463000Y-119507000D03*
X143764000Y-101981000D03*
X159512000Y-110490000D03*
X135890000Y-104648000D03*
X157607000Y-114173000D03*
X129286000Y-115443000D03*
X143383000Y-119507000D03*
X153162000Y-92964000D03*
X128778000Y-109601000D03*
X124587000Y-114681000D03*
X143891000Y-103251000D03*
X124841000Y-93345000D03*
X144399000Y-109728000D03*
X141986000Y-109220000D03*
X136525000Y-92583000D03*
X159512000Y-100330000D03*
X143764000Y-90551000D03*
X144526000Y-100711000D03*
X140843000Y-86741000D03*
X159512000Y-92710000D03*
X120396000Y-88646000D03*
X139954000Y-116205000D03*
X123571000Y-101346000D03*
X120396000Y-98806000D03*
X132080000Y-111125000D03*
X122936000Y-86106000D03*
X159512000Y-107950000D03*
X149225000Y-101092000D03*
X146685000Y-87503000D03*
X156210000Y-107823000D03*
X128016000Y-86106000D03*
X128016000Y-116840000D03*
X121285000Y-94869000D03*
X128778000Y-111887000D03*
X124206000Y-94869000D03*
X138176000Y-96901000D03*
X123698000Y-91948000D03*
X150495000Y-102743000D03*
X141351000Y-100076000D03*
X146812000Y-108458000D03*
X149225000Y-113411000D03*
X123444000Y-94869000D03*
X121031000Y-102362000D03*
X120396000Y-103886000D03*
X148082000Y-96139000D03*
X142748000Y-110998000D03*
X143891000Y-105283000D03*
X124587000Y-104013000D03*
X131445000Y-118237000D03*
X136398000Y-109474000D03*
X137922000Y-98679000D03*
X153416000Y-86106000D03*
X130429000Y-117602000D03*
X143891000Y-104267000D03*
X123444000Y-98806000D03*
X130302000Y-111887000D03*
X122099749Y-90634867D03*
X135763000Y-119507000D03*
X139827000Y-96393000D03*
X132969000Y-100965000D03*
X135382000Y-85979000D03*
X156210000Y-108712000D03*
X134366000Y-90551000D03*
X131445000Y-105410000D03*
X132080000Y-112141000D03*
X156210000Y-104394000D03*
X156210000Y-109855000D03*
X125476000Y-86106000D03*
X155067000Y-110998000D03*
X141732000Y-85979000D03*
X143764000Y-88646000D03*
X149098000Y-88265000D03*
X143891000Y-107315000D03*
X128270000Y-107569000D03*
X148844000Y-104521000D03*
X125095000Y-97155000D03*
X125603000Y-119507000D03*
X149225000Y-115824000D03*
X151892000Y-92964000D03*
X149098000Y-89535000D03*
X120396000Y-94869000D03*
X149987000Y-93726000D03*
X134874000Y-115951000D03*
X149098000Y-90932000D03*
X159512000Y-113030000D03*
X132080000Y-110109000D03*
X142748000Y-112141000D03*
X120396000Y-93345000D03*
X143002000Y-100711000D03*
X132207000Y-107442000D03*
X132080000Y-100584000D03*
X123571000Y-105029000D03*
X128651000Y-105156000D03*
X146177000Y-103886000D03*
X142748000Y-95758000D03*
X152146000Y-106934000D03*
X146939000Y-106680000D03*
X152146000Y-108585000D03*
X151257000Y-107696000D03*
X151638000Y-99314000D03*
X152400000Y-104648000D03*
X142748000Y-94869000D03*
X151003000Y-104648000D03*
X151638000Y-104648000D03*
X146939000Y-105156000D03*
X149987000Y-95250000D03*
X140449000Y-109106000D03*
X146812000Y-110363000D03*
X134379000Y-109233000D03*
X126090000Y-110342000D03*
X154305000Y-118237000D03*
X148463000Y-114046000D03*
X154305000Y-116967000D03*
X154305000Y-115697000D03*
X153162000Y-115062000D03*
X130302000Y-114808000D03*
X123571000Y-110998000D03*
X143256000Y-112649000D03*
X136514627Y-114466281D03*
X138176000Y-114554000D03*
X120523000Y-118999000D03*
X120523000Y-105791000D03*
X121285000Y-109093000D03*
X121285000Y-117983000D03*
X121285000Y-119452100D03*
X121539000Y-91186000D03*
X123884247Y-119311931D03*
X122682000Y-90170000D03*
X135890000Y-89281000D03*
X136017000Y-102362000D03*
X134747000Y-89281000D03*
X134874000Y-104648000D03*
X149860000Y-107315000D03*
X154940000Y-110363000D03*
X140716000Y-101600000D03*
X141224000Y-107696000D03*
X137287000Y-104140000D03*
X136906000Y-89916000D03*
X156972000Y-111125000D03*
X156972000Y-103505000D03*
X139192000Y-102870000D03*
X139192000Y-88265000D03*
G04 #@! TA.AperFunction,Conductor*
G36*
X157375862Y-85681926D02*
G01*
X157400000Y-85685749D01*
X157405846Y-85684823D01*
X157405849Y-85684823D01*
X157413590Y-85683597D01*
X157429894Y-85682808D01*
X157699095Y-85699092D01*
X157708109Y-85700187D01*
X157998360Y-85753377D01*
X158007177Y-85755550D01*
X158133575Y-85794937D01*
X158288911Y-85843342D01*
X158297391Y-85846558D01*
X158566491Y-85967670D01*
X158574527Y-85971887D01*
X158827074Y-86124557D01*
X158834533Y-86129706D01*
X159066827Y-86311697D01*
X159073624Y-86317719D01*
X159282281Y-86526376D01*
X159288303Y-86533173D01*
X159470294Y-86765467D01*
X159475443Y-86772926D01*
X159603075Y-86984055D01*
X159628112Y-87025471D01*
X159632330Y-87033509D01*
X159733755Y-87258864D01*
X159753440Y-87302603D01*
X159756658Y-87311089D01*
X159787065Y-87408669D01*
X159844450Y-87592823D01*
X159846623Y-87601640D01*
X159899813Y-87891891D01*
X159900908Y-87900905D01*
X159917192Y-88170106D01*
X159916403Y-88186410D01*
X159915177Y-88194151D01*
X159914251Y-88200000D01*
X159915177Y-88205846D01*
X159918074Y-88224137D01*
X159919000Y-88235901D01*
X159919000Y-117264099D01*
X159918074Y-117275862D01*
X159914251Y-117300000D01*
X159915177Y-117305846D01*
X159915177Y-117305849D01*
X159916403Y-117313590D01*
X159917192Y-117329894D01*
X159900908Y-117599095D01*
X159899813Y-117608109D01*
X159846623Y-117898360D01*
X159844450Y-117907177D01*
X159756660Y-118188906D01*
X159753442Y-118197391D01*
X159678141Y-118364704D01*
X159632332Y-118466488D01*
X159628113Y-118474527D01*
X159475443Y-118727074D01*
X159470294Y-118734533D01*
X159303017Y-118948046D01*
X159288303Y-118966827D01*
X159282281Y-118973624D01*
X159073624Y-119182281D01*
X159066827Y-119188303D01*
X158834533Y-119370294D01*
X158827074Y-119375443D01*
X158574529Y-119528112D01*
X158566491Y-119532330D01*
X158297391Y-119653442D01*
X158288911Y-119656658D01*
X158179905Y-119690626D01*
X158007177Y-119744450D01*
X157998360Y-119746623D01*
X157708109Y-119799813D01*
X157699095Y-119800908D01*
X157429894Y-119817192D01*
X157413590Y-119816403D01*
X157405849Y-119815177D01*
X157405846Y-119815177D01*
X157400000Y-119814251D01*
X157378300Y-119817688D01*
X157375863Y-119818074D01*
X157364099Y-119819000D01*
X142217206Y-119819000D01*
X142168868Y-119801407D01*
X142143148Y-119756858D01*
X142152081Y-119706200D01*
X142164591Y-119690072D01*
X142247695Y-119608691D01*
X142252974Y-119602219D01*
X142345941Y-119457962D01*
X142349651Y-119450488D01*
X142408345Y-119289226D01*
X142410311Y-119281099D01*
X142427051Y-119148590D01*
X142427348Y-119143869D01*
X142427348Y-118635660D01*
X142423651Y-118625503D01*
X142418279Y-118622401D01*
X140835807Y-118622401D01*
X140825650Y-118626098D01*
X140822548Y-118631470D01*
X140822548Y-119138554D01*
X140822784Y-119142764D01*
X140837068Y-119270111D01*
X140838921Y-119278271D01*
X140895357Y-119440331D01*
X140898966Y-119447865D01*
X140989905Y-119593396D01*
X140995100Y-119599952D01*
X141085328Y-119690811D01*
X141106905Y-119737507D01*
X141093419Y-119787147D01*
X141051179Y-119816505D01*
X141031969Y-119819000D01*
X133577206Y-119819000D01*
X133528868Y-119801407D01*
X133503148Y-119756858D01*
X133512081Y-119706200D01*
X133524591Y-119690072D01*
X133607695Y-119608691D01*
X133612974Y-119602219D01*
X133705941Y-119457962D01*
X133709651Y-119450488D01*
X133768345Y-119289226D01*
X133770311Y-119281099D01*
X133787051Y-119148590D01*
X133787348Y-119143869D01*
X133787348Y-118635660D01*
X133783651Y-118625503D01*
X133778279Y-118622401D01*
X132195807Y-118622401D01*
X132185650Y-118626098D01*
X132182548Y-118631470D01*
X132182548Y-119138554D01*
X132182784Y-119142764D01*
X132197068Y-119270111D01*
X132198921Y-119278271D01*
X132255357Y-119440331D01*
X132258966Y-119447865D01*
X132349905Y-119593396D01*
X132355100Y-119599952D01*
X132445328Y-119690811D01*
X132466905Y-119737507D01*
X132453419Y-119787147D01*
X132411179Y-119816505D01*
X132391969Y-119819000D01*
X124033604Y-119819000D01*
X123985266Y-119801407D01*
X123959546Y-119756858D01*
X123968479Y-119706200D01*
X124003508Y-119677834D01*
X124002480Y-119675816D01*
X124103863Y-119624159D01*
X124103864Y-119624158D01*
X124109140Y-119621470D01*
X124193786Y-119536824D01*
X124248132Y-119430164D01*
X124262458Y-119339713D01*
X124265932Y-119317778D01*
X124266858Y-119311931D01*
X124248132Y-119193698D01*
X124211730Y-119122255D01*
X124196475Y-119092315D01*
X124196474Y-119092314D01*
X124193786Y-119087038D01*
X124109140Y-119002392D01*
X124091008Y-118993153D01*
X124039340Y-118966827D01*
X124002480Y-118948046D01*
X123884247Y-118929320D01*
X123766014Y-118948046D01*
X123729154Y-118966827D01*
X123677487Y-118993153D01*
X123659354Y-119002392D01*
X123574708Y-119087038D01*
X123572020Y-119092314D01*
X123572019Y-119092315D01*
X123556764Y-119122255D01*
X123520362Y-119193698D01*
X123501636Y-119311931D01*
X123502562Y-119317778D01*
X123506036Y-119339713D01*
X123520362Y-119430164D01*
X123574708Y-119536824D01*
X123659354Y-119621470D01*
X123664630Y-119624158D01*
X123664631Y-119624159D01*
X123766014Y-119675816D01*
X123765057Y-119677694D01*
X123798664Y-119703951D01*
X123809358Y-119754267D01*
X123785208Y-119799685D01*
X123734890Y-119819000D01*
X121634080Y-119819000D01*
X121585742Y-119801407D01*
X121560022Y-119756858D01*
X121568955Y-119706200D01*
X121580906Y-119690626D01*
X121594539Y-119676993D01*
X121648885Y-119570333D01*
X121667611Y-119452100D01*
X121648885Y-119333867D01*
X121594539Y-119227207D01*
X121509893Y-119142561D01*
X121403233Y-119088215D01*
X121285000Y-119069489D01*
X121166767Y-119088215D01*
X121060107Y-119142561D01*
X121011366Y-119191302D01*
X120964746Y-119213042D01*
X120915059Y-119199728D01*
X120885554Y-119157591D01*
X120886597Y-119117799D01*
X120886885Y-119117233D01*
X120905611Y-118999000D01*
X120886885Y-118880767D01*
X120832539Y-118774107D01*
X120747893Y-118689461D01*
X120641233Y-118635115D01*
X120523000Y-118616389D01*
X120404767Y-118635115D01*
X120298107Y-118689461D01*
X120213461Y-118774107D01*
X120210773Y-118779383D01*
X120210772Y-118779384D01*
X120173513Y-118852509D01*
X120159115Y-118880767D01*
X120158172Y-118880287D01*
X120130052Y-118916281D01*
X120079736Y-118926977D01*
X120034317Y-118902829D01*
X120015000Y-118852509D01*
X120015000Y-117983000D01*
X120902389Y-117983000D01*
X120921115Y-118101233D01*
X120930049Y-118118767D01*
X120965787Y-118188906D01*
X120975461Y-118207893D01*
X121060107Y-118292539D01*
X121166767Y-118346885D01*
X121285000Y-118365611D01*
X121351100Y-118355142D01*
X132182548Y-118355142D01*
X132186245Y-118365299D01*
X132191617Y-118368401D01*
X132844689Y-118368401D01*
X132854846Y-118364704D01*
X132857948Y-118359332D01*
X132857948Y-118355142D01*
X133111948Y-118355142D01*
X133115645Y-118365299D01*
X133121017Y-118368401D01*
X133774089Y-118368401D01*
X133784246Y-118364704D01*
X133787348Y-118359332D01*
X133787348Y-118355142D01*
X140822548Y-118355142D01*
X140826245Y-118365299D01*
X140831617Y-118368401D01*
X141484689Y-118368401D01*
X141494846Y-118364704D01*
X141497948Y-118359332D01*
X141497948Y-118355142D01*
X141751948Y-118355142D01*
X141755645Y-118365299D01*
X141761017Y-118368401D01*
X142414089Y-118368401D01*
X142424246Y-118364704D01*
X142427348Y-118359332D01*
X142427348Y-118237000D01*
X153922389Y-118237000D01*
X153941115Y-118355233D01*
X153995461Y-118461893D01*
X154080107Y-118546539D01*
X154186767Y-118600885D01*
X154305000Y-118619611D01*
X154423233Y-118600885D01*
X154529893Y-118546539D01*
X154614539Y-118461893D01*
X154668885Y-118355233D01*
X154687611Y-118237000D01*
X154668885Y-118118767D01*
X154614539Y-118012107D01*
X154529893Y-117927461D01*
X154490084Y-117907177D01*
X154472779Y-117898360D01*
X154423233Y-117873115D01*
X154305000Y-117854389D01*
X154186767Y-117873115D01*
X154137221Y-117898360D01*
X154119917Y-117907177D01*
X154080107Y-117927461D01*
X153995461Y-118012107D01*
X153941115Y-118118767D01*
X153922389Y-118237000D01*
X142427348Y-118237000D01*
X142427348Y-117852248D01*
X142427112Y-117848038D01*
X142412828Y-117720691D01*
X142410975Y-117712531D01*
X142354539Y-117550471D01*
X142350930Y-117542937D01*
X142259991Y-117397406D01*
X142254800Y-117390855D01*
X142133873Y-117269082D01*
X142127371Y-117263854D01*
X141982475Y-117171899D01*
X141974961Y-117168234D01*
X141813292Y-117110667D01*
X141805165Y-117108761D01*
X141765113Y-117103985D01*
X141754592Y-117106453D01*
X141751948Y-117109987D01*
X141751948Y-118355142D01*
X141497948Y-118355142D01*
X141497948Y-117115144D01*
X141494251Y-117104987D01*
X141490275Y-117102691D01*
X141455738Y-117106321D01*
X141447571Y-117108117D01*
X141285124Y-117163418D01*
X141277559Y-117166977D01*
X141131393Y-117256899D01*
X141124814Y-117262039D01*
X141002201Y-117382111D01*
X140996922Y-117388583D01*
X140903955Y-117532840D01*
X140900245Y-117540314D01*
X140841551Y-117701576D01*
X140839585Y-117709703D01*
X140822845Y-117842212D01*
X140822548Y-117846933D01*
X140822548Y-118355142D01*
X133787348Y-118355142D01*
X133787348Y-117852248D01*
X133787112Y-117848038D01*
X133772828Y-117720691D01*
X133770975Y-117712531D01*
X133714539Y-117550471D01*
X133710930Y-117542937D01*
X133619991Y-117397406D01*
X133614800Y-117390855D01*
X133493873Y-117269082D01*
X133487371Y-117263854D01*
X133342475Y-117171899D01*
X133334961Y-117168234D01*
X133173292Y-117110667D01*
X133165165Y-117108761D01*
X133125113Y-117103985D01*
X133114592Y-117106453D01*
X133111948Y-117109987D01*
X133111948Y-118355142D01*
X132857948Y-118355142D01*
X132857948Y-117115144D01*
X132854251Y-117104987D01*
X132850275Y-117102691D01*
X132815738Y-117106321D01*
X132807571Y-117108117D01*
X132645124Y-117163418D01*
X132637559Y-117166977D01*
X132491393Y-117256899D01*
X132484814Y-117262039D01*
X132362201Y-117382111D01*
X132356922Y-117388583D01*
X132263955Y-117532840D01*
X132260245Y-117540314D01*
X132201551Y-117701576D01*
X132199585Y-117709703D01*
X132182845Y-117842212D01*
X132182548Y-117846933D01*
X132182548Y-118355142D01*
X121351100Y-118355142D01*
X121403233Y-118346885D01*
X121509893Y-118292539D01*
X121594539Y-118207893D01*
X121604214Y-118188906D01*
X121639951Y-118118767D01*
X121648885Y-118101233D01*
X121667611Y-117983000D01*
X121648885Y-117864767D01*
X121594539Y-117758107D01*
X121509893Y-117673461D01*
X121403233Y-117619115D01*
X121285000Y-117600389D01*
X121166767Y-117619115D01*
X121060107Y-117673461D01*
X120975461Y-117758107D01*
X120921115Y-117864767D01*
X120902389Y-117983000D01*
X120015000Y-117983000D01*
X120015000Y-116967000D01*
X153922389Y-116967000D01*
X153941115Y-117085233D01*
X153970135Y-117142187D01*
X153985274Y-117171899D01*
X153995461Y-117191893D01*
X154080107Y-117276539D01*
X154186767Y-117330885D01*
X154305000Y-117349611D01*
X154423233Y-117330885D01*
X154483848Y-117300000D01*
X155794551Y-117300000D01*
X155794783Y-117302948D01*
X155801702Y-117390855D01*
X155814317Y-117551148D01*
X155815007Y-117554022D01*
X155843682Y-117673461D01*
X155873127Y-117796111D01*
X155969534Y-118028859D01*
X155971079Y-118031381D01*
X155971081Y-118031384D01*
X156024630Y-118118767D01*
X156101164Y-118243659D01*
X156264776Y-118435224D01*
X156456341Y-118598836D01*
X156499857Y-118625503D01*
X156668616Y-118728919D01*
X156668619Y-118728921D01*
X156671141Y-118730466D01*
X156680977Y-118734540D01*
X156901155Y-118825741D01*
X156901160Y-118825743D01*
X156903889Y-118826873D01*
X156906766Y-118827564D01*
X156906770Y-118827565D01*
X157107457Y-118875745D01*
X157148852Y-118885683D01*
X157151796Y-118885915D01*
X157151798Y-118885915D01*
X157335640Y-118900384D01*
X157335648Y-118900384D01*
X157337118Y-118900500D01*
X157462882Y-118900500D01*
X157464352Y-118900384D01*
X157464360Y-118900384D01*
X157648202Y-118885915D01*
X157648204Y-118885915D01*
X157651148Y-118885683D01*
X157692543Y-118875745D01*
X157893230Y-118827565D01*
X157893234Y-118827564D01*
X157896111Y-118826873D01*
X157898840Y-118825743D01*
X157898845Y-118825741D01*
X158119023Y-118734540D01*
X158128859Y-118730466D01*
X158131381Y-118728921D01*
X158131384Y-118728919D01*
X158300143Y-118625503D01*
X158343659Y-118598836D01*
X158535224Y-118435224D01*
X158698836Y-118243659D01*
X158775370Y-118118767D01*
X158828919Y-118031384D01*
X158828921Y-118031381D01*
X158830466Y-118028859D01*
X158926873Y-117796111D01*
X158956319Y-117673461D01*
X158984993Y-117554022D01*
X158985683Y-117551148D01*
X158998299Y-117390855D01*
X159005217Y-117302948D01*
X159005449Y-117300000D01*
X159003016Y-117269082D01*
X158985915Y-117051798D01*
X158985915Y-117051796D01*
X158985683Y-117048852D01*
X158966032Y-116967000D01*
X158927565Y-116806770D01*
X158927564Y-116806766D01*
X158926873Y-116803889D01*
X158830466Y-116571141D01*
X158698836Y-116356341D01*
X158535224Y-116164776D01*
X158343659Y-116001164D01*
X158233896Y-115933901D01*
X158131384Y-115871081D01*
X158131381Y-115871079D01*
X158128859Y-115869534D01*
X158053750Y-115838423D01*
X157898845Y-115774259D01*
X157898840Y-115774257D01*
X157896111Y-115773127D01*
X157893234Y-115772436D01*
X157893230Y-115772435D01*
X157654022Y-115715007D01*
X157651148Y-115714317D01*
X157648204Y-115714085D01*
X157648202Y-115714085D01*
X157464360Y-115699616D01*
X157464352Y-115699616D01*
X157462882Y-115699500D01*
X157337118Y-115699500D01*
X157335648Y-115699616D01*
X157335640Y-115699616D01*
X157151798Y-115714085D01*
X157151796Y-115714085D01*
X157148852Y-115714317D01*
X157145978Y-115715007D01*
X156906770Y-115772435D01*
X156906766Y-115772436D01*
X156903889Y-115773127D01*
X156901160Y-115774257D01*
X156901155Y-115774259D01*
X156746250Y-115838423D01*
X156671141Y-115869534D01*
X156668619Y-115871079D01*
X156668616Y-115871081D01*
X156566104Y-115933901D01*
X156456341Y-116001164D01*
X156264776Y-116164776D01*
X156101164Y-116356341D01*
X155969534Y-116571141D01*
X155873127Y-116803889D01*
X155872436Y-116806766D01*
X155872435Y-116806770D01*
X155833968Y-116967000D01*
X155814317Y-117048852D01*
X155814085Y-117051796D01*
X155814085Y-117051798D01*
X155796984Y-117269082D01*
X155794551Y-117300000D01*
X154483848Y-117300000D01*
X154529893Y-117276539D01*
X154614539Y-117191893D01*
X154624727Y-117171899D01*
X154639865Y-117142187D01*
X154668885Y-117085233D01*
X154687611Y-116967000D01*
X154668885Y-116848767D01*
X154614539Y-116742107D01*
X154529893Y-116657461D01*
X154423233Y-116603115D01*
X154305000Y-116584389D01*
X154186767Y-116603115D01*
X154080107Y-116657461D01*
X153995461Y-116742107D01*
X153941115Y-116848767D01*
X153922389Y-116967000D01*
X120015000Y-116967000D01*
X120015000Y-115338552D01*
X132182548Y-115338552D01*
X132182784Y-115342762D01*
X132197068Y-115470109D01*
X132198921Y-115478269D01*
X132255357Y-115640329D01*
X132258966Y-115647863D01*
X132349905Y-115793394D01*
X132355096Y-115799945D01*
X132476023Y-115921718D01*
X132482525Y-115926946D01*
X132627421Y-116018901D01*
X132634935Y-116022566D01*
X132796604Y-116080133D01*
X132804731Y-116082039D01*
X132844783Y-116086815D01*
X132855304Y-116084347D01*
X132857948Y-116080813D01*
X132857948Y-116075656D01*
X133111948Y-116075656D01*
X133115645Y-116085813D01*
X133119621Y-116088109D01*
X133154158Y-116084479D01*
X133162325Y-116082683D01*
X133324772Y-116027382D01*
X133332337Y-116023823D01*
X133478503Y-115933901D01*
X133485082Y-115928761D01*
X133607695Y-115808689D01*
X133612974Y-115802217D01*
X133705941Y-115657960D01*
X133709651Y-115650486D01*
X133718984Y-115624843D01*
X134085341Y-115624843D01*
X134086231Y-115628167D01*
X134086383Y-115628315D01*
X134110062Y-115644077D01*
X134119642Y-115648646D01*
X134244826Y-115687756D01*
X134255309Y-115689454D01*
X134386436Y-115691858D01*
X134396971Y-115690546D01*
X134523513Y-115656047D01*
X134533244Y-115651835D01*
X134567503Y-115630800D01*
X134574227Y-115622333D01*
X134574154Y-115619634D01*
X134573344Y-115618400D01*
X134339326Y-115384382D01*
X134329527Y-115379813D01*
X134323536Y-115381418D01*
X134089910Y-115615044D01*
X134085341Y-115624843D01*
X133718984Y-115624843D01*
X133768345Y-115489224D01*
X133771299Y-115477014D01*
X133772706Y-115477354D01*
X133793678Y-115436563D01*
X133841102Y-115416636D01*
X133890239Y-115431855D01*
X133899087Y-115439746D01*
X133901355Y-115442116D01*
X133906556Y-115439188D01*
X134140967Y-115204777D01*
X134145142Y-115195822D01*
X134514362Y-115195822D01*
X134515967Y-115201813D01*
X134729366Y-115415212D01*
X134745023Y-115438100D01*
X134752542Y-115455189D01*
X134752545Y-115455193D01*
X134754701Y-115460094D01*
X134846084Y-115568807D01*
X134850543Y-115571775D01*
X134850544Y-115571776D01*
X134864087Y-115580791D01*
X134964307Y-115647503D01*
X134969419Y-115649100D01*
X134969421Y-115649101D01*
X134997777Y-115657960D01*
X135099865Y-115689855D01*
X135164915Y-115691047D01*
X135236499Y-115692359D01*
X135236501Y-115692359D01*
X135241861Y-115692457D01*
X135247032Y-115691047D01*
X135247034Y-115691047D01*
X135368393Y-115657960D01*
X135378880Y-115655101D01*
X135386397Y-115650486D01*
X135495342Y-115583594D01*
X135495343Y-115583594D01*
X135499907Y-115580791D01*
X135503501Y-115576821D01*
X135503504Y-115576818D01*
X135548997Y-115526557D01*
X135594478Y-115502526D01*
X135644766Y-115513352D01*
X135662314Y-115528633D01*
X135696084Y-115568807D01*
X135700543Y-115571775D01*
X135700544Y-115571776D01*
X135714087Y-115580791D01*
X135814307Y-115647503D01*
X135819419Y-115649100D01*
X135819421Y-115649101D01*
X135847777Y-115657960D01*
X135949865Y-115689855D01*
X136014915Y-115691047D01*
X136086499Y-115692359D01*
X136086501Y-115692359D01*
X136091861Y-115692457D01*
X136097032Y-115691047D01*
X136097034Y-115691047D01*
X136218393Y-115657960D01*
X136228880Y-115655101D01*
X136236397Y-115650486D01*
X136345342Y-115583594D01*
X136345343Y-115583594D01*
X136349907Y-115580791D01*
X136353501Y-115576821D01*
X136353504Y-115576818D01*
X136398997Y-115526557D01*
X136444478Y-115502526D01*
X136494766Y-115513352D01*
X136512314Y-115528633D01*
X136546084Y-115568807D01*
X136550543Y-115571775D01*
X136550544Y-115571776D01*
X136564087Y-115580791D01*
X136664307Y-115647503D01*
X136669419Y-115649100D01*
X136669421Y-115649101D01*
X136697777Y-115657960D01*
X136799865Y-115689855D01*
X136864915Y-115691047D01*
X136936499Y-115692359D01*
X136936501Y-115692359D01*
X136941861Y-115692457D01*
X136947032Y-115691047D01*
X136947034Y-115691047D01*
X137068393Y-115657960D01*
X137078880Y-115655101D01*
X137086397Y-115650486D01*
X137195342Y-115583594D01*
X137195343Y-115583594D01*
X137199907Y-115580791D01*
X137203499Y-115576823D01*
X137203501Y-115576821D01*
X137248998Y-115526556D01*
X137294480Y-115502526D01*
X137344768Y-115513352D01*
X137362315Y-115528633D01*
X137396085Y-115568807D01*
X137400544Y-115571775D01*
X137400545Y-115571776D01*
X137414088Y-115580791D01*
X137514308Y-115647503D01*
X137519420Y-115649100D01*
X137519422Y-115649101D01*
X137547778Y-115657960D01*
X137649866Y-115689855D01*
X137714916Y-115691047D01*
X137786500Y-115692359D01*
X137786502Y-115692359D01*
X137791862Y-115692457D01*
X137797033Y-115691047D01*
X137797035Y-115691047D01*
X137918394Y-115657960D01*
X137928881Y-115655101D01*
X137936398Y-115650486D01*
X138045343Y-115583594D01*
X138045344Y-115583594D01*
X138049908Y-115580791D01*
X138053500Y-115576823D01*
X138053502Y-115576821D01*
X138098997Y-115526558D01*
X138144479Y-115502528D01*
X138194767Y-115513354D01*
X138212313Y-115528633D01*
X138246083Y-115568807D01*
X138250542Y-115571775D01*
X138250543Y-115571776D01*
X138264086Y-115580791D01*
X138364306Y-115647503D01*
X138369418Y-115649100D01*
X138369420Y-115649101D01*
X138397776Y-115657960D01*
X138499864Y-115689855D01*
X138564914Y-115691047D01*
X138636498Y-115692359D01*
X138636500Y-115692359D01*
X138641860Y-115692457D01*
X138647031Y-115691047D01*
X138647033Y-115691047D01*
X138768392Y-115657960D01*
X138778879Y-115655101D01*
X138786396Y-115650486D01*
X138895341Y-115583594D01*
X138895342Y-115583594D01*
X138899906Y-115580791D01*
X138903498Y-115576823D01*
X138903500Y-115576821D01*
X138948997Y-115526556D01*
X138994479Y-115502526D01*
X139044767Y-115513352D01*
X139062314Y-115528633D01*
X139096084Y-115568807D01*
X139100543Y-115571775D01*
X139100544Y-115571776D01*
X139114087Y-115580791D01*
X139214307Y-115647503D01*
X139219419Y-115649100D01*
X139219421Y-115649101D01*
X139247777Y-115657960D01*
X139349865Y-115689855D01*
X139414915Y-115691047D01*
X139486499Y-115692359D01*
X139486501Y-115692359D01*
X139491861Y-115692457D01*
X139497032Y-115691047D01*
X139497034Y-115691047D01*
X139618393Y-115657960D01*
X139628880Y-115655101D01*
X139636397Y-115650486D01*
X139678161Y-115624843D01*
X140035342Y-115624843D01*
X140036232Y-115628167D01*
X140036384Y-115628315D01*
X140060063Y-115644077D01*
X140069643Y-115648646D01*
X140194827Y-115687756D01*
X140205310Y-115689454D01*
X140336437Y-115691858D01*
X140346972Y-115690546D01*
X140473514Y-115656047D01*
X140483245Y-115651835D01*
X140517504Y-115630800D01*
X140524228Y-115622333D01*
X140524155Y-115619634D01*
X140523345Y-115618400D01*
X140289327Y-115384382D01*
X140279528Y-115379813D01*
X140273537Y-115381418D01*
X140039911Y-115615044D01*
X140035342Y-115624843D01*
X139678161Y-115624843D01*
X139745342Y-115583594D01*
X139745343Y-115583594D01*
X139749907Y-115580791D01*
X139753499Y-115576823D01*
X139753501Y-115576821D01*
X139798998Y-115526556D01*
X139845212Y-115475499D01*
X139863145Y-115438484D01*
X139877646Y-115418099D01*
X140090968Y-115204777D01*
X140095143Y-115195822D01*
X140464363Y-115195822D01*
X140465968Y-115201813D01*
X140699966Y-115435811D01*
X140709765Y-115440380D01*
X140715865Y-115438746D01*
X140752443Y-115417985D01*
X140803034Y-115427291D01*
X140835808Y-115466939D01*
X140838286Y-115475476D01*
X140838919Y-115478264D01*
X140895357Y-115640329D01*
X140898966Y-115647863D01*
X140989905Y-115793394D01*
X140995096Y-115799945D01*
X141116023Y-115921718D01*
X141122525Y-115926946D01*
X141267421Y-116018901D01*
X141274935Y-116022566D01*
X141436604Y-116080133D01*
X141444731Y-116082039D01*
X141484783Y-116086815D01*
X141495304Y-116084347D01*
X141497948Y-116080813D01*
X141497948Y-116075656D01*
X141751948Y-116075656D01*
X141755645Y-116085813D01*
X141759621Y-116088109D01*
X141794158Y-116084479D01*
X141802325Y-116082683D01*
X141964772Y-116027382D01*
X141972337Y-116023823D01*
X142118503Y-115933901D01*
X142125082Y-115928761D01*
X142247695Y-115808689D01*
X142252974Y-115802217D01*
X142320782Y-115697000D01*
X153922389Y-115697000D01*
X153941115Y-115815233D01*
X153995461Y-115921893D01*
X154080107Y-116006539D01*
X154186767Y-116060885D01*
X154305000Y-116079611D01*
X154423233Y-116060885D01*
X154529893Y-116006539D01*
X154614539Y-115921893D01*
X154668885Y-115815233D01*
X154687611Y-115697000D01*
X154668885Y-115578767D01*
X154614539Y-115472107D01*
X154529893Y-115387461D01*
X154523851Y-115384382D01*
X154442166Y-115342762D01*
X154423233Y-115333115D01*
X154305000Y-115314389D01*
X154186767Y-115333115D01*
X154167834Y-115342762D01*
X154086150Y-115384382D01*
X154080107Y-115387461D01*
X153995461Y-115472107D01*
X153941115Y-115578767D01*
X153922389Y-115697000D01*
X142320782Y-115697000D01*
X142345941Y-115657960D01*
X142349651Y-115650486D01*
X142408345Y-115489224D01*
X142410311Y-115481097D01*
X142427051Y-115348588D01*
X142427348Y-115343867D01*
X142427348Y-115062000D01*
X152779389Y-115062000D01*
X152798115Y-115180233D01*
X152852461Y-115286893D01*
X152937107Y-115371539D01*
X152942383Y-115374227D01*
X152942384Y-115374228D01*
X152976579Y-115391651D01*
X153043767Y-115425885D01*
X153081461Y-115431855D01*
X153120891Y-115438100D01*
X153162000Y-115444611D01*
X153203110Y-115438100D01*
X153242539Y-115431855D01*
X153280233Y-115425885D01*
X153347421Y-115391651D01*
X153381616Y-115374228D01*
X153381617Y-115374227D01*
X153386893Y-115371539D01*
X153471539Y-115286893D01*
X153525885Y-115180233D01*
X153544611Y-115062000D01*
X153525885Y-114943767D01*
X153471539Y-114837107D01*
X153386893Y-114752461D01*
X153360789Y-114739160D01*
X153287932Y-114702038D01*
X153280233Y-114698115D01*
X153194232Y-114684494D01*
X153167847Y-114680315D01*
X153162000Y-114679389D01*
X153156153Y-114680315D01*
X153129768Y-114684494D01*
X153043767Y-114698115D01*
X153036068Y-114702038D01*
X152963212Y-114739160D01*
X152937107Y-114752461D01*
X152852461Y-114837107D01*
X152798115Y-114943767D01*
X152779389Y-115062000D01*
X142427348Y-115062000D01*
X142427348Y-114485658D01*
X142423651Y-114475501D01*
X142418279Y-114472399D01*
X141765207Y-114472399D01*
X141755050Y-114476096D01*
X141751948Y-114481468D01*
X141751948Y-116075656D01*
X141497948Y-116075656D01*
X141497948Y-114485658D01*
X141494251Y-114475501D01*
X141488879Y-114472399D01*
X140835807Y-114472399D01*
X140825650Y-114476096D01*
X140822548Y-114481468D01*
X140822548Y-114881819D01*
X140804955Y-114930157D01*
X140760406Y-114955877D01*
X140735343Y-114951457D01*
X140735309Y-114951808D01*
X140707908Y-114949145D01*
X140703017Y-114951938D01*
X140468932Y-115186023D01*
X140464363Y-115195822D01*
X140095143Y-115195822D01*
X140095537Y-115194978D01*
X140093932Y-115188987D01*
X139879461Y-114974516D01*
X139864179Y-114952467D01*
X139864121Y-114952339D01*
X139851932Y-114925531D01*
X139798046Y-114862993D01*
X139762721Y-114821996D01*
X139762718Y-114821993D01*
X139759227Y-114817942D01*
X139748656Y-114811090D01*
X139682603Y-114768276D01*
X140035556Y-114768276D01*
X140035672Y-114771222D01*
X140036258Y-114772103D01*
X140270573Y-115006418D01*
X140280372Y-115010987D01*
X140286363Y-115009382D01*
X140519750Y-114775995D01*
X140524319Y-114766196D01*
X140523492Y-114763111D01*
X140523035Y-114762670D01*
X140494339Y-114744070D01*
X140484707Y-114739620D01*
X140359047Y-114702038D01*
X140348556Y-114700470D01*
X140217393Y-114699670D01*
X140206889Y-114701109D01*
X140080772Y-114737153D01*
X140071097Y-114741481D01*
X140042173Y-114759730D01*
X140035556Y-114768276D01*
X139682603Y-114768276D01*
X139644548Y-114743610D01*
X139644547Y-114743610D01*
X139640052Y-114740696D01*
X139503986Y-114700004D01*
X139498630Y-114699971D01*
X139498628Y-114699971D01*
X139435279Y-114699584D01*
X139361969Y-114699136D01*
X139225417Y-114738163D01*
X139105307Y-114813947D01*
X139098198Y-114821997D01*
X139061379Y-114863686D01*
X139016194Y-114888270D01*
X138965778Y-114878059D01*
X138948045Y-114862993D01*
X138912723Y-114821999D01*
X138912718Y-114821995D01*
X138909226Y-114817942D01*
X138898655Y-114811090D01*
X138794547Y-114743610D01*
X138794546Y-114743610D01*
X138790051Y-114740696D01*
X138653985Y-114700004D01*
X138648629Y-114699971D01*
X138648627Y-114699971D01*
X138623104Y-114699815D01*
X138574875Y-114681926D01*
X138549428Y-114637221D01*
X138549290Y-114612852D01*
X138557685Y-114559847D01*
X138558611Y-114554000D01*
X138539885Y-114435767D01*
X138540567Y-114435659D01*
X138542199Y-114388950D01*
X138576620Y-114350723D01*
X138613300Y-114341934D01*
X138636497Y-114342359D01*
X138636499Y-114342359D01*
X138641860Y-114342457D01*
X138647031Y-114341047D01*
X138647033Y-114341047D01*
X138726068Y-114319499D01*
X138778879Y-114305101D01*
X138818458Y-114280800D01*
X138895341Y-114233594D01*
X138895342Y-114233594D01*
X138899906Y-114230791D01*
X138903498Y-114226823D01*
X138903500Y-114226821D01*
X138948997Y-114176556D01*
X138994479Y-114152526D01*
X139044767Y-114163352D01*
X139062314Y-114178633D01*
X139096084Y-114218807D01*
X139214307Y-114297503D01*
X139219419Y-114299100D01*
X139219421Y-114299101D01*
X139315463Y-114329107D01*
X139349865Y-114339855D01*
X139414915Y-114341047D01*
X139486499Y-114342359D01*
X139486501Y-114342359D01*
X139491861Y-114342457D01*
X139497032Y-114341047D01*
X139497034Y-114341047D01*
X139576069Y-114319499D01*
X139628880Y-114305101D01*
X139668459Y-114280800D01*
X139678161Y-114274843D01*
X140035342Y-114274843D01*
X140036232Y-114278167D01*
X140036384Y-114278315D01*
X140060063Y-114294077D01*
X140069643Y-114298646D01*
X140194827Y-114337756D01*
X140205310Y-114339454D01*
X140336437Y-114341858D01*
X140346972Y-114340546D01*
X140473514Y-114306047D01*
X140483245Y-114301835D01*
X140517504Y-114280800D01*
X140524228Y-114272333D01*
X140524155Y-114269634D01*
X140523345Y-114268400D01*
X140289327Y-114034382D01*
X140279528Y-114029813D01*
X140273537Y-114031418D01*
X140039911Y-114265044D01*
X140035342Y-114274843D01*
X139678161Y-114274843D01*
X139745342Y-114233594D01*
X139745343Y-114233594D01*
X139749907Y-114230791D01*
X139753499Y-114226823D01*
X139753501Y-114226821D01*
X139815647Y-114158162D01*
X139845212Y-114125499D01*
X139863145Y-114088484D01*
X139877646Y-114068099D01*
X140090968Y-113854777D01*
X140095143Y-113845822D01*
X140464363Y-113845822D01*
X140465968Y-113851813D01*
X140699966Y-114085811D01*
X140709765Y-114090380D01*
X140727884Y-114085525D01*
X140779128Y-114090007D01*
X140815502Y-114126380D01*
X140822548Y-114158162D01*
X140822548Y-114205140D01*
X140826245Y-114215297D01*
X140831617Y-114218399D01*
X141484689Y-114218399D01*
X141494846Y-114214702D01*
X141497948Y-114209330D01*
X141497948Y-114205140D01*
X141751948Y-114205140D01*
X141755645Y-114215297D01*
X141761017Y-114218399D01*
X142414089Y-114218399D01*
X142424246Y-114214702D01*
X142427348Y-114209330D01*
X142427348Y-114046000D01*
X148080389Y-114046000D01*
X148099115Y-114164233D01*
X148153461Y-114270893D01*
X148238107Y-114355539D01*
X148243383Y-114358227D01*
X148243384Y-114358228D01*
X148276957Y-114375334D01*
X148344767Y-114409885D01*
X148463000Y-114428611D01*
X148581233Y-114409885D01*
X148649043Y-114375334D01*
X148682616Y-114358228D01*
X148682617Y-114358227D01*
X148687893Y-114355539D01*
X148772539Y-114270893D01*
X148826885Y-114164233D01*
X148845611Y-114046000D01*
X148843302Y-114031418D01*
X148827811Y-113933614D01*
X148826885Y-113927767D01*
X148797865Y-113870813D01*
X148775228Y-113826384D01*
X148775227Y-113826383D01*
X148772539Y-113821107D01*
X148687893Y-113736461D01*
X148581233Y-113682115D01*
X148463000Y-113663389D01*
X148344767Y-113682115D01*
X148238107Y-113736461D01*
X148153461Y-113821107D01*
X148150773Y-113826383D01*
X148150772Y-113826384D01*
X148128135Y-113870813D01*
X148099115Y-113927767D01*
X148098189Y-113933614D01*
X148082699Y-114031418D01*
X148080389Y-114046000D01*
X142427348Y-114046000D01*
X142427348Y-113352246D01*
X142427112Y-113348036D01*
X142412828Y-113220689D01*
X142410975Y-113212529D01*
X142391638Y-113157000D01*
X157351389Y-113157000D01*
X157370115Y-113275233D01*
X157372802Y-113280506D01*
X157408043Y-113349670D01*
X157424461Y-113381893D01*
X157509107Y-113466539D01*
X157514383Y-113469227D01*
X157514384Y-113469228D01*
X157558813Y-113491865D01*
X157615767Y-113520885D01*
X157621614Y-113521811D01*
X157725527Y-113538269D01*
X157734000Y-113539611D01*
X157742474Y-113538269D01*
X157846386Y-113521811D01*
X157852233Y-113520885D01*
X157909187Y-113491865D01*
X157953616Y-113469228D01*
X157953617Y-113469227D01*
X157958893Y-113466539D01*
X158043539Y-113381893D01*
X158059958Y-113349670D01*
X158095198Y-113280506D01*
X158097885Y-113275233D01*
X158116611Y-113157000D01*
X158097885Y-113038767D01*
X158043539Y-112932107D01*
X157958893Y-112847461D01*
X157852233Y-112793115D01*
X157734000Y-112774389D01*
X157615767Y-112793115D01*
X157509107Y-112847461D01*
X157424461Y-112932107D01*
X157370115Y-113038767D01*
X157351389Y-113157000D01*
X142391638Y-113157000D01*
X142354539Y-113050469D01*
X142350930Y-113042935D01*
X142259991Y-112897404D01*
X142254800Y-112890853D01*
X142133873Y-112769080D01*
X142127371Y-112763852D01*
X141982475Y-112671897D01*
X141974961Y-112668232D01*
X141920951Y-112649000D01*
X142873389Y-112649000D01*
X142892115Y-112767233D01*
X142946461Y-112873893D01*
X143031107Y-112958539D01*
X143137767Y-113012885D01*
X143256000Y-113031611D01*
X143374233Y-113012885D01*
X143480893Y-112958539D01*
X143565539Y-112873893D01*
X143619885Y-112767233D01*
X143638611Y-112649000D01*
X143633249Y-112615142D01*
X143620811Y-112536614D01*
X143619885Y-112530767D01*
X143565539Y-112424107D01*
X143480893Y-112339461D01*
X143374233Y-112285115D01*
X143256000Y-112266389D01*
X143137767Y-112285115D01*
X143031107Y-112339461D01*
X142946461Y-112424107D01*
X142892115Y-112530767D01*
X142891189Y-112536614D01*
X142878752Y-112615142D01*
X142873389Y-112649000D01*
X141920951Y-112649000D01*
X141813292Y-112610665D01*
X141805165Y-112608759D01*
X141765113Y-112603983D01*
X141754592Y-112606451D01*
X141751948Y-112609985D01*
X141751948Y-114205140D01*
X141497948Y-114205140D01*
X141497948Y-112615142D01*
X141494251Y-112604985D01*
X141490275Y-112602689D01*
X141455738Y-112606319D01*
X141447571Y-112608115D01*
X141285124Y-112663416D01*
X141277559Y-112666975D01*
X141131393Y-112756897D01*
X141124814Y-112762037D01*
X141002201Y-112882109D01*
X140996922Y-112888581D01*
X140903955Y-113032838D01*
X140900245Y-113040312D01*
X140841551Y-113201574D01*
X140839585Y-113209701D01*
X140822845Y-113342210D01*
X140822548Y-113346931D01*
X140822548Y-113531819D01*
X140804955Y-113580157D01*
X140760406Y-113605877D01*
X140735343Y-113601457D01*
X140735309Y-113601808D01*
X140707908Y-113599145D01*
X140703017Y-113601938D01*
X140468932Y-113836023D01*
X140464363Y-113845822D01*
X140095143Y-113845822D01*
X140095537Y-113844978D01*
X140093932Y-113838987D01*
X139879461Y-113624516D01*
X139864179Y-113602467D01*
X139864121Y-113602339D01*
X139851932Y-113575531D01*
X139798045Y-113512992D01*
X139762721Y-113471996D01*
X139762718Y-113471993D01*
X139759227Y-113467942D01*
X139688507Y-113422103D01*
X139682603Y-113418276D01*
X140035556Y-113418276D01*
X140035672Y-113421222D01*
X140036258Y-113422103D01*
X140270573Y-113656418D01*
X140280372Y-113660987D01*
X140286363Y-113659382D01*
X140519750Y-113425995D01*
X140524319Y-113416196D01*
X140523492Y-113413111D01*
X140523035Y-113412670D01*
X140494339Y-113394070D01*
X140484707Y-113389620D01*
X140359047Y-113352038D01*
X140348556Y-113350470D01*
X140217393Y-113349670D01*
X140206889Y-113351109D01*
X140080772Y-113387153D01*
X140071097Y-113391481D01*
X140042173Y-113409730D01*
X140035556Y-113418276D01*
X139682603Y-113418276D01*
X139644548Y-113393610D01*
X139644547Y-113393610D01*
X139640052Y-113390696D01*
X139503986Y-113350004D01*
X139498630Y-113349971D01*
X139498628Y-113349971D01*
X139435279Y-113349584D01*
X139361969Y-113349136D01*
X139225417Y-113388163D01*
X139105307Y-113463947D01*
X139098198Y-113471997D01*
X139061379Y-113513686D01*
X139016194Y-113538270D01*
X138965778Y-113528059D01*
X138948045Y-113512993D01*
X138912723Y-113471999D01*
X138912718Y-113471995D01*
X138909226Y-113467942D01*
X138838506Y-113422103D01*
X138794547Y-113393610D01*
X138794546Y-113393610D01*
X138790051Y-113390696D01*
X138653985Y-113350004D01*
X138648629Y-113349971D01*
X138648627Y-113349971D01*
X138585278Y-113349584D01*
X138511968Y-113349136D01*
X138375416Y-113388163D01*
X138255306Y-113463947D01*
X138248197Y-113471997D01*
X138211380Y-113513684D01*
X138166195Y-113538268D01*
X138115779Y-113528057D01*
X138098046Y-113512992D01*
X138062722Y-113471997D01*
X138062721Y-113471996D01*
X138059228Y-113467942D01*
X137988508Y-113422103D01*
X137944549Y-113393610D01*
X137944548Y-113393610D01*
X137940053Y-113390696D01*
X137803987Y-113350004D01*
X137798631Y-113349971D01*
X137798629Y-113349971D01*
X137735280Y-113349584D01*
X137661970Y-113349136D01*
X137525418Y-113388163D01*
X137405308Y-113463947D01*
X137398199Y-113471997D01*
X137361380Y-113513686D01*
X137316195Y-113538270D01*
X137265779Y-113528059D01*
X137248046Y-113512993D01*
X137212724Y-113471999D01*
X137212719Y-113471995D01*
X137209227Y-113467942D01*
X137138507Y-113422103D01*
X137094548Y-113393610D01*
X137094547Y-113393610D01*
X137090052Y-113390696D01*
X136953986Y-113350004D01*
X136948630Y-113349971D01*
X136948628Y-113349971D01*
X136885279Y-113349584D01*
X136811969Y-113349136D01*
X136675417Y-113388163D01*
X136555307Y-113463947D01*
X136548198Y-113471997D01*
X136511380Y-113513685D01*
X136466195Y-113538269D01*
X136415779Y-113528058D01*
X136398046Y-113512993D01*
X136362721Y-113471997D01*
X136362720Y-113471996D01*
X136359227Y-113467942D01*
X136288507Y-113422103D01*
X136244548Y-113393610D01*
X136244547Y-113393610D01*
X136240052Y-113390696D01*
X136103986Y-113350004D01*
X136098630Y-113349971D01*
X136098628Y-113349971D01*
X136035279Y-113349584D01*
X135961969Y-113349136D01*
X135825417Y-113388163D01*
X135705307Y-113463947D01*
X135698198Y-113471997D01*
X135661380Y-113513685D01*
X135616195Y-113538269D01*
X135565779Y-113528058D01*
X135548046Y-113512993D01*
X135512721Y-113471997D01*
X135512720Y-113471996D01*
X135509227Y-113467942D01*
X135438507Y-113422103D01*
X135394548Y-113393610D01*
X135394547Y-113393610D01*
X135390052Y-113390696D01*
X135253986Y-113350004D01*
X135248630Y-113349971D01*
X135248628Y-113349971D01*
X135185279Y-113349584D01*
X135111969Y-113349136D01*
X134975417Y-113388163D01*
X134855307Y-113463947D01*
X134761295Y-113570396D01*
X134747374Y-113600047D01*
X134746298Y-113602339D01*
X134731401Y-113623553D01*
X134518931Y-113836023D01*
X134514362Y-113845822D01*
X134515967Y-113851813D01*
X134729366Y-114065212D01*
X134745023Y-114088100D01*
X134752542Y-114105189D01*
X134752545Y-114105193D01*
X134754701Y-114110094D01*
X134846084Y-114218807D01*
X134964307Y-114297503D01*
X134969419Y-114299100D01*
X134969421Y-114299101D01*
X135065463Y-114329107D01*
X135099865Y-114339855D01*
X135164915Y-114341047D01*
X135236499Y-114342359D01*
X135236501Y-114342359D01*
X135241861Y-114342457D01*
X135247032Y-114341047D01*
X135247034Y-114341047D01*
X135326069Y-114319499D01*
X135378880Y-114305101D01*
X135418459Y-114280800D01*
X135495342Y-114233594D01*
X135495343Y-114233594D01*
X135499907Y-114230791D01*
X135503501Y-114226821D01*
X135503504Y-114226818D01*
X135548997Y-114176557D01*
X135594478Y-114152526D01*
X135644766Y-114163352D01*
X135662314Y-114178633D01*
X135696084Y-114218807D01*
X135814307Y-114297503D01*
X135819419Y-114299100D01*
X135819421Y-114299101D01*
X135915463Y-114329107D01*
X135949865Y-114339855D01*
X136065038Y-114341965D01*
X136113045Y-114360441D01*
X136137944Y-114405452D01*
X136137934Y-114428916D01*
X136132016Y-114466281D01*
X136132942Y-114472128D01*
X136134421Y-114481468D01*
X136150742Y-114584514D01*
X136153429Y-114589787D01*
X136153429Y-114589788D01*
X136153821Y-114590557D01*
X136153907Y-114591260D01*
X136155258Y-114595417D01*
X136154450Y-114595680D01*
X136160089Y-114641614D01*
X136132073Y-114684755D01*
X136086358Y-114699896D01*
X136027905Y-114699539D01*
X135961969Y-114699136D01*
X135825417Y-114738163D01*
X135705307Y-114813947D01*
X135698198Y-114821997D01*
X135661380Y-114863685D01*
X135616195Y-114888269D01*
X135565779Y-114878058D01*
X135548046Y-114862993D01*
X135512721Y-114821997D01*
X135512720Y-114821996D01*
X135509227Y-114817942D01*
X135498656Y-114811090D01*
X135394548Y-114743610D01*
X135394547Y-114743610D01*
X135390052Y-114740696D01*
X135253986Y-114700004D01*
X135248630Y-114699971D01*
X135248628Y-114699971D01*
X135185279Y-114699584D01*
X135111969Y-114699136D01*
X134975417Y-114738163D01*
X134855307Y-114813947D01*
X134761295Y-114920396D01*
X134747577Y-114949614D01*
X134746298Y-114952339D01*
X134731401Y-114973553D01*
X134518931Y-115186023D01*
X134514362Y-115195822D01*
X134145142Y-115195822D01*
X134145536Y-115194978D01*
X134143931Y-115188987D01*
X133909560Y-114954616D01*
X133899761Y-114950047D01*
X133882012Y-114954803D01*
X133830768Y-114950321D01*
X133794394Y-114913948D01*
X133787348Y-114882166D01*
X133787348Y-114768276D01*
X134085555Y-114768276D01*
X134085671Y-114771222D01*
X134086257Y-114772103D01*
X134320572Y-115006418D01*
X134330371Y-115010987D01*
X134336362Y-115009382D01*
X134569749Y-114775995D01*
X134574318Y-114766196D01*
X134573491Y-114763111D01*
X134573034Y-114762670D01*
X134544338Y-114744070D01*
X134534706Y-114739620D01*
X134409046Y-114702038D01*
X134398555Y-114700470D01*
X134267392Y-114699670D01*
X134256888Y-114701109D01*
X134130771Y-114737153D01*
X134121096Y-114741481D01*
X134092172Y-114759730D01*
X134085555Y-114768276D01*
X133787348Y-114768276D01*
X133787348Y-114485658D01*
X133783651Y-114475501D01*
X133778279Y-114472399D01*
X133125207Y-114472399D01*
X133115050Y-114476096D01*
X133111948Y-114481468D01*
X133111948Y-116075656D01*
X132857948Y-116075656D01*
X132857948Y-114485658D01*
X132854251Y-114475501D01*
X132848879Y-114472399D01*
X132195807Y-114472399D01*
X132185650Y-114476096D01*
X132182548Y-114481468D01*
X132182548Y-115338552D01*
X120015000Y-115338552D01*
X120015000Y-114808000D01*
X129919389Y-114808000D01*
X129938115Y-114926233D01*
X129962226Y-114973553D01*
X129980482Y-115009382D01*
X129992461Y-115032893D01*
X130077107Y-115117539D01*
X130183767Y-115171885D01*
X130189614Y-115172811D01*
X130293603Y-115189281D01*
X130302000Y-115190611D01*
X130310398Y-115189281D01*
X130414386Y-115172811D01*
X130420233Y-115171885D01*
X130526893Y-115117539D01*
X130611539Y-115032893D01*
X130623519Y-115009382D01*
X130641774Y-114973553D01*
X130665885Y-114926233D01*
X130684611Y-114808000D01*
X130665885Y-114689767D01*
X130615693Y-114591260D01*
X130614228Y-114588384D01*
X130614227Y-114588383D01*
X130611539Y-114583107D01*
X130526893Y-114498461D01*
X130493543Y-114481468D01*
X130452261Y-114460434D01*
X130420233Y-114444115D01*
X130302000Y-114425389D01*
X130183767Y-114444115D01*
X130151739Y-114460434D01*
X130110458Y-114481468D01*
X130077107Y-114498461D01*
X129992461Y-114583107D01*
X129989773Y-114588383D01*
X129989772Y-114588384D01*
X129988307Y-114591260D01*
X129938115Y-114689767D01*
X129919389Y-114808000D01*
X120015000Y-114808000D01*
X120015000Y-114274843D01*
X134085341Y-114274843D01*
X134086231Y-114278167D01*
X134086383Y-114278315D01*
X134110062Y-114294077D01*
X134119642Y-114298646D01*
X134244826Y-114337756D01*
X134255309Y-114339454D01*
X134386436Y-114341858D01*
X134396971Y-114340546D01*
X134523513Y-114306047D01*
X134533244Y-114301835D01*
X134567503Y-114280800D01*
X134574227Y-114272333D01*
X134574154Y-114269634D01*
X134573344Y-114268400D01*
X134339326Y-114034382D01*
X134329527Y-114029813D01*
X134323536Y-114031418D01*
X134089910Y-114265044D01*
X134085341Y-114274843D01*
X120015000Y-114274843D01*
X120015000Y-114205140D01*
X132182548Y-114205140D01*
X132186245Y-114215297D01*
X132191617Y-114218399D01*
X132844689Y-114218399D01*
X132854846Y-114214702D01*
X132857948Y-114209330D01*
X132857948Y-114205140D01*
X133111948Y-114205140D01*
X133115645Y-114215297D01*
X133121017Y-114218399D01*
X133774089Y-114218399D01*
X133784246Y-114214702D01*
X133787348Y-114209330D01*
X133787348Y-114160325D01*
X133804941Y-114111987D01*
X133849490Y-114086267D01*
X133874031Y-114090595D01*
X133874186Y-114089177D01*
X133901301Y-114092146D01*
X133906556Y-114089188D01*
X134140967Y-113854777D01*
X134145536Y-113844978D01*
X134143931Y-113838987D01*
X133909560Y-113604616D01*
X133899761Y-113600047D01*
X133882012Y-113604803D01*
X133830768Y-113600321D01*
X133794394Y-113563948D01*
X133787348Y-113532166D01*
X133787348Y-113418276D01*
X134085555Y-113418276D01*
X134085671Y-113421222D01*
X134086257Y-113422103D01*
X134320572Y-113656418D01*
X134330371Y-113660987D01*
X134336362Y-113659382D01*
X134569749Y-113425995D01*
X134574318Y-113416196D01*
X134573491Y-113413111D01*
X134573034Y-113412670D01*
X134544338Y-113394070D01*
X134534706Y-113389620D01*
X134409046Y-113352038D01*
X134398555Y-113350470D01*
X134267392Y-113349670D01*
X134256888Y-113351109D01*
X134130771Y-113387153D01*
X134121096Y-113391481D01*
X134092172Y-113409730D01*
X134085555Y-113418276D01*
X133787348Y-113418276D01*
X133787348Y-113352246D01*
X133787112Y-113348036D01*
X133772828Y-113220689D01*
X133770975Y-113212529D01*
X133714539Y-113050469D01*
X133710930Y-113042935D01*
X133619991Y-112897404D01*
X133614800Y-112890853D01*
X133493873Y-112769080D01*
X133487371Y-112763852D01*
X133342475Y-112671897D01*
X133334961Y-112668232D01*
X133173292Y-112610665D01*
X133165165Y-112608759D01*
X133125113Y-112603983D01*
X133114592Y-112606451D01*
X133111948Y-112609985D01*
X133111948Y-114205140D01*
X132857948Y-114205140D01*
X132857948Y-112615142D01*
X132854251Y-112604985D01*
X132850275Y-112602689D01*
X132815738Y-112606319D01*
X132807571Y-112608115D01*
X132645124Y-112663416D01*
X132637559Y-112666975D01*
X132491393Y-112756897D01*
X132484814Y-112762037D01*
X132362201Y-112882109D01*
X132356922Y-112888581D01*
X132263955Y-113032838D01*
X132260245Y-113040312D01*
X132201551Y-113201574D01*
X132199585Y-113209701D01*
X132182845Y-113342210D01*
X132182548Y-113346931D01*
X132182548Y-114205140D01*
X120015000Y-114205140D01*
X120015000Y-110998000D01*
X123188389Y-110998000D01*
X123189315Y-111003847D01*
X123190704Y-111012614D01*
X123207115Y-111116233D01*
X123261461Y-111222893D01*
X123346107Y-111307539D01*
X123452767Y-111361885D01*
X123571000Y-111380611D01*
X123689233Y-111361885D01*
X123795893Y-111307539D01*
X123880539Y-111222893D01*
X123930418Y-111125000D01*
X156589389Y-111125000D01*
X156608115Y-111243233D01*
X156662461Y-111349893D01*
X156747107Y-111434539D01*
X156853767Y-111488885D01*
X156972000Y-111507611D01*
X157090233Y-111488885D01*
X157196893Y-111434539D01*
X157281539Y-111349893D01*
X157335885Y-111243233D01*
X157354611Y-111125000D01*
X157353223Y-111116233D01*
X157336811Y-111012614D01*
X157335885Y-111006767D01*
X157281539Y-110900107D01*
X157196893Y-110815461D01*
X157090233Y-110761115D01*
X156972000Y-110742389D01*
X156853767Y-110761115D01*
X156747107Y-110815461D01*
X156662461Y-110900107D01*
X156608115Y-111006767D01*
X156607189Y-111012614D01*
X156590778Y-111116233D01*
X156589389Y-111125000D01*
X123930418Y-111125000D01*
X123934885Y-111116233D01*
X123951296Y-111012614D01*
X123952685Y-111003847D01*
X123953611Y-110998000D01*
X123934885Y-110879767D01*
X123880539Y-110773107D01*
X123795893Y-110688461D01*
X123764645Y-110672539D01*
X123728707Y-110654228D01*
X123689233Y-110634115D01*
X123571000Y-110615389D01*
X123452767Y-110634115D01*
X123413293Y-110654228D01*
X123377356Y-110672539D01*
X123346107Y-110688461D01*
X123261461Y-110773107D01*
X123207115Y-110879767D01*
X123188389Y-110998000D01*
X120015000Y-110998000D01*
X120015000Y-110342000D01*
X125707389Y-110342000D01*
X125726115Y-110460233D01*
X125780461Y-110566893D01*
X125865107Y-110651539D01*
X125971767Y-110705885D01*
X126090000Y-110724611D01*
X126208233Y-110705885D01*
X126314893Y-110651539D01*
X126399539Y-110566893D01*
X126453885Y-110460233D01*
X126469285Y-110363000D01*
X146429389Y-110363000D01*
X146448115Y-110481233D01*
X146502461Y-110587893D01*
X146587107Y-110672539D01*
X146592383Y-110675227D01*
X146592384Y-110675228D01*
X146626579Y-110692651D01*
X146693767Y-110726885D01*
X146812000Y-110745611D01*
X146930233Y-110726885D01*
X146997421Y-110692651D01*
X147031616Y-110675228D01*
X147031617Y-110675227D01*
X147036893Y-110672539D01*
X147121539Y-110587893D01*
X147175885Y-110481233D01*
X147194611Y-110363000D01*
X154557389Y-110363000D01*
X154576115Y-110481233D01*
X154630461Y-110587893D01*
X154715107Y-110672539D01*
X154720383Y-110675227D01*
X154720384Y-110675228D01*
X154754579Y-110692651D01*
X154821767Y-110726885D01*
X154940000Y-110745611D01*
X155058233Y-110726885D01*
X155125421Y-110692651D01*
X155159616Y-110675228D01*
X155159617Y-110675227D01*
X155164893Y-110672539D01*
X155249539Y-110587893D01*
X155303885Y-110481233D01*
X155322611Y-110363000D01*
X155303885Y-110244767D01*
X155249539Y-110138107D01*
X155164893Y-110053461D01*
X155058233Y-109999115D01*
X154940000Y-109980389D01*
X154821767Y-109999115D01*
X154715107Y-110053461D01*
X154630461Y-110138107D01*
X154576115Y-110244767D01*
X154557389Y-110363000D01*
X147194611Y-110363000D01*
X147175885Y-110244767D01*
X147121539Y-110138107D01*
X147036893Y-110053461D01*
X146930233Y-109999115D01*
X146812000Y-109980389D01*
X146693767Y-109999115D01*
X146587107Y-110053461D01*
X146502461Y-110138107D01*
X146448115Y-110244767D01*
X146429389Y-110363000D01*
X126469285Y-110363000D01*
X126472611Y-110342000D01*
X126453885Y-110223767D01*
X126399539Y-110117107D01*
X126314893Y-110032461D01*
X126208233Y-109978115D01*
X126090000Y-109959389D01*
X125971767Y-109978115D01*
X125865107Y-110032461D01*
X125780461Y-110117107D01*
X125726115Y-110223767D01*
X125707389Y-110342000D01*
X120015000Y-110342000D01*
X120015000Y-109093000D01*
X120902389Y-109093000D01*
X120903315Y-109098847D01*
X120906763Y-109120614D01*
X120921115Y-109211233D01*
X120975461Y-109317893D01*
X121060107Y-109402539D01*
X121065383Y-109405227D01*
X121065384Y-109405228D01*
X121085621Y-109415539D01*
X121166767Y-109456885D01*
X121225883Y-109466248D01*
X121254694Y-109470811D01*
X121285000Y-109475611D01*
X121315307Y-109470811D01*
X121344117Y-109466248D01*
X121403233Y-109456885D01*
X121484379Y-109415539D01*
X121504616Y-109405228D01*
X121504617Y-109405227D01*
X121509893Y-109402539D01*
X121594539Y-109317893D01*
X121637794Y-109233000D01*
X133996389Y-109233000D01*
X134015115Y-109351233D01*
X134069461Y-109457893D01*
X134154107Y-109542539D01*
X134260767Y-109596885D01*
X134379000Y-109615611D01*
X134497233Y-109596885D01*
X134603893Y-109542539D01*
X134688539Y-109457893D01*
X134742885Y-109351233D01*
X134761611Y-109233000D01*
X134760223Y-109224233D01*
X134743811Y-109120614D01*
X134742885Y-109114767D01*
X134738418Y-109106000D01*
X140066389Y-109106000D01*
X140067315Y-109111847D01*
X140068704Y-109120614D01*
X140085115Y-109224233D01*
X140139461Y-109330893D01*
X140224107Y-109415539D01*
X140330767Y-109469885D01*
X140449000Y-109488611D01*
X140567233Y-109469885D01*
X140673893Y-109415539D01*
X140758539Y-109330893D01*
X140812885Y-109224233D01*
X140829296Y-109120614D01*
X140830685Y-109111847D01*
X140831611Y-109106000D01*
X140812885Y-108987767D01*
X140758539Y-108881107D01*
X140673893Y-108796461D01*
X140656603Y-108787651D01*
X140624187Y-108771135D01*
X140567233Y-108742115D01*
X140485153Y-108729115D01*
X140454847Y-108724315D01*
X140449000Y-108723389D01*
X140443153Y-108724315D01*
X140412847Y-108729115D01*
X140330767Y-108742115D01*
X140273813Y-108771135D01*
X140241398Y-108787651D01*
X140224107Y-108796461D01*
X140139461Y-108881107D01*
X140085115Y-108987767D01*
X140066389Y-109106000D01*
X134738418Y-109106000D01*
X134688539Y-109008107D01*
X134603893Y-108923461D01*
X134497233Y-108869115D01*
X134379000Y-108850389D01*
X134260767Y-108869115D01*
X134154107Y-108923461D01*
X134069461Y-109008107D01*
X134015115Y-109114767D01*
X134014189Y-109120614D01*
X133997778Y-109224233D01*
X133996389Y-109233000D01*
X121637794Y-109233000D01*
X121648885Y-109211233D01*
X121663237Y-109120614D01*
X121666685Y-109098847D01*
X121667611Y-109093000D01*
X121648885Y-108974767D01*
X121594539Y-108868107D01*
X121509893Y-108783461D01*
X121403233Y-108729115D01*
X121285000Y-108710389D01*
X121166767Y-108729115D01*
X121060107Y-108783461D01*
X120975461Y-108868107D01*
X120921115Y-108974767D01*
X120902389Y-109093000D01*
X120015000Y-109093000D01*
X120015000Y-108585000D01*
X151763389Y-108585000D01*
X151782115Y-108703233D01*
X151836461Y-108809893D01*
X151921107Y-108894539D01*
X152027767Y-108948885D01*
X152146000Y-108967611D01*
X152264233Y-108948885D01*
X152370893Y-108894539D01*
X152455539Y-108809893D01*
X152509885Y-108703233D01*
X152528611Y-108585000D01*
X152509885Y-108466767D01*
X152455539Y-108360107D01*
X152370893Y-108275461D01*
X152264233Y-108221115D01*
X152146000Y-108202389D01*
X152027767Y-108221115D01*
X151921107Y-108275461D01*
X151836461Y-108360107D01*
X151782115Y-108466767D01*
X151763389Y-108585000D01*
X120015000Y-108585000D01*
X120015000Y-107442000D01*
X131824389Y-107442000D01*
X131843115Y-107560233D01*
X131897461Y-107666893D01*
X131982107Y-107751539D01*
X132088767Y-107805885D01*
X132207000Y-107824611D01*
X132325233Y-107805885D01*
X132431893Y-107751539D01*
X132487432Y-107696000D01*
X140841389Y-107696000D01*
X140860115Y-107814233D01*
X140914461Y-107920893D01*
X140999107Y-108005539D01*
X141105767Y-108059885D01*
X141224000Y-108078611D01*
X141342233Y-108059885D01*
X141448893Y-108005539D01*
X141533539Y-107920893D01*
X141587885Y-107814233D01*
X141606611Y-107696000D01*
X141587885Y-107577767D01*
X141533539Y-107471107D01*
X141448893Y-107386461D01*
X141342233Y-107332115D01*
X141234172Y-107315000D01*
X149477389Y-107315000D01*
X149478315Y-107320847D01*
X149479704Y-107329614D01*
X149496115Y-107433233D01*
X149550461Y-107539893D01*
X149635107Y-107624539D01*
X149741767Y-107678885D01*
X149860000Y-107697611D01*
X149870172Y-107696000D01*
X150874389Y-107696000D01*
X150893115Y-107814233D01*
X150947461Y-107920893D01*
X151032107Y-108005539D01*
X151138767Y-108059885D01*
X151257000Y-108078611D01*
X151375233Y-108059885D01*
X151481893Y-108005539D01*
X151566539Y-107920893D01*
X151620885Y-107814233D01*
X151639611Y-107696000D01*
X151620885Y-107577767D01*
X151566539Y-107471107D01*
X151481893Y-107386461D01*
X151375233Y-107332115D01*
X151257000Y-107313389D01*
X151138767Y-107332115D01*
X151032107Y-107386461D01*
X150947461Y-107471107D01*
X150893115Y-107577767D01*
X150874389Y-107696000D01*
X149870172Y-107696000D01*
X149978233Y-107678885D01*
X150084893Y-107624539D01*
X150169539Y-107539893D01*
X150223885Y-107433233D01*
X150240296Y-107329614D01*
X150241685Y-107320847D01*
X150242611Y-107315000D01*
X150223885Y-107196767D01*
X150169539Y-107090107D01*
X150084893Y-107005461D01*
X150053645Y-106989539D01*
X150035187Y-106980135D01*
X149978233Y-106951115D01*
X149870172Y-106934000D01*
X151763389Y-106934000D01*
X151782115Y-107052233D01*
X151836461Y-107158893D01*
X151921107Y-107243539D01*
X152027767Y-107297885D01*
X152146000Y-107316611D01*
X152264233Y-107297885D01*
X152370893Y-107243539D01*
X152455539Y-107158893D01*
X152509885Y-107052233D01*
X152528611Y-106934000D01*
X152509885Y-106815767D01*
X152455539Y-106709107D01*
X152370893Y-106624461D01*
X152264233Y-106570115D01*
X152146000Y-106551389D01*
X152027767Y-106570115D01*
X151921107Y-106624461D01*
X151836461Y-106709107D01*
X151782115Y-106815767D01*
X151763389Y-106934000D01*
X149870172Y-106934000D01*
X149860000Y-106932389D01*
X149741767Y-106951115D01*
X149684813Y-106980135D01*
X149666356Y-106989539D01*
X149635107Y-107005461D01*
X149550461Y-107090107D01*
X149496115Y-107196767D01*
X149477389Y-107315000D01*
X141234172Y-107315000D01*
X141224000Y-107313389D01*
X141105767Y-107332115D01*
X140999107Y-107386461D01*
X140914461Y-107471107D01*
X140860115Y-107577767D01*
X140841389Y-107696000D01*
X132487432Y-107696000D01*
X132516539Y-107666893D01*
X132570885Y-107560233D01*
X132589611Y-107442000D01*
X132588223Y-107433233D01*
X132572207Y-107332115D01*
X132570885Y-107323767D01*
X132516539Y-107217107D01*
X132431893Y-107132461D01*
X132325233Y-107078115D01*
X132207000Y-107059389D01*
X132088767Y-107078115D01*
X131982107Y-107132461D01*
X131897461Y-107217107D01*
X131843115Y-107323767D01*
X131841793Y-107332115D01*
X131825778Y-107433233D01*
X131824389Y-107442000D01*
X120015000Y-107442000D01*
X120015000Y-106680000D01*
X146556389Y-106680000D01*
X146575115Y-106798233D01*
X146629461Y-106904893D01*
X146714107Y-106989539D01*
X146719383Y-106992227D01*
X146719384Y-106992228D01*
X146753579Y-107009651D01*
X146820767Y-107043885D01*
X146939000Y-107062611D01*
X147057233Y-107043885D01*
X147124421Y-107009651D01*
X147158616Y-106992228D01*
X147158617Y-106992227D01*
X147163893Y-106989539D01*
X147248539Y-106904893D01*
X147302885Y-106798233D01*
X147321611Y-106680000D01*
X147302885Y-106561767D01*
X147248539Y-106455107D01*
X147163893Y-106370461D01*
X147057233Y-106316115D01*
X146939000Y-106297389D01*
X146820767Y-106316115D01*
X146714107Y-106370461D01*
X146629461Y-106455107D01*
X146575115Y-106561767D01*
X146556389Y-106680000D01*
X120015000Y-106680000D01*
X120015000Y-105937491D01*
X120032593Y-105889153D01*
X120077142Y-105863433D01*
X120127800Y-105872366D01*
X120158080Y-105909760D01*
X120159115Y-105909233D01*
X120159384Y-105909760D01*
X120161801Y-105914504D01*
X120161801Y-105914505D01*
X120167227Y-105925153D01*
X120213461Y-106015893D01*
X120298107Y-106100539D01*
X120404767Y-106154885D01*
X120523000Y-106173611D01*
X120641233Y-106154885D01*
X120747893Y-106100539D01*
X120832539Y-106015893D01*
X120875794Y-105931000D01*
X141209389Y-105931000D01*
X141228115Y-106049233D01*
X141282461Y-106155893D01*
X141367107Y-106240539D01*
X141473767Y-106294885D01*
X141592000Y-106313611D01*
X141710233Y-106294885D01*
X141816893Y-106240539D01*
X141901539Y-106155893D01*
X141955885Y-106049233D01*
X141974611Y-105931000D01*
X141971999Y-105914505D01*
X141956811Y-105818614D01*
X141955885Y-105812767D01*
X141901539Y-105706107D01*
X141816893Y-105621461D01*
X141710233Y-105567115D01*
X141592000Y-105548389D01*
X141473767Y-105567115D01*
X141367107Y-105621461D01*
X141282461Y-105706107D01*
X141228115Y-105812767D01*
X141227189Y-105818614D01*
X141212002Y-105914505D01*
X141209389Y-105931000D01*
X120875794Y-105931000D01*
X120886885Y-105909233D01*
X120901237Y-105818614D01*
X120904685Y-105796847D01*
X120905611Y-105791000D01*
X120886885Y-105672767D01*
X120832539Y-105566107D01*
X120747893Y-105481461D01*
X120716645Y-105465539D01*
X120698187Y-105456135D01*
X120641233Y-105427115D01*
X120523000Y-105408389D01*
X120404767Y-105427115D01*
X120347813Y-105456135D01*
X120329356Y-105465539D01*
X120298107Y-105481461D01*
X120213461Y-105566107D01*
X120210773Y-105571383D01*
X120210772Y-105571384D01*
X120183122Y-105625651D01*
X120159115Y-105672767D01*
X120158172Y-105672287D01*
X120130052Y-105708281D01*
X120079736Y-105718977D01*
X120034317Y-105694829D01*
X120015000Y-105644509D01*
X120015000Y-105029000D01*
X123188389Y-105029000D01*
X123189315Y-105034847D01*
X123190704Y-105043614D01*
X123207115Y-105147233D01*
X123261461Y-105253893D01*
X123346107Y-105338539D01*
X123452767Y-105392885D01*
X123571000Y-105411611D01*
X123689233Y-105392885D01*
X123795893Y-105338539D01*
X123880539Y-105253893D01*
X123930418Y-105156000D01*
X128268389Y-105156000D01*
X128287115Y-105274233D01*
X128341461Y-105380893D01*
X128426107Y-105465539D01*
X128431383Y-105468227D01*
X128431384Y-105468228D01*
X128465579Y-105485651D01*
X128532767Y-105519885D01*
X128651000Y-105538611D01*
X128769233Y-105519885D01*
X128836421Y-105485651D01*
X128870616Y-105468228D01*
X128870617Y-105468227D01*
X128875893Y-105465539D01*
X128960539Y-105380893D01*
X129014885Y-105274233D01*
X129033611Y-105156000D01*
X129032223Y-105147233D01*
X129015811Y-105043614D01*
X129014885Y-105037767D01*
X128960539Y-104931107D01*
X128875893Y-104846461D01*
X128841750Y-104829064D01*
X128803125Y-104809384D01*
X128769233Y-104792115D01*
X128651000Y-104773389D01*
X128532767Y-104792115D01*
X128498875Y-104809384D01*
X128460251Y-104829064D01*
X128426107Y-104846461D01*
X128341461Y-104931107D01*
X128287115Y-105037767D01*
X128286189Y-105043614D01*
X128269778Y-105147233D01*
X128268389Y-105156000D01*
X123930418Y-105156000D01*
X123934885Y-105147233D01*
X123951296Y-105043614D01*
X123952685Y-105034847D01*
X123953611Y-105029000D01*
X123934885Y-104910767D01*
X123880539Y-104804107D01*
X123795893Y-104719461D01*
X123689233Y-104665115D01*
X123581172Y-104648000D01*
X134491389Y-104648000D01*
X134492315Y-104653847D01*
X134493000Y-104658172D01*
X134510115Y-104766233D01*
X134512802Y-104771506D01*
X134561771Y-104867613D01*
X134564461Y-104872893D01*
X134649107Y-104957539D01*
X134755767Y-105011885D01*
X134874000Y-105030611D01*
X134992233Y-105011885D01*
X135098893Y-104957539D01*
X135183539Y-104872893D01*
X135186230Y-104867613D01*
X135233418Y-104775000D01*
X141222389Y-104775000D01*
X141241115Y-104893233D01*
X141295461Y-104999893D01*
X141380107Y-105084539D01*
X141486767Y-105138885D01*
X141605000Y-105157611D01*
X141615172Y-105156000D01*
X146556389Y-105156000D01*
X146575115Y-105274233D01*
X146629461Y-105380893D01*
X146714107Y-105465539D01*
X146719383Y-105468227D01*
X146719384Y-105468228D01*
X146753579Y-105485651D01*
X146820767Y-105519885D01*
X146939000Y-105538611D01*
X147057233Y-105519885D01*
X147124421Y-105485651D01*
X147158616Y-105468228D01*
X147158617Y-105468227D01*
X147163893Y-105465539D01*
X147248539Y-105380893D01*
X147302885Y-105274233D01*
X147321611Y-105156000D01*
X147320223Y-105147233D01*
X147303811Y-105043614D01*
X147302885Y-105037767D01*
X147248539Y-104931107D01*
X147163893Y-104846461D01*
X147129750Y-104829064D01*
X147091125Y-104809384D01*
X147057233Y-104792115D01*
X146939000Y-104773389D01*
X146820767Y-104792115D01*
X146786875Y-104809384D01*
X146748251Y-104829064D01*
X146714107Y-104846461D01*
X146629461Y-104931107D01*
X146575115Y-105037767D01*
X146574189Y-105043614D01*
X146557778Y-105147233D01*
X146556389Y-105156000D01*
X141615172Y-105156000D01*
X141723233Y-105138885D01*
X141829893Y-105084539D01*
X141914539Y-104999893D01*
X141968885Y-104893233D01*
X141987611Y-104775000D01*
X141986223Y-104766233D01*
X141970207Y-104665115D01*
X141968885Y-104656767D01*
X141964418Y-104648000D01*
X150620389Y-104648000D01*
X150621315Y-104653847D01*
X150622000Y-104658172D01*
X150639115Y-104766233D01*
X150641802Y-104771506D01*
X150690771Y-104867613D01*
X150693461Y-104872893D01*
X150778107Y-104957539D01*
X150884767Y-105011885D01*
X151003000Y-105030611D01*
X151121233Y-105011885D01*
X151227893Y-104957539D01*
X151267326Y-104918106D01*
X151313946Y-104896366D01*
X151363633Y-104909680D01*
X151373674Y-104918106D01*
X151413107Y-104957539D01*
X151519767Y-105011885D01*
X151638000Y-105030611D01*
X151756233Y-105011885D01*
X151862893Y-104957539D01*
X151947539Y-104872893D01*
X151950228Y-104867616D01*
X151950230Y-104867613D01*
X151951997Y-104864145D01*
X151989618Y-104829064D01*
X152040988Y-104826372D01*
X152082069Y-104857330D01*
X152086003Y-104864145D01*
X152087770Y-104867613D01*
X152087772Y-104867616D01*
X152090461Y-104872893D01*
X152175107Y-104957539D01*
X152281767Y-105011885D01*
X152400000Y-105030611D01*
X152518233Y-105011885D01*
X152624893Y-104957539D01*
X152709539Y-104872893D01*
X152712230Y-104867613D01*
X152761198Y-104771506D01*
X152763885Y-104766233D01*
X152781000Y-104658172D01*
X152781685Y-104653847D01*
X152782611Y-104648000D01*
X152763885Y-104529767D01*
X152717469Y-104438670D01*
X152712228Y-104428384D01*
X152712227Y-104428383D01*
X152709539Y-104423107D01*
X152624893Y-104338461D01*
X152518233Y-104284115D01*
X152400000Y-104265389D01*
X152281767Y-104284115D01*
X152175107Y-104338461D01*
X152090461Y-104423107D01*
X152087772Y-104428384D01*
X152087770Y-104428387D01*
X152086003Y-104431855D01*
X152048382Y-104466936D01*
X151997012Y-104469628D01*
X151955931Y-104438670D01*
X151951997Y-104431855D01*
X151950230Y-104428387D01*
X151950228Y-104428384D01*
X151947539Y-104423107D01*
X151862893Y-104338461D01*
X151756233Y-104284115D01*
X151638000Y-104265389D01*
X151519767Y-104284115D01*
X151413107Y-104338461D01*
X151373674Y-104377894D01*
X151327054Y-104399634D01*
X151277367Y-104386320D01*
X151267326Y-104377894D01*
X151227893Y-104338461D01*
X151121233Y-104284115D01*
X151003000Y-104265389D01*
X150884767Y-104284115D01*
X150778107Y-104338461D01*
X150693461Y-104423107D01*
X150690773Y-104428383D01*
X150690772Y-104428384D01*
X150685531Y-104438670D01*
X150639115Y-104529767D01*
X150620389Y-104648000D01*
X141964418Y-104648000D01*
X141914539Y-104550107D01*
X141829893Y-104465461D01*
X141798645Y-104449539D01*
X141777313Y-104438670D01*
X141723233Y-104411115D01*
X141605000Y-104392389D01*
X141486767Y-104411115D01*
X141432687Y-104438670D01*
X141411356Y-104449539D01*
X141380107Y-104465461D01*
X141295461Y-104550107D01*
X141241115Y-104656767D01*
X141239793Y-104665115D01*
X141223778Y-104766233D01*
X141222389Y-104775000D01*
X135233418Y-104775000D01*
X135235198Y-104771506D01*
X135237885Y-104766233D01*
X135255000Y-104658172D01*
X135255685Y-104653847D01*
X135256611Y-104648000D01*
X135237885Y-104529767D01*
X135191469Y-104438670D01*
X135186228Y-104428384D01*
X135186227Y-104428383D01*
X135183539Y-104423107D01*
X135098893Y-104338461D01*
X134992233Y-104284115D01*
X134874000Y-104265389D01*
X134755767Y-104284115D01*
X134649107Y-104338461D01*
X134564461Y-104423107D01*
X134561773Y-104428383D01*
X134561772Y-104428384D01*
X134556531Y-104438670D01*
X134510115Y-104529767D01*
X134491389Y-104648000D01*
X123581172Y-104648000D01*
X123571000Y-104646389D01*
X123452767Y-104665115D01*
X123346107Y-104719461D01*
X123261461Y-104804107D01*
X123207115Y-104910767D01*
X123188389Y-105029000D01*
X120015000Y-105029000D01*
X120015000Y-104140000D01*
X136904389Y-104140000D01*
X136923115Y-104258233D01*
X136977461Y-104364893D01*
X137062107Y-104449539D01*
X137067383Y-104452227D01*
X137067384Y-104452228D01*
X137101534Y-104469628D01*
X137168767Y-104503885D01*
X137287000Y-104522611D01*
X137405233Y-104503885D01*
X137472466Y-104469628D01*
X137506616Y-104452228D01*
X137506617Y-104452227D01*
X137511893Y-104449539D01*
X137596539Y-104364893D01*
X137650885Y-104258233D01*
X137669611Y-104140000D01*
X137650885Y-104021767D01*
X137596539Y-103915107D01*
X137511893Y-103830461D01*
X137480645Y-103814539D01*
X137462187Y-103805135D01*
X137405233Y-103776115D01*
X137297172Y-103759000D01*
X139825389Y-103759000D01*
X139826315Y-103764847D01*
X139827704Y-103773614D01*
X139844115Y-103877233D01*
X139898461Y-103983893D01*
X139983107Y-104068539D01*
X140089767Y-104122885D01*
X140208000Y-104141611D01*
X140326233Y-104122885D01*
X140432893Y-104068539D01*
X140517539Y-103983893D01*
X140567418Y-103886000D01*
X145794389Y-103886000D01*
X145813115Y-104004233D01*
X145867461Y-104110893D01*
X145952107Y-104195539D01*
X146058767Y-104249885D01*
X146177000Y-104268611D01*
X146295233Y-104249885D01*
X146401893Y-104195539D01*
X146486539Y-104110893D01*
X146540885Y-104004233D01*
X146559611Y-103886000D01*
X146558223Y-103877233D01*
X146542207Y-103776115D01*
X146540885Y-103767767D01*
X146486539Y-103661107D01*
X146401893Y-103576461D01*
X146295233Y-103522115D01*
X146187172Y-103505000D01*
X156589389Y-103505000D01*
X156608115Y-103623233D01*
X156662461Y-103729893D01*
X156747107Y-103814539D01*
X156752383Y-103817227D01*
X156752384Y-103817228D01*
X156786579Y-103834651D01*
X156853767Y-103868885D01*
X156972000Y-103887611D01*
X157090233Y-103868885D01*
X157157421Y-103834651D01*
X157191616Y-103817228D01*
X157191617Y-103817227D01*
X157196893Y-103814539D01*
X157281539Y-103729893D01*
X157335885Y-103623233D01*
X157354611Y-103505000D01*
X157353223Y-103496233D01*
X157337207Y-103395115D01*
X157335885Y-103386767D01*
X157281539Y-103280107D01*
X157196893Y-103195461D01*
X157165645Y-103179539D01*
X157124125Y-103158384D01*
X157090233Y-103141115D01*
X156972000Y-103122389D01*
X156853767Y-103141115D01*
X156819875Y-103158384D01*
X156778356Y-103179539D01*
X156747107Y-103195461D01*
X156662461Y-103280107D01*
X156608115Y-103386767D01*
X156606793Y-103395115D01*
X156590778Y-103496233D01*
X156589389Y-103505000D01*
X146187172Y-103505000D01*
X146177000Y-103503389D01*
X146058767Y-103522115D01*
X145952107Y-103576461D01*
X145867461Y-103661107D01*
X145813115Y-103767767D01*
X145811793Y-103776115D01*
X145795778Y-103877233D01*
X145794389Y-103886000D01*
X140567418Y-103886000D01*
X140571885Y-103877233D01*
X140588296Y-103773614D01*
X140589685Y-103764847D01*
X140590611Y-103759000D01*
X140571885Y-103640767D01*
X140517539Y-103534107D01*
X140432893Y-103449461D01*
X140326233Y-103395115D01*
X140208000Y-103376389D01*
X140089767Y-103395115D01*
X139983107Y-103449461D01*
X139898461Y-103534107D01*
X139844115Y-103640767D01*
X139825389Y-103759000D01*
X137297172Y-103759000D01*
X137287000Y-103757389D01*
X137168767Y-103776115D01*
X137111813Y-103805135D01*
X137093356Y-103814539D01*
X137062107Y-103830461D01*
X136977461Y-103915107D01*
X136923115Y-104021767D01*
X136904389Y-104140000D01*
X120015000Y-104140000D01*
X120015000Y-103378000D01*
X120648389Y-103378000D01*
X120649315Y-103383847D01*
X120650704Y-103392614D01*
X120667115Y-103496233D01*
X120721461Y-103602893D01*
X120806107Y-103687539D01*
X120912767Y-103741885D01*
X121031000Y-103760611D01*
X121149233Y-103741885D01*
X121255893Y-103687539D01*
X121340539Y-103602893D01*
X121394885Y-103496233D01*
X121411296Y-103392614D01*
X121412685Y-103383847D01*
X121413611Y-103378000D01*
X121394885Y-103259767D01*
X121340539Y-103153107D01*
X121255893Y-103068461D01*
X121149233Y-103014115D01*
X121031000Y-102995389D01*
X120912767Y-103014115D01*
X120806107Y-103068461D01*
X120721461Y-103153107D01*
X120667115Y-103259767D01*
X120648389Y-103378000D01*
X120015000Y-103378000D01*
X120015000Y-102870000D01*
X138809389Y-102870000D01*
X138828115Y-102988233D01*
X138882461Y-103094893D01*
X138967107Y-103179539D01*
X138972383Y-103182227D01*
X138972384Y-103182228D01*
X139006579Y-103199651D01*
X139073767Y-103233885D01*
X139192000Y-103252611D01*
X139310233Y-103233885D01*
X139377421Y-103199651D01*
X139411616Y-103182228D01*
X139411617Y-103182227D01*
X139416893Y-103179539D01*
X139501539Y-103094893D01*
X139555885Y-102988233D01*
X139574611Y-102870000D01*
X139555885Y-102751767D01*
X139501539Y-102645107D01*
X139416893Y-102560461D01*
X139310233Y-102506115D01*
X139192000Y-102487389D01*
X139073767Y-102506115D01*
X138967107Y-102560461D01*
X138882461Y-102645107D01*
X138828115Y-102751767D01*
X138809389Y-102870000D01*
X120015000Y-102870000D01*
X120015000Y-102362000D01*
X135634389Y-102362000D01*
X135653115Y-102480233D01*
X135707461Y-102586893D01*
X135792107Y-102671539D01*
X135898767Y-102725885D01*
X136017000Y-102744611D01*
X136135233Y-102725885D01*
X136241893Y-102671539D01*
X136326539Y-102586893D01*
X136380885Y-102480233D01*
X136399611Y-102362000D01*
X136380885Y-102243767D01*
X136332751Y-102149298D01*
X136329228Y-102142384D01*
X136329227Y-102142383D01*
X136326539Y-102137107D01*
X136241893Y-102052461D01*
X136210645Y-102036539D01*
X136192187Y-102027135D01*
X136135233Y-101998115D01*
X136017000Y-101979389D01*
X135898767Y-101998115D01*
X135841813Y-102027135D01*
X135823356Y-102036539D01*
X135792107Y-102052461D01*
X135707461Y-102137107D01*
X135704773Y-102142383D01*
X135704772Y-102142384D01*
X135701249Y-102149298D01*
X135653115Y-102243767D01*
X135634389Y-102362000D01*
X120015000Y-102362000D01*
X120015000Y-101727000D01*
X124204389Y-101727000D01*
X124223115Y-101845233D01*
X124277461Y-101951893D01*
X124362107Y-102036539D01*
X124367383Y-102039227D01*
X124367384Y-102039228D01*
X124401579Y-102056651D01*
X124468767Y-102090885D01*
X124587000Y-102109611D01*
X124705233Y-102090885D01*
X124772421Y-102056651D01*
X124806616Y-102039228D01*
X124806617Y-102039227D01*
X124811893Y-102036539D01*
X124896539Y-101951893D01*
X124950885Y-101845233D01*
X124969611Y-101727000D01*
X124968223Y-101718233D01*
X124951811Y-101614614D01*
X124950885Y-101608767D01*
X124946418Y-101600000D01*
X140333389Y-101600000D01*
X140334315Y-101605847D01*
X140342752Y-101659117D01*
X140352115Y-101718233D01*
X140406461Y-101824893D01*
X140491107Y-101909539D01*
X140597767Y-101963885D01*
X140716000Y-101982611D01*
X140834233Y-101963885D01*
X140940893Y-101909539D01*
X141025539Y-101824893D01*
X141079885Y-101718233D01*
X141089248Y-101659117D01*
X141097685Y-101605847D01*
X141098611Y-101600000D01*
X141088156Y-101533989D01*
X156584571Y-101533989D01*
X156597559Y-101609573D01*
X156600011Y-101617903D01*
X156665281Y-101771298D01*
X156669584Y-101778841D01*
X156768393Y-101913110D01*
X156774312Y-101919457D01*
X156901362Y-102027394D01*
X156908586Y-102032212D01*
X157057061Y-102108027D01*
X157065189Y-102111049D01*
X157228121Y-102150918D01*
X157234705Y-102151920D01*
X157241290Y-102152329D01*
X157243602Y-102152400D01*
X157459741Y-102152400D01*
X157469898Y-102148703D01*
X157473000Y-102143331D01*
X157473000Y-102139141D01*
X157727000Y-102139141D01*
X157730697Y-102149298D01*
X157736069Y-102152400D01*
X157916756Y-102152400D01*
X157921094Y-102152148D01*
X158044926Y-102137710D01*
X158053379Y-102135712D01*
X158210080Y-102078833D01*
X158217838Y-102074948D01*
X158357261Y-101983538D01*
X158363916Y-101977973D01*
X158478571Y-101856942D01*
X158483763Y-101850002D01*
X158567500Y-101705836D01*
X158570960Y-101697879D01*
X158619284Y-101538327D01*
X158619407Y-101537642D01*
X158617111Y-101529868D01*
X158612787Y-101527000D01*
X157740259Y-101527000D01*
X157730102Y-101530697D01*
X157727000Y-101536069D01*
X157727000Y-102139141D01*
X157473000Y-102139141D01*
X157473000Y-101540259D01*
X157469303Y-101530102D01*
X157463931Y-101527000D01*
X156596629Y-101527000D01*
X156586472Y-101530697D01*
X156584571Y-101533989D01*
X141088156Y-101533989D01*
X141079885Y-101481767D01*
X141025539Y-101375107D01*
X140940893Y-101290461D01*
X140909645Y-101274539D01*
X140885738Y-101262358D01*
X156580593Y-101262358D01*
X156582889Y-101270132D01*
X156587213Y-101273000D01*
X157459741Y-101273000D01*
X157469898Y-101269303D01*
X157473000Y-101263931D01*
X157473000Y-101259741D01*
X157727000Y-101259741D01*
X157730697Y-101269898D01*
X157736069Y-101273000D01*
X158603371Y-101273000D01*
X158613528Y-101269303D01*
X158615429Y-101266011D01*
X158602441Y-101190427D01*
X158599989Y-101182097D01*
X158534719Y-101028702D01*
X158530416Y-101021159D01*
X158431607Y-100886890D01*
X158425688Y-100880543D01*
X158298638Y-100772606D01*
X158291414Y-100767788D01*
X158142939Y-100691973D01*
X158134811Y-100688951D01*
X157971879Y-100649082D01*
X157965295Y-100648080D01*
X157958710Y-100647671D01*
X157956398Y-100647600D01*
X157740259Y-100647600D01*
X157730102Y-100651297D01*
X157727000Y-100656669D01*
X157727000Y-101259741D01*
X157473000Y-101259741D01*
X157473000Y-100660859D01*
X157469303Y-100650702D01*
X157463931Y-100647600D01*
X157283244Y-100647600D01*
X157278906Y-100647852D01*
X157155074Y-100662290D01*
X157146621Y-100664288D01*
X156989920Y-100721167D01*
X156982162Y-100725052D01*
X156842739Y-100816462D01*
X156836084Y-100822027D01*
X156721429Y-100943058D01*
X156716237Y-100949998D01*
X156632500Y-101094164D01*
X156629040Y-101102121D01*
X156580716Y-101261673D01*
X156580593Y-101262358D01*
X140885738Y-101262358D01*
X140880602Y-101259741D01*
X140834233Y-101236115D01*
X140716000Y-101217389D01*
X140597767Y-101236115D01*
X140551398Y-101259741D01*
X140522356Y-101274539D01*
X140491107Y-101290461D01*
X140406461Y-101375107D01*
X140352115Y-101481767D01*
X140333389Y-101600000D01*
X124946418Y-101600000D01*
X124896539Y-101502107D01*
X124811893Y-101417461D01*
X124705233Y-101363115D01*
X124587000Y-101344389D01*
X124468767Y-101363115D01*
X124362107Y-101417461D01*
X124277461Y-101502107D01*
X124223115Y-101608767D01*
X124222189Y-101614614D01*
X124205778Y-101718233D01*
X124204389Y-101727000D01*
X120015000Y-101727000D01*
X120015000Y-100965000D01*
X130554389Y-100965000D01*
X130573115Y-101083233D01*
X130627461Y-101189893D01*
X130712107Y-101274539D01*
X130717383Y-101277227D01*
X130717384Y-101277228D01*
X130751579Y-101294651D01*
X130818767Y-101328885D01*
X130937000Y-101347611D01*
X131055233Y-101328885D01*
X131122421Y-101294651D01*
X131156616Y-101277228D01*
X131156617Y-101277227D01*
X131161893Y-101274539D01*
X131246539Y-101189893D01*
X131300885Y-101083233D01*
X131319611Y-100965000D01*
X131300885Y-100846767D01*
X131246539Y-100740107D01*
X131161893Y-100655461D01*
X131146605Y-100647671D01*
X131112187Y-100630135D01*
X131055233Y-100601115D01*
X130947172Y-100584000D01*
X131697389Y-100584000D01*
X131698315Y-100589847D01*
X131699704Y-100598614D01*
X131716115Y-100702233D01*
X131770461Y-100808893D01*
X131855107Y-100893539D01*
X131961767Y-100947885D01*
X132080000Y-100966611D01*
X132198233Y-100947885D01*
X132304893Y-100893539D01*
X132389539Y-100808893D01*
X132439418Y-100711000D01*
X133602389Y-100711000D01*
X133621115Y-100829233D01*
X133675461Y-100935893D01*
X133760107Y-101020539D01*
X133765383Y-101023227D01*
X133765384Y-101023228D01*
X133809813Y-101045865D01*
X133866767Y-101074885D01*
X133985000Y-101093611D01*
X134103233Y-101074885D01*
X134160187Y-101045865D01*
X134204616Y-101023228D01*
X134204617Y-101023227D01*
X134209893Y-101020539D01*
X134294539Y-100935893D01*
X134348885Y-100829233D01*
X134367611Y-100711000D01*
X134366223Y-100702233D01*
X134350207Y-100601115D01*
X134348885Y-100592767D01*
X134294539Y-100486107D01*
X134209893Y-100401461D01*
X134103233Y-100347115D01*
X133985000Y-100328389D01*
X133866767Y-100347115D01*
X133760107Y-100401461D01*
X133675461Y-100486107D01*
X133621115Y-100592767D01*
X133619793Y-100601115D01*
X133603778Y-100702233D01*
X133602389Y-100711000D01*
X132439418Y-100711000D01*
X132443885Y-100702233D01*
X132460296Y-100598614D01*
X132461685Y-100589847D01*
X132462611Y-100584000D01*
X132443885Y-100465767D01*
X132389539Y-100359107D01*
X132304893Y-100274461D01*
X132198233Y-100220115D01*
X132080000Y-100201389D01*
X131961767Y-100220115D01*
X131855107Y-100274461D01*
X131770461Y-100359107D01*
X131716115Y-100465767D01*
X131697389Y-100584000D01*
X130947172Y-100584000D01*
X130937000Y-100582389D01*
X130818767Y-100601115D01*
X130761813Y-100630135D01*
X130727396Y-100647671D01*
X130712107Y-100655461D01*
X130627461Y-100740107D01*
X130573115Y-100846767D01*
X130554389Y-100965000D01*
X120015000Y-100965000D01*
X120015000Y-99695000D01*
X146683389Y-99695000D01*
X146702115Y-99813233D01*
X146704802Y-99818506D01*
X146753180Y-99913453D01*
X146756461Y-99919893D01*
X146841107Y-100004539D01*
X146947767Y-100058885D01*
X147066000Y-100077611D01*
X147184233Y-100058885D01*
X147290893Y-100004539D01*
X147375539Y-99919893D01*
X147378821Y-99913453D01*
X147427198Y-99818506D01*
X147429885Y-99813233D01*
X147448611Y-99695000D01*
X147429885Y-99576767D01*
X147375539Y-99470107D01*
X147290893Y-99385461D01*
X147184233Y-99331115D01*
X147076172Y-99314000D01*
X151255389Y-99314000D01*
X151274115Y-99432233D01*
X151291278Y-99465917D01*
X151323866Y-99529874D01*
X151328461Y-99538893D01*
X151413107Y-99623539D01*
X151519767Y-99677885D01*
X151638000Y-99696611D01*
X151756233Y-99677885D01*
X151862893Y-99623539D01*
X151947539Y-99538893D01*
X151952135Y-99529874D01*
X151984722Y-99465917D01*
X151997422Y-99440993D01*
X156568084Y-99440993D01*
X156597816Y-99614022D01*
X156599526Y-99618040D01*
X156599526Y-99618041D01*
X156603010Y-99626228D01*
X156666556Y-99775570D01*
X156770616Y-99916972D01*
X156904414Y-100030642D01*
X156908306Y-100032629D01*
X156908307Y-100032630D01*
X157056886Y-100108498D01*
X157056888Y-100108499D01*
X157060774Y-100110483D01*
X157231307Y-100152212D01*
X157234643Y-100152419D01*
X157241244Y-100152829D01*
X157241259Y-100152829D01*
X157242396Y-100152900D01*
X157918958Y-100152900D01*
X157921118Y-100152648D01*
X157921121Y-100152648D01*
X157963852Y-100147666D01*
X158049383Y-100137694D01*
X158053492Y-100136202D01*
X158053494Y-100136202D01*
X158210306Y-100079282D01*
X158210308Y-100079281D01*
X158214413Y-100077791D01*
X158326141Y-100004539D01*
X158357584Y-99983924D01*
X158357586Y-99983923D01*
X158361235Y-99981530D01*
X158481974Y-99854075D01*
X158527574Y-99775570D01*
X158567955Y-99706048D01*
X158567955Y-99706047D01*
X158570154Y-99702262D01*
X158572354Y-99695000D01*
X158619778Y-99538419D01*
X158619778Y-99538417D01*
X158621045Y-99534235D01*
X158624697Y-99475384D01*
X158631646Y-99363366D01*
X158631646Y-99363362D01*
X158631916Y-99359007D01*
X158602184Y-99185978D01*
X158545086Y-99051789D01*
X158535155Y-99028451D01*
X158533444Y-99024430D01*
X158429384Y-98883028D01*
X158295586Y-98769358D01*
X158291693Y-98767370D01*
X158143114Y-98691502D01*
X158143112Y-98691501D01*
X158139226Y-98689517D01*
X157968693Y-98647788D01*
X157965357Y-98647581D01*
X157958756Y-98647171D01*
X157958741Y-98647171D01*
X157957604Y-98647100D01*
X157281042Y-98647100D01*
X157278882Y-98647352D01*
X157278879Y-98647352D01*
X157236148Y-98652334D01*
X157150617Y-98662306D01*
X157146508Y-98663798D01*
X157146506Y-98663798D01*
X156989694Y-98720718D01*
X156989692Y-98720719D01*
X156985587Y-98722209D01*
X156838765Y-98818470D01*
X156718026Y-98945925D01*
X156715832Y-98949703D01*
X156715830Y-98949705D01*
X156672141Y-99024922D01*
X156629846Y-99097738D01*
X156628578Y-99101925D01*
X156628577Y-99101927D01*
X156580222Y-99261581D01*
X156578955Y-99265765D01*
X156578685Y-99270122D01*
X156578684Y-99270126D01*
X156571696Y-99382772D01*
X156568084Y-99440993D01*
X151997422Y-99440993D01*
X152001885Y-99432233D01*
X152020611Y-99314000D01*
X152001885Y-99195767D01*
X151947539Y-99089107D01*
X151862893Y-99004461D01*
X151756233Y-98950115D01*
X151638000Y-98931389D01*
X151519767Y-98950115D01*
X151413107Y-99004461D01*
X151328461Y-99089107D01*
X151274115Y-99195767D01*
X151255389Y-99314000D01*
X147076172Y-99314000D01*
X147066000Y-99312389D01*
X146947767Y-99331115D01*
X146841107Y-99385461D01*
X146756461Y-99470107D01*
X146702115Y-99576767D01*
X146683389Y-99695000D01*
X120015000Y-99695000D01*
X120015000Y-99027227D01*
X127239606Y-99027227D01*
X127239885Y-99028269D01*
X127243026Y-99030999D01*
X127283829Y-99051789D01*
X127294949Y-99055402D01*
X127409153Y-99073490D01*
X127420847Y-99073490D01*
X127535051Y-99055402D01*
X127546171Y-99051789D01*
X127583387Y-99032827D01*
X127588609Y-99027227D01*
X128439606Y-99027227D01*
X128439885Y-99028269D01*
X128443026Y-99030999D01*
X128483829Y-99051789D01*
X128494949Y-99055402D01*
X128609153Y-99073490D01*
X128620847Y-99073490D01*
X128735051Y-99055402D01*
X128746171Y-99051789D01*
X128783387Y-99032827D01*
X128788609Y-99027227D01*
X129639606Y-99027227D01*
X129639885Y-99028269D01*
X129643026Y-99030999D01*
X129683829Y-99051789D01*
X129694949Y-99055402D01*
X129809153Y-99073490D01*
X129820847Y-99073490D01*
X129935051Y-99055402D01*
X129946171Y-99051789D01*
X129983387Y-99032827D01*
X129988609Y-99027227D01*
X130839606Y-99027227D01*
X130839885Y-99028269D01*
X130843026Y-99030999D01*
X130883829Y-99051789D01*
X130894949Y-99055402D01*
X131009153Y-99073490D01*
X131020847Y-99073490D01*
X131135051Y-99055402D01*
X131146171Y-99051789D01*
X131183387Y-99032827D01*
X131188609Y-99027227D01*
X132039606Y-99027227D01*
X132039885Y-99028269D01*
X132043026Y-99030999D01*
X132083829Y-99051789D01*
X132094949Y-99055402D01*
X132209153Y-99073490D01*
X132220847Y-99073490D01*
X132335051Y-99055402D01*
X132346171Y-99051789D01*
X132383387Y-99032827D01*
X132390758Y-99024922D01*
X132390815Y-99023844D01*
X132388672Y-99020278D01*
X132224376Y-98855981D01*
X132214579Y-98851412D01*
X132208587Y-98853018D01*
X132044174Y-99017432D01*
X132039606Y-99027227D01*
X131188609Y-99027227D01*
X131190758Y-99024922D01*
X131190815Y-99023844D01*
X131188672Y-99020278D01*
X131024376Y-98855981D01*
X131014579Y-98851412D01*
X131008587Y-98853018D01*
X130844174Y-99017432D01*
X130839606Y-99027227D01*
X129988609Y-99027227D01*
X129990758Y-99024922D01*
X129990815Y-99023844D01*
X129988672Y-99020278D01*
X129824376Y-98855981D01*
X129814579Y-98851412D01*
X129808587Y-98853018D01*
X129644174Y-99017432D01*
X129639606Y-99027227D01*
X128788609Y-99027227D01*
X128790758Y-99024922D01*
X128790815Y-99023844D01*
X128788672Y-99020278D01*
X128624376Y-98855981D01*
X128614579Y-98851412D01*
X128608587Y-98853018D01*
X128444174Y-99017432D01*
X128439606Y-99027227D01*
X127588609Y-99027227D01*
X127590758Y-99024922D01*
X127590815Y-99023844D01*
X127588672Y-99020278D01*
X127424376Y-98855981D01*
X127414579Y-98851412D01*
X127408587Y-98853018D01*
X127244174Y-99017432D01*
X127239606Y-99027227D01*
X120015000Y-99027227D01*
X120015000Y-98672847D01*
X127008510Y-98672847D01*
X127026598Y-98787051D01*
X127030211Y-98798171D01*
X127049173Y-98835387D01*
X127057078Y-98842758D01*
X127058156Y-98842815D01*
X127061722Y-98840672D01*
X127226019Y-98676376D01*
X127230195Y-98667421D01*
X127599412Y-98667421D01*
X127601018Y-98673413D01*
X127765432Y-98837826D01*
X127775227Y-98842394D01*
X127776269Y-98842115D01*
X127778999Y-98838974D01*
X127799789Y-98798171D01*
X127803402Y-98787051D01*
X127821490Y-98672847D01*
X128208510Y-98672847D01*
X128226598Y-98787051D01*
X128230211Y-98798171D01*
X128249173Y-98835387D01*
X128257078Y-98842758D01*
X128258156Y-98842815D01*
X128261722Y-98840672D01*
X128426019Y-98676376D01*
X128430195Y-98667421D01*
X128799412Y-98667421D01*
X128801018Y-98673413D01*
X128965432Y-98837826D01*
X128975227Y-98842394D01*
X128976269Y-98842115D01*
X128978999Y-98838974D01*
X128999789Y-98798171D01*
X129003402Y-98787051D01*
X129021490Y-98672847D01*
X129408510Y-98672847D01*
X129426598Y-98787051D01*
X129430211Y-98798171D01*
X129449173Y-98835387D01*
X129457078Y-98842758D01*
X129458156Y-98842815D01*
X129461722Y-98840672D01*
X129626019Y-98676376D01*
X129630195Y-98667421D01*
X129999412Y-98667421D01*
X130001018Y-98673413D01*
X130165432Y-98837826D01*
X130175227Y-98842394D01*
X130176269Y-98842115D01*
X130178999Y-98838974D01*
X130199789Y-98798171D01*
X130203402Y-98787051D01*
X130221490Y-98672847D01*
X130608510Y-98672847D01*
X130626598Y-98787051D01*
X130630211Y-98798171D01*
X130649173Y-98835387D01*
X130657078Y-98842758D01*
X130658156Y-98842815D01*
X130661722Y-98840672D01*
X130826019Y-98676376D01*
X130830195Y-98667421D01*
X131199412Y-98667421D01*
X131201018Y-98673413D01*
X131365432Y-98837826D01*
X131375227Y-98842394D01*
X131376269Y-98842115D01*
X131378999Y-98838974D01*
X131399789Y-98798171D01*
X131403402Y-98787051D01*
X131421490Y-98672847D01*
X131808510Y-98672847D01*
X131826598Y-98787051D01*
X131830211Y-98798171D01*
X131849173Y-98835387D01*
X131857078Y-98842758D01*
X131858156Y-98842815D01*
X131861722Y-98840672D01*
X132026019Y-98676376D01*
X132030195Y-98667421D01*
X132399412Y-98667421D01*
X132401018Y-98673413D01*
X132565432Y-98837826D01*
X132575227Y-98842394D01*
X132576269Y-98842115D01*
X132578999Y-98838974D01*
X132599789Y-98798171D01*
X132603402Y-98787051D01*
X132621490Y-98672847D01*
X132621490Y-98661153D01*
X132603402Y-98546949D01*
X132599789Y-98535829D01*
X132580827Y-98498613D01*
X132572922Y-98491242D01*
X132571844Y-98491185D01*
X132568278Y-98493328D01*
X132403981Y-98657624D01*
X132399412Y-98667421D01*
X132030195Y-98667421D01*
X132030588Y-98666579D01*
X132028982Y-98660587D01*
X131864568Y-98496174D01*
X131854773Y-98491606D01*
X131853731Y-98491885D01*
X131851001Y-98495026D01*
X131830211Y-98535829D01*
X131826598Y-98546949D01*
X131808510Y-98661153D01*
X131808510Y-98672847D01*
X131421490Y-98672847D01*
X131421490Y-98661153D01*
X131403402Y-98546949D01*
X131399789Y-98535829D01*
X131380827Y-98498613D01*
X131372922Y-98491242D01*
X131371844Y-98491185D01*
X131368278Y-98493328D01*
X131203981Y-98657624D01*
X131199412Y-98667421D01*
X130830195Y-98667421D01*
X130830588Y-98666579D01*
X130828982Y-98660587D01*
X130664568Y-98496174D01*
X130654773Y-98491606D01*
X130653731Y-98491885D01*
X130651001Y-98495026D01*
X130630211Y-98535829D01*
X130626598Y-98546949D01*
X130608510Y-98661153D01*
X130608510Y-98672847D01*
X130221490Y-98672847D01*
X130221490Y-98661153D01*
X130203402Y-98546949D01*
X130199789Y-98535829D01*
X130180827Y-98498613D01*
X130172922Y-98491242D01*
X130171844Y-98491185D01*
X130168278Y-98493328D01*
X130003981Y-98657624D01*
X129999412Y-98667421D01*
X129630195Y-98667421D01*
X129630588Y-98666579D01*
X129628982Y-98660587D01*
X129464568Y-98496174D01*
X129454773Y-98491606D01*
X129453731Y-98491885D01*
X129451001Y-98495026D01*
X129430211Y-98535829D01*
X129426598Y-98546949D01*
X129408510Y-98661153D01*
X129408510Y-98672847D01*
X129021490Y-98672847D01*
X129021490Y-98661153D01*
X129003402Y-98546949D01*
X128999789Y-98535829D01*
X128980827Y-98498613D01*
X128972922Y-98491242D01*
X128971844Y-98491185D01*
X128968278Y-98493328D01*
X128803981Y-98657624D01*
X128799412Y-98667421D01*
X128430195Y-98667421D01*
X128430588Y-98666579D01*
X128428982Y-98660587D01*
X128264568Y-98496174D01*
X128254773Y-98491606D01*
X128253731Y-98491885D01*
X128251001Y-98495026D01*
X128230211Y-98535829D01*
X128226598Y-98546949D01*
X128208510Y-98661153D01*
X128208510Y-98672847D01*
X127821490Y-98672847D01*
X127821490Y-98661153D01*
X127803402Y-98546949D01*
X127799789Y-98535829D01*
X127780827Y-98498613D01*
X127772922Y-98491242D01*
X127771844Y-98491185D01*
X127768278Y-98493328D01*
X127603981Y-98657624D01*
X127599412Y-98667421D01*
X127230195Y-98667421D01*
X127230588Y-98666579D01*
X127228982Y-98660587D01*
X127064568Y-98496174D01*
X127054773Y-98491606D01*
X127053731Y-98491885D01*
X127051001Y-98495026D01*
X127030211Y-98535829D01*
X127026598Y-98546949D01*
X127008510Y-98661153D01*
X127008510Y-98672847D01*
X120015000Y-98672847D01*
X120015000Y-98310156D01*
X127239185Y-98310156D01*
X127241328Y-98313722D01*
X127405624Y-98478019D01*
X127415421Y-98482588D01*
X127421413Y-98480982D01*
X127585826Y-98316568D01*
X127588816Y-98310156D01*
X128439185Y-98310156D01*
X128441328Y-98313722D01*
X128605624Y-98478019D01*
X128615421Y-98482588D01*
X128621413Y-98480982D01*
X128785826Y-98316568D01*
X128788816Y-98310156D01*
X129639185Y-98310156D01*
X129641328Y-98313722D01*
X129805624Y-98478019D01*
X129815421Y-98482588D01*
X129821413Y-98480982D01*
X129985826Y-98316568D01*
X129988816Y-98310156D01*
X130839185Y-98310156D01*
X130841328Y-98313722D01*
X131005624Y-98478019D01*
X131015421Y-98482588D01*
X131021413Y-98480982D01*
X131185826Y-98316568D01*
X131188816Y-98310156D01*
X132039185Y-98310156D01*
X132041328Y-98313722D01*
X132205624Y-98478019D01*
X132215421Y-98482588D01*
X132221413Y-98480982D01*
X132385826Y-98316568D01*
X132390394Y-98306773D01*
X132390115Y-98305731D01*
X132386974Y-98303001D01*
X132377159Y-98298000D01*
X135761389Y-98298000D01*
X135780115Y-98416233D01*
X135834461Y-98522893D01*
X135919107Y-98607539D01*
X136025767Y-98661885D01*
X136144000Y-98680611D01*
X136262233Y-98661885D01*
X136368893Y-98607539D01*
X136453539Y-98522893D01*
X136507885Y-98416233D01*
X136526611Y-98298000D01*
X136507885Y-98179767D01*
X136471572Y-98108498D01*
X136456228Y-98078384D01*
X136456227Y-98078383D01*
X136453539Y-98073107D01*
X136368893Y-97988461D01*
X136355291Y-97981530D01*
X136319187Y-97963135D01*
X136262233Y-97934115D01*
X136203117Y-97924752D01*
X136149847Y-97916315D01*
X136144000Y-97915389D01*
X136138153Y-97916315D01*
X136084883Y-97924752D01*
X136025767Y-97934115D01*
X135968813Y-97963135D01*
X135932710Y-97981530D01*
X135919107Y-97988461D01*
X135834461Y-98073107D01*
X135831773Y-98078383D01*
X135831772Y-98078384D01*
X135816428Y-98108498D01*
X135780115Y-98179767D01*
X135761389Y-98298000D01*
X132377159Y-98298000D01*
X132346171Y-98282211D01*
X132335051Y-98278598D01*
X132220847Y-98260510D01*
X132209153Y-98260510D01*
X132094949Y-98278598D01*
X132083829Y-98282211D01*
X132046613Y-98301173D01*
X132039242Y-98309078D01*
X132039185Y-98310156D01*
X131188816Y-98310156D01*
X131190394Y-98306773D01*
X131190115Y-98305731D01*
X131186974Y-98303001D01*
X131146171Y-98282211D01*
X131135051Y-98278598D01*
X131020847Y-98260510D01*
X131009153Y-98260510D01*
X130894949Y-98278598D01*
X130883829Y-98282211D01*
X130846613Y-98301173D01*
X130839242Y-98309078D01*
X130839185Y-98310156D01*
X129988816Y-98310156D01*
X129990394Y-98306773D01*
X129990115Y-98305731D01*
X129986974Y-98303001D01*
X129946171Y-98282211D01*
X129935051Y-98278598D01*
X129820847Y-98260510D01*
X129809153Y-98260510D01*
X129694949Y-98278598D01*
X129683829Y-98282211D01*
X129646613Y-98301173D01*
X129639242Y-98309078D01*
X129639185Y-98310156D01*
X128788816Y-98310156D01*
X128790394Y-98306773D01*
X128790115Y-98305731D01*
X128786974Y-98303001D01*
X128746171Y-98282211D01*
X128735051Y-98278598D01*
X128620847Y-98260510D01*
X128609153Y-98260510D01*
X128494949Y-98278598D01*
X128483829Y-98282211D01*
X128446613Y-98301173D01*
X128439242Y-98309078D01*
X128439185Y-98310156D01*
X127588816Y-98310156D01*
X127590394Y-98306773D01*
X127590115Y-98305731D01*
X127586974Y-98303001D01*
X127546171Y-98282211D01*
X127535051Y-98278598D01*
X127420847Y-98260510D01*
X127409153Y-98260510D01*
X127294949Y-98278598D01*
X127283829Y-98282211D01*
X127246613Y-98301173D01*
X127239242Y-98309078D01*
X127239185Y-98310156D01*
X120015000Y-98310156D01*
X120015000Y-97827227D01*
X127239606Y-97827227D01*
X127239885Y-97828269D01*
X127243026Y-97830999D01*
X127283829Y-97851789D01*
X127294949Y-97855402D01*
X127409153Y-97873490D01*
X127420847Y-97873490D01*
X127535051Y-97855402D01*
X127546171Y-97851789D01*
X127583387Y-97832827D01*
X127588609Y-97827227D01*
X128439606Y-97827227D01*
X128439885Y-97828269D01*
X128443026Y-97830999D01*
X128483829Y-97851789D01*
X128494949Y-97855402D01*
X128609153Y-97873490D01*
X128620847Y-97873490D01*
X128735051Y-97855402D01*
X128746171Y-97851789D01*
X128783387Y-97832827D01*
X128788609Y-97827227D01*
X129639606Y-97827227D01*
X129639885Y-97828269D01*
X129643026Y-97830999D01*
X129683829Y-97851789D01*
X129694949Y-97855402D01*
X129809153Y-97873490D01*
X129820847Y-97873490D01*
X129935051Y-97855402D01*
X129946171Y-97851789D01*
X129983387Y-97832827D01*
X129988609Y-97827227D01*
X130839606Y-97827227D01*
X130839885Y-97828269D01*
X130843026Y-97830999D01*
X130883829Y-97851789D01*
X130894949Y-97855402D01*
X131009153Y-97873490D01*
X131020847Y-97873490D01*
X131135051Y-97855402D01*
X131146171Y-97851789D01*
X131183387Y-97832827D01*
X131188609Y-97827227D01*
X132039606Y-97827227D01*
X132039885Y-97828269D01*
X132043026Y-97830999D01*
X132083829Y-97851789D01*
X132094949Y-97855402D01*
X132209153Y-97873490D01*
X132220847Y-97873490D01*
X132335051Y-97855402D01*
X132346171Y-97851789D01*
X132383387Y-97832827D01*
X132390758Y-97824922D01*
X132390815Y-97823844D01*
X132388672Y-97820278D01*
X132224376Y-97655981D01*
X132214579Y-97651412D01*
X132208587Y-97653018D01*
X132044174Y-97817432D01*
X132039606Y-97827227D01*
X131188609Y-97827227D01*
X131190758Y-97824922D01*
X131190815Y-97823844D01*
X131188672Y-97820278D01*
X131024376Y-97655981D01*
X131014579Y-97651412D01*
X131008587Y-97653018D01*
X130844174Y-97817432D01*
X130839606Y-97827227D01*
X129988609Y-97827227D01*
X129990758Y-97824922D01*
X129990815Y-97823844D01*
X129988672Y-97820278D01*
X129824376Y-97655981D01*
X129814579Y-97651412D01*
X129808587Y-97653018D01*
X129644174Y-97817432D01*
X129639606Y-97827227D01*
X128788609Y-97827227D01*
X128790758Y-97824922D01*
X128790815Y-97823844D01*
X128788672Y-97820278D01*
X128624376Y-97655981D01*
X128614579Y-97651412D01*
X128608587Y-97653018D01*
X128444174Y-97817432D01*
X128439606Y-97827227D01*
X127588609Y-97827227D01*
X127590758Y-97824922D01*
X127590815Y-97823844D01*
X127588672Y-97820278D01*
X127424376Y-97655981D01*
X127414579Y-97651412D01*
X127408587Y-97653018D01*
X127244174Y-97817432D01*
X127239606Y-97827227D01*
X120015000Y-97827227D01*
X120015000Y-97472847D01*
X127008510Y-97472847D01*
X127026598Y-97587051D01*
X127030211Y-97598171D01*
X127049173Y-97635387D01*
X127057078Y-97642758D01*
X127058156Y-97642815D01*
X127061722Y-97640672D01*
X127226019Y-97476376D01*
X127230195Y-97467421D01*
X127599412Y-97467421D01*
X127601018Y-97473413D01*
X127765432Y-97637826D01*
X127775227Y-97642394D01*
X127776269Y-97642115D01*
X127778999Y-97638974D01*
X127799789Y-97598171D01*
X127803402Y-97587051D01*
X127821490Y-97472847D01*
X128208510Y-97472847D01*
X128226598Y-97587051D01*
X128230211Y-97598171D01*
X128249173Y-97635387D01*
X128257078Y-97642758D01*
X128258156Y-97642815D01*
X128261722Y-97640672D01*
X128426019Y-97476376D01*
X128430195Y-97467421D01*
X128799412Y-97467421D01*
X128801018Y-97473413D01*
X128965432Y-97637826D01*
X128975227Y-97642394D01*
X128976269Y-97642115D01*
X128978999Y-97638974D01*
X128999789Y-97598171D01*
X129003402Y-97587051D01*
X129021490Y-97472847D01*
X129408510Y-97472847D01*
X129426598Y-97587051D01*
X129430211Y-97598171D01*
X129449173Y-97635387D01*
X129457078Y-97642758D01*
X129458156Y-97642815D01*
X129461722Y-97640672D01*
X129626019Y-97476376D01*
X129630195Y-97467421D01*
X129999412Y-97467421D01*
X130001018Y-97473413D01*
X130165432Y-97637826D01*
X130175227Y-97642394D01*
X130176269Y-97642115D01*
X130178999Y-97638974D01*
X130199789Y-97598171D01*
X130203402Y-97587051D01*
X130221490Y-97472847D01*
X130608510Y-97472847D01*
X130626598Y-97587051D01*
X130630211Y-97598171D01*
X130649173Y-97635387D01*
X130657078Y-97642758D01*
X130658156Y-97642815D01*
X130661722Y-97640672D01*
X130826019Y-97476376D01*
X130830195Y-97467421D01*
X131199412Y-97467421D01*
X131201018Y-97473413D01*
X131365432Y-97637826D01*
X131375227Y-97642394D01*
X131376269Y-97642115D01*
X131378999Y-97638974D01*
X131399789Y-97598171D01*
X131403402Y-97587051D01*
X131421490Y-97472847D01*
X131808510Y-97472847D01*
X131826598Y-97587051D01*
X131830211Y-97598171D01*
X131849173Y-97635387D01*
X131857078Y-97642758D01*
X131858156Y-97642815D01*
X131861722Y-97640672D01*
X132026019Y-97476376D01*
X132030195Y-97467421D01*
X132399412Y-97467421D01*
X132401018Y-97473413D01*
X132565432Y-97637826D01*
X132575227Y-97642394D01*
X132576269Y-97642115D01*
X132578999Y-97638974D01*
X132599789Y-97598171D01*
X132603402Y-97587051D01*
X132621490Y-97472847D01*
X132621490Y-97461153D01*
X132618297Y-97440993D01*
X156568084Y-97440993D01*
X156573558Y-97472847D01*
X156593182Y-97587051D01*
X156597816Y-97614022D01*
X156599526Y-97618040D01*
X156599526Y-97618041D01*
X156610043Y-97642758D01*
X156666556Y-97775570D01*
X156770616Y-97916972D01*
X156904414Y-98030642D01*
X156908306Y-98032629D01*
X156908307Y-98032630D01*
X157056886Y-98108498D01*
X157056888Y-98108499D01*
X157060774Y-98110483D01*
X157231307Y-98152212D01*
X157234643Y-98152419D01*
X157241244Y-98152829D01*
X157241259Y-98152829D01*
X157242396Y-98152900D01*
X157918958Y-98152900D01*
X157921118Y-98152648D01*
X157921121Y-98152648D01*
X157963852Y-98147666D01*
X158049383Y-98137694D01*
X158053492Y-98136202D01*
X158053494Y-98136202D01*
X158210306Y-98079282D01*
X158210308Y-98079281D01*
X158214413Y-98077791D01*
X158344273Y-97992651D01*
X158357584Y-97983924D01*
X158357586Y-97983923D01*
X158361235Y-97981530D01*
X158481974Y-97854075D01*
X158496964Y-97828269D01*
X158567955Y-97706048D01*
X158567955Y-97706047D01*
X158570154Y-97702262D01*
X158584172Y-97655981D01*
X158619778Y-97538419D01*
X158619778Y-97538417D01*
X158621045Y-97534235D01*
X158624819Y-97473413D01*
X158631646Y-97363366D01*
X158631646Y-97363362D01*
X158631916Y-97359007D01*
X158613682Y-97252893D01*
X158602924Y-97190282D01*
X158602923Y-97190278D01*
X158602184Y-97185978D01*
X158572650Y-97116568D01*
X158535155Y-97028451D01*
X158533444Y-97024430D01*
X158429384Y-96883028D01*
X158295586Y-96769358D01*
X158291693Y-96767370D01*
X158143114Y-96691502D01*
X158143112Y-96691501D01*
X158139226Y-96689517D01*
X157968693Y-96647788D01*
X157965357Y-96647581D01*
X157958756Y-96647171D01*
X157958741Y-96647171D01*
X157957604Y-96647100D01*
X157281042Y-96647100D01*
X157278882Y-96647352D01*
X157278879Y-96647352D01*
X157240823Y-96651789D01*
X157150617Y-96662306D01*
X157146508Y-96663798D01*
X157146506Y-96663798D01*
X156989694Y-96720718D01*
X156989692Y-96720719D01*
X156985587Y-96722209D01*
X156981936Y-96724603D01*
X156854149Y-96808384D01*
X156838765Y-96818470D01*
X156718026Y-96945925D01*
X156715832Y-96949703D01*
X156715830Y-96949705D01*
X156670353Y-97028000D01*
X156629846Y-97097738D01*
X156628578Y-97101925D01*
X156628577Y-97101927D01*
X156580222Y-97261581D01*
X156578955Y-97265765D01*
X156578685Y-97270122D01*
X156578684Y-97270126D01*
X156568354Y-97436634D01*
X156568084Y-97440993D01*
X132618297Y-97440993D01*
X132603402Y-97346949D01*
X132599789Y-97335829D01*
X132580827Y-97298613D01*
X132572922Y-97291242D01*
X132571844Y-97291185D01*
X132568278Y-97293328D01*
X132403981Y-97457624D01*
X132399412Y-97467421D01*
X132030195Y-97467421D01*
X132030588Y-97466579D01*
X132028982Y-97460587D01*
X131864568Y-97296174D01*
X131854773Y-97291606D01*
X131853731Y-97291885D01*
X131851001Y-97295026D01*
X131830211Y-97335829D01*
X131826598Y-97346949D01*
X131808510Y-97461153D01*
X131808510Y-97472847D01*
X131421490Y-97472847D01*
X131421490Y-97461153D01*
X131403402Y-97346949D01*
X131399789Y-97335829D01*
X131380827Y-97298613D01*
X131372922Y-97291242D01*
X131371844Y-97291185D01*
X131368278Y-97293328D01*
X131203981Y-97457624D01*
X131199412Y-97467421D01*
X130830195Y-97467421D01*
X130830588Y-97466579D01*
X130828982Y-97460587D01*
X130664568Y-97296174D01*
X130654773Y-97291606D01*
X130653731Y-97291885D01*
X130651001Y-97295026D01*
X130630211Y-97335829D01*
X130626598Y-97346949D01*
X130608510Y-97461153D01*
X130608510Y-97472847D01*
X130221490Y-97472847D01*
X130221490Y-97461153D01*
X130203402Y-97346949D01*
X130199789Y-97335829D01*
X130180827Y-97298613D01*
X130172922Y-97291242D01*
X130171844Y-97291185D01*
X130168278Y-97293328D01*
X130003981Y-97457624D01*
X129999412Y-97467421D01*
X129630195Y-97467421D01*
X129630588Y-97466579D01*
X129628982Y-97460587D01*
X129464568Y-97296174D01*
X129454773Y-97291606D01*
X129453731Y-97291885D01*
X129451001Y-97295026D01*
X129430211Y-97335829D01*
X129426598Y-97346949D01*
X129408510Y-97461153D01*
X129408510Y-97472847D01*
X129021490Y-97472847D01*
X129021490Y-97461153D01*
X129003402Y-97346949D01*
X128999789Y-97335829D01*
X128980827Y-97298613D01*
X128972922Y-97291242D01*
X128971844Y-97291185D01*
X128968278Y-97293328D01*
X128803981Y-97457624D01*
X128799412Y-97467421D01*
X128430195Y-97467421D01*
X128430588Y-97466579D01*
X128428982Y-97460587D01*
X128264568Y-97296174D01*
X128254773Y-97291606D01*
X128253731Y-97291885D01*
X128251001Y-97295026D01*
X128230211Y-97335829D01*
X128226598Y-97346949D01*
X128208510Y-97461153D01*
X128208510Y-97472847D01*
X127821490Y-97472847D01*
X127821490Y-97461153D01*
X127803402Y-97346949D01*
X127799789Y-97335829D01*
X127780827Y-97298613D01*
X127772922Y-97291242D01*
X127771844Y-97291185D01*
X127768278Y-97293328D01*
X127603981Y-97457624D01*
X127599412Y-97467421D01*
X127230195Y-97467421D01*
X127230588Y-97466579D01*
X127228982Y-97460587D01*
X127064568Y-97296174D01*
X127054773Y-97291606D01*
X127053731Y-97291885D01*
X127051001Y-97295026D01*
X127030211Y-97335829D01*
X127026598Y-97346949D01*
X127008510Y-97461153D01*
X127008510Y-97472847D01*
X120015000Y-97472847D01*
X120015000Y-97110156D01*
X127239185Y-97110156D01*
X127241328Y-97113722D01*
X127405624Y-97278019D01*
X127415421Y-97282588D01*
X127421413Y-97280982D01*
X127585826Y-97116568D01*
X127588816Y-97110156D01*
X128439185Y-97110156D01*
X128441328Y-97113722D01*
X128605624Y-97278019D01*
X128615421Y-97282588D01*
X128621413Y-97280982D01*
X128785826Y-97116568D01*
X128788816Y-97110156D01*
X129639185Y-97110156D01*
X129641328Y-97113722D01*
X129805624Y-97278019D01*
X129815421Y-97282588D01*
X129821413Y-97280982D01*
X129985826Y-97116568D01*
X129988816Y-97110156D01*
X130839185Y-97110156D01*
X130841328Y-97113722D01*
X131005624Y-97278019D01*
X131015421Y-97282588D01*
X131021413Y-97280982D01*
X131185826Y-97116568D01*
X131188816Y-97110156D01*
X132039185Y-97110156D01*
X132041328Y-97113722D01*
X132205624Y-97278019D01*
X132215421Y-97282588D01*
X132221413Y-97280982D01*
X132385826Y-97116568D01*
X132390394Y-97106773D01*
X132390115Y-97105731D01*
X132386974Y-97103001D01*
X132346171Y-97082211D01*
X132335051Y-97078598D01*
X132220847Y-97060510D01*
X132209153Y-97060510D01*
X132094949Y-97078598D01*
X132083829Y-97082211D01*
X132046613Y-97101173D01*
X132039242Y-97109078D01*
X132039185Y-97110156D01*
X131188816Y-97110156D01*
X131190394Y-97106773D01*
X131190115Y-97105731D01*
X131186974Y-97103001D01*
X131146171Y-97082211D01*
X131135051Y-97078598D01*
X131020847Y-97060510D01*
X131009153Y-97060510D01*
X130894949Y-97078598D01*
X130883829Y-97082211D01*
X130846613Y-97101173D01*
X130839242Y-97109078D01*
X130839185Y-97110156D01*
X129988816Y-97110156D01*
X129990394Y-97106773D01*
X129990115Y-97105731D01*
X129986974Y-97103001D01*
X129946171Y-97082211D01*
X129935051Y-97078598D01*
X129820847Y-97060510D01*
X129809153Y-97060510D01*
X129694949Y-97078598D01*
X129683829Y-97082211D01*
X129646613Y-97101173D01*
X129639242Y-97109078D01*
X129639185Y-97110156D01*
X128788816Y-97110156D01*
X128790394Y-97106773D01*
X128790115Y-97105731D01*
X128786974Y-97103001D01*
X128746171Y-97082211D01*
X128735051Y-97078598D01*
X128620847Y-97060510D01*
X128609153Y-97060510D01*
X128494949Y-97078598D01*
X128483829Y-97082211D01*
X128446613Y-97101173D01*
X128439242Y-97109078D01*
X128439185Y-97110156D01*
X127588816Y-97110156D01*
X127590394Y-97106773D01*
X127590115Y-97105731D01*
X127586974Y-97103001D01*
X127546171Y-97082211D01*
X127535051Y-97078598D01*
X127420847Y-97060510D01*
X127409153Y-97060510D01*
X127294949Y-97078598D01*
X127283829Y-97082211D01*
X127246613Y-97101173D01*
X127239242Y-97109078D01*
X127239185Y-97110156D01*
X120015000Y-97110156D01*
X120015000Y-97028000D01*
X146683389Y-97028000D01*
X146702115Y-97146233D01*
X146756461Y-97252893D01*
X146841107Y-97337539D01*
X146947767Y-97391885D01*
X147066000Y-97410611D01*
X147184233Y-97391885D01*
X147290893Y-97337539D01*
X147375539Y-97252893D01*
X147429885Y-97146233D01*
X147448611Y-97028000D01*
X147429885Y-96909767D01*
X147375539Y-96803107D01*
X147290893Y-96718461D01*
X147184233Y-96664115D01*
X147106409Y-96651789D01*
X147071847Y-96646315D01*
X147066000Y-96645389D01*
X147060153Y-96646315D01*
X147025591Y-96651789D01*
X146947767Y-96664115D01*
X146841107Y-96718461D01*
X146756461Y-96803107D01*
X146702115Y-96909767D01*
X146683389Y-97028000D01*
X120015000Y-97028000D01*
X120015000Y-96627227D01*
X127239606Y-96627227D01*
X127239885Y-96628269D01*
X127243026Y-96630999D01*
X127283829Y-96651789D01*
X127294949Y-96655402D01*
X127409153Y-96673490D01*
X127420847Y-96673490D01*
X127535051Y-96655402D01*
X127546171Y-96651789D01*
X127583387Y-96632827D01*
X127588609Y-96627227D01*
X128439606Y-96627227D01*
X128439885Y-96628269D01*
X128443026Y-96630999D01*
X128483829Y-96651789D01*
X128494949Y-96655402D01*
X128609153Y-96673490D01*
X128620847Y-96673490D01*
X128735051Y-96655402D01*
X128746171Y-96651789D01*
X128783387Y-96632827D01*
X128788609Y-96627227D01*
X129639606Y-96627227D01*
X129639885Y-96628269D01*
X129643026Y-96630999D01*
X129683829Y-96651789D01*
X129694949Y-96655402D01*
X129809153Y-96673490D01*
X129820847Y-96673490D01*
X129935051Y-96655402D01*
X129946171Y-96651789D01*
X129983387Y-96632827D01*
X129988609Y-96627227D01*
X130839606Y-96627227D01*
X130839885Y-96628269D01*
X130843026Y-96630999D01*
X130883829Y-96651789D01*
X130894949Y-96655402D01*
X131009153Y-96673490D01*
X131020847Y-96673490D01*
X131135051Y-96655402D01*
X131146171Y-96651789D01*
X131183387Y-96632827D01*
X131188609Y-96627227D01*
X132039606Y-96627227D01*
X132039885Y-96628269D01*
X132043026Y-96630999D01*
X132083829Y-96651789D01*
X132094949Y-96655402D01*
X132209153Y-96673490D01*
X132220847Y-96673490D01*
X132335051Y-96655402D01*
X132346171Y-96651789D01*
X132383387Y-96632827D01*
X132390758Y-96624922D01*
X132390815Y-96623844D01*
X132388672Y-96620278D01*
X132224376Y-96455981D01*
X132214579Y-96451412D01*
X132208587Y-96453018D01*
X132044174Y-96617432D01*
X132039606Y-96627227D01*
X131188609Y-96627227D01*
X131190758Y-96624922D01*
X131190815Y-96623844D01*
X131188672Y-96620278D01*
X131024376Y-96455981D01*
X131014579Y-96451412D01*
X131008587Y-96453018D01*
X130844174Y-96617432D01*
X130839606Y-96627227D01*
X129988609Y-96627227D01*
X129990758Y-96624922D01*
X129990815Y-96623844D01*
X129988672Y-96620278D01*
X129824376Y-96455981D01*
X129814579Y-96451412D01*
X129808587Y-96453018D01*
X129644174Y-96617432D01*
X129639606Y-96627227D01*
X128788609Y-96627227D01*
X128790758Y-96624922D01*
X128790815Y-96623844D01*
X128788672Y-96620278D01*
X128624376Y-96455981D01*
X128614579Y-96451412D01*
X128608587Y-96453018D01*
X128444174Y-96617432D01*
X128439606Y-96627227D01*
X127588609Y-96627227D01*
X127590758Y-96624922D01*
X127590815Y-96623844D01*
X127588672Y-96620278D01*
X127424376Y-96455981D01*
X127414579Y-96451412D01*
X127408587Y-96453018D01*
X127244174Y-96617432D01*
X127239606Y-96627227D01*
X120015000Y-96627227D01*
X120015000Y-96272847D01*
X127008510Y-96272847D01*
X127026598Y-96387051D01*
X127030211Y-96398171D01*
X127049173Y-96435387D01*
X127057078Y-96442758D01*
X127058156Y-96442815D01*
X127061722Y-96440672D01*
X127226019Y-96276376D01*
X127230195Y-96267421D01*
X127599412Y-96267421D01*
X127601018Y-96273413D01*
X127765432Y-96437826D01*
X127775227Y-96442394D01*
X127776269Y-96442115D01*
X127778999Y-96438974D01*
X127799789Y-96398171D01*
X127803402Y-96387051D01*
X127821490Y-96272847D01*
X128208510Y-96272847D01*
X128226598Y-96387051D01*
X128230211Y-96398171D01*
X128249173Y-96435387D01*
X128257078Y-96442758D01*
X128258156Y-96442815D01*
X128261722Y-96440672D01*
X128426019Y-96276376D01*
X128430195Y-96267421D01*
X128799412Y-96267421D01*
X128801018Y-96273413D01*
X128965432Y-96437826D01*
X128975227Y-96442394D01*
X128976269Y-96442115D01*
X128978999Y-96438974D01*
X128999789Y-96398171D01*
X129003402Y-96387051D01*
X129021490Y-96272847D01*
X129408510Y-96272847D01*
X129426598Y-96387051D01*
X129430211Y-96398171D01*
X129449173Y-96435387D01*
X129457078Y-96442758D01*
X129458156Y-96442815D01*
X129461722Y-96440672D01*
X129626019Y-96276376D01*
X129630195Y-96267421D01*
X129999412Y-96267421D01*
X130001018Y-96273413D01*
X130165432Y-96437826D01*
X130175227Y-96442394D01*
X130176269Y-96442115D01*
X130178999Y-96438974D01*
X130199789Y-96398171D01*
X130203402Y-96387051D01*
X130221490Y-96272847D01*
X130608510Y-96272847D01*
X130626598Y-96387051D01*
X130630211Y-96398171D01*
X130649173Y-96435387D01*
X130657078Y-96442758D01*
X130658156Y-96442815D01*
X130661722Y-96440672D01*
X130826019Y-96276376D01*
X130830195Y-96267421D01*
X131199412Y-96267421D01*
X131201018Y-96273413D01*
X131365432Y-96437826D01*
X131375227Y-96442394D01*
X131376269Y-96442115D01*
X131378999Y-96438974D01*
X131399789Y-96398171D01*
X131403402Y-96387051D01*
X131421490Y-96272847D01*
X131808510Y-96272847D01*
X131826598Y-96387051D01*
X131830211Y-96398171D01*
X131849173Y-96435387D01*
X131857078Y-96442758D01*
X131858156Y-96442815D01*
X131861722Y-96440672D01*
X132026019Y-96276376D01*
X132030195Y-96267421D01*
X132399412Y-96267421D01*
X132401018Y-96273413D01*
X132565432Y-96437826D01*
X132575227Y-96442394D01*
X132576269Y-96442115D01*
X132578999Y-96438974D01*
X132599789Y-96398171D01*
X132603402Y-96387051D01*
X132621490Y-96272847D01*
X132621490Y-96261153D01*
X132603402Y-96146949D01*
X132599789Y-96135829D01*
X132580827Y-96098613D01*
X132572922Y-96091242D01*
X132571844Y-96091185D01*
X132568278Y-96093328D01*
X132403981Y-96257624D01*
X132399412Y-96267421D01*
X132030195Y-96267421D01*
X132030588Y-96266579D01*
X132028982Y-96260587D01*
X131864568Y-96096174D01*
X131854773Y-96091606D01*
X131853731Y-96091885D01*
X131851001Y-96095026D01*
X131830211Y-96135829D01*
X131826598Y-96146949D01*
X131808510Y-96261153D01*
X131808510Y-96272847D01*
X131421490Y-96272847D01*
X131421490Y-96261153D01*
X131403402Y-96146949D01*
X131399789Y-96135829D01*
X131380827Y-96098613D01*
X131372922Y-96091242D01*
X131371844Y-96091185D01*
X131368278Y-96093328D01*
X131203981Y-96257624D01*
X131199412Y-96267421D01*
X130830195Y-96267421D01*
X130830588Y-96266579D01*
X130828982Y-96260587D01*
X130664568Y-96096174D01*
X130654773Y-96091606D01*
X130653731Y-96091885D01*
X130651001Y-96095026D01*
X130630211Y-96135829D01*
X130626598Y-96146949D01*
X130608510Y-96261153D01*
X130608510Y-96272847D01*
X130221490Y-96272847D01*
X130221490Y-96261153D01*
X130203402Y-96146949D01*
X130199789Y-96135829D01*
X130180827Y-96098613D01*
X130172922Y-96091242D01*
X130171844Y-96091185D01*
X130168278Y-96093328D01*
X130003981Y-96257624D01*
X129999412Y-96267421D01*
X129630195Y-96267421D01*
X129630588Y-96266579D01*
X129628982Y-96260587D01*
X129464568Y-96096174D01*
X129454773Y-96091606D01*
X129453731Y-96091885D01*
X129451001Y-96095026D01*
X129430211Y-96135829D01*
X129426598Y-96146949D01*
X129408510Y-96261153D01*
X129408510Y-96272847D01*
X129021490Y-96272847D01*
X129021490Y-96261153D01*
X129003402Y-96146949D01*
X128999789Y-96135829D01*
X128980827Y-96098613D01*
X128972922Y-96091242D01*
X128971844Y-96091185D01*
X128968278Y-96093328D01*
X128803981Y-96257624D01*
X128799412Y-96267421D01*
X128430195Y-96267421D01*
X128430588Y-96266579D01*
X128428982Y-96260587D01*
X128264568Y-96096174D01*
X128254773Y-96091606D01*
X128253731Y-96091885D01*
X128251001Y-96095026D01*
X128230211Y-96135829D01*
X128226598Y-96146949D01*
X128208510Y-96261153D01*
X128208510Y-96272847D01*
X127821490Y-96272847D01*
X127821490Y-96261153D01*
X127803402Y-96146949D01*
X127799789Y-96135829D01*
X127780827Y-96098613D01*
X127772922Y-96091242D01*
X127771844Y-96091185D01*
X127768278Y-96093328D01*
X127603981Y-96257624D01*
X127599412Y-96267421D01*
X127230195Y-96267421D01*
X127230588Y-96266579D01*
X127228982Y-96260587D01*
X127064568Y-96096174D01*
X127054773Y-96091606D01*
X127053731Y-96091885D01*
X127051001Y-96095026D01*
X127030211Y-96135829D01*
X127026598Y-96146949D01*
X127008510Y-96261153D01*
X127008510Y-96272847D01*
X120015000Y-96272847D01*
X120015000Y-95631000D01*
X123061389Y-95631000D01*
X123062315Y-95636847D01*
X123063704Y-95645614D01*
X123080115Y-95749233D01*
X123134461Y-95855893D01*
X123219107Y-95940539D01*
X123325767Y-95994885D01*
X123444000Y-96013611D01*
X123562233Y-95994885D01*
X123668893Y-95940539D01*
X123699276Y-95910156D01*
X127239185Y-95910156D01*
X127241328Y-95913722D01*
X127405624Y-96078019D01*
X127415421Y-96082588D01*
X127421413Y-96080982D01*
X127585826Y-95916568D01*
X127588816Y-95910156D01*
X128439185Y-95910156D01*
X128441328Y-95913722D01*
X128605624Y-96078019D01*
X128615421Y-96082588D01*
X128621413Y-96080982D01*
X128785826Y-95916568D01*
X128788816Y-95910156D01*
X129639185Y-95910156D01*
X129641328Y-95913722D01*
X129805624Y-96078019D01*
X129815421Y-96082588D01*
X129821413Y-96080982D01*
X129985826Y-95916568D01*
X129988816Y-95910156D01*
X130839185Y-95910156D01*
X130841328Y-95913722D01*
X131005624Y-96078019D01*
X131015421Y-96082588D01*
X131021413Y-96080982D01*
X131185826Y-95916568D01*
X131188816Y-95910156D01*
X132039185Y-95910156D01*
X132041328Y-95913722D01*
X132205624Y-96078019D01*
X132215421Y-96082588D01*
X132221413Y-96080982D01*
X132385826Y-95916568D01*
X132390394Y-95906773D01*
X132390115Y-95905731D01*
X132386974Y-95903001D01*
X132346171Y-95882211D01*
X132335051Y-95878598D01*
X132220847Y-95860510D01*
X132209153Y-95860510D01*
X132094949Y-95878598D01*
X132083829Y-95882211D01*
X132046613Y-95901173D01*
X132039242Y-95909078D01*
X132039185Y-95910156D01*
X131188816Y-95910156D01*
X131190394Y-95906773D01*
X131190115Y-95905731D01*
X131186974Y-95903001D01*
X131146171Y-95882211D01*
X131135051Y-95878598D01*
X131020847Y-95860510D01*
X131009153Y-95860510D01*
X130894949Y-95878598D01*
X130883829Y-95882211D01*
X130846613Y-95901173D01*
X130839242Y-95909078D01*
X130839185Y-95910156D01*
X129988816Y-95910156D01*
X129990394Y-95906773D01*
X129990115Y-95905731D01*
X129986974Y-95903001D01*
X129946171Y-95882211D01*
X129935051Y-95878598D01*
X129820847Y-95860510D01*
X129809153Y-95860510D01*
X129694949Y-95878598D01*
X129683829Y-95882211D01*
X129646613Y-95901173D01*
X129639242Y-95909078D01*
X129639185Y-95910156D01*
X128788816Y-95910156D01*
X128790394Y-95906773D01*
X128790115Y-95905731D01*
X128786974Y-95903001D01*
X128746171Y-95882211D01*
X128735051Y-95878598D01*
X128620847Y-95860510D01*
X128609153Y-95860510D01*
X128494949Y-95878598D01*
X128483829Y-95882211D01*
X128446613Y-95901173D01*
X128439242Y-95909078D01*
X128439185Y-95910156D01*
X127588816Y-95910156D01*
X127590394Y-95906773D01*
X127590115Y-95905731D01*
X127586974Y-95903001D01*
X127546171Y-95882211D01*
X127535051Y-95878598D01*
X127420847Y-95860510D01*
X127409153Y-95860510D01*
X127294949Y-95878598D01*
X127283829Y-95882211D01*
X127246613Y-95901173D01*
X127239242Y-95909078D01*
X127239185Y-95910156D01*
X123699276Y-95910156D01*
X123753539Y-95855893D01*
X123803418Y-95758000D01*
X142365389Y-95758000D01*
X142384115Y-95876233D01*
X142438461Y-95982893D01*
X142523107Y-96067539D01*
X142629767Y-96121885D01*
X142635614Y-96122811D01*
X142737090Y-96138883D01*
X142748000Y-96140611D01*
X142758911Y-96138883D01*
X142860386Y-96122811D01*
X142866233Y-96121885D01*
X142972893Y-96067539D01*
X143057539Y-95982893D01*
X143111885Y-95876233D01*
X143126856Y-95781708D01*
X156572100Y-95781708D01*
X156587043Y-95876055D01*
X156644984Y-95989771D01*
X156735229Y-96080016D01*
X156740505Y-96082704D01*
X156740506Y-96082705D01*
X156758523Y-96091885D01*
X156848945Y-96137957D01*
X156865702Y-96140611D01*
X156940374Y-96152438D01*
X156940376Y-96152438D01*
X156943292Y-96152900D01*
X158256708Y-96152900D01*
X158259624Y-96152438D01*
X158259626Y-96152438D01*
X158334298Y-96140611D01*
X158351055Y-96137957D01*
X158441477Y-96091885D01*
X158459494Y-96082705D01*
X158459495Y-96082704D01*
X158464771Y-96080016D01*
X158555016Y-95989771D01*
X158612957Y-95876055D01*
X158627900Y-95781708D01*
X158627900Y-95018292D01*
X158612957Y-94923945D01*
X158555016Y-94810229D01*
X158464771Y-94719984D01*
X158445483Y-94710156D01*
X158383546Y-94678598D01*
X158351055Y-94662043D01*
X158320040Y-94657131D01*
X158259626Y-94647562D01*
X158259624Y-94647562D01*
X158256708Y-94647100D01*
X156943292Y-94647100D01*
X156940376Y-94647562D01*
X156940374Y-94647562D01*
X156879960Y-94657131D01*
X156848945Y-94662043D01*
X156816454Y-94678598D01*
X156754518Y-94710156D01*
X156735229Y-94719984D01*
X156644984Y-94810229D01*
X156587043Y-94923945D01*
X156572100Y-95018292D01*
X156572100Y-95781708D01*
X143126856Y-95781708D01*
X143130611Y-95758000D01*
X143129223Y-95749233D01*
X143112811Y-95645614D01*
X143111885Y-95639767D01*
X143057539Y-95533107D01*
X142972893Y-95448461D01*
X142866233Y-95394115D01*
X142826197Y-95387774D01*
X142781207Y-95362836D01*
X142762772Y-95314813D01*
X142779520Y-95266175D01*
X142807536Y-95250000D01*
X149604389Y-95250000D01*
X149623115Y-95368233D01*
X149677461Y-95474893D01*
X149762107Y-95559539D01*
X149868767Y-95613885D01*
X149987000Y-95632611D01*
X150105233Y-95613885D01*
X150211893Y-95559539D01*
X150296539Y-95474893D01*
X150350885Y-95368233D01*
X150369611Y-95250000D01*
X150350885Y-95131767D01*
X150296539Y-95025107D01*
X150211893Y-94940461D01*
X150202803Y-94935829D01*
X150162187Y-94915135D01*
X150105233Y-94886115D01*
X149987000Y-94867389D01*
X149868767Y-94886115D01*
X149811813Y-94915135D01*
X149771198Y-94935829D01*
X149762107Y-94940461D01*
X149677461Y-95025107D01*
X149623115Y-95131767D01*
X149604389Y-95250000D01*
X142807536Y-95250000D01*
X142826197Y-95239226D01*
X142860386Y-95233811D01*
X142866233Y-95232885D01*
X142934363Y-95198171D01*
X142967616Y-95181228D01*
X142967617Y-95181227D01*
X142972893Y-95178539D01*
X143057539Y-95093893D01*
X143066465Y-95076376D01*
X143092587Y-95025107D01*
X143111885Y-94987233D01*
X143130611Y-94869000D01*
X143111885Y-94750767D01*
X143057539Y-94644107D01*
X142972893Y-94559461D01*
X142866233Y-94505115D01*
X142748000Y-94486389D01*
X142629767Y-94505115D01*
X142523107Y-94559461D01*
X142438461Y-94644107D01*
X142384115Y-94750767D01*
X142365389Y-94869000D01*
X142384115Y-94987233D01*
X142403413Y-95025107D01*
X142429536Y-95076376D01*
X142438461Y-95093893D01*
X142523107Y-95178539D01*
X142528383Y-95181227D01*
X142528384Y-95181228D01*
X142561637Y-95198171D01*
X142629767Y-95232885D01*
X142635614Y-95233811D01*
X142669803Y-95239226D01*
X142714793Y-95264164D01*
X142733228Y-95312187D01*
X142716480Y-95360825D01*
X142669803Y-95387774D01*
X142629767Y-95394115D01*
X142523107Y-95448461D01*
X142438461Y-95533107D01*
X142384115Y-95639767D01*
X142383189Y-95645614D01*
X142366778Y-95749233D01*
X142365389Y-95758000D01*
X123803418Y-95758000D01*
X123807885Y-95749233D01*
X123824296Y-95645614D01*
X123825685Y-95636847D01*
X123826611Y-95631000D01*
X123807885Y-95512767D01*
X123764300Y-95427227D01*
X127239606Y-95427227D01*
X127239885Y-95428269D01*
X127243026Y-95430999D01*
X127283829Y-95451789D01*
X127294949Y-95455402D01*
X127409153Y-95473490D01*
X127420847Y-95473490D01*
X127535051Y-95455402D01*
X127546171Y-95451789D01*
X127583387Y-95432827D01*
X127588609Y-95427227D01*
X128439606Y-95427227D01*
X128439885Y-95428269D01*
X128443026Y-95430999D01*
X128483829Y-95451789D01*
X128494949Y-95455402D01*
X128609153Y-95473490D01*
X128620847Y-95473490D01*
X128735051Y-95455402D01*
X128746171Y-95451789D01*
X128783387Y-95432827D01*
X128788609Y-95427227D01*
X129639606Y-95427227D01*
X129639885Y-95428269D01*
X129643026Y-95430999D01*
X129683829Y-95451789D01*
X129694949Y-95455402D01*
X129809153Y-95473490D01*
X129820847Y-95473490D01*
X129935051Y-95455402D01*
X129946171Y-95451789D01*
X129983387Y-95432827D01*
X129988609Y-95427227D01*
X130839606Y-95427227D01*
X130839885Y-95428269D01*
X130843026Y-95430999D01*
X130883829Y-95451789D01*
X130894949Y-95455402D01*
X131009153Y-95473490D01*
X131020847Y-95473490D01*
X131135051Y-95455402D01*
X131146171Y-95451789D01*
X131183387Y-95432827D01*
X131188609Y-95427227D01*
X132039606Y-95427227D01*
X132039885Y-95428269D01*
X132043026Y-95430999D01*
X132083829Y-95451789D01*
X132094949Y-95455402D01*
X132209153Y-95473490D01*
X132220847Y-95473490D01*
X132335051Y-95455402D01*
X132346171Y-95451789D01*
X132383387Y-95432827D01*
X132390758Y-95424922D01*
X132390815Y-95423844D01*
X132388672Y-95420278D01*
X132224376Y-95255981D01*
X132214579Y-95251412D01*
X132208587Y-95253018D01*
X132044174Y-95417432D01*
X132039606Y-95427227D01*
X131188609Y-95427227D01*
X131190758Y-95424922D01*
X131190815Y-95423844D01*
X131188672Y-95420278D01*
X131024376Y-95255981D01*
X131014579Y-95251412D01*
X131008587Y-95253018D01*
X130844174Y-95417432D01*
X130839606Y-95427227D01*
X129988609Y-95427227D01*
X129990758Y-95424922D01*
X129990815Y-95423844D01*
X129988672Y-95420278D01*
X129824376Y-95255981D01*
X129814579Y-95251412D01*
X129808587Y-95253018D01*
X129644174Y-95417432D01*
X129639606Y-95427227D01*
X128788609Y-95427227D01*
X128790758Y-95424922D01*
X128790815Y-95423844D01*
X128788672Y-95420278D01*
X128624376Y-95255981D01*
X128614579Y-95251412D01*
X128608587Y-95253018D01*
X128444174Y-95417432D01*
X128439606Y-95427227D01*
X127588609Y-95427227D01*
X127590758Y-95424922D01*
X127590815Y-95423844D01*
X127588672Y-95420278D01*
X127424376Y-95255981D01*
X127414579Y-95251412D01*
X127408587Y-95253018D01*
X127244174Y-95417432D01*
X127239606Y-95427227D01*
X123764300Y-95427227D01*
X123763126Y-95424922D01*
X123756228Y-95411384D01*
X123756227Y-95411383D01*
X123753539Y-95406107D01*
X123668893Y-95321461D01*
X123562233Y-95267115D01*
X123444000Y-95248389D01*
X123325767Y-95267115D01*
X123219107Y-95321461D01*
X123134461Y-95406107D01*
X123131773Y-95411383D01*
X123131772Y-95411384D01*
X123124874Y-95424922D01*
X123080115Y-95512767D01*
X123061389Y-95631000D01*
X120015000Y-95631000D01*
X120015000Y-95072847D01*
X127008510Y-95072847D01*
X127026598Y-95187051D01*
X127030211Y-95198171D01*
X127049173Y-95235387D01*
X127057078Y-95242758D01*
X127058156Y-95242815D01*
X127061722Y-95240672D01*
X127226019Y-95076376D01*
X127230195Y-95067421D01*
X127599412Y-95067421D01*
X127601018Y-95073413D01*
X127765432Y-95237826D01*
X127775227Y-95242394D01*
X127776269Y-95242115D01*
X127778999Y-95238974D01*
X127799789Y-95198171D01*
X127803402Y-95187051D01*
X127821490Y-95072847D01*
X128208510Y-95072847D01*
X128226598Y-95187051D01*
X128230211Y-95198171D01*
X128249173Y-95235387D01*
X128257078Y-95242758D01*
X128258156Y-95242815D01*
X128261722Y-95240672D01*
X128426019Y-95076376D01*
X128430195Y-95067421D01*
X128799412Y-95067421D01*
X128801018Y-95073413D01*
X128965432Y-95237826D01*
X128975227Y-95242394D01*
X128976269Y-95242115D01*
X128978999Y-95238974D01*
X128999789Y-95198171D01*
X129003402Y-95187051D01*
X129021490Y-95072847D01*
X129408510Y-95072847D01*
X129426598Y-95187051D01*
X129430211Y-95198171D01*
X129449173Y-95235387D01*
X129457078Y-95242758D01*
X129458156Y-95242815D01*
X129461722Y-95240672D01*
X129626019Y-95076376D01*
X129630195Y-95067421D01*
X129999412Y-95067421D01*
X130001018Y-95073413D01*
X130165432Y-95237826D01*
X130175227Y-95242394D01*
X130176269Y-95242115D01*
X130178999Y-95238974D01*
X130199789Y-95198171D01*
X130203402Y-95187051D01*
X130221490Y-95072847D01*
X130608510Y-95072847D01*
X130626598Y-95187051D01*
X130630211Y-95198171D01*
X130649173Y-95235387D01*
X130657078Y-95242758D01*
X130658156Y-95242815D01*
X130661722Y-95240672D01*
X130826019Y-95076376D01*
X130830195Y-95067421D01*
X131199412Y-95067421D01*
X131201018Y-95073413D01*
X131365432Y-95237826D01*
X131375227Y-95242394D01*
X131376269Y-95242115D01*
X131378999Y-95238974D01*
X131399789Y-95198171D01*
X131403402Y-95187051D01*
X131421490Y-95072847D01*
X131808510Y-95072847D01*
X131826598Y-95187051D01*
X131830211Y-95198171D01*
X131849173Y-95235387D01*
X131857078Y-95242758D01*
X131858156Y-95242815D01*
X131861722Y-95240672D01*
X132026019Y-95076376D01*
X132030195Y-95067421D01*
X132399412Y-95067421D01*
X132401018Y-95073413D01*
X132565432Y-95237826D01*
X132575227Y-95242394D01*
X132576269Y-95242115D01*
X132578999Y-95238974D01*
X132599789Y-95198171D01*
X132603402Y-95187051D01*
X132621490Y-95072847D01*
X132621490Y-95061153D01*
X132603402Y-94946949D01*
X132599789Y-94935829D01*
X132580827Y-94898613D01*
X132572922Y-94891242D01*
X132571844Y-94891185D01*
X132568278Y-94893328D01*
X132403981Y-95057624D01*
X132399412Y-95067421D01*
X132030195Y-95067421D01*
X132030588Y-95066579D01*
X132028982Y-95060587D01*
X131864568Y-94896174D01*
X131854773Y-94891606D01*
X131853731Y-94891885D01*
X131851001Y-94895026D01*
X131830211Y-94935829D01*
X131826598Y-94946949D01*
X131808510Y-95061153D01*
X131808510Y-95072847D01*
X131421490Y-95072847D01*
X131421490Y-95061153D01*
X131403402Y-94946949D01*
X131399789Y-94935829D01*
X131380827Y-94898613D01*
X131372922Y-94891242D01*
X131371844Y-94891185D01*
X131368278Y-94893328D01*
X131203981Y-95057624D01*
X131199412Y-95067421D01*
X130830195Y-95067421D01*
X130830588Y-95066579D01*
X130828982Y-95060587D01*
X130664568Y-94896174D01*
X130654773Y-94891606D01*
X130653731Y-94891885D01*
X130651001Y-94895026D01*
X130630211Y-94935829D01*
X130626598Y-94946949D01*
X130608510Y-95061153D01*
X130608510Y-95072847D01*
X130221490Y-95072847D01*
X130221490Y-95061153D01*
X130203402Y-94946949D01*
X130199789Y-94935829D01*
X130180827Y-94898613D01*
X130172922Y-94891242D01*
X130171844Y-94891185D01*
X130168278Y-94893328D01*
X130003981Y-95057624D01*
X129999412Y-95067421D01*
X129630195Y-95067421D01*
X129630588Y-95066579D01*
X129628982Y-95060587D01*
X129464568Y-94896174D01*
X129454773Y-94891606D01*
X129453731Y-94891885D01*
X129451001Y-94895026D01*
X129430211Y-94935829D01*
X129426598Y-94946949D01*
X129408510Y-95061153D01*
X129408510Y-95072847D01*
X129021490Y-95072847D01*
X129021490Y-95061153D01*
X129003402Y-94946949D01*
X128999789Y-94935829D01*
X128980827Y-94898613D01*
X128972922Y-94891242D01*
X128971844Y-94891185D01*
X128968278Y-94893328D01*
X128803981Y-95057624D01*
X128799412Y-95067421D01*
X128430195Y-95067421D01*
X128430588Y-95066579D01*
X128428982Y-95060587D01*
X128264568Y-94896174D01*
X128254773Y-94891606D01*
X128253731Y-94891885D01*
X128251001Y-94895026D01*
X128230211Y-94935829D01*
X128226598Y-94946949D01*
X128208510Y-95061153D01*
X128208510Y-95072847D01*
X127821490Y-95072847D01*
X127821490Y-95061153D01*
X127803402Y-94946949D01*
X127799789Y-94935829D01*
X127780827Y-94898613D01*
X127772922Y-94891242D01*
X127771844Y-94891185D01*
X127768278Y-94893328D01*
X127603981Y-95057624D01*
X127599412Y-95067421D01*
X127230195Y-95067421D01*
X127230588Y-95066579D01*
X127228982Y-95060587D01*
X127064568Y-94896174D01*
X127054773Y-94891606D01*
X127053731Y-94891885D01*
X127051001Y-94895026D01*
X127030211Y-94935829D01*
X127026598Y-94946949D01*
X127008510Y-95061153D01*
X127008510Y-95072847D01*
X120015000Y-95072847D01*
X120015000Y-94710156D01*
X127239185Y-94710156D01*
X127241328Y-94713722D01*
X127405624Y-94878019D01*
X127415421Y-94882588D01*
X127421413Y-94880982D01*
X127585826Y-94716568D01*
X127588816Y-94710156D01*
X128439185Y-94710156D01*
X128441328Y-94713722D01*
X128605624Y-94878019D01*
X128615421Y-94882588D01*
X128621413Y-94880982D01*
X128785826Y-94716568D01*
X128788816Y-94710156D01*
X129639185Y-94710156D01*
X129641328Y-94713722D01*
X129805624Y-94878019D01*
X129815421Y-94882588D01*
X129821413Y-94880982D01*
X129985826Y-94716568D01*
X129988816Y-94710156D01*
X130839185Y-94710156D01*
X130841328Y-94713722D01*
X131005624Y-94878019D01*
X131015421Y-94882588D01*
X131021413Y-94880982D01*
X131185826Y-94716568D01*
X131188816Y-94710156D01*
X132039185Y-94710156D01*
X132041328Y-94713722D01*
X132205624Y-94878019D01*
X132215421Y-94882588D01*
X132221413Y-94880982D01*
X132385826Y-94716568D01*
X132390394Y-94706773D01*
X132390115Y-94705731D01*
X132386974Y-94703001D01*
X132346171Y-94682211D01*
X132335051Y-94678598D01*
X132220847Y-94660510D01*
X132209153Y-94660510D01*
X132094949Y-94678598D01*
X132083829Y-94682211D01*
X132046613Y-94701173D01*
X132039242Y-94709078D01*
X132039185Y-94710156D01*
X131188816Y-94710156D01*
X131190394Y-94706773D01*
X131190115Y-94705731D01*
X131186974Y-94703001D01*
X131146171Y-94682211D01*
X131135051Y-94678598D01*
X131020847Y-94660510D01*
X131009153Y-94660510D01*
X130894949Y-94678598D01*
X130883829Y-94682211D01*
X130846613Y-94701173D01*
X130839242Y-94709078D01*
X130839185Y-94710156D01*
X129988816Y-94710156D01*
X129990394Y-94706773D01*
X129990115Y-94705731D01*
X129986974Y-94703001D01*
X129946171Y-94682211D01*
X129935051Y-94678598D01*
X129820847Y-94660510D01*
X129809153Y-94660510D01*
X129694949Y-94678598D01*
X129683829Y-94682211D01*
X129646613Y-94701173D01*
X129639242Y-94709078D01*
X129639185Y-94710156D01*
X128788816Y-94710156D01*
X128790394Y-94706773D01*
X128790115Y-94705731D01*
X128786974Y-94703001D01*
X128746171Y-94682211D01*
X128735051Y-94678598D01*
X128620847Y-94660510D01*
X128609153Y-94660510D01*
X128494949Y-94678598D01*
X128483829Y-94682211D01*
X128446613Y-94701173D01*
X128439242Y-94709078D01*
X128439185Y-94710156D01*
X127588816Y-94710156D01*
X127590394Y-94706773D01*
X127590115Y-94705731D01*
X127586974Y-94703001D01*
X127546171Y-94682211D01*
X127535051Y-94678598D01*
X127420847Y-94660510D01*
X127409153Y-94660510D01*
X127294949Y-94678598D01*
X127283829Y-94682211D01*
X127246613Y-94701173D01*
X127239242Y-94709078D01*
X127239185Y-94710156D01*
X120015000Y-94710156D01*
X120015000Y-94227227D01*
X127239606Y-94227227D01*
X127239885Y-94228269D01*
X127243026Y-94230999D01*
X127283829Y-94251789D01*
X127294949Y-94255402D01*
X127409153Y-94273490D01*
X127420847Y-94273490D01*
X127535051Y-94255402D01*
X127546171Y-94251789D01*
X127583387Y-94232827D01*
X127588609Y-94227227D01*
X128439606Y-94227227D01*
X128439885Y-94228269D01*
X128443026Y-94230999D01*
X128483829Y-94251789D01*
X128494949Y-94255402D01*
X128609153Y-94273490D01*
X128620847Y-94273490D01*
X128735051Y-94255402D01*
X128746171Y-94251789D01*
X128783387Y-94232827D01*
X128788609Y-94227227D01*
X129639606Y-94227227D01*
X129639885Y-94228269D01*
X129643026Y-94230999D01*
X129683829Y-94251789D01*
X129694949Y-94255402D01*
X129809153Y-94273490D01*
X129820847Y-94273490D01*
X129935051Y-94255402D01*
X129946171Y-94251789D01*
X129983387Y-94232827D01*
X129988609Y-94227227D01*
X130839606Y-94227227D01*
X130839885Y-94228269D01*
X130843026Y-94230999D01*
X130883829Y-94251789D01*
X130894949Y-94255402D01*
X131009153Y-94273490D01*
X131020847Y-94273490D01*
X131135051Y-94255402D01*
X131146171Y-94251789D01*
X131183387Y-94232827D01*
X131188609Y-94227227D01*
X132039606Y-94227227D01*
X132039885Y-94228269D01*
X132043026Y-94230999D01*
X132083829Y-94251789D01*
X132094949Y-94255402D01*
X132209153Y-94273490D01*
X132220847Y-94273490D01*
X132335051Y-94255402D01*
X132346171Y-94251789D01*
X132383387Y-94232827D01*
X132390758Y-94224922D01*
X132390815Y-94223844D01*
X132388672Y-94220278D01*
X132224376Y-94055981D01*
X132214579Y-94051412D01*
X132208587Y-94053018D01*
X132044174Y-94217432D01*
X132039606Y-94227227D01*
X131188609Y-94227227D01*
X131190758Y-94224922D01*
X131190815Y-94223844D01*
X131188672Y-94220278D01*
X131024376Y-94055981D01*
X131014579Y-94051412D01*
X131008587Y-94053018D01*
X130844174Y-94217432D01*
X130839606Y-94227227D01*
X129988609Y-94227227D01*
X129990758Y-94224922D01*
X129990815Y-94223844D01*
X129988672Y-94220278D01*
X129824376Y-94055981D01*
X129814579Y-94051412D01*
X129808587Y-94053018D01*
X129644174Y-94217432D01*
X129639606Y-94227227D01*
X128788609Y-94227227D01*
X128790758Y-94224922D01*
X128790815Y-94223844D01*
X128788672Y-94220278D01*
X128624376Y-94055981D01*
X128614579Y-94051412D01*
X128608587Y-94053018D01*
X128444174Y-94217432D01*
X128439606Y-94227227D01*
X127588609Y-94227227D01*
X127590758Y-94224922D01*
X127590815Y-94223844D01*
X127588672Y-94220278D01*
X127424376Y-94055981D01*
X127414579Y-94051412D01*
X127408587Y-94053018D01*
X127244174Y-94217432D01*
X127239606Y-94227227D01*
X120015000Y-94227227D01*
X120015000Y-93872847D01*
X127008510Y-93872847D01*
X127026598Y-93987051D01*
X127030211Y-93998171D01*
X127049173Y-94035387D01*
X127057078Y-94042758D01*
X127058156Y-94042815D01*
X127061722Y-94040672D01*
X127226019Y-93876376D01*
X127230195Y-93867421D01*
X127599412Y-93867421D01*
X127601018Y-93873413D01*
X127765432Y-94037826D01*
X127775227Y-94042394D01*
X127776269Y-94042115D01*
X127778999Y-94038974D01*
X127799789Y-93998171D01*
X127803402Y-93987051D01*
X127821490Y-93872847D01*
X128208510Y-93872847D01*
X128226598Y-93987051D01*
X128230211Y-93998171D01*
X128249173Y-94035387D01*
X128257078Y-94042758D01*
X128258156Y-94042815D01*
X128261722Y-94040672D01*
X128426019Y-93876376D01*
X128430195Y-93867421D01*
X128799412Y-93867421D01*
X128801018Y-93873413D01*
X128965432Y-94037826D01*
X128975227Y-94042394D01*
X128976269Y-94042115D01*
X128978999Y-94038974D01*
X128999789Y-93998171D01*
X129003402Y-93987051D01*
X129021490Y-93872847D01*
X129408510Y-93872847D01*
X129426598Y-93987051D01*
X129430211Y-93998171D01*
X129449173Y-94035387D01*
X129457078Y-94042758D01*
X129458156Y-94042815D01*
X129461722Y-94040672D01*
X129626019Y-93876376D01*
X129630195Y-93867421D01*
X129999412Y-93867421D01*
X130001018Y-93873413D01*
X130165432Y-94037826D01*
X130175227Y-94042394D01*
X130176269Y-94042115D01*
X130178999Y-94038974D01*
X130199789Y-93998171D01*
X130203402Y-93987051D01*
X130221490Y-93872847D01*
X130608510Y-93872847D01*
X130626598Y-93987051D01*
X130630211Y-93998171D01*
X130649173Y-94035387D01*
X130657078Y-94042758D01*
X130658156Y-94042815D01*
X130661722Y-94040672D01*
X130826019Y-93876376D01*
X130830195Y-93867421D01*
X131199412Y-93867421D01*
X131201018Y-93873413D01*
X131365432Y-94037826D01*
X131375227Y-94042394D01*
X131376269Y-94042115D01*
X131378999Y-94038974D01*
X131399789Y-93998171D01*
X131403402Y-93987051D01*
X131421490Y-93872847D01*
X131808510Y-93872847D01*
X131826598Y-93987051D01*
X131830211Y-93998171D01*
X131849173Y-94035387D01*
X131857078Y-94042758D01*
X131858156Y-94042815D01*
X131861722Y-94040672D01*
X132026019Y-93876376D01*
X132030195Y-93867421D01*
X132399412Y-93867421D01*
X132401018Y-93873413D01*
X132565432Y-94037826D01*
X132575227Y-94042394D01*
X132576269Y-94042115D01*
X132578999Y-94038974D01*
X132599789Y-93998171D01*
X132603402Y-93987051D01*
X132621490Y-93872847D01*
X132621490Y-93861153D01*
X132603402Y-93746949D01*
X132599789Y-93735829D01*
X132580827Y-93698613D01*
X132572922Y-93691242D01*
X132571844Y-93691185D01*
X132568278Y-93693328D01*
X132403981Y-93857624D01*
X132399412Y-93867421D01*
X132030195Y-93867421D01*
X132030588Y-93866579D01*
X132028982Y-93860587D01*
X131864568Y-93696174D01*
X131854773Y-93691606D01*
X131853731Y-93691885D01*
X131851001Y-93695026D01*
X131830211Y-93735829D01*
X131826598Y-93746949D01*
X131808510Y-93861153D01*
X131808510Y-93872847D01*
X131421490Y-93872847D01*
X131421490Y-93861153D01*
X131403402Y-93746949D01*
X131399789Y-93735829D01*
X131380827Y-93698613D01*
X131372922Y-93691242D01*
X131371844Y-93691185D01*
X131368278Y-93693328D01*
X131203981Y-93857624D01*
X131199412Y-93867421D01*
X130830195Y-93867421D01*
X130830588Y-93866579D01*
X130828982Y-93860587D01*
X130664568Y-93696174D01*
X130654773Y-93691606D01*
X130653731Y-93691885D01*
X130651001Y-93695026D01*
X130630211Y-93735829D01*
X130626598Y-93746949D01*
X130608510Y-93861153D01*
X130608510Y-93872847D01*
X130221490Y-93872847D01*
X130221490Y-93861153D01*
X130203402Y-93746949D01*
X130199789Y-93735829D01*
X130180827Y-93698613D01*
X130172922Y-93691242D01*
X130171844Y-93691185D01*
X130168278Y-93693328D01*
X130003981Y-93857624D01*
X129999412Y-93867421D01*
X129630195Y-93867421D01*
X129630588Y-93866579D01*
X129628982Y-93860587D01*
X129464568Y-93696174D01*
X129454773Y-93691606D01*
X129453731Y-93691885D01*
X129451001Y-93695026D01*
X129430211Y-93735829D01*
X129426598Y-93746949D01*
X129408510Y-93861153D01*
X129408510Y-93872847D01*
X129021490Y-93872847D01*
X129021490Y-93861153D01*
X129003402Y-93746949D01*
X128999789Y-93735829D01*
X128980827Y-93698613D01*
X128972922Y-93691242D01*
X128971844Y-93691185D01*
X128968278Y-93693328D01*
X128803981Y-93857624D01*
X128799412Y-93867421D01*
X128430195Y-93867421D01*
X128430588Y-93866579D01*
X128428982Y-93860587D01*
X128264568Y-93696174D01*
X128254773Y-93691606D01*
X128253731Y-93691885D01*
X128251001Y-93695026D01*
X128230211Y-93735829D01*
X128226598Y-93746949D01*
X128208510Y-93861153D01*
X128208510Y-93872847D01*
X127821490Y-93872847D01*
X127821490Y-93861153D01*
X127803402Y-93746949D01*
X127799789Y-93735829D01*
X127780827Y-93698613D01*
X127772922Y-93691242D01*
X127771844Y-93691185D01*
X127768278Y-93693328D01*
X127603981Y-93857624D01*
X127599412Y-93867421D01*
X127230195Y-93867421D01*
X127230588Y-93866579D01*
X127228982Y-93860587D01*
X127064568Y-93696174D01*
X127054773Y-93691606D01*
X127053731Y-93691885D01*
X127051001Y-93695026D01*
X127030211Y-93735829D01*
X127026598Y-93746949D01*
X127008510Y-93861153D01*
X127008510Y-93872847D01*
X120015000Y-93872847D01*
X120015000Y-93510156D01*
X127239185Y-93510156D01*
X127241328Y-93513722D01*
X127405624Y-93678019D01*
X127415421Y-93682588D01*
X127421413Y-93680982D01*
X127585826Y-93516568D01*
X127588816Y-93510156D01*
X128439185Y-93510156D01*
X128441328Y-93513722D01*
X128605624Y-93678019D01*
X128615421Y-93682588D01*
X128621413Y-93680982D01*
X128785826Y-93516568D01*
X128788816Y-93510156D01*
X129639185Y-93510156D01*
X129641328Y-93513722D01*
X129805624Y-93678019D01*
X129815421Y-93682588D01*
X129821413Y-93680982D01*
X129985826Y-93516568D01*
X129988816Y-93510156D01*
X130839185Y-93510156D01*
X130841328Y-93513722D01*
X131005624Y-93678019D01*
X131015421Y-93682588D01*
X131021413Y-93680982D01*
X131185826Y-93516568D01*
X131188816Y-93510156D01*
X132039185Y-93510156D01*
X132041328Y-93513722D01*
X132205624Y-93678019D01*
X132215421Y-93682588D01*
X132221413Y-93680982D01*
X132385826Y-93516568D01*
X132390394Y-93506773D01*
X132390115Y-93505731D01*
X132386974Y-93503001D01*
X132346171Y-93482211D01*
X132335051Y-93478598D01*
X132220847Y-93460510D01*
X132209153Y-93460510D01*
X132094949Y-93478598D01*
X132083829Y-93482211D01*
X132046613Y-93501173D01*
X132039242Y-93509078D01*
X132039185Y-93510156D01*
X131188816Y-93510156D01*
X131190394Y-93506773D01*
X131190115Y-93505731D01*
X131186974Y-93503001D01*
X131146171Y-93482211D01*
X131135051Y-93478598D01*
X131020847Y-93460510D01*
X131009153Y-93460510D01*
X130894949Y-93478598D01*
X130883829Y-93482211D01*
X130846613Y-93501173D01*
X130839242Y-93509078D01*
X130839185Y-93510156D01*
X129988816Y-93510156D01*
X129990394Y-93506773D01*
X129990115Y-93505731D01*
X129986974Y-93503001D01*
X129946171Y-93482211D01*
X129935051Y-93478598D01*
X129820847Y-93460510D01*
X129809153Y-93460510D01*
X129694949Y-93478598D01*
X129683829Y-93482211D01*
X129646613Y-93501173D01*
X129639242Y-93509078D01*
X129639185Y-93510156D01*
X128788816Y-93510156D01*
X128790394Y-93506773D01*
X128790115Y-93505731D01*
X128786974Y-93503001D01*
X128746171Y-93482211D01*
X128735051Y-93478598D01*
X128620847Y-93460510D01*
X128609153Y-93460510D01*
X128494949Y-93478598D01*
X128483829Y-93482211D01*
X128446613Y-93501173D01*
X128439242Y-93509078D01*
X128439185Y-93510156D01*
X127588816Y-93510156D01*
X127590394Y-93506773D01*
X127590115Y-93505731D01*
X127586974Y-93503001D01*
X127546171Y-93482211D01*
X127535051Y-93478598D01*
X127420847Y-93460510D01*
X127409153Y-93460510D01*
X127294949Y-93478598D01*
X127283829Y-93482211D01*
X127246613Y-93501173D01*
X127239242Y-93509078D01*
X127239185Y-93510156D01*
X120015000Y-93510156D01*
X120015000Y-93091000D01*
X125728389Y-93091000D01*
X125747115Y-93209233D01*
X125801461Y-93315893D01*
X125886107Y-93400539D01*
X125992767Y-93454885D01*
X126111000Y-93473611D01*
X126229233Y-93454885D01*
X126335893Y-93400539D01*
X126420539Y-93315893D01*
X126474885Y-93209233D01*
X126493611Y-93091000D01*
X126474885Y-92972767D01*
X126420539Y-92866107D01*
X126335893Y-92781461D01*
X126229233Y-92727115D01*
X126111000Y-92708389D01*
X125992767Y-92727115D01*
X125886107Y-92781461D01*
X125801461Y-92866107D01*
X125747115Y-92972767D01*
X125728389Y-93091000D01*
X120015000Y-93091000D01*
X120015000Y-92075000D01*
X127633389Y-92075000D01*
X127652115Y-92193233D01*
X127706461Y-92299893D01*
X127791107Y-92384539D01*
X127897767Y-92438885D01*
X128016000Y-92457611D01*
X128134233Y-92438885D01*
X128240893Y-92384539D01*
X128325539Y-92299893D01*
X128379885Y-92193233D01*
X128398611Y-92075000D01*
X129157389Y-92075000D01*
X129176115Y-92193233D01*
X129230461Y-92299893D01*
X129315107Y-92384539D01*
X129421767Y-92438885D01*
X129540000Y-92457611D01*
X129658233Y-92438885D01*
X129764893Y-92384539D01*
X129849539Y-92299893D01*
X129903885Y-92193233D01*
X129922611Y-92075000D01*
X129903885Y-91956767D01*
X129849539Y-91850107D01*
X129764893Y-91765461D01*
X129658233Y-91711115D01*
X129550172Y-91694000D01*
X137920389Y-91694000D01*
X137939115Y-91812233D01*
X137993461Y-91918893D01*
X138078107Y-92003539D01*
X138184767Y-92057885D01*
X138303000Y-92076611D01*
X138421233Y-92057885D01*
X138527893Y-92003539D01*
X138612539Y-91918893D01*
X138666885Y-91812233D01*
X138685611Y-91694000D01*
X138666885Y-91575767D01*
X138612539Y-91469107D01*
X138527893Y-91384461D01*
X138421233Y-91330115D01*
X138303000Y-91311389D01*
X138184767Y-91330115D01*
X138078107Y-91384461D01*
X137993461Y-91469107D01*
X137939115Y-91575767D01*
X137920389Y-91694000D01*
X129550172Y-91694000D01*
X129540000Y-91692389D01*
X129421767Y-91711115D01*
X129315107Y-91765461D01*
X129230461Y-91850107D01*
X129176115Y-91956767D01*
X129157389Y-92075000D01*
X128398611Y-92075000D01*
X128379885Y-91956767D01*
X128325539Y-91850107D01*
X128240893Y-91765461D01*
X128134233Y-91711115D01*
X128016000Y-91692389D01*
X127897767Y-91711115D01*
X127791107Y-91765461D01*
X127706461Y-91850107D01*
X127652115Y-91956767D01*
X127633389Y-92075000D01*
X120015000Y-92075000D01*
X120015000Y-91186000D01*
X121156389Y-91186000D01*
X121175115Y-91304233D01*
X121229461Y-91410893D01*
X121314107Y-91495539D01*
X121420767Y-91549885D01*
X121539000Y-91568611D01*
X121657233Y-91549885D01*
X121763893Y-91495539D01*
X121848539Y-91410893D01*
X121902885Y-91304233D01*
X121921611Y-91186000D01*
X121902885Y-91067767D01*
X121848539Y-90961107D01*
X121763893Y-90876461D01*
X121657233Y-90822115D01*
X121539000Y-90803389D01*
X121420767Y-90822115D01*
X121314107Y-90876461D01*
X121229461Y-90961107D01*
X121175115Y-91067767D01*
X121156389Y-91186000D01*
X120015000Y-91186000D01*
X120015000Y-90170000D01*
X122299389Y-90170000D01*
X122318115Y-90288233D01*
X122320802Y-90293506D01*
X122358770Y-90368022D01*
X122372461Y-90394893D01*
X122457107Y-90479539D01*
X122563767Y-90533885D01*
X122682000Y-90552611D01*
X122800233Y-90533885D01*
X122906893Y-90479539D01*
X122991539Y-90394893D01*
X123005231Y-90368022D01*
X123043198Y-90293506D01*
X123045885Y-90288233D01*
X123064611Y-90170000D01*
X123045885Y-90051767D01*
X122991539Y-89945107D01*
X122962432Y-89916000D01*
X132459389Y-89916000D01*
X132478115Y-90034233D01*
X132532461Y-90140893D01*
X132617107Y-90225539D01*
X132723767Y-90279885D01*
X132842000Y-90298611D01*
X132960233Y-90279885D01*
X133066893Y-90225539D01*
X133151539Y-90140893D01*
X133205885Y-90034233D01*
X133224611Y-89916000D01*
X136523389Y-89916000D01*
X136542115Y-90034233D01*
X136596461Y-90140893D01*
X136681107Y-90225539D01*
X136787767Y-90279885D01*
X136906000Y-90298611D01*
X137024233Y-90279885D01*
X137130893Y-90225539D01*
X137161439Y-90194993D01*
X150648084Y-90194993D01*
X150677816Y-90368022D01*
X150679526Y-90372040D01*
X150679526Y-90372041D01*
X150725267Y-90479539D01*
X150746556Y-90529570D01*
X150850616Y-90670972D01*
X150984414Y-90784642D01*
X150988306Y-90786629D01*
X150988307Y-90786630D01*
X151136886Y-90862498D01*
X151136888Y-90862499D01*
X151140774Y-90864483D01*
X151311307Y-90906212D01*
X151314643Y-90906419D01*
X151321244Y-90906829D01*
X151321259Y-90906829D01*
X151322396Y-90906900D01*
X151998958Y-90906900D01*
X152001118Y-90906648D01*
X152001121Y-90906648D01*
X152043852Y-90901666D01*
X152129383Y-90891694D01*
X152133492Y-90890202D01*
X152133494Y-90890202D01*
X152290306Y-90833282D01*
X152290308Y-90833281D01*
X152294413Y-90831791D01*
X152441235Y-90735530D01*
X152561974Y-90608075D01*
X152607574Y-90529570D01*
X152647955Y-90460048D01*
X152647955Y-90460047D01*
X152650154Y-90456262D01*
X152670340Y-90389616D01*
X152699778Y-90292419D01*
X152699778Y-90292417D01*
X152701045Y-90288235D01*
X152707101Y-90190634D01*
X152711646Y-90117366D01*
X152711646Y-90117362D01*
X152711916Y-90113007D01*
X152683972Y-89950384D01*
X152682924Y-89944282D01*
X152682923Y-89944278D01*
X152682184Y-89939978D01*
X152613444Y-89778430D01*
X152528947Y-89663611D01*
X152511974Y-89640547D01*
X152511973Y-89640545D01*
X152509384Y-89637028D01*
X152375586Y-89523358D01*
X152371693Y-89521370D01*
X152223114Y-89445502D01*
X152223112Y-89445501D01*
X152219226Y-89443517D01*
X152048693Y-89401788D01*
X152045357Y-89401581D01*
X152038756Y-89401171D01*
X152038741Y-89401171D01*
X152037604Y-89401100D01*
X151361042Y-89401100D01*
X151358882Y-89401352D01*
X151358879Y-89401352D01*
X151316148Y-89406334D01*
X151230617Y-89416306D01*
X151226508Y-89417798D01*
X151226506Y-89417798D01*
X151069694Y-89474718D01*
X151069692Y-89474719D01*
X151065587Y-89476209D01*
X150918765Y-89572470D01*
X150798026Y-89699925D01*
X150795832Y-89703703D01*
X150795830Y-89703705D01*
X150736884Y-89805189D01*
X150709846Y-89851738D01*
X150708578Y-89855925D01*
X150708577Y-89855927D01*
X150660222Y-90015581D01*
X150658955Y-90019765D01*
X150658685Y-90024122D01*
X150658684Y-90024126D01*
X150648354Y-90190634D01*
X150648084Y-90194993D01*
X137161439Y-90194993D01*
X137215539Y-90140893D01*
X137269885Y-90034233D01*
X137288611Y-89916000D01*
X137269885Y-89797767D01*
X137215539Y-89691107D01*
X137130893Y-89606461D01*
X137099645Y-89590539D01*
X137059483Y-89570076D01*
X137024233Y-89552115D01*
X136906000Y-89533389D01*
X136787767Y-89552115D01*
X136752517Y-89570076D01*
X136712356Y-89590539D01*
X136681107Y-89606461D01*
X136596461Y-89691107D01*
X136542115Y-89797767D01*
X136523389Y-89916000D01*
X133224611Y-89916000D01*
X133205885Y-89797767D01*
X133151539Y-89691107D01*
X133066893Y-89606461D01*
X133035645Y-89590539D01*
X132995483Y-89570076D01*
X132960233Y-89552115D01*
X132842000Y-89533389D01*
X132723767Y-89552115D01*
X132688517Y-89570076D01*
X132648356Y-89590539D01*
X132617107Y-89606461D01*
X132532461Y-89691107D01*
X132478115Y-89797767D01*
X132459389Y-89916000D01*
X122962432Y-89916000D01*
X122906893Y-89860461D01*
X122800233Y-89806115D01*
X122682000Y-89787389D01*
X122563767Y-89806115D01*
X122457107Y-89860461D01*
X122372461Y-89945107D01*
X122318115Y-90051767D01*
X122299389Y-90170000D01*
X120015000Y-90170000D01*
X120015000Y-89281000D01*
X134364389Y-89281000D01*
X134383115Y-89399233D01*
X134405679Y-89443517D01*
X134421577Y-89474718D01*
X134437461Y-89505893D01*
X134522107Y-89590539D01*
X134527383Y-89593227D01*
X134527384Y-89593228D01*
X134561579Y-89610651D01*
X134628767Y-89644885D01*
X134747000Y-89663611D01*
X134865233Y-89644885D01*
X134932421Y-89610651D01*
X134966616Y-89593228D01*
X134966617Y-89593227D01*
X134971893Y-89590539D01*
X135056539Y-89505893D01*
X135072424Y-89474718D01*
X135088321Y-89443517D01*
X135110885Y-89399233D01*
X135129611Y-89281000D01*
X135507389Y-89281000D01*
X135526115Y-89399233D01*
X135548679Y-89443517D01*
X135564577Y-89474718D01*
X135580461Y-89505893D01*
X135665107Y-89590539D01*
X135670383Y-89593227D01*
X135670384Y-89593228D01*
X135704579Y-89610651D01*
X135771767Y-89644885D01*
X135890000Y-89663611D01*
X136008233Y-89644885D01*
X136075421Y-89610651D01*
X136109616Y-89593228D01*
X136109617Y-89593227D01*
X136114893Y-89590539D01*
X136199539Y-89505893D01*
X136215424Y-89474718D01*
X136231321Y-89443517D01*
X136253885Y-89399233D01*
X136272611Y-89281000D01*
X136253885Y-89162767D01*
X136199539Y-89056107D01*
X136114893Y-88971461D01*
X136008233Y-88917115D01*
X135890000Y-88898389D01*
X135771767Y-88917115D01*
X135665107Y-88971461D01*
X135580461Y-89056107D01*
X135526115Y-89162767D01*
X135507389Y-89281000D01*
X135129611Y-89281000D01*
X135110885Y-89162767D01*
X135056539Y-89056107D01*
X134971893Y-88971461D01*
X134865233Y-88917115D01*
X134747000Y-88898389D01*
X134628767Y-88917115D01*
X134522107Y-88971461D01*
X134437461Y-89056107D01*
X134383115Y-89162767D01*
X134364389Y-89281000D01*
X120015000Y-89281000D01*
X120015000Y-88265000D01*
X138809389Y-88265000D01*
X138828115Y-88383233D01*
X138882461Y-88489893D01*
X138967107Y-88574539D01*
X139073767Y-88628885D01*
X139192000Y-88647611D01*
X139310233Y-88628885D01*
X139416893Y-88574539D01*
X139455724Y-88535708D01*
X150652100Y-88535708D01*
X150652562Y-88538624D01*
X150652562Y-88538626D01*
X150658250Y-88574539D01*
X150667043Y-88630055D01*
X150724984Y-88743771D01*
X150815229Y-88834016D01*
X150928945Y-88891957D01*
X150934792Y-88892883D01*
X151020374Y-88906438D01*
X151020376Y-88906438D01*
X151023292Y-88906900D01*
X152336708Y-88906900D01*
X152339624Y-88906438D01*
X152339626Y-88906438D01*
X152425208Y-88892883D01*
X152431055Y-88891957D01*
X152544771Y-88834016D01*
X152635016Y-88743771D01*
X152692957Y-88630055D01*
X152701750Y-88574539D01*
X152707438Y-88538626D01*
X152707438Y-88538624D01*
X152707900Y-88535708D01*
X152707900Y-88200000D01*
X155794551Y-88200000D01*
X155794783Y-88202948D01*
X155797377Y-88235901D01*
X155814317Y-88451148D01*
X155815007Y-88454022D01*
X155856988Y-88628885D01*
X155873127Y-88696111D01*
X155874257Y-88698840D01*
X155874259Y-88698845D01*
X155892868Y-88743771D01*
X155969534Y-88928859D01*
X155971079Y-88931381D01*
X155971081Y-88931384D01*
X155998208Y-88975651D01*
X156101164Y-89143659D01*
X156264776Y-89335224D01*
X156456341Y-89498836D01*
X156458864Y-89500382D01*
X156668616Y-89628919D01*
X156668619Y-89628921D01*
X156671141Y-89630466D01*
X156746250Y-89661577D01*
X156901155Y-89725741D01*
X156901160Y-89725743D01*
X156903889Y-89726873D01*
X156906766Y-89727564D01*
X156906770Y-89727565D01*
X157103979Y-89774910D01*
X157148852Y-89785683D01*
X157151796Y-89785915D01*
X157151798Y-89785915D01*
X157335640Y-89800384D01*
X157335648Y-89800384D01*
X157337118Y-89800500D01*
X157462882Y-89800500D01*
X157464352Y-89800384D01*
X157464360Y-89800384D01*
X157648202Y-89785915D01*
X157648204Y-89785915D01*
X157651148Y-89785683D01*
X157696021Y-89774910D01*
X157893230Y-89727565D01*
X157893234Y-89727564D01*
X157896111Y-89726873D01*
X157898840Y-89725743D01*
X157898845Y-89725741D01*
X158053750Y-89661577D01*
X158128859Y-89630466D01*
X158131381Y-89628921D01*
X158131384Y-89628919D01*
X158341136Y-89500382D01*
X158343659Y-89498836D01*
X158535224Y-89335224D01*
X158698836Y-89143659D01*
X158801792Y-88975651D01*
X158828919Y-88931384D01*
X158828921Y-88931381D01*
X158830466Y-88928859D01*
X158907132Y-88743771D01*
X158925741Y-88698845D01*
X158925743Y-88698840D01*
X158926873Y-88696111D01*
X158943013Y-88628885D01*
X158984993Y-88454022D01*
X158985683Y-88451148D01*
X159002624Y-88235901D01*
X159005217Y-88202948D01*
X159005449Y-88200000D01*
X158985683Y-87948852D01*
X158943295Y-87772292D01*
X158927565Y-87706770D01*
X158927564Y-87706766D01*
X158926873Y-87703889D01*
X158830466Y-87471141D01*
X158798349Y-87418730D01*
X158700382Y-87258864D01*
X158698836Y-87256341D01*
X158535224Y-87064776D01*
X158343659Y-86901164D01*
X158282466Y-86863665D01*
X158131384Y-86771081D01*
X158131381Y-86771079D01*
X158128859Y-86769534D01*
X157996613Y-86714756D01*
X157898845Y-86674259D01*
X157898840Y-86674257D01*
X157896111Y-86673127D01*
X157893234Y-86672436D01*
X157893230Y-86672435D01*
X157654022Y-86615007D01*
X157651148Y-86614317D01*
X157648204Y-86614085D01*
X157648202Y-86614085D01*
X157464360Y-86599616D01*
X157464352Y-86599616D01*
X157462882Y-86599500D01*
X157337118Y-86599500D01*
X157335648Y-86599616D01*
X157335640Y-86599616D01*
X157151798Y-86614085D01*
X157151796Y-86614085D01*
X157148852Y-86614317D01*
X157145978Y-86615007D01*
X156906770Y-86672435D01*
X156906766Y-86672436D01*
X156903889Y-86673127D01*
X156901160Y-86674257D01*
X156901155Y-86674259D01*
X156803387Y-86714756D01*
X156671141Y-86769534D01*
X156668619Y-86771079D01*
X156668616Y-86771081D01*
X156517534Y-86863665D01*
X156456341Y-86901164D01*
X156264776Y-87064776D01*
X156101164Y-87256341D01*
X156099618Y-87258864D01*
X156001652Y-87418730D01*
X155969534Y-87471141D01*
X155873127Y-87703889D01*
X155872436Y-87706766D01*
X155872435Y-87706770D01*
X155856705Y-87772292D01*
X155814317Y-87948852D01*
X155794551Y-88200000D01*
X152707900Y-88200000D01*
X152707900Y-87772292D01*
X152692957Y-87677945D01*
X152635016Y-87564229D01*
X152544771Y-87473984D01*
X152539192Y-87471141D01*
X152491656Y-87446921D01*
X152431055Y-87416043D01*
X152384497Y-87408669D01*
X152339626Y-87401562D01*
X152339624Y-87401562D01*
X152336708Y-87401100D01*
X151023292Y-87401100D01*
X151020376Y-87401562D01*
X151020374Y-87401562D01*
X150975503Y-87408669D01*
X150928945Y-87416043D01*
X150868344Y-87446921D01*
X150820809Y-87471141D01*
X150815229Y-87473984D01*
X150724984Y-87564229D01*
X150667043Y-87677945D01*
X150652100Y-87772292D01*
X150652100Y-88535708D01*
X139455724Y-88535708D01*
X139501539Y-88489893D01*
X139555885Y-88383233D01*
X139574611Y-88265000D01*
X139555885Y-88146767D01*
X139501539Y-88040107D01*
X139416893Y-87955461D01*
X139310233Y-87901115D01*
X139192000Y-87882389D01*
X139073767Y-87901115D01*
X138967107Y-87955461D01*
X138882461Y-88040107D01*
X138828115Y-88146767D01*
X138809389Y-88265000D01*
X120015000Y-88265000D01*
X120015000Y-87096441D01*
X136552730Y-87096441D01*
X136571456Y-87214674D01*
X136625802Y-87321334D01*
X136710448Y-87405980D01*
X136715724Y-87408668D01*
X136715725Y-87408669D01*
X136735471Y-87418730D01*
X136817108Y-87460326D01*
X136822955Y-87461252D01*
X136886365Y-87471295D01*
X136935341Y-87479052D01*
X136984318Y-87471295D01*
X137047727Y-87461252D01*
X137053574Y-87460326D01*
X137135211Y-87418730D01*
X137154957Y-87408669D01*
X137154958Y-87408668D01*
X137160234Y-87405980D01*
X137244880Y-87321334D01*
X137299226Y-87214674D01*
X137317952Y-87096441D01*
X137299226Y-86978208D01*
X137244880Y-86871548D01*
X137160234Y-86786902D01*
X137132819Y-86772933D01*
X137110528Y-86761576D01*
X137053574Y-86732556D01*
X136935341Y-86713830D01*
X136817108Y-86732556D01*
X136760154Y-86761576D01*
X136737864Y-86772933D01*
X136710448Y-86786902D01*
X136625802Y-86871548D01*
X136571456Y-86978208D01*
X136552730Y-87096441D01*
X120015000Y-87096441D01*
X120015000Y-85756200D01*
X120032593Y-85707862D01*
X120077142Y-85682142D01*
X120090200Y-85681000D01*
X157364099Y-85681000D01*
X157375862Y-85681926D01*
G37*
G04 #@! TD.AperFunction*
M02*
