G04 #@! TF.GenerationSoftware,KiCad,Pcbnew,(6.0.0)*
G04 #@! TF.CreationDate,2022-04-16T23:03:05-07:00*
G04 #@! TF.ProjectId,YellCubeLights,59656c6c-4375-4626-954c-69676874732e,rev?*
G04 #@! TF.SameCoordinates,Original*
G04 #@! TF.FileFunction,Paste,Top*
G04 #@! TF.FilePolarity,Positive*
%FSLAX46Y46*%
G04 Gerber Fmt 4.6, Leading zero omitted, Abs format (unit mm)*
G04 Created by KiCad (PCBNEW (6.0.0)) date 2022-04-16 23:03:05*
%MOMM*%
%LPD*%
G01*
G04 APERTURE LIST*
G04 Aperture macros list*
%AMRoundRect*
0 Rectangle with rounded corners*
0 $1 Rounding radius*
0 $2 $3 $4 $5 $6 $7 $8 $9 X,Y pos of 4 corners*
0 Add a 4 corners polygon primitive as box body*
4,1,4,$2,$3,$4,$5,$6,$7,$8,$9,$2,$3,0*
0 Add four circle primitives for the rounded corners*
1,1,$1+$1,$2,$3*
1,1,$1+$1,$4,$5*
1,1,$1+$1,$6,$7*
1,1,$1+$1,$8,$9*
0 Add four rect primitives between the rounded corners*
20,1,$1+$1,$2,$3,$4,$5,0*
20,1,$1+$1,$4,$5,$6,$7,0*
20,1,$1+$1,$6,$7,$8,$9,0*
20,1,$1+$1,$8,$9,$2,$3,0*%
G04 Aperture macros list end*
%ADD10R,1.500000X1.000000*%
%ADD11RoundRect,0.140000X-0.140000X-0.170000X0.140000X-0.170000X0.140000X0.170000X-0.140000X0.170000X0*%
G04 APERTURE END LIST*
D10*
X159602000Y-94412000D03*
X159602000Y-97612000D03*
X164502000Y-97612000D03*
X164502000Y-94412000D03*
X136869000Y-107112000D03*
X136869000Y-110312000D03*
X141769000Y-110312000D03*
X141769000Y-107112000D03*
X144489000Y-107112000D03*
X144489000Y-110312000D03*
X149389000Y-110312000D03*
X149389000Y-107112000D03*
D11*
X171605000Y-105537000D03*
X172565000Y-105537000D03*
D10*
X144489000Y-94412000D03*
X144489000Y-97612000D03*
X149389000Y-97612000D03*
X149389000Y-94412000D03*
D11*
X171605000Y-99187000D03*
X172565000Y-99187000D03*
D10*
X159602000Y-107112000D03*
X159602000Y-110312000D03*
X164502000Y-110312000D03*
X164502000Y-107112000D03*
X159602000Y-81712000D03*
X159602000Y-84912000D03*
X164502000Y-84912000D03*
X164502000Y-81712000D03*
D11*
X148999000Y-92837000D03*
X149959000Y-92837000D03*
X171605000Y-92837000D03*
X172565000Y-92837000D03*
D10*
X136869000Y-81712000D03*
X136869000Y-84912000D03*
X141769000Y-84912000D03*
X141769000Y-81712000D03*
D11*
X148999000Y-112014000D03*
X149959000Y-112014000D03*
X164112000Y-105537000D03*
X165072000Y-105537000D03*
X156619000Y-92837000D03*
X157579000Y-92837000D03*
X148999000Y-86487000D03*
X149959000Y-86487000D03*
D10*
X167095000Y-94412000D03*
X167095000Y-97612000D03*
X171995000Y-97612000D03*
X171995000Y-94412000D03*
X136869000Y-88062000D03*
X136869000Y-91262000D03*
X141769000Y-91262000D03*
X141769000Y-88062000D03*
D11*
X164112000Y-99187000D03*
X165072000Y-99187000D03*
D10*
X136869000Y-94412000D03*
X136869000Y-97612000D03*
X141769000Y-97612000D03*
X141769000Y-94412000D03*
X129376000Y-100762000D03*
X129376000Y-103962000D03*
X134276000Y-103962000D03*
X134276000Y-100762000D03*
X144489000Y-100762000D03*
X144489000Y-103962000D03*
X149389000Y-103962000D03*
X149389000Y-100762000D03*
X144489000Y-88062000D03*
X144489000Y-91262000D03*
X149389000Y-91262000D03*
X149389000Y-88062000D03*
D11*
X156619000Y-99187000D03*
X157579000Y-99187000D03*
X156619000Y-112014000D03*
X157579000Y-112014000D03*
D10*
X152092500Y-88062000D03*
X152092500Y-91262000D03*
X156992500Y-91262000D03*
X156992500Y-88062000D03*
X152109000Y-94412000D03*
X152109000Y-97612000D03*
X157009000Y-97612000D03*
X157009000Y-94412000D03*
D11*
X133886000Y-105537000D03*
X134846000Y-105537000D03*
D10*
X136869000Y-100762000D03*
X136869000Y-103962000D03*
X141769000Y-103962000D03*
X141769000Y-100762000D03*
D11*
X141379000Y-86487000D03*
X142339000Y-86487000D03*
D10*
X152109000Y-81712000D03*
X152109000Y-84912000D03*
X157009000Y-84912000D03*
X157009000Y-81712000D03*
D11*
X133886000Y-92837000D03*
X134846000Y-92837000D03*
X164112000Y-112014000D03*
X165072000Y-112014000D03*
D10*
X159585500Y-88062000D03*
X159585500Y-91262000D03*
X164485500Y-91262000D03*
X164485500Y-88062000D03*
D11*
X156619000Y-105537000D03*
X157579000Y-105537000D03*
D10*
X152109000Y-107112000D03*
X152109000Y-110312000D03*
X157009000Y-110312000D03*
X157009000Y-107112000D03*
D11*
X148999000Y-99187000D03*
X149959000Y-99187000D03*
D10*
X152109000Y-100762000D03*
X152109000Y-103962000D03*
X157009000Y-103962000D03*
X157009000Y-100762000D03*
D11*
X164112000Y-92837000D03*
X165072000Y-92837000D03*
X164112000Y-86487000D03*
X165072000Y-86487000D03*
X133886000Y-99187000D03*
X134846000Y-99187000D03*
D10*
X144472500Y-81712000D03*
X144472500Y-84912000D03*
X149372500Y-84912000D03*
X149372500Y-81712000D03*
X129376000Y-94412000D03*
X129376000Y-97612000D03*
X134276000Y-97612000D03*
X134276000Y-94412000D03*
D11*
X141379000Y-105537000D03*
X142339000Y-105537000D03*
D10*
X129376000Y-88062000D03*
X129376000Y-91262000D03*
X134276000Y-91262000D03*
X134276000Y-88062000D03*
D11*
X141379000Y-92837000D03*
X142339000Y-92837000D03*
X148999000Y-105537000D03*
X149959000Y-105537000D03*
D10*
X167095000Y-88062000D03*
X167095000Y-91262000D03*
X171995000Y-91262000D03*
X171995000Y-88062000D03*
D11*
X156619000Y-86487000D03*
X157579000Y-86487000D03*
X141379000Y-112014000D03*
X142339000Y-112014000D03*
D10*
X159585500Y-100762000D03*
X159585500Y-103962000D03*
X164485500Y-103962000D03*
X164485500Y-100762000D03*
D11*
X141379000Y-99187000D03*
X142339000Y-99187000D03*
D10*
X167095000Y-100762000D03*
X167095000Y-103962000D03*
X171995000Y-103962000D03*
X171995000Y-100762000D03*
M02*
