G04 #@! TF.GenerationSoftware,KiCad,Pcbnew,(6.0.0)*
G04 #@! TF.CreationDate,2022-04-16T23:03:06-07:00*
G04 #@! TF.ProjectId,YellCubeLights,59656c6c-4375-4626-954c-69676874732e,rev?*
G04 #@! TF.SameCoordinates,Original*
G04 #@! TF.FileFunction,Legend,Bot*
G04 #@! TF.FilePolarity,Positive*
%FSLAX46Y46*%
G04 Gerber Fmt 4.6, Leading zero omitted, Abs format (unit mm)*
G04 Created by KiCad (PCBNEW (6.0.0)) date 2022-04-16 23:03:06*
%MOMM*%
%LPD*%
G01*
G04 APERTURE LIST*
%ADD10C,0.254000*%
%ADD11C,0.177800*%
%ADD12C,0.150000*%
%ADD13C,0.127000*%
%ADD14C,0.120000*%
%ADD15C,0.100000*%
G04 APERTURE END LIST*
D10*
X154178000Y-83566000D02*
X154178000Y-86868000D01*
X150114000Y-83566000D02*
X150114000Y-86868000D01*
X152019000Y-83566000D02*
X152019000Y-86868000D01*
D11*
X150700619Y-84442904D02*
X150942523Y-84442904D01*
X150845761Y-84201000D02*
X150942523Y-84442904D01*
X150845761Y-84684809D01*
X151136047Y-84297761D02*
X150942523Y-84442904D01*
X151136047Y-84588047D01*
X150700619Y-85217000D02*
X150942523Y-85217000D01*
X150845761Y-84975095D02*
X150942523Y-85217000D01*
X150845761Y-85458904D01*
X151136047Y-85071857D02*
X150942523Y-85217000D01*
X151136047Y-85362142D01*
X150700619Y-85991095D02*
X150942523Y-85991095D01*
X150845761Y-85749190D02*
X150942523Y-85991095D01*
X150845761Y-86233000D01*
X151136047Y-85845952D02*
X150942523Y-85991095D01*
X151136047Y-86136238D01*
X153621619Y-83693000D02*
X152605619Y-83693000D01*
X152605619Y-83934904D01*
X152654000Y-84080047D01*
X152750761Y-84176809D01*
X152847523Y-84225190D01*
X153041047Y-84273571D01*
X153186190Y-84273571D01*
X153379714Y-84225190D01*
X153476476Y-84176809D01*
X153573238Y-84080047D01*
X153621619Y-83934904D01*
X153621619Y-83693000D01*
X153331333Y-84660619D02*
X153331333Y-85144428D01*
X153621619Y-84563857D02*
X152605619Y-84902523D01*
X153621619Y-85241190D01*
X152605619Y-85434714D02*
X152605619Y-86015285D01*
X153621619Y-85725000D02*
X152605619Y-85725000D01*
X153331333Y-86305571D02*
X153331333Y-86789380D01*
X153621619Y-86208809D02*
X152605619Y-86547476D01*
X153621619Y-86886142D01*
D12*
X158916523Y-83129380D02*
X159249857Y-82653190D01*
X159487952Y-83129380D02*
X159487952Y-82129380D01*
X159107000Y-82129380D01*
X159011761Y-82177000D01*
X158964142Y-82224619D01*
X158916523Y-82319857D01*
X158916523Y-82462714D01*
X158964142Y-82557952D01*
X159011761Y-82605571D01*
X159107000Y-82653190D01*
X159487952Y-82653190D01*
X158107000Y-83081761D02*
X158202238Y-83129380D01*
X158392714Y-83129380D01*
X158487952Y-83081761D01*
X158535571Y-82986523D01*
X158535571Y-82605571D01*
X158487952Y-82510333D01*
X158392714Y-82462714D01*
X158202238Y-82462714D01*
X158107000Y-82510333D01*
X158059380Y-82605571D01*
X158059380Y-82700809D01*
X158535571Y-82796047D01*
X157726047Y-82462714D02*
X157487952Y-83129380D01*
X157249857Y-82462714D01*
X156154619Y-82843666D02*
X155678428Y-82843666D01*
X156249857Y-83129380D02*
X155916523Y-82129380D01*
X155583190Y-83129380D01*
D11*
X148590000Y-84442904D02*
X148541619Y-84346142D01*
X148541619Y-84201000D01*
X148590000Y-84055857D01*
X148686761Y-83959095D01*
X148783523Y-83910714D01*
X148977047Y-83862333D01*
X149122190Y-83862333D01*
X149315714Y-83910714D01*
X149412476Y-83959095D01*
X149509238Y-84055857D01*
X149557619Y-84201000D01*
X149557619Y-84297761D01*
X149509238Y-84442904D01*
X149460857Y-84491285D01*
X149122190Y-84491285D01*
X149122190Y-84297761D01*
X149557619Y-84926714D02*
X148541619Y-84926714D01*
X149557619Y-85507285D01*
X148541619Y-85507285D01*
X149557619Y-85991095D02*
X148541619Y-85991095D01*
X148541619Y-86233000D01*
X148590000Y-86378142D01*
X148686761Y-86474904D01*
X148783523Y-86523285D01*
X148977047Y-86571666D01*
X149122190Y-86571666D01*
X149315714Y-86523285D01*
X149412476Y-86474904D01*
X149509238Y-86378142D01*
X149557619Y-86233000D01*
X149557619Y-85991095D01*
D12*
X159328809Y-81002190D02*
X159328809Y-81478380D01*
X159662142Y-80478380D02*
X159328809Y-81002190D01*
X158995476Y-80478380D01*
X158281190Y-81430761D02*
X158376428Y-81478380D01*
X158566904Y-81478380D01*
X158662142Y-81430761D01*
X158709761Y-81335523D01*
X158709761Y-80954571D01*
X158662142Y-80859333D01*
X158566904Y-80811714D01*
X158376428Y-80811714D01*
X158281190Y-80859333D01*
X158233571Y-80954571D01*
X158233571Y-81049809D01*
X158709761Y-81145047D01*
X157662142Y-81478380D02*
X157757380Y-81430761D01*
X157805000Y-81335523D01*
X157805000Y-80478380D01*
X157138333Y-81478380D02*
X157233571Y-81430761D01*
X157281190Y-81335523D01*
X157281190Y-80478380D01*
X156185952Y-81383142D02*
X156233571Y-81430761D01*
X156376428Y-81478380D01*
X156471666Y-81478380D01*
X156614523Y-81430761D01*
X156709761Y-81335523D01*
X156757380Y-81240285D01*
X156805000Y-81049809D01*
X156805000Y-80906952D01*
X156757380Y-80716476D01*
X156709761Y-80621238D01*
X156614523Y-80526000D01*
X156471666Y-80478380D01*
X156376428Y-80478380D01*
X156233571Y-80526000D01*
X156185952Y-80573619D01*
X155328809Y-80811714D02*
X155328809Y-81478380D01*
X155757380Y-80811714D02*
X155757380Y-81335523D01*
X155709761Y-81430761D01*
X155614523Y-81478380D01*
X155471666Y-81478380D01*
X155376428Y-81430761D01*
X155328809Y-81383142D01*
X154852619Y-81478380D02*
X154852619Y-80478380D01*
X154852619Y-80859333D02*
X154757380Y-80811714D01*
X154566904Y-80811714D01*
X154471666Y-80859333D01*
X154424047Y-80906952D01*
X154376428Y-81002190D01*
X154376428Y-81287904D01*
X154424047Y-81383142D01*
X154471666Y-81430761D01*
X154566904Y-81478380D01*
X154757380Y-81478380D01*
X154852619Y-81430761D01*
X153566904Y-81430761D02*
X153662142Y-81478380D01*
X153852619Y-81478380D01*
X153947857Y-81430761D01*
X153995476Y-81335523D01*
X153995476Y-80954571D01*
X153947857Y-80859333D01*
X153852619Y-80811714D01*
X153662142Y-80811714D01*
X153566904Y-80859333D01*
X153519285Y-80954571D01*
X153519285Y-81049809D01*
X153995476Y-81145047D01*
X152614523Y-81478380D02*
X153090714Y-81478380D01*
X153090714Y-80478380D01*
X152281190Y-81478380D02*
X152281190Y-80811714D01*
X152281190Y-80478380D02*
X152328809Y-80526000D01*
X152281190Y-80573619D01*
X152233571Y-80526000D01*
X152281190Y-80478380D01*
X152281190Y-80573619D01*
X151376428Y-80811714D02*
X151376428Y-81621238D01*
X151424047Y-81716476D01*
X151471666Y-81764095D01*
X151566904Y-81811714D01*
X151709761Y-81811714D01*
X151805000Y-81764095D01*
X151376428Y-81430761D02*
X151471666Y-81478380D01*
X151662142Y-81478380D01*
X151757380Y-81430761D01*
X151805000Y-81383142D01*
X151852619Y-81287904D01*
X151852619Y-81002190D01*
X151805000Y-80906952D01*
X151757380Y-80859333D01*
X151662142Y-80811714D01*
X151471666Y-80811714D01*
X151376428Y-80859333D01*
X150900238Y-81478380D02*
X150900238Y-80478380D01*
X150471666Y-81478380D02*
X150471666Y-80954571D01*
X150519285Y-80859333D01*
X150614523Y-80811714D01*
X150757380Y-80811714D01*
X150852619Y-80859333D01*
X150900238Y-80906952D01*
X150138333Y-80811714D02*
X149757380Y-80811714D01*
X149995476Y-80478380D02*
X149995476Y-81335523D01*
X149947857Y-81430761D01*
X149852619Y-81478380D01*
X149757380Y-81478380D01*
X149471666Y-81430761D02*
X149376428Y-81478380D01*
X149185952Y-81478380D01*
X149090714Y-81430761D01*
X149043095Y-81335523D01*
X149043095Y-81287904D01*
X149090714Y-81192666D01*
X149185952Y-81145047D01*
X149328809Y-81145047D01*
X149424047Y-81097428D01*
X149471666Y-81002190D01*
X149471666Y-80954571D01*
X149424047Y-80859333D01*
X149328809Y-80811714D01*
X149185952Y-80811714D01*
X149090714Y-80859333D01*
D11*
X154764619Y-83862333D02*
X155780619Y-84201000D01*
X154764619Y-84539666D01*
X155780619Y-84878333D02*
X154764619Y-84878333D01*
X154764619Y-85120238D01*
X154813000Y-85265380D01*
X154909761Y-85362142D01*
X155006523Y-85410523D01*
X155200047Y-85458904D01*
X155345190Y-85458904D01*
X155538714Y-85410523D01*
X155635476Y-85362142D01*
X155732238Y-85265380D01*
X155780619Y-85120238D01*
X155780619Y-84878333D01*
X155780619Y-85894333D02*
X154764619Y-85894333D01*
X154764619Y-86136238D01*
X154813000Y-86281380D01*
X154909761Y-86378142D01*
X155006523Y-86426523D01*
X155200047Y-86474904D01*
X155345190Y-86474904D01*
X155538714Y-86426523D01*
X155635476Y-86378142D01*
X155732238Y-86281380D01*
X155780619Y-86136238D01*
X155780619Y-85894333D01*
D10*
X164416619Y-81999666D02*
X163811857Y-81999666D01*
X164537571Y-82362523D02*
X164114238Y-81092523D01*
X163690904Y-82362523D01*
X163267571Y-82362523D02*
X163267571Y-81092523D01*
X162541857Y-82362523D01*
X162541857Y-81092523D01*
D13*
X141850452Y-80219785D02*
X141880690Y-80250023D01*
X141971404Y-80280261D01*
X142031880Y-80280261D01*
X142122595Y-80250023D01*
X142183071Y-80189547D01*
X142213309Y-80129071D01*
X142243547Y-80008119D01*
X142243547Y-79917404D01*
X142213309Y-79796452D01*
X142183071Y-79735976D01*
X142122595Y-79675500D01*
X142031880Y-79645261D01*
X141971404Y-79645261D01*
X141880690Y-79675500D01*
X141850452Y-79705738D01*
X141578309Y-80280261D02*
X141578309Y-79645261D01*
X141215452Y-80280261D01*
X141215452Y-79645261D01*
X140580452Y-80280261D02*
X140943309Y-80280261D01*
X140761880Y-80280261D02*
X140761880Y-79645261D01*
X140822357Y-79735976D01*
X140882833Y-79796452D01*
X140943309Y-79826690D01*
X147806833Y-91793785D02*
X147837071Y-91824023D01*
X147927785Y-91854261D01*
X147988261Y-91854261D01*
X148078976Y-91824023D01*
X148139452Y-91763547D01*
X148169690Y-91703071D01*
X148199928Y-91582119D01*
X148199928Y-91491404D01*
X148169690Y-91370452D01*
X148139452Y-91309976D01*
X148078976Y-91249500D01*
X147988261Y-91219261D01*
X147927785Y-91219261D01*
X147837071Y-91249500D01*
X147806833Y-91279738D01*
X147564928Y-91279738D02*
X147534690Y-91249500D01*
X147474214Y-91219261D01*
X147323023Y-91219261D01*
X147262547Y-91249500D01*
X147232309Y-91279738D01*
X147202071Y-91340214D01*
X147202071Y-91400690D01*
X147232309Y-91491404D01*
X147595166Y-91854261D01*
X147202071Y-91854261D01*
X146790833Y-93190785D02*
X146821071Y-93221023D01*
X146911785Y-93251261D01*
X146972261Y-93251261D01*
X147062976Y-93221023D01*
X147123452Y-93160547D01*
X147153690Y-93100071D01*
X147183928Y-92979119D01*
X147183928Y-92888404D01*
X147153690Y-92767452D01*
X147123452Y-92706976D01*
X147062976Y-92646500D01*
X146972261Y-92616261D01*
X146911785Y-92616261D01*
X146821071Y-92646500D01*
X146790833Y-92676738D01*
X146579166Y-92616261D02*
X146186071Y-92616261D01*
X146397738Y-92858166D01*
X146307023Y-92858166D01*
X146246547Y-92888404D01*
X146216309Y-92918642D01*
X146186071Y-92979119D01*
X146186071Y-93130309D01*
X146216309Y-93190785D01*
X146246547Y-93221023D01*
X146307023Y-93251261D01*
X146488452Y-93251261D01*
X146548928Y-93221023D01*
X146579166Y-93190785D01*
X141964833Y-91092261D02*
X142176500Y-90789880D01*
X142327690Y-91092261D02*
X142327690Y-90457261D01*
X142085785Y-90457261D01*
X142025309Y-90487500D01*
X141995071Y-90517738D01*
X141964833Y-90578214D01*
X141964833Y-90668928D01*
X141995071Y-90729404D01*
X142025309Y-90759642D01*
X142085785Y-90789880D01*
X142327690Y-90789880D01*
X141360071Y-91092261D02*
X141722928Y-91092261D01*
X141541500Y-91092261D02*
X141541500Y-90457261D01*
X141601976Y-90547976D01*
X141662452Y-90608452D01*
X141722928Y-90638690D01*
X147806833Y-90396785D02*
X147837071Y-90427023D01*
X147927785Y-90457261D01*
X147988261Y-90457261D01*
X148078976Y-90427023D01*
X148139452Y-90366547D01*
X148169690Y-90306071D01*
X148199928Y-90185119D01*
X148199928Y-90094404D01*
X148169690Y-89973452D01*
X148139452Y-89912976D01*
X148078976Y-89852500D01*
X147988261Y-89822261D01*
X147927785Y-89822261D01*
X147837071Y-89852500D01*
X147806833Y-89882738D01*
X147202071Y-90457261D02*
X147564928Y-90457261D01*
X147383500Y-90457261D02*
X147383500Y-89822261D01*
X147443976Y-89912976D01*
X147504452Y-89973452D01*
X147564928Y-90003690D01*
D14*
X161435935Y-81947492D02*
X161475349Y-81833987D01*
X161529030Y-81272301D02*
X161555363Y-81246171D01*
X160401000Y-83312000D02*
X160401000Y-80137000D01*
X163768316Y-80363149D02*
X163783999Y-80370223D01*
X164903766Y-80916158D02*
X164914178Y-80907708D01*
X162295846Y-80470959D02*
X162336082Y-80463910D01*
X164601810Y-80603618D02*
X164612353Y-80618122D01*
X163504747Y-80334598D02*
X163540880Y-80347885D01*
X162890587Y-80328987D02*
X162883752Y-80283403D01*
X164675403Y-80703494D02*
X164717489Y-80750863D01*
X165158092Y-81165534D02*
X165157715Y-81227673D01*
X161693916Y-81111353D02*
X161724745Y-81081080D01*
X161897476Y-80698812D02*
X161925396Y-80688390D01*
X164520177Y-80588445D02*
X164529172Y-80575547D01*
X161628016Y-82327093D02*
X161616056Y-82280198D01*
X162218947Y-80529784D02*
X162187166Y-80489657D01*
X161471909Y-81607958D02*
X161447530Y-81602689D01*
X161741403Y-81064344D02*
X161770346Y-81034700D01*
X164578452Y-80576662D02*
X164589931Y-80589028D01*
X164529172Y-80575547D02*
X164536185Y-80566662D01*
X163154678Y-80301761D02*
X163199744Y-80314517D01*
X164510863Y-80602775D02*
X164520177Y-80588445D01*
X165019015Y-81014329D02*
X165030304Y-81057949D01*
X161613629Y-81315488D02*
X161597477Y-81306835D01*
X165156299Y-81301487D02*
X165154337Y-81432402D01*
X164561372Y-80560394D02*
X164578452Y-80576662D01*
X161577411Y-81385578D02*
X161593010Y-81369469D01*
X161529012Y-81443987D02*
X161542549Y-81426170D01*
X161555363Y-81246171D02*
X161585088Y-81216959D01*
X164343535Y-80529919D02*
X164393674Y-80575433D01*
X164113717Y-80458215D02*
X164129911Y-80469707D01*
X163854730Y-82941565D02*
X163725807Y-82939407D01*
X162430815Y-80446413D02*
X162515219Y-80428885D01*
X164056921Y-80409273D02*
X164077240Y-80427488D01*
X161962740Y-80674074D02*
X161988297Y-80664119D01*
X164914178Y-80907708D02*
X164926248Y-80897450D01*
X161522946Y-81677293D02*
X161535501Y-81620599D01*
X165217258Y-81720940D02*
X165241270Y-81774946D01*
X163284832Y-80250119D02*
X163322000Y-80264000D01*
X161585088Y-81216959D02*
X161620388Y-81182748D01*
X163887292Y-80386822D02*
X163919763Y-80337825D01*
X161447530Y-81602689D02*
X161426997Y-81597303D01*
X163561159Y-80308162D02*
X163566464Y-80275588D01*
X161559647Y-81405598D02*
X161577411Y-81385578D01*
X161576707Y-82564748D02*
X161652999Y-82577847D01*
X163725807Y-82939407D02*
X163408993Y-82938987D01*
X161515762Y-81705838D02*
X161522946Y-81677293D01*
X165472343Y-82630892D02*
X165334939Y-82730104D01*
X161836476Y-82833443D02*
X161733829Y-82796746D01*
X162134023Y-82919331D02*
X161998432Y-82883482D01*
X161578316Y-81298034D02*
X161559148Y-81289607D01*
X161645031Y-82382829D02*
X161634597Y-82350366D01*
X164658281Y-80683446D02*
X164675403Y-80703494D01*
X165157715Y-81227673D02*
X165156299Y-81301487D01*
X165241270Y-81774946D02*
X165267152Y-81824386D01*
X162873665Y-83128366D02*
X162609016Y-83128859D01*
X161616056Y-82280198D02*
X161567873Y-82285904D01*
X161669146Y-82450982D02*
X161657101Y-82418066D01*
X165331611Y-81926660D02*
X165388532Y-81977433D01*
X164580920Y-83126109D02*
X164508544Y-83128409D01*
X164717489Y-80750863D02*
X164772784Y-80723810D01*
X161519690Y-82291611D02*
X161525282Y-82129185D01*
X161689748Y-82508271D02*
X161680321Y-82481200D01*
X164077240Y-80427488D02*
X164095418Y-80443638D01*
X162080660Y-80629258D02*
X162121386Y-80614889D01*
X165124972Y-81118241D02*
X165139827Y-81113394D01*
X165228316Y-82787716D02*
X165094227Y-82841138D01*
X161700874Y-80979196D02*
X161690532Y-80972227D01*
X161680321Y-82481200D02*
X161669146Y-82450982D01*
X162883752Y-80283403D02*
X162876916Y-80237818D01*
X163783999Y-80370223D02*
X163802282Y-80379569D01*
X161436689Y-81553274D02*
X161454319Y-81533770D01*
X166751000Y-83312000D02*
X160401000Y-83312000D01*
X162915116Y-80244303D02*
X162955101Y-80252493D01*
X161657101Y-82418066D02*
X161645031Y-82382829D01*
X161762655Y-80916420D02*
X161811956Y-80882479D01*
X164481565Y-80647490D02*
X164487908Y-80639385D01*
X161940063Y-80682832D02*
X161962740Y-80674074D01*
X163949385Y-80328613D02*
X163984928Y-80352014D01*
X162876916Y-80237818D02*
X162915116Y-80244303D01*
X161907844Y-80814200D02*
X161923345Y-80806396D01*
X161428381Y-82546149D02*
X161501777Y-82552427D01*
X164194760Y-80455110D02*
X164213754Y-80411232D01*
X164502636Y-80616487D02*
X164510863Y-80602775D01*
X162517803Y-80328987D02*
X162704195Y-80328987D01*
X162955101Y-80252493D02*
X163055303Y-80276893D01*
X163723682Y-80342933D02*
X163768316Y-80363149D01*
X162704195Y-80328987D02*
X162890587Y-80328987D01*
X162221833Y-80482684D02*
X162238288Y-80479878D01*
X161530875Y-81966759D02*
X161478580Y-81973951D01*
X161525282Y-82129185D02*
X161530875Y-81966759D01*
X164976467Y-80851701D02*
X165006885Y-80967844D01*
X163618691Y-80287070D02*
X163669361Y-80315052D01*
X164860703Y-80750340D02*
X164878237Y-80826406D01*
X161877196Y-80830495D02*
X161891834Y-80822038D01*
X161891834Y-80822038D02*
X161907844Y-80814200D01*
X163820210Y-80389567D02*
X163834794Y-80398661D01*
X165139827Y-81113394D02*
X165152411Y-81109503D01*
X164268226Y-83128193D02*
X164177892Y-83126000D01*
X161454319Y-81533770D02*
X161474030Y-81511786D01*
X162238288Y-80479878D02*
X162256311Y-80477001D01*
X161724745Y-81081080D02*
X161741403Y-81064344D01*
X163414901Y-80300003D02*
X163462911Y-80318776D01*
X161709399Y-80984892D02*
X161700874Y-80979196D01*
X162256311Y-80477001D02*
X162273316Y-80474489D01*
X162273316Y-80474489D02*
X162295846Y-80470959D01*
X163802282Y-80379569D02*
X163820210Y-80389567D01*
X161626182Y-81323284D02*
X161613629Y-81315488D01*
X161617945Y-81342827D02*
X161626775Y-81331796D01*
X161535501Y-81620599D02*
X161471909Y-81607958D01*
X163558440Y-80323807D02*
X163561159Y-80308162D01*
X164006635Y-80368158D02*
X164032005Y-80388382D01*
X164095418Y-80443638D02*
X164113717Y-80458215D01*
X160401000Y-80137000D02*
X166370000Y-80137000D01*
X165071324Y-81136369D02*
X165108316Y-81123987D01*
X161542549Y-81426170D02*
X161559647Y-81405598D01*
X162382897Y-80455412D02*
X162430815Y-80446413D01*
X164926248Y-80897450D02*
X164940256Y-80884875D01*
X161543004Y-81282106D02*
X161529184Y-81275407D01*
X161421830Y-81570656D02*
X161436689Y-81553274D01*
X165108316Y-81123987D02*
X165124972Y-81118241D01*
X161998432Y-82883482D02*
X161925382Y-82862646D01*
X164368591Y-83128932D02*
X164268226Y-83128193D01*
X161567873Y-82285904D02*
X161519690Y-82291611D01*
X165039732Y-81094682D02*
X165043894Y-81111487D01*
X161922896Y-80736221D02*
X161897476Y-80698812D01*
X162013316Y-80654288D02*
X162042295Y-80643219D01*
X162158316Y-80602332D02*
X162191164Y-80591344D01*
X164738316Y-82918302D02*
X164631639Y-82931612D01*
X162533060Y-80358491D02*
X162517803Y-80328987D01*
X161946937Y-80778401D02*
X161940849Y-80765919D01*
X162191164Y-80591344D02*
X162219436Y-80581753D01*
X161501777Y-82552427D02*
X161576707Y-82564748D01*
X164495109Y-80628927D02*
X164502636Y-80616487D01*
X165722549Y-82363567D02*
X165666027Y-82447250D01*
X163055303Y-80276893D02*
X163154678Y-80301761D01*
X163984928Y-80352014D02*
X164006635Y-80368158D01*
X161365201Y-82544970D02*
X161428381Y-82546149D01*
X164032005Y-80388382D02*
X164056921Y-80409273D01*
X161940849Y-80765919D02*
X161932630Y-80751362D01*
X163408993Y-82938987D02*
X162879669Y-82938987D01*
X161865460Y-80838462D02*
X161877196Y-80830495D01*
X163834794Y-80398661D02*
X163866272Y-80419657D01*
X164177892Y-83126000D02*
X164102219Y-83122933D01*
X162336082Y-80463910D02*
X162382897Y-80455412D01*
X161925382Y-82862646D02*
X161836476Y-82833443D01*
X161474030Y-81511786D02*
X161495236Y-81486861D01*
X164487908Y-80639385D02*
X164495109Y-80628927D01*
X161988297Y-80664119D02*
X162013316Y-80654288D01*
X163928775Y-82945122D02*
X163854730Y-82941565D01*
X161559148Y-81289607D02*
X161543004Y-81282106D01*
X161744388Y-81012373D02*
X161733164Y-81003029D01*
X164627607Y-80643202D02*
X164641638Y-80662382D01*
X165599799Y-82524622D02*
X165472343Y-82630892D01*
X161503786Y-81746709D02*
X161515762Y-81705838D01*
X161702170Y-80956167D02*
X161762655Y-80916420D01*
X163366155Y-80280891D02*
X163414901Y-80300003D01*
X164436763Y-80613798D02*
X164474963Y-80647331D01*
X166751000Y-80518000D02*
X166751000Y-83312000D01*
X165295545Y-81863223D02*
X165302727Y-81874465D01*
X163669361Y-80315052D02*
X163723682Y-80342933D01*
X161475349Y-81833987D02*
X161489686Y-81791545D01*
X161733829Y-82796746D02*
X161618316Y-82752766D01*
X161489686Y-81791545D02*
X161503786Y-81746709D01*
X165169636Y-81558141D02*
X165201113Y-81673987D01*
X162240303Y-80558732D02*
X162230868Y-80545320D01*
X164624635Y-83121856D02*
X164580920Y-83126109D01*
X162210241Y-80484899D02*
X162221833Y-80482684D01*
X165388532Y-81977433D02*
X165450794Y-82024786D01*
X161606536Y-81355685D02*
X161617945Y-81342827D01*
X165157900Y-81110993D02*
X165158092Y-81165534D01*
X161720899Y-80993417D02*
X161709399Y-80984892D01*
X161697264Y-82531168D02*
X161689748Y-82508271D01*
X161426997Y-81597303D02*
X161410319Y-81592185D01*
X164508544Y-83128409D02*
X164368591Y-83128932D01*
X161690869Y-80963975D02*
X161702170Y-80956167D01*
X162247544Y-80569940D02*
X162240303Y-80558732D01*
X165006885Y-80967844D02*
X165019015Y-81014329D01*
X165302727Y-81874465D02*
X165308787Y-81885891D01*
X164589931Y-80589028D02*
X164601810Y-80603618D01*
X161925396Y-80688390D02*
X161940063Y-80682832D01*
X164213754Y-80411232D02*
X164343535Y-80529919D01*
X161514778Y-81462831D02*
X161529012Y-81443987D01*
X161811956Y-80882479D02*
X161850951Y-80854315D01*
X164940256Y-80884875D02*
X164976467Y-80851701D01*
X161657760Y-81146592D02*
X161693916Y-81111353D01*
X162230868Y-80545320D02*
X162218947Y-80529784D01*
X162187166Y-80489657D02*
X162210241Y-80484899D01*
X162219436Y-80581753D02*
X162244048Y-80573312D01*
X162879669Y-82938987D02*
X162913993Y-82989992D01*
X165030304Y-81057949D02*
X165039732Y-81094682D01*
X162609016Y-83128859D02*
X162349375Y-83127376D01*
X164393674Y-80575433D02*
X164436763Y-80613798D01*
X161620388Y-81182748D02*
X161657760Y-81146592D01*
X162121386Y-80614889D02*
X162158316Y-80602332D01*
X161597477Y-81306835D02*
X161578316Y-81298034D01*
X164881257Y-82897896D02*
X164738316Y-82918302D01*
X163462911Y-80318776D02*
X163504747Y-80334598D01*
X161409650Y-81585634D02*
X161421830Y-81570656D01*
X163322000Y-80264000D02*
X163366155Y-80280891D01*
X161593010Y-81369469D02*
X161606536Y-81355685D01*
X164641638Y-80662382D02*
X164658281Y-80683446D01*
X164878237Y-80826406D02*
X164897090Y-80905672D01*
X165545398Y-82063421D02*
X165569181Y-82067658D01*
X161495236Y-81486861D02*
X161514778Y-81462831D01*
X161733164Y-81003029D02*
X161720899Y-80993417D01*
X161770346Y-81034700D02*
X161744388Y-81012373D01*
X162042295Y-80643219D02*
X162080660Y-80629258D01*
X163866272Y-80419657D02*
X163887292Y-80386822D01*
X161634597Y-82350366D02*
X161628016Y-82327093D01*
X165520620Y-82057294D02*
X165545398Y-82063421D01*
X161932630Y-80751362D02*
X161922896Y-80736221D01*
X161780482Y-82548357D02*
G75*
G03*
X161776827Y-82542193I-21224J-8419D01*
G01*
X164545729Y-80557542D02*
G75*
G03*
X164536185Y-80566662I41983J-53489D01*
G01*
X161408316Y-81589435D02*
G75*
G03*
X161410319Y-81592185I2890J1D01*
G01*
X164146848Y-80477384D02*
G75*
G03*
X164139740Y-80474439I-20785J-40116D01*
G01*
X163540879Y-80347884D02*
G75*
G03*
X163547118Y-80348987I6240J17100D01*
G01*
X163938317Y-82955307D02*
G75*
G03*
X163928775Y-82945122I-10207J0D01*
G01*
X164156989Y-80485663D02*
G75*
G03*
X164152860Y-80481343I-19717J-14712D01*
G01*
X161698316Y-82537892D02*
G75*
G03*
X161697264Y-82531168I-21966J8D01*
G01*
X161702140Y-82548827D02*
G75*
G03*
X161711805Y-82554496I12200J9726D01*
G01*
X163581544Y-80261674D02*
G75*
G03*
X163572638Y-80263399I-3274J-6951D01*
G01*
X162285296Y-83118318D02*
G75*
G03*
X162349375Y-83127376I66557J239660D01*
G01*
X163595755Y-80270890D02*
G75*
G03*
X163618691Y-80287070I95339J110801D01*
G01*
X161763778Y-82535415D02*
G75*
G03*
X161755318Y-82537895I1999J-22489D01*
G01*
X161360096Y-82591008D02*
G75*
G03*
X161426674Y-82647835I452324J462524D01*
G01*
X161770490Y-82536877D02*
G75*
G03*
X161763778Y-82535414I-5695J-9999D01*
G01*
X165608966Y-82067624D02*
G75*
G03*
X165623561Y-82063188I-5876J45561D01*
G01*
X161781145Y-82562400D02*
G75*
G03*
X161781966Y-82555248I-21572J6102D01*
G01*
X161690869Y-80963975D02*
G75*
G03*
X161688609Y-80968153I3311J-4492D01*
G01*
X164881257Y-82897895D02*
G75*
G03*
X164989122Y-82874667I-186112J1126321D01*
G01*
X164129912Y-80469707D02*
G75*
G03*
X164139740Y-80474439I21527J32137D01*
G01*
X163214499Y-80310439D02*
G75*
G03*
X163219878Y-80300450I-25733J20300D01*
G01*
X165569181Y-82067657D02*
G75*
G03*
X165587743Y-82068987I18564J128887D01*
G01*
X165845019Y-82237926D02*
G75*
G03*
X165881197Y-82214826I-88641J178706D01*
G01*
X164619560Y-80630056D02*
G75*
G03*
X164612353Y-80618122I-106766J-56334D01*
G01*
X161923346Y-80806396D02*
G75*
G03*
X161936428Y-80798033I-63345J113502D01*
G01*
X162547701Y-80395895D02*
G75*
G03*
X162533060Y-80358491I-186257J-51339D01*
G01*
X165853095Y-81980706D02*
G75*
G03*
X165801451Y-81969000I-54027J-118580D01*
G01*
X161628316Y-81327247D02*
G75*
G03*
X161626182Y-81323284I-4742J2D01*
G01*
X165312564Y-81895614D02*
G75*
G03*
X165331611Y-81926660I68718J20793D01*
G01*
X164657929Y-83025498D02*
G75*
G03*
X164633054Y-82985682I-224272J-112436D01*
G01*
X161945959Y-80790193D02*
G75*
G03*
X161948316Y-80784790I-5017J5404D01*
G01*
X161781966Y-82555248D02*
G75*
G03*
X161780482Y-82548358I-21341J-992D01*
G01*
X163207970Y-80314711D02*
G75*
G03*
X163214499Y-80310439I-3113J11882D01*
G01*
X165809002Y-82262545D02*
G75*
G03*
X165768960Y-82303862I311164J-341624D01*
G01*
X165157994Y-81496569D02*
G75*
G03*
X165169636Y-81558141I463652J55780D01*
G01*
X164170072Y-80496130D02*
G75*
G03*
X164182098Y-80480683I-44927J47382D01*
G01*
X161948317Y-80784790D02*
G75*
G03*
X161946937Y-80778401I-15484J-1D01*
G01*
X164668374Y-83061389D02*
G75*
G03*
X164657929Y-83025498I-102978J-10503D01*
G01*
X165312564Y-81895615D02*
G75*
G03*
X165308787Y-81885891I-65221J-19738D01*
G01*
X162202754Y-83004825D02*
G75*
G03*
X162213787Y-83047178I238007J39388D01*
G01*
X164664011Y-83091105D02*
G75*
G03*
X164668374Y-83061389I-56626J23494D01*
G01*
X163272283Y-80246226D02*
G75*
G03*
X163252323Y-80243185I-25703J-101677D01*
G01*
X165931562Y-82151913D02*
G75*
G03*
X165938316Y-82121226I-66315J30682D01*
G01*
X161435935Y-81947493D02*
G75*
G03*
X161432692Y-81968362I56606J-19483D01*
G01*
X164902329Y-80916018D02*
G75*
G03*
X164903766Y-80916158I790J668D01*
G01*
X165043893Y-81111487D02*
G75*
G03*
X165050208Y-81130768I121633J29163D01*
G01*
X163550764Y-80346706D02*
G75*
G03*
X163554776Y-80336995I-78155J37973D01*
G01*
X165877572Y-82000009D02*
G75*
G03*
X165853095Y-81980706I-51625J-40292D01*
G01*
X165154337Y-81432402D02*
G75*
G03*
X165157994Y-81496569I512167J-2998D01*
G01*
X161365200Y-82544970D02*
G75*
G03*
X161351616Y-82554671I108J-14513D01*
G01*
X165635598Y-82054329D02*
G75*
G03*
X165648478Y-82038761I-100907J96596D01*
G01*
X164858317Y-80728939D02*
G75*
G03*
X164860703Y-80750340I97112J-7D01*
G01*
X163219878Y-80300450D02*
G75*
G03*
X163224938Y-80282590I-200675J66501D01*
G01*
X161652999Y-82577847D02*
G75*
G03*
X161714439Y-82582858I73371J520437D01*
G01*
X165295545Y-81863222D02*
G75*
G03*
X165288270Y-81853987I-82315J-57361D01*
G01*
X161409650Y-81585634D02*
G75*
G03*
X161408316Y-81589435I4746J-3800D01*
G01*
X161711805Y-82554496D02*
G75*
G03*
X161726306Y-82553294I4856J29488D01*
G01*
X162942767Y-83101706D02*
G75*
G03*
X162948986Y-83073424I-45438J24816D01*
G01*
X163232174Y-80258140D02*
G75*
G03*
X163224938Y-80282590I216699J-77428D01*
G01*
X165498655Y-82050036D02*
G75*
G03*
X165520620Y-82057294I93336J245598D01*
G01*
X165623561Y-82063188D02*
G75*
G03*
X165635598Y-82054329I-19357J38908D01*
G01*
X161688609Y-80968153D02*
G75*
G03*
X161690532Y-80972227I4713J-266D01*
G01*
X165450794Y-82024786D02*
G75*
G03*
X165498655Y-82050036I126585J181954D01*
G01*
X163199744Y-80314516D02*
G75*
G03*
X163207970Y-80314710I4451J14222D01*
G01*
X164646092Y-83113420D02*
G75*
G03*
X164664010Y-83091105I-29369J41933D01*
G01*
X165845019Y-82237926D02*
G75*
G03*
X165809002Y-82262545I69834J-140821D01*
G01*
X162190644Y-82958068D02*
G75*
G03*
X162171972Y-82935391I-40781J-14553D01*
G01*
X165201113Y-81673988D02*
G75*
G03*
X165217258Y-81720940I437224J124093D01*
G01*
X161517346Y-82705796D02*
G75*
G03*
X161618316Y-82752766I421122J773263D01*
G01*
X165801452Y-81969000D02*
G75*
G03*
X165742639Y-81976634I-3696J-201893D01*
G01*
X164897090Y-80905672D02*
G75*
G03*
X164902329Y-80916018I24453J5883D01*
G01*
X162213787Y-83047178D02*
G75*
G03*
X162231404Y-83080429I125408J45151D01*
G01*
X164478660Y-80648796D02*
G75*
G03*
X164481565Y-80647490I130J3595D01*
G01*
X162171972Y-82935391D02*
G75*
G03*
X162134023Y-82919331I-77843J-131073D01*
G01*
X161726306Y-82553294D02*
G75*
G03*
X161742839Y-82545220I-23681J69456D01*
G01*
X165058044Y-81137135D02*
G75*
G03*
X165071324Y-81136369I5136J26463D01*
G01*
X161626774Y-81331795D02*
G75*
G03*
X161628316Y-81327247I-5937J4548D01*
G01*
X162922665Y-83119235D02*
G75*
G03*
X162942767Y-83101706I-13680J35979D01*
G01*
X165906989Y-82042643D02*
G75*
G03*
X165877572Y-82000009I-376469J-228294D01*
G01*
X165911310Y-82184662D02*
G75*
G03*
X165931562Y-82151913I-125038J99960D01*
G01*
X165599799Y-82524622D02*
G75*
G03*
X165666027Y-82447250I-253965J284417D01*
G01*
X163595755Y-80270890D02*
G75*
G03*
X163581545Y-80261674I-40931J-47547D01*
G01*
X162255409Y-83104125D02*
G75*
G03*
X162285296Y-83118318I55664J78651D01*
G01*
X164077873Y-83119031D02*
G75*
G03*
X164102219Y-83122933I29523J106277D01*
G01*
X162939322Y-83035223D02*
G75*
G03*
X162913993Y-82989992I-288261J-131717D01*
G01*
X165228316Y-82787716D02*
G75*
G03*
X165334939Y-82730104I-251338J592623D01*
G01*
X162247022Y-80571982D02*
G75*
G03*
X162247544Y-80569940I-710J1269D01*
G01*
X161714439Y-82582858D02*
G75*
G03*
X161759813Y-82580871I7767J341704D01*
G01*
X161432692Y-81968361D02*
G75*
G03*
X161441493Y-81976814I8651J199D01*
G01*
X163949713Y-82995546D02*
G75*
G03*
X163988704Y-83049143I367078J226062D01*
G01*
X165931308Y-82088766D02*
G75*
G03*
X165906989Y-82042643I-396388J-179528D01*
G01*
X164182098Y-80480683D02*
G75*
G03*
X164194760Y-80455110I-242705J136092D01*
G01*
X163938316Y-82955307D02*
G75*
G03*
X163949713Y-82995546I76728J-2D01*
G01*
X164619560Y-80630056D02*
G75*
G03*
X164627607Y-80643202I107084J56513D01*
G01*
X165050208Y-81130769D02*
G75*
G03*
X165058044Y-81137135I9876J4150D01*
G01*
X164624635Y-83121855D02*
G75*
G03*
X164646091Y-83113420I-6772J48732D01*
G01*
X161778096Y-82569323D02*
G75*
G03*
X161781145Y-82562400I-23157J14332D01*
G01*
X164158317Y-80489661D02*
G75*
G03*
X164162518Y-80496996I8499J-3D01*
G01*
X161698316Y-82537891D02*
G75*
G03*
X161702141Y-82548827I17548J1D01*
G01*
X165687994Y-82001193D02*
G75*
G03*
X165648478Y-82038761I76908J-120463D01*
G01*
X163284832Y-80250119D02*
G75*
G03*
X163272283Y-80246225I-42845J-115906D01*
G01*
X164474963Y-80647331D02*
G75*
G03*
X164478660Y-80648797I3909J4463D01*
G01*
X164612128Y-82938710D02*
G75*
G03*
X164609293Y-82951127I4895J-7650D01*
G01*
X165157901Y-81110993D02*
G75*
G03*
X165155885Y-81108987I-2016J-10D01*
G01*
X163572638Y-80263399D02*
G75*
G03*
X163566464Y-80275588I18161J-16857D01*
G01*
X161441494Y-81976813D02*
G75*
G03*
X161478580Y-81973951I-5426J312029D01*
G01*
X164152860Y-80481343D02*
G75*
G03*
X164146848Y-80477384I-21968J-26816D01*
G01*
X161850951Y-80854315D02*
G75*
G03*
X161860344Y-80844043I-21203J28819D01*
G01*
X164609293Y-82951127D02*
G75*
G03*
X164633054Y-82985682I359115J221491D01*
G01*
X165155885Y-81108988D02*
G75*
G03*
X165152411Y-81109503I-6J-11934D01*
G01*
X163949385Y-80328613D02*
G75*
G03*
X163933799Y-80327020I-9467J-15577D01*
G01*
X162231404Y-83080429D02*
G75*
G03*
X162255409Y-83104125I83993J61082D01*
G01*
X161426674Y-82647835D02*
G75*
G03*
X161517346Y-82705796I458130J616778D01*
G01*
X161776827Y-82542194D02*
G75*
G03*
X161770489Y-82536877I-17761J-14735D01*
G01*
X165742638Y-81976635D02*
G75*
G03*
X165687993Y-82001193I56228J-198190D01*
G01*
X162202754Y-83004826D02*
G75*
G03*
X162190645Y-82958069I-266932J-44183D01*
G01*
X163547118Y-80348988D02*
G75*
G03*
X163550764Y-80346706I-1J4055D01*
G01*
X161529030Y-81272301D02*
G75*
G03*
X161528316Y-81274016I1706J-1716D01*
G01*
X163252323Y-80243185D02*
G75*
G03*
X163240374Y-80246882I-987J-17969D01*
G01*
X165768959Y-82303862D02*
G75*
G03*
X165722549Y-82363567I615868J-526618D01*
G01*
X163988704Y-83049142D02*
G75*
G03*
X164036369Y-83096915I327971J279565D01*
G01*
X161936427Y-80798033D02*
G75*
G03*
X161945959Y-80790194I-60763J83601D01*
G01*
X165938316Y-82121226D02*
G75*
G03*
X165931308Y-82088767I-78680J-1D01*
G01*
X162244048Y-80573312D02*
G75*
G03*
X162247022Y-80571982I-5876J17129D01*
G01*
X165881197Y-82214826D02*
G75*
G03*
X165911310Y-82184662I-121316J151224D01*
G01*
X165587743Y-82068988D02*
G75*
G03*
X165608966Y-82067624I-21J166117D01*
G01*
X164036370Y-83096915D02*
G75*
G03*
X164077873Y-83119029I70527J82360D01*
G01*
X164158316Y-80489661D02*
G75*
G03*
X164156988Y-80485662I-6690J-2D01*
G01*
X164858316Y-80728939D02*
G75*
G03*
X164852446Y-80711109I-30008J2D01*
G01*
X164812163Y-80706985D02*
G75*
G03*
X164772784Y-80723810I144369J-392393D01*
G01*
X162541702Y-80415580D02*
G75*
G03*
X162547701Y-80395894I-12538J14578D01*
G01*
X164552944Y-80555955D02*
G75*
G03*
X164545729Y-80557542I-1960J-8283D01*
G01*
X164561372Y-80560393D02*
G75*
G03*
X164552944Y-80555955I-12810J-14106D01*
G01*
X161865460Y-80838462D02*
G75*
G03*
X161860344Y-80844043I11424J-15607D01*
G01*
X161755318Y-82537895D02*
G75*
G03*
X161742839Y-82545220I68068J-130255D01*
G01*
X164631638Y-82931612D02*
G75*
G03*
X164612127Y-82938711I6088J-47094D01*
G01*
X164162518Y-80496996D02*
G75*
G03*
X164170072Y-80496130I3201J5459D01*
G01*
X161351616Y-82554670D02*
G75*
G03*
X161360096Y-82591008I32758J-11514D01*
G01*
X164837870Y-80703197D02*
G75*
G03*
X164812163Y-80706985I-3799J-63342D01*
G01*
X165267151Y-81824386D02*
G75*
G03*
X165288270Y-81853987I149597J84396D01*
G01*
X163240374Y-80246882D02*
G75*
G03*
X163232174Y-80258140I15026J-19560D01*
G01*
X163933798Y-80327019D02*
G75*
G03*
X163919763Y-80337825I9645J-27045D01*
G01*
X163554776Y-80336995D02*
G75*
G03*
X163558440Y-80323807I-107871J37072D01*
G01*
X162515219Y-80428885D02*
G75*
G03*
X162541702Y-80415580I-13413J59708D01*
G01*
X162948986Y-83073424D02*
G75*
G03*
X162939321Y-83035224I-109313J-7335D01*
G01*
X164852446Y-80711109D02*
G75*
G03*
X164837869Y-80703197I-15748J-11629D01*
G01*
X161528316Y-81274016D02*
G75*
G03*
X161529184Y-81275407I1549J0D01*
G01*
X162873665Y-83128366D02*
G75*
G03*
X162922665Y-83119235I-722J139916D01*
G01*
X161759813Y-82580871D02*
G75*
G03*
X161778096Y-82569323I-2712J24541D01*
G01*
X164989122Y-82874667D02*
G75*
G03*
X165094227Y-82841138I-293949J1102960D01*
G01*
D15*
X160401000Y-83312000D02*
X162179000Y-83312000D01*
X162179000Y-83312000D02*
X162171972Y-82935391D01*
X162171972Y-82935391D02*
X161733829Y-82796746D01*
X161733829Y-82796746D02*
X161426674Y-82647835D01*
X161426674Y-82647835D02*
X161417000Y-82550000D01*
X161417000Y-82550000D02*
X161711805Y-82554496D01*
X161711805Y-82554496D02*
X161628016Y-82327093D01*
X161628016Y-82327093D02*
X161519690Y-82291611D01*
X161519690Y-82291611D02*
X161530875Y-81966759D01*
X161530875Y-81966759D02*
X161435935Y-81947492D01*
X161435935Y-81947492D02*
X161544000Y-81661000D01*
X161544000Y-81661000D02*
X161447530Y-81602689D01*
X161447530Y-81602689D02*
X161593010Y-81369469D01*
X161593010Y-81369469D02*
X161529184Y-81275407D01*
X161529184Y-81275407D02*
X161585088Y-81216959D01*
X161585088Y-81216959D02*
X160401000Y-81216959D01*
X160401000Y-81216959D02*
X160401000Y-83312000D01*
G36*
X161529184Y-81275407D02*
G01*
X161593010Y-81369469D01*
X161447530Y-81602689D01*
X161544000Y-81661000D01*
X161435935Y-81947492D01*
X161530875Y-81966759D01*
X161519690Y-82291611D01*
X161628016Y-82327093D01*
X161711805Y-82554496D01*
X161417000Y-82550000D01*
X161426674Y-82647835D01*
X161733829Y-82796746D01*
X162171972Y-82935391D01*
X162179000Y-83312000D01*
X160401000Y-83312000D01*
X160401000Y-81216959D01*
X161585088Y-81216959D01*
X161529184Y-81275407D01*
G37*
X161529184Y-81275407D02*
X161593010Y-81369469D01*
X161447530Y-81602689D01*
X161544000Y-81661000D01*
X161435935Y-81947492D01*
X161530875Y-81966759D01*
X161519690Y-82291611D01*
X161628016Y-82327093D01*
X161711805Y-82554496D01*
X161417000Y-82550000D01*
X161426674Y-82647835D01*
X161733829Y-82796746D01*
X162171972Y-82935391D01*
X162179000Y-83312000D01*
X160401000Y-83312000D01*
X160401000Y-81216959D01*
X161585088Y-81216959D01*
X161529184Y-81275407D01*
X164976467Y-80851701D02*
X165158092Y-81165534D01*
X165158092Y-81165534D02*
X165201113Y-81673987D01*
X165201113Y-81673987D02*
X165450794Y-82024786D01*
X165450794Y-82024786D02*
X165587743Y-82068987D01*
X165587743Y-82068987D02*
X165801451Y-81969000D01*
X165801451Y-81969000D02*
X165906989Y-82042643D01*
X165906989Y-82042643D02*
X165911310Y-82184662D01*
X165911310Y-82184662D02*
X165599799Y-82524622D01*
X165599799Y-82524622D02*
X165608000Y-83312000D01*
X165608000Y-83312000D02*
X166751000Y-83312000D01*
X166751000Y-83312000D02*
X166751000Y-80502760D01*
X166751000Y-80502760D02*
X166380160Y-80131920D01*
X166380160Y-80131920D02*
X164973000Y-80137000D01*
X164973000Y-80137000D02*
X164976467Y-80851701D01*
G36*
X166751000Y-80502760D02*
G01*
X166751000Y-83312000D01*
X165608000Y-83312000D01*
X165599799Y-82524622D01*
X165911310Y-82184662D01*
X165906989Y-82042643D01*
X165801451Y-81969000D01*
X165587743Y-82068987D01*
X165450794Y-82024786D01*
X165201113Y-81673987D01*
X165158092Y-81165534D01*
X164976467Y-80851701D01*
X164973000Y-80137000D01*
X166380160Y-80131920D01*
X166751000Y-80502760D01*
G37*
X166751000Y-80502760D02*
X166751000Y-83312000D01*
X165608000Y-83312000D01*
X165599799Y-82524622D01*
X165911310Y-82184662D01*
X165906989Y-82042643D01*
X165801451Y-81969000D01*
X165587743Y-82068987D01*
X165450794Y-82024786D01*
X165201113Y-81673987D01*
X165158092Y-81165534D01*
X164976467Y-80851701D01*
X164973000Y-80137000D01*
X166380160Y-80131920D01*
X166751000Y-80502760D01*
X165334939Y-82730104D02*
X164631638Y-82931612D01*
X164631638Y-82931612D02*
X164624635Y-83121856D01*
X164624635Y-83121856D02*
X164077873Y-83119030D01*
X164077873Y-83119030D02*
X163928110Y-82955307D01*
X163928110Y-82955307D02*
X162879669Y-82938987D01*
X162879669Y-82938987D02*
X162922665Y-83119235D01*
X162922665Y-83119235D02*
X162285296Y-83118318D01*
X162285296Y-83118318D02*
X162190645Y-82958069D01*
X162190645Y-82958069D02*
X162179000Y-83312000D01*
X162179000Y-83312000D02*
X165608000Y-83312000D01*
X165608000Y-83312000D02*
X165608000Y-82550000D01*
X165608000Y-82550000D02*
X165334939Y-82730104D01*
G36*
X165608000Y-83312000D02*
G01*
X162179000Y-83312000D01*
X162190645Y-82958069D01*
X162285296Y-83118318D01*
X162922665Y-83119235D01*
X162879669Y-82938987D01*
X163928110Y-82955307D01*
X164077873Y-83119030D01*
X164624635Y-83121856D01*
X164631638Y-82931612D01*
X165334939Y-82730104D01*
X165608000Y-82550000D01*
X165608000Y-83312000D01*
G37*
X165608000Y-83312000D02*
X162179000Y-83312000D01*
X162190645Y-82958069D01*
X162285296Y-83118318D01*
X162922665Y-83119235D01*
X162879669Y-82938987D01*
X163928110Y-82955307D01*
X164077873Y-83119030D01*
X164624635Y-83121856D01*
X164631638Y-82931612D01*
X165334939Y-82730104D01*
X165608000Y-82550000D01*
X165608000Y-83312000D01*
X160401000Y-81280000D02*
X161585088Y-81216959D01*
X161585088Y-81216959D02*
X161741403Y-81064344D01*
X161741403Y-81064344D02*
X161702170Y-80956167D01*
X161702170Y-80956167D02*
X161798000Y-80899000D01*
X161798000Y-80899000D02*
X161923346Y-80806396D01*
X161923346Y-80806396D02*
X161925396Y-80688390D01*
X161925396Y-80688390D02*
X162219436Y-80581753D01*
X162219436Y-80581753D02*
X162238288Y-80479878D01*
X162238288Y-80479878D02*
X162515219Y-80428885D01*
X162515219Y-80428885D02*
X162533060Y-80358491D01*
X162533060Y-80358491D02*
X162890587Y-80328987D01*
X162890587Y-80328987D02*
X162915116Y-80244303D01*
X162915116Y-80244303D02*
X163199744Y-80314516D01*
X163199744Y-80314516D02*
X163255395Y-80266439D01*
X163255395Y-80266439D02*
X163540880Y-80347885D01*
X163540880Y-80347885D02*
X163590801Y-80280257D01*
X163590801Y-80280257D02*
X163866272Y-80419657D01*
X163866272Y-80419657D02*
X163943439Y-80354059D01*
X163943439Y-80354059D02*
X164170072Y-80496130D01*
X164170072Y-80496130D02*
X164213754Y-80411232D01*
X164213754Y-80411232D02*
X164478660Y-80648797D01*
X164478660Y-80648797D02*
X164578452Y-80576662D01*
X164578452Y-80576662D02*
X164717489Y-80750863D01*
X164717489Y-80750863D02*
X164836697Y-80722740D01*
X164836697Y-80722740D02*
X164878237Y-80826406D01*
X164878237Y-80826406D02*
X164976467Y-80851701D01*
X164976467Y-80851701D02*
X164976467Y-80137000D01*
X164976467Y-80137000D02*
X160401000Y-80137000D01*
X160401000Y-80137000D02*
X160401000Y-81280000D01*
G36*
X164976467Y-80851701D02*
G01*
X164878237Y-80826406D01*
X164836697Y-80722740D01*
X164717489Y-80750863D01*
X164578452Y-80576662D01*
X164478660Y-80648797D01*
X164213754Y-80411232D01*
X164170072Y-80496130D01*
X163943439Y-80354059D01*
X163866272Y-80419657D01*
X163590801Y-80280257D01*
X163540880Y-80347885D01*
X163255395Y-80266439D01*
X163199744Y-80314516D01*
X162915116Y-80244303D01*
X162890587Y-80328987D01*
X162533060Y-80358491D01*
X162515219Y-80428885D01*
X162238288Y-80479878D01*
X162219436Y-80581753D01*
X161925396Y-80688390D01*
X161923346Y-80806396D01*
X161798000Y-80899000D01*
X161702170Y-80956167D01*
X161741403Y-81064344D01*
X161585088Y-81216959D01*
X160401000Y-81280000D01*
X160401000Y-80137000D01*
X164976467Y-80137000D01*
X164976467Y-80851701D01*
G37*
X164976467Y-80851701D02*
X164878237Y-80826406D01*
X164836697Y-80722740D01*
X164717489Y-80750863D01*
X164578452Y-80576662D01*
X164478660Y-80648797D01*
X164213754Y-80411232D01*
X164170072Y-80496130D01*
X163943439Y-80354059D01*
X163866272Y-80419657D01*
X163590801Y-80280257D01*
X163540880Y-80347885D01*
X163255395Y-80266439D01*
X163199744Y-80314516D01*
X162915116Y-80244303D01*
X162890587Y-80328987D01*
X162533060Y-80358491D01*
X162515219Y-80428885D01*
X162238288Y-80479878D01*
X162219436Y-80581753D01*
X161925396Y-80688390D01*
X161923346Y-80806396D01*
X161798000Y-80899000D01*
X161702170Y-80956167D01*
X161741403Y-81064344D01*
X161585088Y-81216959D01*
X160401000Y-81280000D01*
X160401000Y-80137000D01*
X164976467Y-80137000D01*
X164976467Y-80851701D01*
D14*
X147497000Y-86303000D02*
X145172000Y-86303000D01*
X147497000Y-85453000D02*
X147497000Y-86303000D01*
X135327000Y-81083000D02*
X135327000Y-81933000D01*
X145172000Y-86303000D02*
X145172000Y-88693000D01*
X135327000Y-86303000D02*
X137652000Y-86303000D01*
X135327000Y-85453000D02*
X135327000Y-86303000D01*
X147497000Y-81933000D02*
X147497000Y-81083000D01*
X147497000Y-81083000D02*
X135327000Y-81083000D01*
X145401420Y-92204000D02*
X145682580Y-92204000D01*
X145401420Y-91184000D02*
X145682580Y-91184000D01*
X144926164Y-92604000D02*
X145141836Y-92604000D01*
X144926164Y-93324000D02*
X145141836Y-93324000D01*
X142012641Y-90169000D02*
X141705359Y-90169000D01*
X142012641Y-89409000D02*
X141705359Y-89409000D01*
X145401420Y-90680000D02*
X145682580Y-90680000D01*
X145401420Y-89660000D02*
X145682580Y-89660000D01*
M02*
