M48
; DRILL file {KiCad (6.0.0)} date Sat Apr 16 23:03:07 2022
; FORMAT={-:-/ absolute / metric / decimal}
; #@! TF.CreationDate,2022-04-16T23:03:07-07:00
; #@! TF.GenerationSoftware,Kicad,Pcbnew,(6.0.0)
; #@! TF.FileFunction,Plated,1,2,PTH
FMAT,2
METRIC
; #@! TA.AperFunction,Plated,PTH,ViaDrill
T1C0.300
%
G90
G05
T1
X129.286Y-87.249
X129.286Y-93.599
X129.413Y-99.949
X130.937Y-97.79
X131.064Y-88.011
X133.096Y-100.711
X133.858Y-109.601
X134.239Y-84.709
X135.382Y-93.345
X135.382Y-99.695
X135.509Y-105.537
X136.652Y-88.9
X137.287Y-82.55
X137.541Y-86.614
X137.922Y-94.361
X138.049Y-100.711
X138.049Y-107.061
X142.748Y-99.822
X142.875Y-92.329
X142.875Y-106.045
X143.002Y-112.014
X143.256Y-93.345
X143.383Y-86.487
X143.383Y-94.615
X143.764Y-101.6
X143.764Y-107.95
X145.034Y-99.187
X145.034Y-112.141
X145.161Y-82.55
X145.161Y-105.664
X145.542Y-94.361
X145.691Y-88.011
X146.177Y-86.487
X150.368Y-99.822
X150.495Y-93.345
X150.495Y-106.045
X150.622Y-86.487
X150.622Y-112.014
X152.781Y-82.55
X153.162Y-88.011
X153.162Y-94.234
X153.162Y-100.711
X153.162Y-107.188
X158.115Y-93.345
X158.115Y-99.695
X158.115Y-106.045
X158.242Y-86.487
X158.242Y-112.014
X160.147Y-82.55
X160.655Y-88.011
X160.655Y-100.711
X160.655Y-107.061
X160.782Y-94.361
X165.608Y-93.345
X165.608Y-99.695
X165.608Y-106.045
X165.735Y-86.487
X165.735Y-112.014
X166.116Y-88.9
X166.497Y-95.25
X167.386Y-81.915
X168.231Y-100.838
X168.275Y-88.011
X168.275Y-91.186
X168.656Y-104.14
X168.783Y-94.361
X172.593Y-106.172
X172.867Y-92.348
X172.904Y-99.75
T0
M30
